<svg width="54" height="54" viewBox="0 0 54 54" fill="none" xmlns="http://www.w3.org/2000/svg">
<g id="Bronze award">
<rect x="0.5" y="0.5" width="53" height="53" rx="26.5" stroke="#CFDCE9"/>
<g id="Group 1000002826">
<path id="Vector" d="M43.2702 31.8126L28.4668 42.674C27.8743 43.1087 27.0699 43.1087 26.4774 42.674L11.674 31.8126C11.4427 31.6439 11.3086 31.3758 11.3086 31.0903V11.8974C11.3086 11.4022 11.7108 11 12.206 11H42.7404C43.2356 11 43.6378 11.4022 43.6378 11.8974V31.0903C43.6378 31.3758 43.5016 31.6439 43.2724 31.8126H43.2702Z" fill="#3C92FF"/>
<g id="Vector_2" filter="url(#filter0_d_870_3996)">
<path d="M43.2702 31.8126L28.4668 42.674C27.8743 43.1087 27.0699 43.1087 26.4774 42.674L11.674 31.8126C11.4427 31.6439 11.3086 31.3758 11.3086 31.0903V11.8974C11.3086 11.4022 11.7108 11 12.206 11H42.7404C43.2356 11 43.6378 11.4022 43.6378 11.8974V31.0903C43.6378 31.3758 43.5016 31.6439 43.2724 31.8126H43.2702Z" fill="#E8EFFF"/>
</g>
<path id="Vector_3" d="M41.4109 31.259L28.4693 40.7561C27.8768 41.1907 27.0724 41.1907 26.4799 40.7561L13.5383 31.259C13.3069 31.0904 13.1729 30.8222 13.1729 30.5368V13.3505C13.1729 12.8553 13.575 12.4531 14.0702 12.4531H40.8833C41.3785 12.4531 41.7807 12.8553 41.7807 13.3505V30.5368C41.7807 30.8222 41.6444 31.0904 41.4152 31.259H41.4109Z" fill="#220D50"/>
<path id="Vector_4" d="M27.4342 40.048C27.0947 40.048 26.7532 39.9428 26.4625 39.7303L14.1766 30.7897C13.9475 30.6235 13.8096 30.3541 13.8096 30.0722V13.8934C13.8096 13.4031 14.2127 13.0033 14.707 13.0033H40.1572C40.6515 13.0033 41.0546 13.4031 41.0546 13.8934V30.0722C41.0546 30.3541 40.9167 30.6235 40.6876 30.7897L28.4016 39.7303C28.111 39.9428 27.7715 40.048 27.43 40.048H27.4342ZM14.7091 13.0938C14.2657 13.0938 13.9029 13.4515 13.9029 13.8934V30.0722C13.9029 30.3247 14.026 30.5667 14.2318 30.7161L26.5177 39.6566C27.0672 40.0564 27.8033 40.0564 28.3528 39.6566L40.6388 30.7161C40.8445 30.5667 40.9676 30.3247 40.9676 30.0722V13.8934C40.9676 13.4536 40.6069 13.0938 40.1614 13.0938H14.7112H14.7091Z" fill="#C1FF72" stroke="#C1FF72" stroke-width="0.5"/>
<g id="Group 1000002822">
<path id="Vector_5" d="M20.2874 32.666L20.406 33.0322C20.4124 33.0499 20.4288 33.0625 20.4477 33.0625H20.8315C20.8732 33.0625 20.8909 33.1168 20.8568 33.1408L20.5462 33.3668C20.531 33.3781 20.5247 33.3971 20.531 33.4148L20.6497 33.7809C20.6623 33.8213 20.6169 33.8541 20.5828 33.8289L20.2722 33.6029C20.2571 33.5915 20.2369 33.5915 20.2217 33.6029L19.9111 33.8289C19.877 33.8541 19.8316 33.82 19.8442 33.7809L19.9629 33.4148C19.9692 33.3971 19.9629 33.3769 19.9477 33.3668L19.6371 33.1408C19.603 33.1155 19.6207 33.0625 19.6624 33.0625H20.0462C20.0651 33.0625 20.0816 33.0499 20.0879 33.0322L20.2066 32.666C20.2192 32.6256 20.276 32.6256 20.2886 32.666H20.2874Z" fill="#C1FF72"/>
<path id="Vector_6" d="M22.6917 34.2687L22.8103 34.6349C22.8167 34.6525 22.8331 34.6652 22.852 34.6652H23.2358C23.2775 34.6652 23.2952 34.7194 23.2611 34.7434L22.9505 34.9694C22.9353 34.9808 22.929 34.9997 22.9353 35.0174L23.054 35.3836C23.0666 35.424 23.0212 35.4568 22.9871 35.4315L22.6765 35.2055C22.6614 35.1942 22.6412 35.1942 22.626 35.2055L22.3154 35.4315C22.2813 35.4568 22.2359 35.4227 22.2485 35.3836L22.3672 35.0174C22.3735 34.9997 22.3672 34.9795 22.352 34.9694L22.0414 34.7434C22.0073 34.7182 22.025 34.6652 22.0667 34.6652H22.4505C22.4694 34.6652 22.4859 34.6525 22.4922 34.6349L22.6109 34.2687C22.6235 34.2283 22.6803 34.2283 22.6929 34.2687H22.6917Z" fill="#C1FF72"/>
<path id="Vector_7" d="M25.095 36.0717L25.2137 36.4378C25.22 36.4555 25.2364 36.4681 25.2553 36.4681H25.6392C25.6808 36.4681 25.6985 36.5224 25.6644 36.5464L25.3538 36.7724C25.3387 36.7838 25.3323 36.8027 25.3387 36.8204L25.4573 37.1865C25.47 37.2269 25.4245 37.2598 25.3904 37.2345L25.0798 37.0085C25.0647 36.9972 25.0445 36.9972 25.0293 37.0085L24.7187 37.2345C24.6846 37.2598 24.6392 37.2257 24.6518 37.1865L24.7705 36.8204C24.7768 36.8027 24.7705 36.7825 24.7553 36.7724L24.4447 36.5464C24.4107 36.5212 24.4283 36.4681 24.47 36.4681H24.8538C24.8728 36.4681 24.8892 36.4555 24.8955 36.4378L25.0142 36.0717C25.0268 36.0313 25.0836 36.0313 25.0962 36.0717H25.095Z" fill="#C1FF72"/>
</g>
<g id="Group 1000002823">
<path id="Vector_8" d="M34.4304 32.666L34.3117 33.0322C34.3054 33.0499 34.289 33.0625 34.2701 33.0625H33.8862C33.8446 33.0625 33.8269 33.1168 33.861 33.1408L34.1716 33.3668C34.1867 33.3781 34.193 33.3971 34.1867 33.4148L34.0681 33.7809C34.0554 33.8213 34.1009 33.8541 34.135 33.8289L34.4456 33.6029C34.4607 33.5915 34.4809 33.5915 34.4961 33.6029L34.8067 33.8289C34.8408 33.8541 34.8862 33.82 34.8736 33.7809L34.7549 33.4148C34.7486 33.3971 34.7549 33.3769 34.77 33.3668L35.0806 33.1408C35.1147 33.1155 35.0971 33.0625 35.0554 33.0625H34.6716C34.6526 33.0625 34.6362 33.0499 34.6299 33.0322L34.5112 32.666C34.4986 32.6256 34.4418 32.6256 34.4292 32.666H34.4304Z" fill="#C1FF72"/>
<path id="Vector_9" d="M32.0261 34.2687L31.9074 34.6349C31.9011 34.6525 31.8847 34.6652 31.8658 34.6652H31.4819C31.4403 34.6652 31.4226 34.7194 31.4567 34.7434L31.7673 34.9694C31.7824 34.9808 31.7887 34.9997 31.7824 35.0174L31.6638 35.3836C31.6511 35.424 31.6966 35.4568 31.7307 35.4315L32.0413 35.2055C32.0564 35.1942 32.0766 35.1942 32.0918 35.2055L32.4024 35.4315C32.4365 35.4568 32.4819 35.4227 32.4693 35.3836L32.3506 35.0174C32.3443 34.9997 32.3506 34.9795 32.3658 34.9694L32.6763 34.7434C32.7104 34.7182 32.6928 34.6652 32.6511 34.6652H32.2673C32.2483 34.6652 32.2319 34.6525 32.2256 34.6349L32.1069 34.2687C32.0943 34.2283 32.0375 34.2283 32.0249 34.2687H32.0261Z" fill="#C1FF72"/>
<path id="Vector_10" d="M29.6228 36.0717L29.5041 36.4378C29.4978 36.4555 29.4814 36.4681 29.4624 36.4681H29.0786C29.037 36.4681 29.0193 36.5224 29.0534 36.5464L29.364 36.7724C29.3791 36.7838 29.3854 36.8027 29.3791 36.8204L29.2604 37.1865C29.2478 37.2269 29.2933 37.2598 29.3274 37.2345L29.6379 37.0085C29.6531 36.9972 29.6733 36.9972 29.6885 37.0085L29.999 37.2345C30.0331 37.2598 30.0786 37.2257 30.066 37.1865L29.9473 36.8204C29.941 36.8027 29.9473 36.7825 29.9624 36.7724L30.273 36.5464C30.3071 36.5212 30.2894 36.4681 30.2478 36.4681H29.8639C29.845 36.4681 29.8286 36.4555 29.8223 36.4378L29.7036 36.0717C29.691 36.0313 29.6342 36.0313 29.6215 36.0717H29.6228Z" fill="#C1FF72"/>
</g>
<g id="Group">
<path id="Vector_11" d="M29.406 21.9561H25.8141C25.4971 21.9561 25.2393 21.6983 25.2393 21.3812V17.7893C25.2393 17.4723 25.4971 17.2145 25.8141 17.2145H29.406C29.723 17.2145 29.9808 17.4723 29.9808 17.7893V21.3812C29.9808 21.6983 29.723 21.9561 29.406 21.9561ZM25.8141 17.3808C25.5894 17.3808 25.4065 17.5637 25.4065 17.7885V21.3804C25.4065 21.6051 25.5894 21.788 25.8141 21.788H29.406C29.6307 21.788 29.8136 21.6051 29.8136 21.3804V17.7885C29.8136 17.5637 29.6307 17.3808 29.406 17.3808H25.8141ZM28.5673 20.8464H26.6537C26.53 20.8464 26.4299 20.7463 26.4299 20.6226C26.4299 20.4989 26.53 20.3988 26.6537 20.3988H28.5673C28.6909 20.3988 28.7911 20.4989 28.7911 20.6226C28.7911 20.7463 28.6909 20.8464 28.5673 20.8464ZM26.6537 20.5651C26.6224 20.5651 26.5971 20.5904 26.5971 20.6217C26.5971 20.6531 26.6232 20.6783 26.6537 20.6783H28.5673C28.5977 20.6783 28.6239 20.6522 28.6239 20.6217C28.6239 20.5913 28.5977 20.5651 28.5673 20.5651H26.6537ZM28.9217 19.3902H28.4932C28.3295 19.3902 28.1971 19.2569 28.1971 19.094V18.6655C28.1971 18.5018 28.3303 18.3694 28.4932 18.3694H28.9217C29.0855 18.3694 29.2179 18.5027 29.2179 18.6655V19.094C29.2179 19.2578 29.0846 19.3902 28.9217 19.3902ZM28.4932 18.5357C28.4218 18.5357 28.3643 18.5941 28.3643 18.6647V19.0932C28.3643 19.1646 28.4227 19.2221 28.4932 19.2221H28.9217C28.9932 19.2221 29.0506 19.1637 29.0506 19.0932V18.6647C29.0506 18.5932 28.9923 18.5357 28.9217 18.5357H28.4932ZM26.7269 19.3902H26.2984C26.1346 19.3902 26.0022 19.2569 26.0022 19.094V18.6655C26.0022 18.5018 26.1355 18.3694 26.2984 18.3694H26.7269C26.8906 18.3694 27.023 18.5027 27.023 18.6655V19.094C27.023 19.2578 26.8898 19.3902 26.7269 19.3902ZM26.2984 18.5357C26.2269 18.5357 26.1695 18.5941 26.1695 18.6647V19.0932C26.1695 19.1646 26.2278 19.2221 26.2984 19.2221H26.7269C26.7983 19.2221 26.8558 19.1637 26.8558 19.0932V18.6647C26.8558 18.5932 26.7974 18.5357 26.7269 18.5357H26.2984Z" fill="#C1FF72"/>
<g id="Group_2">
<path id="Vector_12" d="M29.8087 17.1369L29.0222 16.7833C28.8672 16.8295 28.7043 16.853 28.5354 16.853C28.3072 16.853 28.0833 16.8086 27.8873 16.725H27.8847C27.8778 16.7206 27.7158 16.6457 27.6348 16.5865L27.7332 16.4515C27.7889 16.4924 27.9109 16.5516 27.9544 16.5725C28.1295 16.6474 28.3298 16.6866 28.5354 16.6866C28.6974 16.6866 28.8541 16.6623 29.0013 16.6152L29.0318 16.6056L29.4708 16.8034L29.3166 16.4663L29.3689 16.4253C29.5518 16.2825 29.6528 16.0987 29.6528 15.9089C29.6528 15.6484 29.395 15.3114 29.0109 15.2243L29.0475 15.0614C29.4734 15.1581 29.82 15.5378 29.82 15.9089C29.82 16.1327 29.7147 16.3452 29.523 16.5151L29.8087 17.1387V17.1369Z" fill="#C1FF72"/>
<path id="Vector_13" d="M25.5736 16.9994L25.9516 16.172C25.6729 15.9342 25.5205 15.6337 25.5205 15.3176C25.5205 14.5938 26.3262 14.005 27.3165 14.005C28.3068 14.005 29.1124 14.5938 29.1124 15.3176C29.1124 16.0413 28.3068 16.6301 27.3165 16.6301C27.0752 16.6301 26.8418 16.5962 26.6205 16.5282L25.5736 16.9994ZM27.3165 14.1731C26.4185 14.1731 25.6877 14.687 25.6877 15.3184C25.6877 15.6006 25.8367 15.8715 26.1058 16.0831L26.1581 16.1241L25.9107 16.665L26.6101 16.3505L26.6406 16.3601C26.854 16.4289 27.0813 16.4638 27.3165 16.4638C28.2144 16.4638 28.9452 15.9499 28.9452 15.3184C28.9452 14.687 28.2144 14.1731 27.3165 14.1731ZM28.0106 15.5484C27.8756 15.5484 27.765 15.4386 27.765 15.3028C27.765 15.1669 27.8748 15.0571 28.0106 15.0571C28.1465 15.0571 28.2562 15.1669 28.2562 15.3028C28.2562 15.4386 28.1465 15.5484 28.0106 15.5484ZM28.0106 15.2252C27.9679 15.2252 27.9322 15.2601 27.9322 15.3036C27.9322 15.3472 27.9671 15.382 28.0106 15.382C28.0542 15.382 28.089 15.3472 28.089 15.3036C28.089 15.2601 28.0542 15.2252 28.0106 15.2252ZM27.3165 15.5484C27.1815 15.5484 27.0708 15.4386 27.0708 15.3028C27.0708 15.1669 27.1806 15.0571 27.3165 15.0571C27.4523 15.0571 27.5621 15.1669 27.5621 15.3028C27.5621 15.4386 27.4523 15.5484 27.3165 15.5484ZM27.3165 15.2252C27.2738 15.2252 27.2381 15.2601 27.2381 15.3036C27.2381 15.3472 27.2729 15.382 27.3165 15.382C27.36 15.382 27.3948 15.3472 27.3948 15.3036C27.3948 15.2601 27.36 15.2252 27.3165 15.2252ZM26.6223 15.5484C26.4873 15.5484 26.3767 15.4386 26.3767 15.3028C26.3767 15.1669 26.4864 15.0571 26.6223 15.0571C26.7582 15.0571 26.8679 15.1669 26.8679 15.3028C26.8679 15.4386 26.7582 15.5484 26.6223 15.5484ZM26.6223 15.2252C26.5796 15.2252 26.5439 15.2601 26.5439 15.3036C26.5439 15.3472 26.5787 15.382 26.6223 15.382C26.6658 15.382 26.7007 15.3472 26.7007 15.3036C26.7007 15.2601 26.6658 15.2252 26.6223 15.2252Z" fill="#C1FF72"/>
</g>
<path id="Vector_14" d="M25.2841 20.9022C24.5908 20.9022 24.0264 20.3378 24.0264 19.6445C24.0264 18.9512 24.5908 18.3868 25.2841 18.3868V18.5541C24.6822 18.5541 24.1936 19.0436 24.1936 19.6445C24.1936 20.2455 24.6831 20.735 25.2841 20.735V20.9022Z" fill="#C1FF72"/>
<path id="Vector_15" d="M24.734 16.6772C24.5328 16.6772 24.3682 16.5134 24.3682 16.3114C24.3682 16.1093 24.5319 15.9456 24.734 15.9456C24.936 15.9456 25.0998 16.1093 25.0998 16.3114C25.0998 16.5134 24.936 16.6772 24.734 16.6772ZM24.734 16.1137C24.6242 16.1137 24.5354 16.2025 24.5354 16.3122C24.5354 16.422 24.6242 16.5108 24.734 16.5108C24.8437 16.5108 24.9326 16.422 24.9326 16.3122C24.9326 16.2025 24.8437 16.1137 24.734 16.1137Z" fill="#C1FF72"/>
<path id="Vector_16" d="M24.8176 16.5935H24.6504V18.6272H24.8176V16.5935Z" fill="#C1FF72"/>
<path id="Vector_17" d="M29.8994 20.9022V20.735C30.5013 20.735 30.9899 20.2455 30.9899 19.6445C30.9899 19.0436 30.5004 18.5541 29.8994 18.5541V18.3868C30.5927 18.3868 31.1571 18.9512 31.1571 19.6445C31.1571 20.3378 30.5927 20.9022 29.8994 20.9022Z" fill="#C1FF72"/>
<path id="Vector_18" d="M30.4498 16.6772C30.2486 16.6772 30.084 16.5134 30.084 16.3114C30.084 16.1093 30.2477 15.9456 30.4498 15.9456C30.6519 15.9456 30.8156 16.1093 30.8156 16.3114C30.8156 16.5134 30.6519 16.6772 30.4498 16.6772ZM30.4498 16.1137C30.3401 16.1137 30.2512 16.2025 30.2512 16.3122C30.2512 16.422 30.3401 16.5108 30.4498 16.5108C30.5595 16.5108 30.6484 16.422 30.6484 16.3122C30.6484 16.2025 30.5595 16.1137 30.4498 16.1137Z" fill="#C1FF72"/>
<path id="Vector_19" d="M30.5334 16.5935H30.3662V18.6272H30.5334V16.5935Z" fill="#C1FF72"/>
</g>
<path id="Vector_20" d="M15.0117 18.5485V20.4236L16.6344 21.3612L18.2571 20.4236V18.5485L16.6344 17.611L15.0117 18.5485ZM18.1529 20.3615L16.6344 21.239L15.1159 20.3615V18.6086L16.6344 17.7312L18.1529 18.6086V20.3615Z" fill="#51F0FF"/>
<path id="Vector_21" d="M37.0479 14.7422V16.6173L38.6705 17.5549L40.2932 16.6173V14.7422L38.6705 13.8047L37.0479 14.7422ZM40.189 16.5552L38.6705 17.4327L37.152 16.5552V14.8023L38.6705 13.9249L40.189 14.8023V16.5552Z" fill="#51F0FF"/>
<path id="Vector_22" d="M16.6342 22.0342L16.6242 22.0282L15.5664 21.4172V20.1832L15.5764 20.1772L16.6342 19.5662L16.6442 19.5722L17.7019 20.1832V21.4172L17.6919 21.4232L16.6342 22.0342ZM15.6085 21.3932L16.6342 21.9842L17.6599 21.3932V20.2092L16.6342 19.6183L15.6085 20.2092V21.3932Z" fill="white"/>
<path id="Vector_23" d="M38.6703 18.228L38.6603 18.222L37.6025 17.6109V16.3769L37.6126 16.3709L38.6703 15.7599L38.6803 15.7659L39.7381 16.3769V17.6109L39.7281 17.617L38.6703 18.228ZM37.6446 17.5869L38.6703 18.1779L39.696 17.5869V16.403L38.6703 15.812L37.6446 16.403V17.5869Z" fill="white"/>
<g id="Group 1000002824">
<path id="Vector_24" d="M37.1503 24.0197V23.8256C37.2723 23.8256 37.3961 23.8146 37.5163 23.7942L37.5495 23.9846C37.4183 24.0086 37.2834 24.0197 37.1503 24.0197ZM36.7511 23.9864C36.6199 23.9643 36.4887 23.9291 36.363 23.8829L36.4295 23.7C36.5441 23.7425 36.6642 23.7739 36.7844 23.7942L36.7511 23.9846V23.9864ZM37.9377 23.8811L37.8711 23.7C37.9857 23.6575 38.0985 23.6057 38.2038 23.5447L38.3018 23.7129C38.1853 23.7794 38.0633 23.8367 37.9377 23.8829V23.8811ZM35.9989 23.7129C35.8824 23.6464 35.7716 23.5687 35.6699 23.4819L35.7937 23.334C35.888 23.4116 35.9878 23.4837 36.095 23.5447L35.9989 23.7129ZM38.6289 23.48L38.5051 23.3322C38.5993 23.2527 38.6862 23.1658 38.7657 23.0716L38.9135 23.1954C38.8285 23.2971 38.7324 23.3932 38.6308 23.4782L38.6289 23.48ZM35.3853 23.1991C35.2984 23.0974 35.2208 22.9866 35.1543 22.872L35.3224 22.774C35.3834 22.8794 35.4555 22.981 35.5331 23.0734L35.3853 23.1991ZM39.1427 22.8664L38.9745 22.7703C39.0355 22.6631 39.0891 22.5522 39.1298 22.4376L39.3127 22.5042C39.2665 22.6298 39.2092 22.7518 39.1427 22.8683V22.8664ZM34.9842 22.5079C34.938 22.3822 34.9029 22.2528 34.8807 22.1197L35.0711 22.0865C35.0933 22.2066 35.1247 22.3267 35.1672 22.4413L34.9861 22.5079H34.9842ZM39.4162 22.116L39.2259 22.0828C39.2462 21.9626 39.2573 21.8388 39.2573 21.7168L39.4514 21.7076V21.7168C39.4514 21.8517 39.4403 21.9848 39.4162 22.116ZM34.8456 21.7205V21.7168C34.8456 21.5838 34.8567 21.4525 34.8789 21.3232L35.0692 21.3564C35.0489 21.4747 35.0378 21.5967 35.0378 21.7187L34.8438 21.7224L34.8456 21.7205ZM39.224 21.3416C39.2019 21.2215 39.1704 21.1014 39.1279 20.9868L39.3091 20.9202C39.3553 21.0459 39.3904 21.1753 39.4144 21.3065L39.224 21.3416ZM35.1635 20.9997L34.9805 20.9332C35.0267 20.8075 35.0822 20.6855 35.1487 20.5691L35.3169 20.6652C35.2559 20.7705 35.2042 20.8833 35.1616 20.9979L35.1635 20.9997ZM38.9708 20.6559C38.908 20.5506 38.8378 20.4489 38.7583 20.3565L38.9061 20.2309C38.993 20.3325 39.0706 20.4434 39.1372 20.558L38.969 20.6559H38.9708ZM35.5294 20.3658L35.3816 20.2419C35.4666 20.1403 35.5627 20.0442 35.6644 19.9573L35.79 20.1052C35.6958 20.1846 35.6089 20.2715 35.5313 20.3658H35.5294ZM38.4977 20.0959C38.4034 20.0183 38.3018 19.9462 38.1964 19.8852L38.2925 19.717C38.409 19.7836 38.5199 19.8612 38.6215 19.9462L38.4977 20.0941V20.0959ZM36.0876 19.8926L35.9896 19.7244C36.1042 19.6561 36.2281 19.6006 36.3519 19.5544L36.4184 19.7355C36.3038 19.778 36.1911 19.8298 36.0858 19.8926H36.0876ZM37.8619 19.7318C37.7473 19.6912 37.629 19.6579 37.507 19.6376L37.5403 19.4472C37.6734 19.4694 37.8028 19.5045 37.9284 19.5489L37.8619 19.7318ZM36.7751 19.6394L36.7419 19.4491C36.8731 19.4269 37.0062 19.4139 37.1411 19.4139V19.608C37.0191 19.608 36.8953 19.6191 36.7751 19.6413V19.6394Z" fill="#BF00FF"/>
<path id="Vector_25" d="M27.3339 34.2365V34.0424C27.4559 34.0424 27.5797 34.0314 27.6999 34.011L27.7331 34.2014C27.6019 34.2254 27.467 34.2365 27.3339 34.2365ZM26.9347 34.2032C26.8035 34.1811 26.6723 34.1459 26.5466 34.0997L26.6131 33.9168C26.7277 33.9593 26.8478 33.9907 26.968 34.011L26.9347 34.2014V34.2032ZM28.1213 34.0979L28.0547 33.9168C28.1693 33.8743 28.2821 33.8225 28.3874 33.7615L28.4854 33.9297C28.3689 33.9962 28.2469 34.0535 28.1213 34.0997V34.0979ZM26.1825 33.9297C26.066 33.8632 25.9552 33.7855 25.8535 33.6987L25.9773 33.5508C26.0716 33.6284 26.1714 33.7005 26.2786 33.7615L26.1825 33.9297ZM28.8125 33.6968L28.6887 33.549C28.7829 33.4695 28.8698 33.3826 28.9493 33.2884L29.0971 33.4122C29.0121 33.5139 28.916 33.61 28.8143 33.695L28.8125 33.6968ZM25.5689 33.4159C25.482 33.3142 25.4044 33.2033 25.3378 33.0888L25.506 32.9908C25.567 33.0962 25.6391 33.1978 25.7167 33.2902L25.5689 33.4159ZM29.3263 33.0832L29.1581 32.9871C29.2191 32.8799 29.2727 32.769 29.3134 32.6544L29.4963 32.721C29.4501 32.8466 29.3928 32.9686 29.3263 33.0851V33.0832ZM25.1678 32.7247C25.1216 32.599 25.0865 32.4696 25.0643 32.3365L25.2547 32.3033C25.2769 32.4234 25.3083 32.5435 25.3508 32.6581L25.1697 32.7247H25.1678ZM29.5998 32.3328L29.4095 32.2996C29.4298 32.1794 29.4409 32.0556 29.4409 31.9336L29.635 31.9244V31.9336C29.635 32.0685 29.6239 32.2016 29.5998 32.3328ZM25.0292 31.9373V31.9336C25.0292 31.8005 25.0403 31.6693 25.0625 31.5399L25.2528 31.5732C25.2325 31.6915 25.2214 31.8135 25.2214 31.9355L25.0273 31.9392L25.0292 31.9373ZM29.4076 31.5584C29.3854 31.4383 29.354 31.3182 29.3115 31.2036L29.4926 31.137C29.5389 31.2627 29.574 31.3921 29.598 31.5233L29.4076 31.5584ZM25.3471 31.2165L25.1641 31.15C25.2103 31.0243 25.2658 30.9023 25.3323 30.7859L25.5005 30.882C25.4395 30.9873 25.3877 31.1001 25.3452 31.2147L25.3471 31.2165ZM29.1544 30.8727C29.0916 30.7674 29.0213 30.6657 28.9419 30.5733L29.0897 30.4477C29.1766 30.5493 29.2542 30.6602 29.3208 30.7748L29.1526 30.8727H29.1544ZM25.713 30.5826L25.5652 30.4587C25.6502 30.3571 25.7463 30.261 25.848 30.1741L25.9736 30.322C25.8794 30.4014 25.7925 30.4883 25.7149 30.5826H25.713ZM28.6813 30.3127C28.587 30.2351 28.4854 30.163 28.38 30.102L28.4761 29.9338C28.5926 30.0004 28.7035 30.078 28.8051 30.163L28.6813 30.3109V30.3127ZM26.2712 30.1094L26.1732 29.9412C26.2878 29.8729 26.4117 29.8174 26.5355 29.7712L26.602 29.9523C26.4874 29.9948 26.3747 30.0466 26.2693 30.1094H26.2712ZM28.0455 29.9486C27.9309 29.908 27.8126 29.8747 27.6906 29.8544L27.7239 29.664C27.857 29.6862 27.9863 29.7213 28.112 29.7657L28.0455 29.9486ZM26.9587 29.8562L26.9255 29.6659C27.0567 29.6437 27.1898 29.6307 27.3247 29.6307V29.8248C27.2027 29.8248 27.0789 29.8359 26.9587 29.8581V29.8562Z" fill="#BF00FF"/>
<path id="Vector_26" d="M37.8027 21.7168C37.8027 22.0772 37.5107 22.371 37.1484 22.371C36.7862 22.371 36.4941 22.079 36.4941 21.7168C36.4941 21.3545 36.7862 21.0625 37.1484 21.0625C37.5107 21.0625 37.8027 21.3545 37.8027 21.7168Z" fill="#AC69FF"/>
<path id="Vector_27" d="M27.9873 31.9337C27.9873 32.2941 27.6952 32.588 27.333 32.588C26.9707 32.588 26.6787 32.2959 26.6787 31.9337C26.6787 31.5714 26.9707 31.2794 27.333 31.2794C27.6952 31.2794 27.9873 31.5714 27.9873 31.9337Z" fill="#AC69FF"/>
<path id="Vector_28" d="M17.121 14.8596C17.121 15.22 16.829 15.5139 16.4668 15.5139C16.1045 15.5139 15.8125 15.2218 15.8125 14.8596C15.8125 14.4973 16.1045 14.2053 16.4668 14.2053C16.829 14.2053 17.121 14.4973 17.121 14.8596Z" fill="#AC69FF"/>
</g>
<g id="Group 1000002821">
<g id="Vector_29" filter="url(#filter1_d_870_3996)">
<path d="M46.3202 22.8196H8.6241C8.19401 22.8196 7.89236 23.2458 8.03637 23.6506L9.41811 27.5642L8.03637 31.4778C7.89236 31.8846 8.19401 32.3088 8.6241 32.3088H46.3202C46.7503 32.3088 47.052 31.8826 46.908 31.4778L45.5262 27.5642L46.908 23.6506C47.052 23.2438 46.7503 22.8196 46.3202 22.8196Z" fill="#2C1858"/>
</g>
<path id="Vector_30" d="M8.25781 30.851H46.6876L45.5278 27.564L46.4327 24.999H8.51275L9.41769 27.564L8.25781 30.851Z" fill="#F2F6FF"/>
<g id="Group 1000002819">
<path id="Vector_31" d="M17.3473 24.5537H18.1277V23.3685H17.3473C17.2539 23.3685 17.1897 23.4639 17.2247 23.5515L17.394 23.9621L17.2247 24.3727C17.1897 24.4603 17.252 24.5557 17.3473 24.5557V24.5537Z" fill="white"/>
<path id="Vector_32" d="M37.628 23.3705H36.8477V24.5557H37.628C37.7215 24.5557 37.7857 24.4603 37.7507 24.3727L37.5813 23.9621L37.7507 23.5515C37.7857 23.4639 37.7234 23.3685 37.628 23.3685V23.3705Z" fill="white"/>
<g id="INNOVATOR&#226;&#128;&#153;S">
<path d="M19.2178 24.6959V24.4325H19.4542V23.4003H19.2178V23.137H20.0987V23.4003H19.86V24.4325H20.0987V24.6959H19.2178Z" fill="white"/>
<path d="M20.2085 24.6959V24.4325H20.417V23.4003H20.2085V23.137H20.8619L21.4368 24.1098V23.4003H21.234V23.137H21.9333V23.4003H21.7148V24.7071H21.3673L20.6949 23.5516V24.4325H20.891V24.6959H20.2085Z" fill="white"/>
<path d="M22.0263 24.6959V24.4325H22.2348V23.4003H22.0263V23.137H22.6797L23.2547 24.1098V23.4003H23.0518V23.137H23.7511V23.4003H23.5326V24.7071H23.1852L22.5127 23.5516V24.4325H22.7089V24.6959H22.0263Z" fill="white"/>
<path d="M24.762 23.1123C25.031 23.1123 25.2425 23.19 25.3964 23.3454C25.551 23.5008 25.6284 23.6902 25.6284 23.9136C25.6284 24.1378 25.551 24.3276 25.3964 24.483C25.2417 24.6376 25.0303 24.715 24.762 24.715C24.4833 24.715 24.2693 24.6354 24.1199 24.4762C23.9704 24.3163 23.8957 24.1288 23.8957 23.9136C23.8957 23.691 23.9723 23.5019 24.1255 23.3465C24.2794 23.1904 24.4916 23.1123 24.762 23.1123ZM24.762 23.397C24.6425 23.397 24.5409 23.4418 24.4572 23.5315C24.3743 23.6211 24.3328 23.7526 24.3328 23.926C24.3328 24.0791 24.3739 24.2017 24.4561 24.2936C24.5383 24.3855 24.6403 24.4314 24.762 24.4314C24.8816 24.4314 24.9832 24.3866 25.0669 24.2969C25.1506 24.2065 25.1924 24.0765 25.1924 23.9069C25.1924 23.7552 25.1524 23.6323 25.0725 23.5382C24.9925 23.444 24.8891 23.397 24.762 23.397Z" fill="white"/>
<path d="M26.2179 24.706L25.7539 23.4003H25.5678V23.137H26.3636V23.4003H26.1618L26.4241 24.1815L26.6875 23.4003H26.4891V23.137H27.1783V23.4003H26.9889L26.5418 24.706H26.2179Z" fill="white"/>
<path d="M28.6756 24.4325V24.6959H27.9091V24.4325H28.1085L28.0346 24.1647H27.63L27.5471 24.4325H27.7555V24.6959H27.0651V24.4325H27.2579L27.5616 23.4003H27.3543V23.137H28.3719V23.4003H28.1623L28.4896 24.4325H28.6756ZM27.9707 23.936L27.8407 23.4665L27.7006 23.936H27.9707Z" fill="white"/>
<path d="M28.9424 24.6959V24.4325H29.1766V23.4003H28.9424V23.7635H28.6745V23.137H30.0878V23.7635H29.8233V23.4003H29.5823V24.4325H29.8165V24.6959H28.9424Z" fill="white"/>
<path d="M31.0785 23.1123C31.3475 23.1123 31.5589 23.19 31.7128 23.3454C31.8675 23.5008 31.9448 23.6902 31.9448 23.9136C31.9448 24.1378 31.8675 24.3276 31.7128 24.483C31.5582 24.6376 31.3467 24.715 31.0785 24.715C30.7998 24.715 30.5857 24.6354 30.4363 24.4762C30.2869 24.3163 30.2122 24.1288 30.2122 23.9136C30.2122 23.691 30.2887 23.5019 30.4419 23.3465C30.5958 23.1904 30.808 23.1123 31.0785 23.1123ZM31.0785 23.397C30.9589 23.397 30.8573 23.4418 30.7736 23.5315C30.6907 23.6211 30.6492 23.7526 30.6492 23.926C30.6492 24.0791 30.6903 24.2017 30.7725 24.2936C30.8547 24.3855 30.9567 24.4314 31.0785 24.4314C31.198 24.4314 31.2996 24.3866 31.3833 24.2969C31.467 24.2065 31.5088 24.0765 31.5088 23.9069C31.5088 23.7552 31.4689 23.6323 31.3889 23.5382C31.309 23.444 31.2055 23.397 31.0785 23.397Z" fill="white"/>
<path d="M33.738 24.4325V24.6959H33.2628L32.9109 24.0134H32.7327V24.4325H32.9277V24.6959H32.1129V24.4325H32.327V23.4003H32.1129V23.137H33.0532C33.2303 23.137 33.3577 23.1818 33.4354 23.2714C33.5138 23.3604 33.5531 23.4612 33.5531 23.574C33.5531 23.7511 33.463 23.8804 33.283 23.9618L33.5363 24.4325H33.738ZM32.7327 23.7646H32.8717C33.0435 23.7646 33.1294 23.7033 33.1294 23.5808C33.1294 23.5203 33.1096 23.475 33.07 23.4452C33.0312 23.4153 32.9774 23.4003 32.9086 23.4003H32.7327V23.7646Z" fill="white"/>
<path d="M33.9543 23.9271V23.7578C34.0768 23.7459 34.1381 23.6723 34.1381 23.5371V23.5158H33.9543V23.137H34.3286V23.4889C34.3286 23.5972 34.317 23.682 34.2939 23.7433C34.2715 23.8038 34.2311 23.8497 34.1728 23.8811C34.1153 23.9118 34.0425 23.9271 33.9543 23.9271Z" fill="white"/>
<path d="M34.657 24.6959V24.1647H34.9215C34.9245 24.2618 34.9499 24.3335 34.9977 24.3799C35.0455 24.4254 35.1001 24.4482 35.1613 24.4482C35.2091 24.4482 35.2495 24.4318 35.2824 24.3989C35.3152 24.3653 35.3317 24.3261 35.3317 24.2812C35.3317 24.2334 35.3156 24.1934 35.2835 24.1613C35.2514 24.1284 35.1927 24.0911 35.1075 24.0492C34.9275 23.9618 34.8049 23.8849 34.7399 23.8184C34.6757 23.7519 34.6435 23.6622 34.6435 23.5494C34.6435 23.4134 34.6861 23.3081 34.7713 23.2333C34.8565 23.1586 34.9532 23.1213 35.0616 23.1213C35.1856 23.1213 35.2816 23.1695 35.3496 23.2658V23.137H35.613V23.611H35.3496C35.3414 23.5378 35.316 23.4814 35.2734 23.4418C35.2316 23.4015 35.1826 23.3813 35.1266 23.3813C35.0832 23.3813 35.0466 23.3929 35.0167 23.416C34.9869 23.4392 34.9719 23.4694 34.9719 23.5068C34.9719 23.5389 34.9842 23.5696 35.0089 23.5987C35.0336 23.6271 35.1057 23.6678 35.2252 23.7209C35.3403 23.7724 35.4284 23.8191 35.4897 23.861C35.5517 23.902 35.6006 23.9558 35.6365 24.0223C35.6724 24.0881 35.6903 24.1643 35.6903 24.251C35.6903 24.4049 35.6455 24.5207 35.5558 24.5984C35.4662 24.6761 35.3601 24.715 35.2375 24.715C35.1008 24.715 34.9954 24.6645 34.9215 24.5637V24.6959H34.657Z" fill="white"/>
</g>
</g>
<g id="Group 1000002820">
<path id="Vector_33" d="M12.086 26.3438L12.3838 27.2624C12.3993 27.3072 12.4402 27.3383 12.4869 27.3383H13.4522C13.5573 27.3383 13.602 27.4745 13.5164 27.5349L12.7341 28.1031C12.6951 28.1304 12.6796 28.181 12.6951 28.2257L12.9929 29.1443C13.026 29.2455 12.9112 29.3292 12.8255 29.2669L12.0432 28.6986C12.0043 28.6714 11.9537 28.6714 11.9148 28.6986L11.1324 29.2669C11.0468 29.3292 10.932 29.2455 10.9651 29.1443L11.2628 28.2257C11.2784 28.181 11.2628 28.1323 11.2239 28.1031L10.4435 27.5349C10.3579 27.4726 10.4026 27.3383 10.5077 27.3383H11.473C11.5197 27.3383 11.5625 27.3072 11.5761 27.2624L11.8739 26.3438C11.907 26.2426 12.049 26.2426 12.0821 26.3438H12.086Z" fill="#200C4C"/>
<path id="Vector_34" d="M43.0655 26.3438L43.3633 27.2624C43.3769 27.3072 43.4197 27.3383 43.4664 27.3383H44.4317C44.5368 27.3383 44.5815 27.4745 44.4959 27.5349L43.7136 28.1031C43.6746 28.1304 43.6591 28.181 43.6746 28.2257L43.9724 29.1443C44.0055 29.2455 43.8907 29.3292 43.805 29.2669L43.0246 28.6986C42.9857 28.6714 42.9351 28.6714 42.8962 28.6986L42.1139 29.2669C42.0282 29.3292 41.9134 29.2455 41.9465 29.1443L42.2442 28.2257C42.2598 28.181 42.2442 28.1323 42.2053 28.1031L41.423 27.5349C41.3374 27.4726 41.3821 27.3383 41.4872 27.3383H42.4525C42.4992 27.3383 42.542 27.3072 42.5556 27.2624L42.8534 26.3438C42.8865 26.2426 43.0285 26.2426 43.0616 26.3438H43.0655Z" fill="#200C4C"/>
<g id="INSIGNA">
<path d="M14.6104 29.9318V29.2733H15.2015V26.6928H14.6104V26.0344H16.8126V26.6928H16.2158V29.2733H16.8126V29.9318H14.6104Z" fill="#220D50"/>
<path d="M17.0872 29.9318V29.2733H17.6083V26.6928H17.0872V26.0344H18.7206L20.158 28.4664V26.6928H19.6508V26.0344H21.3992V26.6928H20.8528V29.9598H19.9843L18.3032 27.0711V29.2733H18.7935V29.9318H17.0872Z" fill="#220D50"/>
<path d="M21.7494 29.9318V28.6037H22.4107C22.4181 28.8465 22.4816 29.0258 22.6012 29.1417C22.7207 29.2556 22.8571 29.3126 23.0102 29.3126C23.1298 29.3126 23.2307 29.2715 23.3128 29.1893C23.395 29.1052 23.4361 29.0072 23.4361 28.8951C23.4361 28.7755 23.396 28.6756 23.3156 28.5953C23.2353 28.5131 23.0887 28.4197 22.8758 28.3151C22.4256 28.0966 22.1193 27.9042 21.9568 27.7379C21.7961 27.5717 21.7158 27.3475 21.7158 27.0655C21.7158 26.7255 21.8223 26.4622 22.0352 26.2754C22.2481 26.0886 22.49 25.9952 22.7609 25.9952C23.0709 25.9952 23.311 26.1157 23.481 26.3566V26.0344H24.1394V27.2196H23.481C23.4604 27.0365 23.3969 26.8955 23.2904 26.7965C23.1858 26.6957 23.0635 26.6452 22.9234 26.6452C22.815 26.6452 22.7235 26.6742 22.6488 26.7321C22.5741 26.79 22.5367 26.8656 22.5367 26.959C22.5367 27.0393 22.5676 27.1159 22.6292 27.1888C22.6908 27.2598 22.8711 27.3616 23.1699 27.4942C23.4576 27.6231 23.678 27.7398 23.8312 27.8444C23.9862 27.9471 24.1086 28.0816 24.1982 28.2479C24.2879 28.4122 24.3327 28.6028 24.3327 28.8194C24.3327 29.2042 24.2206 29.4937 23.9965 29.688C23.7723 29.8823 23.5071 29.9794 23.2008 29.9794C22.8589 29.9794 22.5956 29.8533 22.4107 29.6012V29.9318H21.7494Z" fill="#220D50"/>
<path d="M24.6521 29.9318V29.2733H25.2433V26.6928H24.6521V26.0344H26.8544V26.6928H26.2576V29.2733H26.8544V29.9318H24.6521Z" fill="#220D50"/>
<path d="M29.7262 28.6233V27.9649H31.553C31.553 28.4375 31.4671 28.812 31.2953 29.0884C31.1253 29.3649 30.8769 29.5825 30.55 29.7412C30.225 29.9 29.8598 29.9794 29.4545 29.9794C28.7503 29.9794 28.2095 29.7907 27.8322 29.4134C27.4568 29.0361 27.269 28.557 27.269 27.9761C27.269 27.5726 27.3624 27.2168 27.5492 26.9086C27.736 26.5985 27.9872 26.365 28.3029 26.2081C28.6186 26.0512 28.9613 25.9728 29.3312 25.9728C29.8542 25.9728 30.2614 26.0998 30.5528 26.3538V26.0344H31.214V27.4185H30.5528C30.4837 27.185 30.3464 27.0011 30.1409 26.8666C29.9354 26.7321 29.715 26.6648 29.4797 26.6648C29.1696 26.6648 28.9053 26.775 28.6868 26.9954C28.4682 27.214 28.3589 27.5175 28.3589 27.906C28.3589 28.3506 28.4701 28.6896 28.6924 28.9231C28.9146 29.1547 29.1855 29.2705 29.5049 29.2705C29.7402 29.2705 29.9354 29.2136 30.0905 29.0996C30.2455 28.9857 30.3529 28.8269 30.4127 28.6233H29.7262Z" fill="#220D50"/>
<path d="M31.9761 29.9318V29.2733H32.4972V26.6928H31.9761V26.0344H33.6096L35.0469 28.4664V26.6928H34.5398V26.0344H36.2881V26.6928H35.7418V29.9598H34.8732L33.1921 27.0711V29.2733H33.6824V29.9318H31.9761Z" fill="#220D50"/>
<path d="M40.2891 29.2733V29.9318H38.3727V29.2733H38.8714L38.6865 28.6037H37.675L37.4677 29.2733H37.9888V29.9318H36.2629V29.2733H36.7448L37.5041 26.6928H36.9858V26.0344H39.5298V26.6928H39.0059L39.824 29.2733H40.2891ZM38.5268 28.0321L38.2018 26.8582L37.8515 28.0321H38.5268Z" fill="#220D50"/>
</g>
</g>
</g>
</g>
</g>
<defs>
<filter id="filter0_d_870_3996" x="7.30859" y="11" width="40.3291" height="40" filterUnits="userSpaceOnUse" color-interpolation-filters="sRGB">
<feFlood flood-opacity="0" result="BackgroundImageFix"/>
<feColorMatrix in="SourceAlpha" type="matrix" values="0 0 0 0 0 0 0 0 0 0 0 0 0 0 0 0 0 0 127 0" result="hardAlpha"/>
<feOffset dy="4"/>
<feGaussianBlur stdDeviation="2"/>
<feComposite in2="hardAlpha" operator="out"/>
<feColorMatrix type="matrix" values="0 0 0 0 0 0 0 0 0 0 0 0 0 0 0 0 0 0 0.15 0"/>
<feBlend mode="normal" in2="BackgroundImageFix" result="effect1_dropShadow_870_3996"/>
<feBlend mode="normal" in="SourceGraphic" in2="effect1_dropShadow_870_3996" result="shape"/>
</filter>
<filter id="filter1_d_870_3996" x="4" y="22.8196" width="46.9443" height="17.4893" filterUnits="userSpaceOnUse" color-interpolation-filters="sRGB">
<feFlood flood-opacity="0" result="BackgroundImageFix"/>
<feColorMatrix in="SourceAlpha" type="matrix" values="0 0 0 0 0 0 0 0 0 0 0 0 0 0 0 0 0 0 127 0" result="hardAlpha"/>
<feOffset dy="4"/>
<feGaussianBlur stdDeviation="2"/>
<feComposite in2="hardAlpha" operator="out"/>
<feColorMatrix type="matrix" values="0 0 0 0 0 0 0 0 0 0 0 0 0 0 0 0 0 0 0.15 0"/>
<feBlend mode="normal" in2="BackgroundImageFix" result="effect1_dropShadow_870_3996"/>
<feBlend mode="normal" in="SourceGraphic" in2="effect1_dropShadow_870_3996" result="shape"/>
</filter>
</defs>
</svg>
