<svg width="54" height="54" viewBox="0 0 54 54" fill="none" xmlns="http://www.w3.org/2000/svg">
<g id="Silver award">
<rect x="0.5" y="0.5" width="53" height="53" rx="26.5" stroke="#CFDCE9"/>
<g id="Group 1000002831">
<g id="Group 9">
<g id="Group 8">
<g id="Group">
<path id="Vector" d="M14.0466 30.2067H8L9.74394 25.3814L8 21.0806H14.0466V30.2067Z" fill="#200C4C"/>
<path id="Vector_2" d="M39.8066 21.0424H45.8533L44.1093 25.8659L45.8533 30.1685H39.8066V21.0424Z" fill="#200C4C"/>
</g>
<path id="Vector_3" d="M11.2354 23.2018L14.2423 20.5559V31.7763H11.2354V23.2018Z" fill="#45209C"/>
<path id="Vector_4" d="M42.7101 23.2018L39.7031 20.5559V31.7763H42.7101V23.2018Z" fill="#45209C"/>
<g id="Vector_5" filter="url(#filter0_d_870_3625)">
<path d="M42.2304 27C42.2304 28.1215 40.726 29.0579 40.4883 30.1068C40.2415 31.1902 41.1852 32.6855 40.7133 33.6618C40.2342 34.6544 38.4722 34.8468 37.7916 35.7015C37.1075 36.5581 37.3089 38.3183 36.4506 39.0025C35.5977 39.683 33.9281 39.0987 32.9355 39.5778C31.9592 40.0496 31.3785 41.7246 30.2951 41.9695C29.2462 42.2073 27.9995 40.9569 26.8798 40.9569C25.7601 40.9569 24.5116 42.2091 23.4627 41.9695C22.3793 41.7227 21.8004 40.0496 20.8223 39.5778C19.8296 39.0987 18.1601 39.6848 17.3072 39.0025C16.4507 38.3183 16.6521 36.5581 15.9661 35.7015C15.2856 34.8486 13.5235 34.6563 13.0444 33.6618C12.5726 32.6855 13.5163 31.1902 13.2695 30.1068C13.0317 29.0579 11.5273 28.1215 11.5273 27C11.5273 25.8785 13.0317 24.9421 13.2695 23.8932C13.5163 22.8098 12.5726 21.3145 13.0444 20.3382C13.5235 19.3456 15.2856 19.1532 15.9661 18.2985C16.6503 17.4419 16.4488 15.6817 17.3072 14.9975C18.1601 14.317 19.8296 14.9013 20.8223 14.4222C21.7986 13.9504 22.3793 12.2754 23.4627 12.0305C24.5116 11.7927 25.7583 13.0431 26.878 13.0431C27.9977 13.0431 29.2462 11.7909 30.2951 12.0305C31.3785 12.2773 31.9573 13.9504 32.9355 14.4222C33.9281 14.9013 35.5977 14.3152 36.4506 14.9975C37.3071 15.6817 37.1057 17.4419 37.7916 18.2985C38.4722 19.1514 40.2342 19.3437 40.7133 20.3382C41.1852 21.3145 40.2415 22.8098 40.4883 23.8932C40.726 24.9421 42.2304 25.8785 42.2304 27Z" fill="#F2F6FF"/>
</g>
<path id="Vector_6" d="M40.3487 27C40.3487 27.9836 39.0294 28.8056 38.8207 29.7257C38.6048 30.6766 39.4323 31.9868 39.0185 32.8452C38.5975 33.7162 37.0532 33.885 36.4543 34.6345C35.8537 35.3858 36.0315 36.9301 35.2784 37.5308C34.5307 38.1278 33.0663 37.6142 32.1934 38.0353C31.3368 38.449 30.8269 39.9189 29.8778 40.1349C28.9578 40.3436 27.8635 39.2457 26.8799 39.2457C25.8963 39.2457 24.8021 40.3436 23.882 40.1349C22.9311 39.9189 22.423 38.449 21.5664 38.0353C20.6954 37.6142 19.2309 38.1278 18.4814 37.5308C17.7301 36.9301 17.9062 35.3876 17.3055 34.6345C16.7085 33.8868 15.1623 33.7162 14.7413 32.8452C14.3276 31.9886 15.1551 30.6766 14.9391 29.7257C14.7304 28.8056 13.4111 27.9836 13.4111 27C13.4111 26.0164 14.7304 25.1944 14.9391 24.2743C15.1551 23.3234 14.3276 22.0132 14.7413 21.1548C15.1623 20.2838 16.7066 20.115 17.3055 19.3655C17.9062 18.6142 17.7283 17.0699 18.4814 16.4692C19.2291 15.8722 20.6936 16.3858 21.5664 15.9647C22.423 15.551 22.9329 14.0811 23.882 13.8651C24.8021 13.6564 25.8963 14.7543 26.8799 14.7543C27.8635 14.7543 28.9578 13.6564 29.8778 13.8651C30.8287 14.0811 31.3368 15.551 32.1934 15.9647C33.0644 16.3858 34.5289 15.8722 35.2784 16.4692C36.0297 17.0699 35.8537 18.6124 36.4543 19.3655C37.0514 20.1132 38.5975 20.2838 39.0185 21.1548C39.4323 22.0114 38.6048 23.3234 38.8207 24.2743C39.0294 25.1944 40.3487 26.0164 40.3487 27Z" fill="#220D50"/>
<path id="Vector_7" d="M29.486 39.4834C29.0686 39.4834 28.6204 39.2656 28.1866 39.0515C27.7511 38.8373 27.2992 38.6178 26.8801 38.6178C26.4609 38.6178 26.0108 38.8391 25.5735 39.0515C25.0563 39.3055 24.5209 39.5668 24.0364 39.4561C23.5301 39.34 23.1526 38.8609 22.7897 38.3982C22.4975 38.0262 22.1963 37.6414 21.8388 37.469C21.4722 37.2912 20.9768 37.2948 20.4959 37.2966C19.9134 37.3003 19.3109 37.3039 18.9135 36.9863C18.5142 36.6669 18.3836 36.0772 18.2584 35.5073C18.1549 35.041 18.0479 34.5582 17.7956 34.2425C17.5452 33.9285 17.1006 33.7198 16.6705 33.5166C16.1406 33.2662 15.5907 33.0067 15.3675 32.5439C15.1498 32.0902 15.2859 31.5059 15.4183 30.9415C15.529 30.4733 15.6416 29.987 15.5508 29.5859C15.4637 29.203 15.1715 28.8437 14.863 28.4626C14.491 28.0035 14.1045 27.5262 14.1045 27C14.1045 26.4737 14.4892 25.9983 14.863 25.5373C15.1715 25.1562 15.4637 24.7951 15.5508 24.4122C15.6416 24.0111 15.529 23.5266 15.4183 23.0566C15.2859 22.4922 15.1498 21.9079 15.3675 21.4542C15.5907 20.9915 16.1388 20.732 16.6705 20.4815C17.1006 20.2783 17.5452 20.0678 17.7956 19.7557C18.0479 19.4399 18.1549 18.9572 18.2584 18.4908C18.3854 17.921 18.5161 17.3294 18.9135 17.0118C19.3091 16.6961 19.9134 16.6979 20.4941 16.7015C20.9732 16.7033 21.4686 16.7069 21.837 16.5291C22.1945 16.3567 22.4957 15.972 22.7879 15.6C23.1526 15.1372 23.5283 14.6563 24.0346 14.542C24.5191 14.4313 25.0545 14.6944 25.5716 14.9467C26.0072 15.1608 26.459 15.3804 26.8782 15.3804C27.2974 15.3804 27.7475 15.159 28.1848 14.9467C28.702 14.6926 29.2374 14.4313 29.7219 14.542C30.2282 14.6563 30.6057 15.1372 30.9686 15.6C31.2608 15.972 31.562 16.3567 31.9195 16.5291C32.2861 16.7069 32.7815 16.7033 33.2624 16.7015C33.8449 16.6979 34.4474 16.6961 34.8448 17.0118C35.244 17.3312 35.3747 17.921 35.4999 18.4908C35.6034 18.9572 35.7104 19.4399 35.9627 19.7557C36.2131 20.0696 36.6577 20.2783 37.0878 20.4815C37.6177 20.732 38.1675 20.9915 38.3908 21.4542C38.6085 21.9079 38.4724 22.4922 38.3399 23.0566C38.2292 23.5248 38.1167 24.0111 38.2075 24.4122C38.2946 24.7951 38.5867 25.1544 38.8952 25.5355C39.2673 25.9946 39.6538 26.4719 39.6538 26.9982C39.6538 27.5244 39.2691 27.9999 38.8952 28.4608C38.5867 28.8419 38.2946 29.203 38.2075 29.5859C38.1167 29.987 38.2292 30.4715 38.3399 30.9415C38.4724 31.5059 38.6085 32.0902 38.3908 32.5439C38.1675 33.0067 37.6177 33.2662 37.0878 33.5166C36.6577 33.7198 36.2131 33.9285 35.9627 34.2425C35.7104 34.5582 35.6034 35.041 35.4999 35.5073C35.3729 36.0772 35.2422 36.6688 34.8448 36.9863C34.4492 37.3021 33.8449 37.3003 33.2642 37.2966C32.7851 37.293 32.2897 37.2912 31.9213 37.469C31.5638 37.6414 31.2626 38.0262 30.9704 38.3982C30.6057 38.8609 30.23 39.3418 29.7237 39.4561C29.6457 39.4743 29.5658 39.4816 29.486 39.4816V39.4834ZM26.8819 38.5306C27.321 38.5306 27.7801 38.7557 28.2266 38.9734C28.7528 39.2311 29.2519 39.4761 29.7056 39.3727C30.1828 39.2638 30.5494 38.7974 30.9033 38.3455C31.2009 37.9663 31.5094 37.5725 31.885 37.3928C32.2697 37.2077 32.776 37.2095 33.266 37.2132C33.834 37.2168 34.4202 37.2186 34.7922 36.9228C35.1678 36.6234 35.2949 36.0481 35.4183 35.4928C35.5235 35.0174 35.6324 34.5238 35.8973 34.1917C36.1605 33.8632 36.6142 33.6473 37.0533 33.4404C37.5705 33.1972 38.104 32.945 38.3145 32.5094C38.5196 32.0848 38.3871 31.515 38.2583 30.9651C38.1458 30.486 38.0296 29.9924 38.1258 29.5696C38.2165 29.1686 38.5287 28.782 38.8317 28.41C39.1947 27.9618 39.5703 27.4972 39.5703 27.0036C39.5703 26.51 39.1947 26.0454 38.8317 25.5972C38.5305 25.2252 38.2184 24.8387 38.1258 24.4376C38.0296 24.0166 38.1458 23.5212 38.2583 23.0421C38.3871 22.4922 38.5214 21.9224 38.3145 21.4978C38.104 21.0622 37.5705 20.81 37.0533 20.5668C36.6142 20.36 36.1605 20.1458 35.8973 19.8155C35.6324 19.4834 35.5235 18.9917 35.4183 18.5144C35.2949 17.9591 35.1678 17.3838 34.7922 17.0844C34.4202 16.7868 33.8322 16.7904 33.266 16.794C32.7779 16.7977 32.2697 16.7995 31.885 16.6144C31.5094 16.4329 31.2009 16.0409 30.9033 15.6617C30.5494 15.2098 30.181 14.7434 29.7056 14.6345C29.2519 14.5311 28.7528 14.7743 28.2266 15.0338C27.782 15.2515 27.321 15.4766 26.8819 15.4766C26.4427 15.4766 25.9836 15.2515 25.5372 15.0338C25.0091 14.7761 24.5119 14.5329 24.0582 14.6345C23.5809 14.7434 23.2143 15.2098 22.8605 15.6617C22.5629 16.0409 22.2544 16.4347 21.8787 16.6144C21.494 16.7995 20.9877 16.7977 20.4977 16.794C19.9297 16.7904 19.3436 16.7886 18.9715 17.0844C18.5959 17.3838 18.4689 17.9591 18.3473 18.5144C18.242 18.9898 18.1331 19.4834 17.8682 19.8155C17.6051 20.144 17.1514 20.36 16.7122 20.5668C16.195 20.81 15.6615 21.0622 15.451 21.4978C15.2459 21.9224 15.3784 22.4922 15.5073 23.0421C15.6198 23.5212 15.7359 24.0148 15.6397 24.4376C15.549 24.8387 15.2369 25.2252 14.9338 25.5972C14.5709 26.0454 14.1952 26.51 14.1952 27.0036C14.1952 27.4972 14.5709 27.9618 14.9338 28.41C15.2351 28.782 15.5472 29.1686 15.6397 29.5696C15.7359 29.9906 15.6198 30.486 15.5073 30.9651C15.3784 31.515 15.2441 32.0848 15.4492 32.5094C15.6597 32.945 16.1932 33.1972 16.7104 33.4404C17.1496 33.6473 17.6033 33.8614 17.8664 34.1917C18.1313 34.5238 18.2402 35.0156 18.3455 35.4928C18.4689 36.0481 18.5959 36.6234 18.9715 36.9228C19.3436 37.2204 19.9297 37.2168 20.4977 37.2132C20.9877 37.2095 21.4922 37.2077 21.8787 37.3928C22.2544 37.5743 22.5629 37.9663 22.8605 38.3455C23.2143 38.7974 23.5827 39.2638 24.0582 39.3727C24.5119 39.4761 25.0109 39.2329 25.5372 38.9734C25.9818 38.7557 26.4427 38.5306 26.8819 38.5306Z" fill="white"/>
<g id="Group_2">
<path id="Vector_8" d="M27.0051 16.9166L27.5019 18.446C27.5191 18.5007 27.5706 18.5366 27.6269 18.5366H29.2344C29.3625 18.5366 29.4156 18.7006 29.3125 18.7756L28.0112 19.7208C27.9643 19.7551 27.9456 19.8145 27.9628 19.8692L28.4595 21.3986C28.4986 21.5204 28.3596 21.622 28.2565 21.547L26.9551 20.6018C26.9083 20.5675 26.8458 20.5675 26.8005 20.6018L25.4991 21.547C25.396 21.622 25.257 21.5204 25.2961 21.3986L25.7928 19.8692C25.81 19.8145 25.7913 19.7551 25.7444 19.7208L24.4431 18.7756C24.34 18.7006 24.3931 18.5366 24.5212 18.5366H26.1287C26.1865 18.5366 26.2365 18.4991 26.2537 18.446L26.7505 16.9166C26.7895 16.7947 26.9629 16.7947 27.002 16.9166H27.0051Z" fill="#C1FF72"/>
<path id="Vector_9" d="M21.8149 18.4788L22.1695 19.5692C22.182 19.6083 22.218 19.6349 22.2586 19.6349H23.4052C23.4959 19.6349 23.5349 19.752 23.4599 19.8051L22.532 20.4785C22.4992 20.5019 22.4851 20.5456 22.4976 20.5831L22.8522 21.6735C22.8803 21.761 22.7804 21.8329 22.7069 21.7782L21.779 21.1049C21.7462 21.0815 21.7009 21.0815 21.6681 21.1049L20.7401 21.7782C20.6667 21.8313 20.5667 21.7595 20.5948 21.6735L20.9494 20.5831C20.9619 20.5441 20.9494 20.5019 20.9151 20.4785L19.9871 19.8051C19.9137 19.752 19.9512 19.6349 20.0418 19.6349H21.1885C21.2291 19.6349 21.265 19.6083 21.2775 19.5692L21.6321 18.4788C21.6603 18.3913 21.7837 18.3913 21.8118 18.4788H21.8149Z" fill="#C1FF72"/>
<path id="Vector_10" d="M32.1245 18.4788L32.4791 19.5692C32.4916 19.6083 32.5275 19.6349 32.5682 19.6349H33.7148C33.8054 19.6349 33.8445 19.752 33.7695 19.8051L32.8415 20.4785C32.8087 20.5019 32.7947 20.5456 32.8072 20.5831L33.1618 21.6735C33.1899 21.761 33.0899 21.8329 33.0165 21.7782L32.0886 21.1049C32.0557 21.0815 32.0104 21.0815 31.9776 21.1049L31.0497 21.7782C30.9763 21.8313 30.8763 21.7595 30.9044 21.6735L31.259 20.5831C31.2715 20.5441 31.259 20.5019 31.2246 20.4785L30.2967 19.8051C30.2233 19.752 30.2608 19.6349 30.3514 19.6349H31.498C31.5387 19.6349 31.5746 19.6083 31.5871 19.5692L31.9417 18.4788C31.9698 18.3913 32.0932 18.3913 32.1214 18.4788H32.1245Z" fill="#C1FF72"/>
</g>
</g>
<g id="Group_3">
<path id="Vector_11" d="M28.9735 33.0574H28.3535L26.3682 31.5105H26.9882L28.9735 33.0574Z" fill="#AC69FF"/>
<path id="Vector_12" d="M27.7528 33.0574H27.1328L25.1475 31.5105H25.7675L27.7528 33.0574Z" fill="#AC69FF"/>
<path id="Vector_13" d="M26.5311 33.0574H25.9111L23.9258 31.5105H24.5474L26.5311 33.0574Z" fill="#AC69FF"/>
<path id="Vector_14" d="M25.3114 33.0574H24.6898L22.7061 31.5105H23.3261L25.3114 33.0574Z" fill="#AC69FF"/>
<path id="Vector_15" d="M24.0907 33.0574H23.4707L21.4854 31.5105H22.1054L24.0907 33.0574Z" fill="#AC69FF"/>
<path id="Vector_16" d="M22.869 33.0574H22.249L20.2637 31.5105H20.8837L22.869 33.0574Z" fill="#AC69FF"/>
<path id="Vector_17" d="M21.6483 33.0574H21.0283L19.043 31.5105H19.6646L21.6483 33.0574Z" fill="#AC69FF"/>
<path id="Vector_18" d="M20.4286 33.0574H19.807L17.8232 31.5105H18.4433L20.4286 33.0574Z" fill="#AC69FF"/>
<path id="Vector_19" d="M19.2069 33.0574H18.5869L16.6016 31.5105H17.2216L19.2069 33.0574Z" fill="#AC69FF"/>
</g>
<g id="Group 7" filter="url(#filter1_d_870_3625)">
<path id="Vector_20" d="M42.7428 23.0966H11.2666V32.3389H42.7428V23.0966Z" fill="#240E54"/>
<path id="Vector_21" d="M42.7428 24.7533H11.2666V30.682H42.7428V24.7533Z" fill="#F2F6FF"/>
<g id="Group_4">
<path id="Vector_22" d="M13.3609 26.0271L13.7402 27.1958H14.9687L13.9761 27.9162L14.3554 29.0849L13.3609 28.3626L12.3683 29.0849L12.7475 27.9162L11.7549 27.1958H12.9816L13.3609 26.0271Z" fill="#220D50"/>
<path id="Vector_23" d="M40.6469 26.0271L41.0262 27.1958H42.2529L41.2603 27.9162L41.6395 29.0849L40.6469 28.3626L39.6524 29.0849L40.0317 27.9162L39.0391 27.1958H40.2676L40.6469 26.0271Z" fill="#220D50"/>
</g>
<g id="Group_5">
<g id="Group_6">
<path id="Vector_24" d="M14.8105 23.7499H12.8633V24.0547H14.8105V23.7499Z" fill="#C1FF72"/>
<path id="Vector_25" d="M18.1025 23.7499H16.1553V24.0547H18.1025V23.7499Z" fill="#C1FF72"/>
<path id="Vector_26" d="M21.3945 23.7499H19.4473V24.0547H21.3945V23.7499Z" fill="#C1FF72"/>
<path id="Vector_27" d="M24.6864 23.7499H22.7393V24.0547H24.6864V23.7499Z" fill="#C1FF72"/>
<path id="Vector_28" d="M27.9765 23.7499H26.0293V24.0547H27.9765V23.7499Z" fill="#C1FF72"/>
<path id="Vector_29" d="M31.2675 23.7499H29.3203V24.0547H31.2675V23.7499Z" fill="#C1FF72"/>
<path id="Vector_30" d="M34.5595 23.7499H32.6123V24.0547H34.5595V23.7499Z" fill="#C1FF72"/>
<path id="Vector_31" d="M37.8515 23.7499H35.9043V24.0547H37.8515V23.7499Z" fill="#C1FF72"/>
<path id="Vector_32" d="M41.1435 23.7499H39.1963V24.0547H41.1435V23.7499Z" fill="#C1FF72"/>
</g>
<g id="Group_7">
<path id="Vector_33" d="M14.8105 31.3806H12.8633V31.6855H14.8105V31.3806Z" fill="#C1FF72"/>
<path id="Vector_34" d="M18.1025 31.3806H16.1553V31.6855H18.1025V31.3806Z" fill="#C1FF72"/>
<path id="Vector_35" d="M21.3945 31.3806H19.4473V31.6855H21.3945V31.3806Z" fill="#C1FF72"/>
<path id="Vector_36" d="M24.6864 31.3806H22.7393V31.6855H24.6864V31.3806Z" fill="#C1FF72"/>
<path id="Vector_37" d="M27.9765 31.3806H26.0293V31.6855H27.9765V31.3806Z" fill="#C1FF72"/>
<path id="Vector_38" d="M31.2675 31.3806H29.3203V31.6855H31.2675V31.3806Z" fill="#C1FF72"/>
<path id="Vector_39" d="M34.5595 31.3806H32.6123V31.6855H34.5595V31.3806Z" fill="#C1FF72"/>
<path id="Vector_40" d="M37.8515 31.3806H35.9043V31.6855H37.8515V31.3806Z" fill="#C1FF72"/>
<path id="Vector_41" d="M41.1435 31.3806H39.1963V31.6855H41.1435V31.3806Z" fill="#C1FF72"/>
</g>
</g>
</g>
</g>
<g id="Group 36">
<path id="Vector_42" d="M31.2871 34.1267H33.823C34.2763 33.6734 34.5476 33.4021 34.9707 32.979H32.3403L31.2871 34.1267ZM32.4425 33.3545L32.7859 33.5525V33.3545L33.1292 33.5525V33.3545L33.4726 33.5525V33.3545L33.8159 33.5525L33.4726 33.7506V33.5525L33.1292 33.7506V33.5525L32.7859 33.7506V33.5525L32.4425 33.7506V33.3545Z" fill="#AC69FF"/>
<path id="Vector_43" d="M33.952 34.4475H31.4014V34.3774H33.9224L35.0599 33.2394L35.11 33.2895L33.952 34.4475Z" fill="#BF00FF"/>
</g>
<path id="Vector_44" d="M23.9443 35.4204L23.8114 35.2867L23.3149 35.7829L22.8184 35.2867L22.6855 35.4204L23.182 35.9166L22.6855 36.4127L22.8184 36.5455L23.3149 36.0493L23.8114 36.5455L23.9443 36.4127L23.4478 35.9166L23.9443 35.4204Z" fill="#BF00FF"/>
<g id="DIGITAL">
<path d="M20.5879 27.2432V26.9062H20.8905V25.5854H20.5879V25.2483H21.533C21.7318 25.2483 21.892 25.2608 22.0134 25.2856C22.1348 25.3095 22.251 25.3636 22.3619 25.4477C22.4728 25.5309 22.5617 25.6427 22.6286 25.7833C22.6956 25.9238 22.729 26.0797 22.729 26.2508C22.729 26.3894 22.7056 26.5218 22.6587 26.648C22.6119 26.7733 22.5536 26.8746 22.4838 26.9521C22.415 27.0286 22.3322 27.0897 22.2357 27.1356C22.1391 27.1806 22.0502 27.2097 21.9689 27.2231C21.8886 27.2365 21.7639 27.2432 21.5946 27.2432H20.5879ZM21.4082 26.9062H21.533C21.684 26.9062 21.8035 26.8866 21.8915 26.8474C21.9804 26.8082 22.0516 26.7393 22.1052 26.6409C22.1587 26.5414 22.1855 26.4119 22.1855 26.2522C22.1855 26.1002 22.1582 25.9711 22.1037 25.865C22.0502 25.7589 21.9771 25.6858 21.8843 25.6456C21.7925 25.6054 21.6754 25.5854 21.533 25.5854H21.4082V26.9062Z" fill="#220D50"/>
<path d="M22.9384 27.2432V26.9062H23.241V25.5854H22.9384V25.2483H24.0656V25.5854H23.7601V26.9062H24.0656V27.2432H22.9384Z" fill="#220D50"/>
<path d="M25.5356 26.5735V26.2365H26.4706C26.4706 26.4783 26.4266 26.67 26.3387 26.8115C26.2517 26.953 26.1245 27.0644 25.9572 27.1457C25.7909 27.2269 25.6039 27.2676 25.3965 27.2676C25.036 27.2676 24.7592 27.171 24.5661 26.9779C24.3739 26.7848 24.2779 26.5395 24.2779 26.2422C24.2779 26.0357 24.3257 25.8535 24.4213 25.6958C24.5169 25.5371 24.6455 25.4176 24.8071 25.3373C24.9686 25.257 25.1441 25.2168 25.3334 25.2168C25.6011 25.2168 25.8095 25.2818 25.9586 25.4118V25.2483H26.2971V25.9568H25.9586C25.9233 25.8373 25.853 25.7431 25.7478 25.6743C25.6427 25.6054 25.5298 25.571 25.4094 25.571C25.2507 25.571 25.1154 25.6274 25.0035 25.7402C24.8917 25.8521 24.8357 26.0075 24.8357 26.2063C24.8357 26.4339 24.8926 26.6074 25.0064 26.7269C25.1202 26.8455 25.2588 26.9047 25.4223 26.9047C25.5427 26.9047 25.6427 26.8756 25.722 26.8173C25.8014 26.7589 25.8563 26.6777 25.8869 26.5735H25.5356Z" fill="#220D50"/>
<path d="M26.6728 27.2432V26.9062H26.9754V25.5854H26.6728V25.2483H27.8V25.5854H27.4946V26.9062H27.8V27.2432H26.6728Z" fill="#220D50"/>
<path d="M28.2948 27.2432V26.9062H28.5945V25.5854H28.2948V26.05H27.9521V25.2483H29.7605V26.05H29.422V25.5854H29.1137V26.9062H29.4134V27.2432H28.2948Z" fill="#220D50"/>
<path d="M31.8141 26.9062V27.2432H30.8332V26.9062H31.0885L30.9938 26.5634H30.4761L30.37 26.9062H30.6367V27.2432H29.7533V26.9062H30L30.3886 25.5854H30.1233V25.2483H31.4255V25.5854H31.1573L31.5761 26.9062H31.8141ZM30.9121 26.2709L30.7457 25.67L30.5664 26.2709H30.9121Z" fill="#220D50"/>
<path d="M31.893 27.2432V26.9062H32.1784V25.5854H31.893V25.2483H32.9887V25.5854H32.6975V26.9062H33.287V26.2895H33.6756V27.2432H31.893Z" fill="#220D50"/>
</g>
<g id="PATHFINDER">
<path d="M18.2817 29.6019V29.9389H17.2305V29.6019H17.4843V28.2811H17.2305V27.9441H18.2817C18.5264 27.9441 18.7153 28.0015 18.8481 28.1162C18.982 28.2309 19.0489 28.3853 19.0489 28.5794C19.0489 28.6903 19.0255 28.7912 18.9787 28.882C18.9318 28.9719 18.8716 29.0412 18.798 29.0899C18.7253 29.1378 18.6416 29.1707 18.547 29.1889C18.4533 29.2061 18.3357 29.2147 18.1942 29.2147H18.0035V29.6019H18.2817ZM18.0035 28.882H18.0809C18.2587 28.882 18.373 28.8533 18.4237 28.796C18.4753 28.7376 18.5011 28.6655 18.5011 28.5794C18.5011 28.5067 18.4834 28.4451 18.448 28.3944C18.4127 28.3428 18.372 28.3112 18.3261 28.2998C18.2802 28.2873 18.2052 28.2811 18.101 28.2811H18.0035V28.882Z" fill="#220D50"/>
<path d="M20.9348 29.6019V29.9389H19.9538V29.6019H20.2091L20.1145 29.2592H19.5968L19.4906 29.6019H19.7574V29.9389H18.874V29.6019H19.1206L19.5093 28.2811H19.244V27.9441H20.5461V28.2811H20.278L20.6967 29.6019H20.9348ZM20.0327 28.9666L19.8664 28.3657L19.6871 28.9666H20.0327Z" fill="#220D50"/>
<path d="M21.2761 29.9389V29.6019H21.5758V28.2811H21.2761V28.7458H20.9333V27.9441H22.7418V28.7458H22.4033V28.2811H22.095V29.6019H22.3947V29.9389H21.2761Z" fill="#220D50"/>
<path d="M22.921 29.9389V29.6019H23.1706V28.2811H22.921V27.9441H23.8848V28.2811H23.6754V28.7185H24.2189V28.2811H24.0167V27.9441H24.9747V28.2811H24.7237V29.6019H24.9747V29.9389H24.0167V29.6019H24.2189V29.057H23.6754V29.6019H23.8848V29.9389H22.921Z" fill="#220D50"/>
<path d="M25.1453 29.9389V29.6019H25.4307V28.2811H25.1453V27.9441H26.9308V28.5593H26.5493V28.2811H25.9499V28.7429H26.3815V29.0799H25.9499V29.6019H26.2568V29.9389H25.1453Z" fill="#220D50"/>
<path d="M27.0255 29.9389V29.6019H27.3281V28.2811H27.0255V27.9441H28.1527V28.2811H27.8472V29.6019H28.1527V29.9389H27.0255Z" fill="#220D50"/>
<path d="M28.2932 29.9389V29.6019H28.56V28.2811H28.2932V27.9441H29.1293L29.865 29.1889V28.2811H29.6054V27.9441H30.5003V28.2811H30.2207V29.9533H29.7761L28.9156 28.4747V29.6019H29.1666V29.9389H28.2932Z" fill="#220D50"/>
<path d="M30.6093 29.9389V29.6019H30.9119V28.2811H30.6093V27.9441H31.5544C31.7533 27.9441 31.9134 27.9565 32.0348 27.9814C32.1562 28.0053 32.2724 28.0593 32.3833 28.1434C32.4942 28.2266 32.5831 28.3385 32.65 28.479C32.717 28.6196 32.7504 28.7754 32.7504 28.9465C32.7504 29.0852 32.727 29.2176 32.6802 29.3438C32.6333 29.469 32.575 29.5704 32.5052 29.6478C32.4364 29.7243 32.3537 29.7855 32.2571 29.8314C32.1605 29.8763 32.0716 29.9055 31.9904 29.9189C31.91 29.9323 31.7853 29.9389 31.6161 29.9389H30.6093ZM31.4296 29.6019H31.5544C31.7054 29.6019 31.825 29.5823 31.9129 29.5431C32.0018 29.5039 32.0731 29.4351 32.1266 29.3366C32.1801 29.2372 32.2069 29.1076 32.2069 28.948C32.2069 28.796 32.1797 28.6669 32.1252 28.5608C32.0716 28.4546 31.9985 28.3815 31.9057 28.3413C31.814 28.3012 31.6968 28.2811 31.5544 28.2811H31.4296V29.6019Z" fill="#220D50"/>
<path d="M32.9928 29.9389V29.6019H33.2323V28.2811H32.9928V27.9441H34.751V28.5765H34.3695V28.2811H33.7514V28.7415H34.2505V29.0785H33.7514V29.6019H34.3695V29.3036H34.751V29.9389H32.9928Z" fill="#220D50"/>
<path d="M37.0011 29.6019V29.9389H36.3931L35.9428 29.0656H35.7147V29.6019H35.9643V29.9389H34.9217V29.6019H35.1956V28.2811H34.9217V27.9441H36.1249C36.3515 27.9441 36.5145 28.0015 36.6139 28.1162C36.7143 28.23 36.7645 28.359 36.7645 28.5034C36.7645 28.73 36.6493 28.8954 36.4189 28.9996L36.743 29.6019H37.0011ZM35.7147 28.7472H35.8926C36.1125 28.7472 36.2224 28.6688 36.2224 28.512C36.2224 28.4346 36.1971 28.3767 36.1464 28.3385C36.0967 28.3002 36.0279 28.2811 35.9399 28.2811H35.7147V28.7472Z" fill="#220D50"/>
</g>
</g>
</g>
<defs>
<filter id="filter0_d_870_3625" x="7.52734" y="12" width="38.7031" height="38" filterUnits="userSpaceOnUse" color-interpolation-filters="sRGB">
<feFlood flood-opacity="0" result="BackgroundImageFix"/>
<feColorMatrix in="SourceAlpha" type="matrix" values="0 0 0 0 0 0 0 0 0 0 0 0 0 0 0 0 0 0 127 0" result="hardAlpha"/>
<feOffset dy="4"/>
<feGaussianBlur stdDeviation="2"/>
<feComposite in2="hardAlpha" operator="out"/>
<feColorMatrix type="matrix" values="0 0 0 0 0 0 0 0 0 0 0 0 0 0 0 0 0 0 0.15 0"/>
<feBlend mode="normal" in2="BackgroundImageFix" result="effect1_dropShadow_870_3625"/>
<feBlend mode="normal" in="SourceGraphic" in2="effect1_dropShadow_870_3625" result="shape"/>
</filter>
<filter id="filter1_d_870_3625" x="7.2666" y="23.0966" width="39.4766" height="17.2423" filterUnits="userSpaceOnUse" color-interpolation-filters="sRGB">
<feFlood flood-opacity="0" result="BackgroundImageFix"/>
<feColorMatrix in="SourceAlpha" type="matrix" values="0 0 0 0 0 0 0 0 0 0 0 0 0 0 0 0 0 0 127 0" result="hardAlpha"/>
<feOffset dy="4"/>
<feGaussianBlur stdDeviation="2"/>
<feComposite in2="hardAlpha" operator="out"/>
<feColorMatrix type="matrix" values="0 0 0 0 0 0 0 0 0 0 0 0 0 0 0 0 0 0 0.15 0"/>
<feBlend mode="normal" in2="BackgroundImageFix" result="effect1_dropShadow_870_3625"/>
<feBlend mode="normal" in="SourceGraphic" in2="effect1_dropShadow_870_3625" result="shape"/>
</filter>
</defs>
</svg>
