<svg width="54" height="54" viewBox="0 0 54 54" fill="none" xmlns="http://www.w3.org/2000/svg">
<g id="Gold Award">
<rect x="0.5" y="0.5" width="53" height="53" rx="26.5" stroke="#CFDCE9"/>
<g id="Group 1000002830">
<path id="Vector" d="M49.7682 30.9553H43.5498V37.2787H49.7682L48.6567 34.117L49.7682 30.9553Z" fill="#240E54"/>
<g id="Vector_2" filter="url(#filter0_d_870_3795)">
<path d="M43.5499 20.3835C42.6874 16.8204 35.7301 13 27.3853 13C19.0406 13 12.0811 16.8204 11.2207 20.3835V38.6394C11.2207 39.3907 11.83 40 12.5813 40H42.1893C42.9406 40 43.5499 39.3907 43.5499 38.6394V20.3835Z" fill="#F2F6FF"/>
</g>
<path id="Vector_3" d="M42.2695 20.9969C41.477 17.7158 35.0692 14.198 27.3853 14.198C19.7013 14.198 13.2935 17.7158 12.501 20.9969V37.4414C12.501 38.1927 13.1103 38.802 13.8616 38.802H40.9089C41.6602 38.802 42.2695 38.1927 42.2695 37.4414V20.9969Z" fill="#220D50"/>
<path id="Vector_4" d="M40.1203 38.0673H14.6497C13.8984 38.0673 13.2891 37.458 13.2891 36.7067V21.8492C13.2891 21.4458 13.3735 21.0464 13.5525 20.6862C14.9584 17.8291 20.5696 14.933 27.385 14.933C30.769 14.933 34.1365 15.6617 36.868 16.9852C39.4225 18.2223 41.1021 19.8279 41.4809 21.3881V21.4005V36.7067C41.4809 37.458 40.8716 38.0673 40.1203 38.0673ZM14.7567 37.9603H40.0132C40.7646 37.9603 41.3738 37.351 41.3738 36.5997V21.8636C41.3738 21.4581 41.2894 21.0547 41.1063 20.6924C39.6983 17.8868 34.1406 15.04 27.385 15.04C20.6293 15.04 15.0614 17.893 13.6596 20.6986C13.4784 21.0608 13.394 21.4622 13.394 21.8677V36.5997C13.394 37.351 14.0054 37.9603 14.7567 37.9603Z" fill="white"/>
<path id="Vector_5" d="M46.9441 33.7343L43.5498 37.2788V33.7343H46.9441Z" fill="#4D25A7"/>
<path id="Vector_6" d="M5 30.9553H11.2184V37.2787H5L6.11153 34.117L5 30.9553Z" fill="#240E54"/>
<path id="Vector_7" d="M7.82617 33.7343L11.2184 37.2788V33.7343H7.82617Z" fill="#4D25A7"/>
<g id="Group">
<g id="Group_2">
<path id="Vector_8" d="M20.5323 23.2095H14.7832V23.3783H20.5323V23.2095Z" fill="#F2F6FF"/>
<path id="Vector_9" d="M39.9835 23.2095H34.2344V23.3783H39.9835V23.2095Z" fill="#F2F6FF"/>
</g>
<g id="Group_3">
<g id="Group_4">
<path id="Vector_10" d="M19.6228 21.6166L19.7607 22.0427H20.2094L19.8471 22.3061L19.9851 22.7322L19.6228 22.4688L19.2605 22.7322L19.3984 22.3061L19.0361 22.0427H19.4849L19.6228 21.6166Z" fill="white"/>
<path id="Vector_11" d="M17.9076 21.3367L18.0826 21.8698H18.6424L18.1896 22.1991L18.3625 22.7323L17.9076 22.4029L17.4548 22.7323L17.6277 22.1991L17.1748 21.8698H17.7347L17.9076 21.3367Z" fill="#F2F6FF"/>
<path id="Vector_12" d="M15.8393 21.0092L16.0533 21.6678H16.745L16.1851 22.0733L16.3992 22.732L15.8393 22.3245L15.2794 22.732L15.4935 22.0733L14.9336 21.6678H15.6252L15.8393 21.0092Z" fill="white"/>
</g>
<g id="Group_5">
<path id="Vector_13" d="M35.1452 21.6166L35.0073 22.0427H34.5586L34.9209 22.3061L34.783 22.7322L35.1452 22.4688L35.5096 22.7322L35.3696 22.3061L35.7319 22.0427H35.2852L35.1452 21.6166Z" fill="white"/>
<path id="Vector_14" d="M36.8598 21.3367L36.6849 21.8698H36.125L36.5778 22.1991L36.405 22.7323L36.8598 22.4029L37.3127 22.7323L37.1398 22.1991L37.5926 21.8698H37.0328L36.8598 21.3367Z" fill="#F2F6FF"/>
<path id="Vector_15" d="M38.9281 21.0092L38.7141 21.6678H38.0225L38.5823 22.0733L38.3683 22.732L38.9281 22.3245L39.488 22.732L39.274 22.0733L39.8338 21.6678H39.1422L38.9281 21.0092Z" fill="white"/>
</g>
</g>
</g>
<g id="Tropy Star" filter="url(#filter1_d_870_3795)">
<rect id="Rectangle 27" x="27.3252" y="20.6544" width="0.343597" height="1.53057" fill="#BF7F02"/>
<path id="Rectangle 20" d="M25.7529 23.3273C25.7529 22.8288 26.157 22.4247 26.6555 22.4247H28.35C28.8485 22.4247 29.2526 22.8288 29.2526 23.3273C29.2526 23.8258 28.8485 24.2299 28.35 24.2299H26.6555C26.157 24.2299 25.7529 23.8258 25.7529 23.3273Z" fill="#CFDCE9"/>
<path id="Rectangle 28" d="M27.1064 22.4348C27.1064 22.2796 27.2323 22.1537 27.3876 22.1537H27.6062C27.7615 22.1537 27.8873 22.2796 27.8873 22.4348H27.1064Z" fill="#DCAE0C"/>
<rect id="Rectangle 21" x="26.4433" y="23.1251" width="2.13967" height="0.484159" fill="#F9B50E" stroke="#12062E" stroke-width="0.484159"/>
<path id="Rectangle 29" d="M26.4199 22.8831H27.6069L28.544 23.8514H27.357L26.4199 22.8831Z" fill="#F2F6FF"/>
<rect id="Rectangle 22" x="25.5332" y="24.2302" width="3.91574" height="0.374833" fill="#DE9300"/>
<g id="Vector_16">
<mask id="path-23-inside-1_870_3795" fill="white">
<path d="M27.493 16.5405L28.3686 18.2917L30.1198 18.5106L28.9173 19.859L29.2442 21.7941L27.493 20.9185L25.7418 21.7941L26.0716 19.859L24.8662 18.5106L26.6174 18.2917L27.493 16.5405Z"/>
</mask>
<path d="M27.493 16.5405L28.3686 18.2917L30.1198 18.5106L28.9173 19.859L29.2442 21.7941L27.493 20.9185L25.7418 21.7941L26.0716 19.859L24.8662 18.5106L26.6174 18.2917L27.493 16.5405Z" fill="#FFEC86"/>
<path d="M27.493 16.5405L33.754 13.41L27.493 0.888053L21.232 13.41L27.493 16.5405ZM28.3686 18.2917L22.1076 21.4222L23.783 24.773L27.5004 25.2377L28.3686 18.2917ZM30.1198 18.5106L35.3442 23.1696L44.2183 13.2185L30.988 11.5647L30.1198 18.5106ZM28.9173 19.859L23.6929 15.2001L21.455 17.7096L22.0151 21.025L28.9173 19.859ZM29.2442 21.7941L26.1137 28.0551L38.4424 34.2194L36.1464 20.6281L29.2442 21.7941ZM27.493 20.9185L30.6235 14.6575L27.493 13.0923L24.3625 14.6575L27.493 20.9185ZM25.7418 21.7941L18.8413 20.618L16.5212 34.2306L28.8723 28.0551L25.7418 21.7941ZM26.0716 19.859L32.9721 21.0351L33.539 17.7092L31.2904 15.1938L26.0716 19.859ZM24.8662 18.5106L23.998 11.5647L10.7483 13.2209L19.6475 23.1759L24.8662 18.5106ZM26.6174 18.2917L27.4856 25.2377L31.203 24.773L32.8784 21.4222L26.6174 18.2917ZM21.232 19.671L22.1076 21.4222L34.6296 15.1612L33.754 13.41L21.232 19.671ZM27.5004 25.2377L29.2515 25.4566L30.988 11.5647L29.2368 11.3458L27.5004 25.2377ZM24.8954 13.8517L23.6929 15.2001L34.1417 24.518L35.3442 23.1696L24.8954 13.8517ZM22.0151 21.025L22.342 22.9601L36.1464 20.6281L35.8195 18.6931L22.0151 21.025ZM32.3747 15.5331L30.6235 14.6575L24.3625 27.1795L26.1137 28.0551L32.3747 15.5331ZM24.3625 14.6575L22.6113 15.5331L28.8723 28.0551L30.6235 27.1795L24.3625 14.6575ZM32.6423 22.9702L32.9721 21.0351L19.1711 18.6829L18.8413 20.618L32.6423 22.9702ZM31.2904 15.1938L30.085 13.8454L19.6475 23.1759L20.8529 24.5243L31.2904 15.1938ZM25.7345 25.4566L27.4856 25.2377L25.7492 11.3458L23.998 11.5647L25.7345 25.4566ZM32.8784 21.4222L33.754 19.671L21.232 13.41L20.3564 15.1612L32.8784 21.4222Z" fill="#FFB802" mask="url(#path-23-inside-1_870_3795)"/>
</g>
<path id="Vector_17" d="M27.4933 17.7255L28.0266 18.792L29.0931 18.9253L28.3608 19.7465L28.5598 20.925L27.4933 20.3918L26.4268 20.925L26.6277 19.7465L25.8936 18.9253L26.9601 18.792L27.4933 17.7255Z" fill="#DE9300"/>
<path id="Vector_18" d="M27.5052 20.3919L28.5796 20.9251C28.5796 20.9251 28.4936 20.2568 27.6206 19.7466C26.7476 19.2365 26.968 18.7921 26.968 18.7921L25.8936 18.9254L26.6331 19.7466L26.4308 20.9251L27.5052 20.3919Z" fill="#CB8600"/>
</g>
<g id="Group 12">
<g id="Group 11" filter="url(#filter2_d_870_3795)">
<path id="Vector_19" d="M47.0178 24.5724H7.9082V35.0702H47.0178V24.5724Z" fill="url(#paint0_linear_870_3795)"/>
<path id="Vector_20" d="M47.0178 26.425H7.9082V33.2178H47.0178V26.425Z" fill="#F2F6FF"/>
<g id="Group_6">
<path id="Vector_21" d="M10.5531 27.8966L10.9833 29.2222H12.3769L11.2509 30.0394L11.6811 31.365L10.5531 30.5458L9.42718 31.365L9.85739 30.0394L8.73145 29.2222H10.1229L10.5531 27.8966Z" fill="#220D50"/>
<path id="Vector_22" d="M44.313 27.8966L44.7432 29.2222H46.1347L45.0087 30.0394L45.4389 31.365L44.313 30.5458L43.185 31.365L43.6152 30.0394L42.4893 29.2222H43.8828L44.313 27.8966Z" fill="#220D50"/>
</g>
</g>
<g id="Group 1000002828">
<g id="STUDENT">
<path d="M21.145 29.4446V28.8072H21.4624C21.4659 28.9238 21.4964 29.0098 21.5538 29.0654C21.6112 29.1201 21.6766 29.1474 21.7501 29.1474C21.8075 29.1474 21.8559 29.1277 21.8953 29.0882C21.9348 29.0479 21.9545 29.0009 21.9545 28.9471C21.9545 28.8897 21.9352 28.8417 21.8967 28.8032C21.8581 28.7638 21.7878 28.7189 21.6856 28.6687C21.4695 28.5639 21.3225 28.4715 21.2445 28.3918C21.1675 28.312 21.1289 28.2044 21.1289 28.0691C21.1289 27.9059 21.18 27.7795 21.2822 27.6899C21.3844 27.6002 21.5005 27.5554 21.6304 27.5554C21.7792 27.5554 21.8944 27.6132 21.976 27.7289V27.5742H22.292V28.143H21.976C21.9661 28.0552 21.9357 27.9875 21.8846 27.94C21.8344 27.8916 21.7757 27.8674 21.7084 27.8674C21.6564 27.8674 21.6125 27.8813 21.5767 27.909C21.5408 27.9368 21.5229 27.9731 21.5229 28.018C21.5229 28.0565 21.5377 28.0933 21.5672 28.1282C21.5968 28.1623 21.6833 28.2111 21.8267 28.2748C21.9648 28.3366 22.0706 28.3926 22.1441 28.4428C22.2185 28.4921 22.2772 28.5567 22.3202 28.6365C22.3632 28.7154 22.3848 28.8068 22.3848 28.9108C22.3848 29.0954 22.331 29.2344 22.2234 29.3276C22.1158 29.4208 21.9885 29.4674 21.8415 29.4674C21.6775 29.4674 21.5511 29.4069 21.4624 29.2859V29.4446H21.145Z" fill="#220D50"/>
<path d="M22.8836 29.4446V29.1286H23.1646V27.8902H22.8836V28.3259H22.5622V27.5742H24.2578V28.3259H23.9404V27.8902H23.6514V29.1286H23.9324V29.4446H22.8836Z" fill="#220D50"/>
<path d="M24.3909 27.8902V27.5742H25.2837V27.8902H25.0995V28.736C25.0995 28.8489 25.104 28.9305 25.1129 28.9807C25.1228 29.03 25.1479 29.0708 25.1882 29.103C25.2286 29.1353 25.2796 29.1514 25.3415 29.1514C25.4051 29.1514 25.458 29.1362 25.5002 29.1057C25.5423 29.0753 25.5692 29.0372 25.5808 28.9914C25.5934 28.9457 25.5997 28.8525 25.5997 28.7118V27.8902H25.4181V27.5742H26.163V27.8902H25.9345V28.8261C25.9345 28.9533 25.9277 29.0461 25.9143 29.1044C25.9008 29.1618 25.8699 29.2191 25.8215 29.2765C25.7731 29.333 25.7027 29.3791 25.6104 29.415C25.519 29.4499 25.4137 29.4674 25.2944 29.4674C25.1564 29.4674 25.0385 29.4482 24.9408 29.4096C24.844 29.3702 24.7718 29.3182 24.7243 29.2536C24.6768 29.1891 24.6463 29.125 24.6329 29.0614C24.6195 28.9977 24.6127 28.8893 24.6127 28.736V27.8902H24.3909Z" fill="#220D50"/>
<path d="M26.2693 29.4446V29.1286H26.553V27.8902H26.2693V27.5742H27.1553C27.3418 27.5742 27.4919 27.5859 27.6058 27.6092C27.7196 27.6316 27.8285 27.6823 27.9325 27.7611C28.0365 27.8391 28.1199 27.944 28.1826 28.0758C28.2454 28.2075 28.2767 28.3537 28.2767 28.5141C28.2767 28.6441 28.2548 28.7682 28.2108 28.8866C28.1669 29.004 28.1122 29.099 28.0468 29.1716C27.9823 29.2433 27.9047 29.3007 27.8142 29.3437C27.7237 29.3859 27.6403 29.4132 27.5641 29.4257C27.4888 29.4383 27.3718 29.4446 27.2132 29.4446H26.2693ZM27.0384 29.1286H27.1553C27.297 29.1286 27.409 29.1102 27.4915 29.0735C27.5749 29.0367 27.6416 28.9722 27.6918 28.8798C27.742 28.7866 27.7671 28.6652 27.7671 28.5155C27.7671 28.3729 27.7416 28.2519 27.6905 28.1524C27.6403 28.0529 27.5717 27.9843 27.4848 27.9467C27.3987 27.909 27.2889 27.8902 27.1553 27.8902H27.0384V29.1286Z" fill="#220D50"/>
<path d="M28.504 29.4446V29.1286H28.7285V27.8902H28.504V27.5742H30.1524V28.1672H29.7948V27.8902H29.2153V28.3218H29.6832V28.6378H29.2153V29.1286H29.7948V28.8489H30.1524V29.4446H28.504Z" fill="#220D50"/>
<path d="M30.3232 29.4446V29.1286H30.5733V27.8902H30.3232V27.5742H31.1071L31.7969 28.7413V27.8902H31.5535V27.5742H32.3925V27.8902H32.1303V29.458H31.7135L30.9067 28.0717V29.1286H31.142V29.4446H30.3232Z" fill="#220D50"/>
<path d="M32.8362 29.4446V29.1286H33.1172V27.8902H32.8362V28.3259H32.5149V27.5742H34.2104V28.3259H33.8931V27.8902H33.604V29.1286H33.885V29.4446H32.8362Z" fill="#220D50"/>
</g>
<g id="ENGAGEMENT STAR">
<path d="M13.0645 32.1541V31.8381H13.289V30.5997H13.0645V30.2837H14.7129V30.8767H14.3553V30.5997H13.7757V31.0313H14.2437V31.3473H13.7757V31.8381H14.3553V31.5584H14.7129V32.1541H13.0645Z" fill="#220D50"/>
<path d="M14.8837 32.1541V31.8381H15.1338V30.5997H14.8837V30.2837H15.6676L16.3573 31.4508V30.5997H16.114V30.2837H16.953V30.5997H16.6908V32.1675H16.274L15.4672 30.7812V31.8381H15.7025V32.1541H14.8837Z" fill="#220D50"/>
<path d="M18.311 31.5261V31.2102H19.1877C19.1877 31.4369 19.1465 31.6167 19.064 31.7493C18.9824 31.882 18.8632 31.9864 18.7063 32.0626C18.5504 32.1388 18.3751 32.1769 18.1806 32.1769C17.8427 32.1769 17.5832 32.0864 17.4021 31.9053C17.2219 31.7242 17.1318 31.4943 17.1318 31.2155C17.1318 31.0219 17.1766 30.8511 17.2663 30.7032C17.3559 30.5544 17.4765 30.4424 17.628 30.3671C17.7795 30.2918 17.944 30.2542 18.1214 30.2542C18.3724 30.2542 18.5678 30.3151 18.7077 30.437V30.2837H19.025V30.948H18.7077C18.6745 30.8359 18.6086 30.7476 18.51 30.6831C18.4114 30.6185 18.3057 30.5863 18.1927 30.5863C18.0439 30.5863 17.9171 30.6392 17.8122 30.7449C17.7073 30.8498 17.6549 30.9955 17.6549 31.1819C17.6549 31.3953 17.7082 31.558 17.8149 31.67C17.9216 31.7812 18.0515 31.8367 18.2048 31.8367C18.3178 31.8367 18.4114 31.8094 18.4858 31.7547C18.5602 31.7 18.6118 31.6238 18.6405 31.5261H18.311Z" fill="#220D50"/>
<path d="M21.2422 31.8381V32.1541H20.3225V31.8381H20.5619L20.4731 31.5167H19.9877L19.8882 31.8381H20.1383V32.1541H19.3101V31.8381H19.5413L19.9057 30.5997H19.657V30.2837H20.8779V30.5997H20.6264L21.019 31.8381H21.2422ZM20.3965 31.2424L20.2405 30.679L20.0724 31.2424H20.3965Z" fill="#220D50"/>
<path d="M22.5035 31.5261V31.2102H23.3801C23.3801 31.4369 23.3389 31.6167 23.2564 31.7493C23.1749 31.882 23.0556 31.9864 22.8988 32.0626C22.7428 32.1388 22.5675 32.1769 22.373 32.1769C22.0351 32.1769 21.7756 32.0864 21.5945 31.9053C21.4143 31.7242 21.3243 31.4943 21.3243 31.2155C21.3243 31.0219 21.3691 30.8511 21.4587 30.7032C21.5484 30.5544 21.6689 30.4424 21.8204 30.3671C21.9719 30.2918 22.1364 30.2542 22.3139 30.2542C22.5649 30.2542 22.7603 30.3151 22.9001 30.437V30.2837H23.2174V30.948H22.9001C22.8669 30.8359 22.8011 30.7476 22.7025 30.6831C22.6039 30.6185 22.4981 30.5863 22.3851 30.5863C22.2363 30.5863 22.1095 30.6392 22.0046 30.7449C21.8997 30.8498 21.8473 30.9955 21.8473 31.1819C21.8473 31.3953 21.9006 31.558 22.0073 31.67C22.114 31.7812 22.244 31.8367 22.3972 31.8367C22.5102 31.8367 22.6039 31.8094 22.6783 31.7547C22.7527 31.7 22.8042 31.6238 22.8329 31.5261H22.5035Z" fill="#220D50"/>
<path d="M23.6006 32.1541V31.8381H23.8252V30.5997H23.6006V30.2837H25.2491V30.8767H24.8914V30.5997H24.3119V31.0313H24.7798V31.3473H24.3119V31.8381H24.8914V31.5584H25.2491V32.1541H23.6006Z" fill="#220D50"/>
<path d="M25.4212 32.1541V31.8381H25.6632V30.5997H25.4212V30.2837H26.3584L26.7698 31.3809L27.1826 30.2837H28.1386V30.5997H27.8966V31.8381H28.1386V32.1541H27.1974V31.8381H27.4233V30.5997H27.3789L26.7994 32.1541H26.5977L26.0115 30.5997H25.9671V31.8381H26.2118V32.1541H25.4212Z" fill="#220D50"/>
<path d="M28.3067 32.1541V31.8381H28.5312V30.5997H28.3067V30.2837H29.9552V30.8767H29.5975V30.5997H29.018V31.0313H29.4859V31.3473H29.018V31.8381H29.5975V31.5584H29.9552V32.1541H28.3067Z" fill="#220D50"/>
<path d="M30.1259 32.1541V31.8381H30.376V30.5997H30.1259V30.2837H30.9098L31.5996 31.4508V30.5997H31.3562V30.2837H32.1952V30.5997H31.933V32.1675H31.5162L30.7095 30.7812V31.8381H30.9448V32.1541H30.1259Z" fill="#220D50"/>
<path d="M32.639 32.1541V31.8381H32.92V30.5997H32.639V31.0354H32.3176V30.2837H34.0131V31.0354H33.6958V30.5997H33.4067V31.8381H33.6877V32.1541H32.639Z" fill="#220D50"/>
<path d="M34.9153 32.1541V31.5167H35.2327C35.2362 31.6332 35.2667 31.7193 35.3241 31.7749C35.3815 31.8296 35.4469 31.8569 35.5204 31.8569C35.5778 31.8569 35.6262 31.8372 35.6656 31.7977C35.7051 31.7574 35.7248 31.7103 35.7248 31.6566C35.7248 31.5992 35.7055 31.5512 35.667 31.5127C35.6284 31.4732 35.5581 31.4284 35.4559 31.3782C35.2398 31.2733 35.0928 31.181 35.0148 31.1012C34.9378 31.0215 34.8992 30.9139 34.8992 30.7785C34.8992 30.6154 34.9503 30.489 35.0525 30.3994C35.1547 30.3097 35.2708 30.2649 35.4007 30.2649C35.5495 30.2649 35.6647 30.3227 35.7463 30.4384V30.2837H36.0623V30.8525H35.7463C35.7364 30.7646 35.706 30.697 35.6549 30.6495C35.6047 30.6011 35.546 30.5769 35.4787 30.5769C35.4267 30.5769 35.3828 30.5907 35.347 30.6185C35.3111 30.6463 35.2932 30.6826 35.2932 30.7274C35.2932 30.766 35.308 30.8027 35.3375 30.8377C35.3671 30.8718 35.4536 30.9206 35.597 30.9843C35.7351 31.0461 35.8409 31.1021 35.9144 31.1523C35.9888 31.2016 36.0475 31.2662 36.0905 31.346C36.1335 31.4248 36.1551 31.5163 36.1551 31.6203C36.1551 31.8049 36.1013 31.9438 35.9937 32.0371C35.8861 32.1303 35.7588 32.1769 35.6118 32.1769C35.4478 32.1769 35.3214 32.1164 35.2327 31.9954V32.1541H34.9153Z" fill="#220D50"/>
<path d="M36.6539 32.1541V31.8381H36.9349V30.5997H36.6539V31.0354H36.3325V30.2837H38.0281V31.0354H37.7107V30.5997H37.4217V31.8381H37.7027V32.1541H36.6539Z" fill="#220D50"/>
<path d="M39.9535 31.8381V32.1541H39.0338V31.8381H39.2731L39.1844 31.5167H38.699L38.5995 31.8381H38.8496V32.1541H38.0213V31.8381H38.2526L38.617 30.5997H38.3682V30.2837H39.5891V30.5997H39.3377L39.7303 31.8381H39.9535ZM39.1078 31.2424L38.9518 30.679L38.7837 31.2424H39.1078Z" fill="#220D50"/>
<path d="M41.9637 31.8381V32.1541H41.3936L40.9714 31.3352H40.7576V31.8381H40.9915V32.1541H40.014V31.8381H40.2708V30.5997H40.014V30.2837H41.1421C41.3546 30.2837 41.5074 30.3375 41.6006 30.4451C41.6947 30.5518 41.7418 30.6728 41.7418 30.8081C41.7418 31.0206 41.6338 31.1756 41.4178 31.2733L41.7216 31.8381H41.9637ZM40.7576 31.0367H40.9243C41.1305 31.0367 41.2336 30.9632 41.2336 30.8162C41.2336 30.7436 41.2098 30.6893 41.1623 30.6535C41.1157 30.6176 41.0511 30.5997 40.9687 30.5997H40.7576V31.0367Z" fill="#220D50"/>
</g>
</g>
</g>
<g id="Group_7">
<path id="Vector_23" d="M9.54679 25.4946C9.54679 25.6634 9.41093 25.7992 9.24214 25.7992C9.07335 25.7992 8.9375 25.6634 8.9375 25.4946C8.9375 25.3258 9.07335 25.1899 9.24214 25.1899C9.41093 25.1899 9.54679 25.3258 9.54679 25.4946Z" fill="#C1FF72"/>
<path id="Vector_24" d="M12.1571 25.4946C12.1571 25.6634 12.0213 25.7992 11.8525 25.7992C11.6837 25.7992 11.5479 25.6634 11.5479 25.4946C11.5479 25.3258 11.6837 25.1899 11.8525 25.1899C12.0213 25.1899 12.1571 25.3258 12.1571 25.4946Z" fill="#C1FF72"/>
<path id="Vector_25" d="M14.7685 25.4946C14.7685 25.6634 14.6326 25.7992 14.4638 25.7992C14.295 25.7992 14.1592 25.6634 14.1592 25.4946C14.1592 25.3258 14.295 25.1899 14.4638 25.1899C14.6326 25.1899 14.7685 25.3258 14.7685 25.4946Z" fill="#C1FF72"/>
<path id="Vector_26" d="M17.3788 25.4946C17.3788 25.6634 17.243 25.7992 17.0742 25.7992C16.9054 25.7992 16.7695 25.6634 16.7695 25.4946C16.7695 25.3258 16.9054 25.1899 17.0742 25.1899C17.243 25.1899 17.3788 25.3258 17.3788 25.4946Z" fill="#C1FF72"/>
<path id="Vector_27" d="M19.9892 25.4946C19.9892 25.6634 19.8533 25.7992 19.6845 25.7992C19.5157 25.7992 19.3799 25.6634 19.3799 25.4946C19.3799 25.3258 19.5157 25.1899 19.6845 25.1899C19.8533 25.1899 19.9892 25.3258 19.9892 25.4946Z" fill="#C1FF72"/>
<path id="Vector_28" d="M22.6005 25.4946C22.6005 25.6634 22.4647 25.7992 22.2959 25.7992C22.1271 25.7992 21.9912 25.6634 21.9912 25.4946C21.9912 25.3258 22.1271 25.1899 22.2959 25.1899C22.4647 25.1899 22.6005 25.3258 22.6005 25.4946Z" fill="#C1FF72"/>
<path id="Vector_29" d="M25.2109 25.4946C25.2109 25.6634 25.075 25.7992 24.9062 25.7992C24.7374 25.7992 24.6016 25.6634 24.6016 25.4946C24.6016 25.3258 24.7374 25.1899 24.9062 25.1899C25.075 25.1899 25.2109 25.3258 25.2109 25.4946Z" fill="#C1FF72"/>
<path id="Vector_30" d="M27.8212 25.4946C27.8212 25.6634 27.6853 25.7992 27.5166 25.7992C27.3478 25.7992 27.2119 25.6634 27.2119 25.4946C27.2119 25.3258 27.3478 25.1899 27.5166 25.1899C27.6853 25.1899 27.8212 25.3258 27.8212 25.4946Z" fill="#C1FF72"/>
<path id="Vector_31" d="M30.4335 25.4946C30.4335 25.6634 30.2977 25.7992 30.1289 25.7992C29.9601 25.7992 29.8242 25.6634 29.8242 25.4946C29.8242 25.3258 29.9601 25.1899 30.1289 25.1899C30.2977 25.1899 30.4335 25.3258 30.4335 25.4946Z" fill="#C1FF72"/>
<path id="Vector_32" d="M33.0429 25.4946C33.0429 25.6634 32.907 25.7992 32.7382 25.7992C32.5694 25.7992 32.4336 25.6634 32.4336 25.4946C32.4336 25.3258 32.5694 25.1899 32.7382 25.1899C32.907 25.1899 33.0429 25.3258 33.0429 25.4946Z" fill="#C1FF72"/>
<path id="Vector_33" d="M35.6532 25.4946C35.6532 25.6634 35.5174 25.7992 35.3486 25.7992C35.1798 25.7992 35.0439 25.6634 35.0439 25.4946C35.0439 25.3258 35.1798 25.1899 35.3486 25.1899C35.5174 25.1899 35.6532 25.3258 35.6532 25.4946Z" fill="#C1FF72"/>
<path id="Vector_34" d="M38.2655 25.4946C38.2655 25.6634 38.1297 25.7992 37.9609 25.7992C37.7921 25.7992 37.6562 25.6634 37.6562 25.4946C37.6562 25.3258 37.7921 25.1899 37.9609 25.1899C38.1297 25.1899 38.2655 25.3258 38.2655 25.4946Z" fill="#C1FF72"/>
<path id="Vector_35" d="M40.8749 25.4946C40.8749 25.6634 40.7391 25.7992 40.5703 25.7992C40.4015 25.7992 40.2656 25.6634 40.2656 25.4946C40.2656 25.3258 40.4015 25.1899 40.5703 25.1899C40.7391 25.1899 40.8749 25.3258 40.8749 25.4946Z" fill="#C1FF72"/>
<path id="Vector_36" d="M43.4853 25.4946C43.4853 25.6634 43.3494 25.7992 43.1806 25.7992C43.0118 25.7992 42.876 25.6634 42.876 25.4946C42.876 25.3258 43.0118 25.1899 43.1806 25.1899C43.3494 25.1899 43.4853 25.3258 43.4853 25.4946Z" fill="#C1FF72"/>
<path id="Vector_37" d="M46.0976 25.4946C46.0976 25.6634 45.9617 25.7992 45.7929 25.7992C45.6241 25.7992 45.4883 25.6634 45.4883 25.4946C45.4883 25.3258 45.6241 25.1899 45.7929 25.1899C45.9617 25.1899 46.0976 25.3258 46.0976 25.4946Z" fill="#C1FF72"/>
</g>
<g id="Group_8">
<path id="Vector_38" d="M9.54679 34.1396C9.54679 34.3084 9.41093 34.4442 9.24214 34.4442C9.07335 34.4442 8.9375 34.3084 8.9375 34.1396C8.9375 33.9708 9.07335 33.835 9.24214 33.835C9.41093 33.835 9.54679 33.9708 9.54679 34.1396Z" fill="#C1FF72"/>
<path id="Vector_39" d="M12.1571 34.1396C12.1571 34.3084 12.0213 34.4442 11.8525 34.4442C11.6837 34.4442 11.5479 34.3084 11.5479 34.1396C11.5479 33.9708 11.6837 33.835 11.8525 33.835C12.0213 33.835 12.1571 33.9708 12.1571 34.1396Z" fill="#C1FF72"/>
<path id="Vector_40" d="M14.7685 34.1396C14.7685 34.3084 14.6326 34.4442 14.4638 34.4442C14.295 34.4442 14.1592 34.3084 14.1592 34.1396C14.1592 33.9708 14.295 33.835 14.4638 33.835C14.6326 33.835 14.7685 33.9708 14.7685 34.1396Z" fill="#C1FF72"/>
<path id="Vector_41" d="M17.3788 34.1396C17.3788 34.3084 17.243 34.4442 17.0742 34.4442C16.9054 34.4442 16.7695 34.3084 16.7695 34.1396C16.7695 33.9708 16.9054 33.835 17.0742 33.835C17.243 33.835 17.3788 33.9708 17.3788 34.1396Z" fill="#C1FF72"/>
<path id="Vector_42" d="M19.9892 34.1396C19.9892 34.3084 19.8533 34.4442 19.6845 34.4442C19.5157 34.4442 19.3799 34.3084 19.3799 34.1396C19.3799 33.9708 19.5157 33.835 19.6845 33.835C19.8533 33.835 19.9892 33.9708 19.9892 34.1396Z" fill="#C1FF72"/>
<path id="Vector_43" d="M22.6005 34.1396C22.6005 34.3084 22.4647 34.4442 22.2959 34.4442C22.1271 34.4442 21.9912 34.3084 21.9912 34.1396C21.9912 33.9708 22.1271 33.835 22.2959 33.835C22.4647 33.835 22.6005 33.9708 22.6005 34.1396Z" fill="#C1FF72"/>
<path id="Vector_44" d="M25.2109 34.1396C25.2109 34.3084 25.075 34.4442 24.9062 34.4442C24.7374 34.4442 24.6016 34.3084 24.6016 34.1396C24.6016 33.9708 24.7374 33.835 24.9062 33.835C25.075 33.835 25.2109 33.9708 25.2109 34.1396Z" fill="#C1FF72"/>
<path id="Vector_45" d="M27.8212 34.1396C27.8212 34.3084 27.6853 34.4442 27.5166 34.4442C27.3478 34.4442 27.2119 34.3084 27.2119 34.1396C27.2119 33.9708 27.3478 33.835 27.5166 33.835C27.6853 33.835 27.8212 33.9708 27.8212 34.1396Z" fill="#C1FF72"/>
<path id="Vector_46" d="M30.4335 34.1396C30.4335 34.3084 30.2977 34.4442 30.1289 34.4442C29.9601 34.4442 29.8242 34.3084 29.8242 34.1396C29.8242 33.9708 29.9601 33.835 30.1289 33.835C30.2977 33.835 30.4335 33.9708 30.4335 34.1396Z" fill="#C1FF72"/>
<path id="Vector_47" d="M33.0429 34.1396C33.0429 34.3084 32.907 34.4442 32.7382 34.4442C32.5694 34.4442 32.4336 34.3084 32.4336 34.1396C32.4336 33.9708 32.5694 33.835 32.7382 33.835C32.907 33.835 33.0429 33.9708 33.0429 34.1396Z" fill="#C1FF72"/>
<path id="Vector_48" d="M35.6532 34.1396C35.6532 34.3084 35.5174 34.4442 35.3486 34.4442C35.1798 34.4442 35.0439 34.3084 35.0439 34.1396C35.0439 33.9708 35.1798 33.835 35.3486 33.835C35.5174 33.835 35.6532 33.9708 35.6532 34.1396Z" fill="#C1FF72"/>
<path id="Vector_49" d="M38.2655 34.1396C38.2655 34.3084 38.1297 34.4442 37.9609 34.4442C37.7921 34.4442 37.6562 34.3084 37.6562 34.1396C37.6562 33.9708 37.7921 33.835 37.9609 33.835C38.1297 33.835 38.2655 33.9708 38.2655 34.1396Z" fill="#C1FF72"/>
<path id="Vector_50" d="M40.8749 34.1396C40.8749 34.3084 40.7391 34.4442 40.5703 34.4442C40.4015 34.4442 40.2656 34.3084 40.2656 34.1396C40.2656 33.9708 40.4015 33.835 40.5703 33.835C40.7391 33.835 40.8749 33.9708 40.8749 34.1396Z" fill="#C1FF72"/>
<path id="Vector_51" d="M43.4853 34.1396C43.4853 34.3084 43.3494 34.4442 43.1806 34.4442C43.0118 34.4442 42.876 34.3084 42.876 34.1396C42.876 33.9708 43.0118 33.835 43.1806 33.835C43.3494 33.835 43.4853 33.9708 43.4853 34.1396Z" fill="#C1FF72"/>
<path id="Vector_52" d="M46.0976 34.1396C46.0976 34.3084 45.9617 34.4442 45.7929 34.4442C45.6241 34.4442 45.4883 34.3084 45.4883 34.1396C45.4883 33.9708 45.6241 33.835 45.7929 33.835C45.9617 33.835 46.0976 33.9708 46.0976 34.1396Z" fill="#C1FF72"/>
</g>
<g id="Group_9">
<path id="Vector_53" d="M26.0993 36.2729H25.0273L25.5624 35.4232L26.0993 36.2729Z" fill="#AC69FF"/>
<path id="Vector_54" d="M30.6057 36.2729H29.874L30.2399 35.6926L30.6057 36.2729Z" fill="#AC69FF"/>
</g>
<g id="Group_10">
<path id="Vector_55" d="M15.5195 35.4232H15.3621L14.835 36.2729H14.9904L15.5195 35.4232Z" fill="#AC69FF"/>
<path id="Vector_56" d="M15.9657 35.4232H15.8084L15.2812 36.2729H15.4386L15.9657 35.4232Z" fill="#AC69FF"/>
<path id="Vector_57" d="M16.414 35.4232H16.2566L15.7295 36.2729H15.8849L16.414 35.4232Z" fill="#AC69FF"/>
<path id="Vector_58" d="M16.8612 35.4232H16.7039L16.1768 36.2729H16.3341L16.8612 35.4232Z" fill="#AC69FF"/>
<path id="Vector_59" d="M17.3075 35.4232H17.1522L16.623 36.2729H16.7804L17.3075 35.4232Z" fill="#AC69FF"/>
<path id="Vector_60" d="M17.7558 35.4232H17.5984L17.0713 36.2729H17.2286L17.7558 35.4232Z" fill="#AC69FF"/>
<path id="Vector_61" d="M18.2021 35.4232H18.0467L17.5176 36.2729H17.6749L18.2021 35.4232Z" fill="#AC69FF"/>
<path id="Vector_62" d="M18.6503 35.4232H18.493L17.9658 36.2729H18.1232L18.6503 35.4232Z" fill="#AC69FF"/>
<path id="Vector_63" d="M19.0976 35.4232H18.9402L18.4131 36.2729H18.5704L19.0976 35.4232Z" fill="#AC69FF"/>
<path id="Vector_64" d="M19.5458 35.4232H19.3885L18.8613 36.2729H19.0187L19.5458 35.4232Z" fill="#AC69FF"/>
<path id="Vector_65" d="M19.9921 35.4232H19.8348L19.3076 36.2729H19.465L19.9921 35.4232Z" fill="#AC69FF"/>
<path id="Vector_66" d="M20.4404 35.4232H20.283L19.7559 36.2729H19.9112L20.4404 35.4232Z" fill="#AC69FF"/>
<path id="Vector_67" d="M20.8876 35.4232H20.7303L20.2031 36.2729H20.3605L20.8876 35.4232Z" fill="#AC69FF"/>
<path id="Vector_68" d="M21.3359 35.4232H21.1785L20.6494 36.2729H20.8068L21.3359 35.4232Z" fill="#AC69FF"/>
<path id="Vector_69" d="M21.7822 35.4232H21.6248L21.0977 36.2729H21.255L21.7822 35.4232Z" fill="#AC69FF"/>
<path id="Vector_70" d="M22.2284 35.4232H22.073L21.5439 36.2729H21.7013L22.2284 35.4232Z" fill="#AC69FF"/>
<path id="Vector_71" d="M22.6767 35.4232H22.5193L21.9922 36.2729H22.1495L22.6767 35.4232Z" fill="#AC69FF"/>
<path id="Vector_72" d="M23.123 35.4232H22.9656L22.4385 36.2729H22.5958L23.123 35.4232Z" fill="#AC69FF"/>
<path id="Vector_73" d="M23.5722 35.4232H23.4148L22.8877 36.2729H23.045L23.5722 35.4232Z" fill="#AC69FF"/>
<path id="Vector_74" d="M24.0185 35.4232H23.8611L23.334 36.2729H23.4913L24.0185 35.4232Z" fill="#AC69FF"/>
</g>
<g id="Group_11">
<path id="Vector_75" d="M35.1884 35.2263H35.031L34.5039 36.076H34.6593L35.1884 35.2263Z" fill="#AC69FF"/>
<path id="Vector_76" d="M35.6347 35.2263H35.4773L34.9502 36.076H35.1076L35.6347 35.2263Z" fill="#AC69FF"/>
<path id="Vector_77" d="M36.0829 35.2263H35.9256L35.3984 36.076H35.5538L36.0829 35.2263Z" fill="#AC69FF"/>
<path id="Vector_78" d="M36.5302 35.2263H36.3728L35.8457 36.076H36.0031L36.5302 35.2263Z" fill="#AC69FF"/>
<path id="Vector_79" d="M36.9765 35.2263H36.8211L36.292 36.076H36.4494L36.9765 35.2263Z" fill="#AC69FF"/>
<path id="Vector_80" d="M37.4247 35.2263H37.2674L36.7402 36.076H36.8976L37.4247 35.2263Z" fill="#AC69FF"/>
<path id="Vector_81" d="M37.872 35.2263H37.7166L37.1875 36.076H37.3449L37.872 35.2263Z" fill="#AC69FF"/>
<path id="Vector_82" d="M38.3202 35.2263H38.1629L37.6357 36.076H37.7931L38.3202 35.2263Z" fill="#AC69FF"/>
<path id="Vector_83" d="M38.7665 35.2263H38.6092L38.082 36.076H38.2394L38.7665 35.2263Z" fill="#AC69FF"/>
<path id="Vector_84" d="M39.2148 35.2263H39.0574L38.5303 36.076H38.6876L39.2148 35.2263Z" fill="#AC69FF"/>
<path id="Vector_85" d="M39.662 35.2263H39.5047L38.9775 36.076H39.1349L39.662 35.2263Z" fill="#AC69FF"/>
<path id="Vector_86" d="M40.1103 35.2263H39.9529L39.4258 36.076H39.5812L40.1103 35.2263Z" fill="#AC69FF"/>
<path id="Vector_87" d="M40.5566 35.2263H40.3992L39.8721 36.076H40.0294L40.5566 35.2263Z" fill="#AC69FF"/>
<path id="Vector_88" d="M41.0048 35.2263H40.8475L40.3184 36.076H40.4757L41.0048 35.2263Z" fill="#AC69FF"/>
</g>
</g>
</g>
<defs>
<filter id="filter0_d_870_3795" x="7.2207" y="13" width="40.3291" height="35" filterUnits="userSpaceOnUse" color-interpolation-filters="sRGB">
<feFlood flood-opacity="0" result="BackgroundImageFix"/>
<feColorMatrix in="SourceAlpha" type="matrix" values="0 0 0 0 0 0 0 0 0 0 0 0 0 0 0 0 0 0 127 0" result="hardAlpha"/>
<feOffset dy="4"/>
<feGaussianBlur stdDeviation="2"/>
<feComposite in2="hardAlpha" operator="out"/>
<feColorMatrix type="matrix" values="0 0 0 0 0 0 0 0 0 0 0 0 0 0 0 0 0 0 0.15 0"/>
<feBlend mode="normal" in2="BackgroundImageFix" result="effect1_dropShadow_870_3795"/>
<feBlend mode="normal" in="SourceGraphic" in2="effect1_dropShadow_870_3795" result="shape"/>
</filter>
<filter id="filter1_d_870_3795" x="24.0827" y="15.757" width="17.7899" height="20.6005" filterUnits="userSpaceOnUse" color-interpolation-filters="sRGB">
<feFlood flood-opacity="0" result="BackgroundImageFix"/>
<feColorMatrix in="SourceAlpha" type="matrix" values="0 0 0 0 0 0 0 0 0 0 0 0 0 0 0 0 0 0 127 0" result="hardAlpha"/>
<feOffset dx="5.48449" dy="5.48449"/>
<feGaussianBlur stdDeviation="3.13399"/>
<feComposite in2="hardAlpha" operator="out"/>
<feColorMatrix type="matrix" values="0 0 0 0 0 0 0 0 0 0 0 0 0 0 0 0 0 0 0.3 0"/>
<feBlend mode="normal" in2="BackgroundImageFix" result="effect1_dropShadow_870_3795"/>
<feBlend mode="normal" in="SourceGraphic" in2="effect1_dropShadow_870_3795" result="shape"/>
</filter>
<filter id="filter2_d_870_3795" x="3.9082" y="24.5724" width="47.1094" height="18.4978" filterUnits="userSpaceOnUse" color-interpolation-filters="sRGB">
<feFlood flood-opacity="0" result="BackgroundImageFix"/>
<feColorMatrix in="SourceAlpha" type="matrix" values="0 0 0 0 0 0 0 0 0 0 0 0 0 0 0 0 0 0 127 0" result="hardAlpha"/>
<feOffset dy="4"/>
<feGaussianBlur stdDeviation="2"/>
<feComposite in2="hardAlpha" operator="out"/>
<feColorMatrix type="matrix" values="0 0 0 0 0 0 0 0 0 0 0 0 0 0 0 0 0 0 0.25 0"/>
<feBlend mode="normal" in2="BackgroundImageFix" result="effect1_dropShadow_870_3795"/>
<feBlend mode="normal" in="SourceGraphic" in2="effect1_dropShadow_870_3795" result="shape"/>
</filter>
<linearGradient id="paint0_linear_870_3795" x1="27.463" y1="35.0698" x2="27.463" y2="24.5728" gradientUnits="userSpaceOnUse">
<stop stop-color="#5127AE"/>
<stop offset="1" stop-color="#200C4C"/>
</linearGradient>
</defs>
</svg>
