<svg width="54" height="54" viewBox="0 0 54 54" fill="none" xmlns="http://www.w3.org/2000/svg">
<g id="Bronze award">
<rect x="0.5" y="0.5" width="53" height="53" rx="26.5" stroke="#CFDCE9"/>
<g id="Group 1000002834">
<g id="Star 1" filter="url(#filter0_d_870_3977)">
<path d="M26.2012 13.1548C26.9746 12.4906 28.1171 12.4906 28.8905 13.1548C29.3881 13.5821 30.0591 13.7475 30.6982 13.6004C31.6917 13.3716 32.7033 13.9026 33.0794 14.8501C33.3214 15.4597 33.8387 15.918 34.473 16.0847C35.4589 16.3439 36.108 17.2841 36.0007 18.2979C35.9316 18.9501 36.1767 19.5963 36.6609 20.0387C37.4134 20.7264 37.5512 21.8606 36.985 22.7084C36.6208 23.2538 36.5375 23.9398 36.7606 24.5566C37.1074 25.5152 36.7023 26.5835 35.807 27.0711C35.231 27.3848 34.8384 27.9535 34.7494 28.6033C34.6109 29.6133 33.7558 30.3709 32.7364 30.3866C32.0807 30.3967 31.4687 30.7179 31.0879 31.2518C30.4959 32.0818 29.3866 32.3552 28.4768 31.8954C27.8914 31.5996 27.2003 31.5996 26.615 31.8954C25.7051 32.3552 24.5958 32.0818 24.0039 31.2518C23.623 30.7179 23.0111 30.3967 22.3554 30.3866C21.336 30.3709 20.4808 29.6133 20.3424 28.6033C20.2533 27.9535 19.8608 27.3848 19.2848 27.0711C18.3895 26.5835 17.9844 25.5152 18.3312 24.5566C18.5543 23.9398 18.471 23.2538 18.1068 22.7084C17.5406 21.8606 17.6783 20.7264 18.4309 20.0387C18.9151 19.5963 19.1601 18.9501 19.0911 18.2979C18.9838 17.2841 19.6328 16.3439 20.6188 16.0847C21.2531 15.918 21.7704 15.4597 22.0123 14.8501C22.3885 13.9026 23.4001 13.3716 24.3936 13.6004C25.0327 13.7475 25.7037 13.5821 26.2012 13.1548Z" fill="#C1FF72"/>
<path d="M26.527 13.5341C27.113 13.0308 27.9787 13.0308 28.5648 13.5341C29.1828 14.0649 30.0164 14.2704 30.8104 14.0876C31.5632 13.9143 32.3297 14.3166 32.6147 15.0346C32.9153 15.7918 33.5579 16.3611 34.3459 16.5683C35.093 16.7647 35.5847 17.4771 35.5034 18.2453C35.4177 19.0555 35.7221 19.8582 36.3236 20.4078C36.8938 20.9289 36.9982 21.7883 36.5692 22.4307C36.1168 23.1083 36.0133 23.9605 36.2904 24.7267C36.5532 25.4531 36.2462 26.2625 35.5678 26.632C34.8523 27.0217 34.3646 27.7282 34.254 28.5354C34.1491 29.3007 33.5011 29.8748 32.7287 29.8867C31.9141 29.8992 31.1539 30.2982 30.6808 30.9615C30.2323 31.5904 29.3917 31.7976 28.7023 31.4492C27.9751 31.0817 27.1166 31.0817 26.3895 31.4492C25.7 31.7976 24.8595 31.5904 24.4109 30.9615C23.9379 30.2982 23.1777 29.8992 22.3631 29.8867C21.5907 29.8748 20.9427 29.3007 20.8378 28.5354C20.7271 27.7282 20.2394 27.0217 19.524 26.632C18.8456 26.2625 18.5386 25.4531 18.8014 24.7267C19.0785 23.9605 18.975 23.1083 18.5226 22.4307C18.0936 21.7883 18.1979 20.9289 18.7682 20.4078C19.3696 19.8582 19.6741 19.0555 19.5883 18.2453C19.507 17.4771 19.9988 16.7647 20.7459 16.5683C21.5339 16.3611 22.1765 15.7918 22.4771 15.0346C22.7621 14.3166 23.5286 13.9143 24.2814 14.0876C25.0754 14.2704 25.9089 14.0649 26.527 13.5341Z" stroke="#C1FF72"/>
</g>
<circle id="Ellipse 2" cx="27.4767" cy="22.4318" r="7.43181" fill="url(#paint0_linear_870_3977)"/>
<g id="Mask Group">
<mask id="mask0_870_3977" style="mask-type:alpha" maskUnits="userSpaceOnUse" x="20" y="16" width="15" height="15">
<ellipse id="Ellipse 4" cx="27.8845" cy="23.1732" rx="7.0075" ry="7.0075" fill="#C28B37"/>
</mask>
<g mask="url(#mask0_870_3977)">
<circle id="Ellipse 3" cx="27.4777" cy="22.4318" r="7.43181" fill="#5127AE"/>
</g>
</g>
<path id="Rectangle 25" d="M17.7275 31.4999L17.7275 40.0908L9.00028 40.0908L11.5615 35.7954L9.00028 31.4999L17.7275 31.4999Z" fill="#28105C"/>
<path id="Rectangle 26" d="M36.8184 31.4999L36.8184 40.0908L45.5456 40.0908L42.9844 35.7954L45.5456 31.4999L36.8184 31.4999Z" fill="#28105C"/>
<path id="Rectangle 34" d="M15.2725 33.8181L17.727 31.4999V41.9999H15.2725V33.8181Z" fill="#5127AE"/>
<path id="Rectangle 35" d="M39.2725 33.9545L36.8179 31.4999V41.9999H39.2725V33.9545Z" fill="#5127AE"/>
<rect id="Rectangle 33" x="15.2725" y="33.9546" width="24" height="8.04545" fill="#220D50"/>
<g id="Group 16">
<path id="Vector" d="M31.7438 23.3776C32.2996 21.004 30.826 18.6292 28.4524 18.0733C26.0788 17.5174 23.7039 18.991 23.1481 21.3647C22.5922 23.7383 24.0658 26.1131 26.4395 26.669C28.8131 27.2249 31.1879 25.7513 31.7438 23.3776Z" fill="#FF953B"/>
<path id="Vector_2" d="M27.4467 26.4101C25.2206 26.4101 23.4082 24.5978 23.4082 22.3717C23.4082 20.1455 25.2206 18.3332 27.4467 18.3332C29.6728 18.3332 31.4851 20.1455 31.4851 22.3717C31.4851 24.5978 29.6728 26.4101 27.4467 26.4101ZM27.4467 18.4728C25.2967 18.4728 23.5453 20.2217 23.5453 22.3742C23.5453 24.5267 25.2942 26.2756 27.4467 26.2756C29.5992 26.2756 31.3481 24.5267 31.3481 22.3742C31.3481 20.2217 29.5992 18.4728 27.4467 18.4728Z" fill="white"/>
<path id="Vector_3" d="M27.5834 19.0718L28.2509 21.1253C28.2713 21.1913 28.3347 21.2344 28.4032 21.2344H30.5608C30.7157 21.2344 30.7791 21.4324 30.6547 21.5238L28.9084 22.793C28.8525 22.8336 28.8297 22.9046 28.85 22.9706L29.5176 25.0241C29.5658 25.1714 29.3957 25.2932 29.2714 25.2018L27.525 23.9327C27.4691 23.892 27.393 23.892 27.3372 23.9327L25.5908 25.2018C25.4664 25.2932 25.2963 25.1714 25.3446 25.0241L26.0122 22.9706C26.0325 22.9046 26.0122 22.8336 25.9538 22.793L24.2074 21.5238C24.083 21.4324 24.1465 21.2344 24.3013 21.2344H26.4589C26.5274 21.2344 26.5884 21.1887 26.6112 21.1253L27.2788 19.0718C27.327 18.9246 27.5351 18.9246 27.5834 19.0718Z" fill="url(#paint1_linear_870_3977)"/>
</g>
<g id="Group 1000002832">
<g id="TECH GURU">
<path d="M19.041 37.4974V37.1541H19.3382V35.8083H19.041V36.2817H18.7012V35.4649H20.4944V36.2817H20.1588V35.8083H19.853V37.1541H20.1502V37.4974H19.041Z" fill="white"/>
<path d="M20.6792 37.4974V37.1541H20.9167V35.8083H20.6792V35.4649H22.4227V36.1093H22.0444V35.8083H21.4315V36.2773H21.9264V36.6207H21.4315V37.1541H22.0444V36.8501H22.4227V37.4974H20.6792Z" fill="white"/>
<path d="M24.304 35.4649H24.6382V36.1809H24.304C24.2092 35.9237 24.0447 35.7951 23.8106 35.7951C23.6172 35.7951 23.4707 35.8628 23.3712 35.9982C23.2726 36.1336 23.2233 36.2958 23.2233 36.4848C23.2233 36.6826 23.2754 36.8428 23.3797 36.9656C23.4849 37.0873 23.6186 37.1482 23.7807 37.1482C23.9134 37.1482 24.0296 37.1019 24.1291 37.0094C24.2286 36.9169 24.296 36.7883 24.331 36.6236L24.7207 36.8151C24.5728 37.2865 24.2471 37.5223 23.7437 37.5223C23.3882 37.5223 23.1199 37.4239 22.9389 37.2271C22.7587 37.0303 22.6687 36.7814 22.6687 36.4804C22.6687 36.2661 22.7156 36.0786 22.8094 35.9179C22.9033 35.7571 23.0294 35.6363 23.1877 35.5555C23.347 35.4737 23.5214 35.4327 23.711 35.4327C23.9471 35.4327 24.1447 35.4961 24.304 35.6227V35.4649Z" fill="white"/>
<path d="M24.8899 37.4974V37.1541H25.1373V35.8083H24.8899V35.4649H25.8455V35.8083H25.6379V36.2539H26.1768V35.8083H25.9763V35.4649H26.9263V35.8083H26.6774V37.1541H26.9263V37.4974H25.9763V37.1541H26.1768V36.5988H25.6379V37.1541H25.8455V37.4974H24.8899Z" fill="white"/>
<path d="M29.1375 36.8151V36.4717H30.0647C30.0647 36.7181 30.0211 36.9134 29.9339 37.0576C29.8476 37.2018 29.7215 37.3153 29.5556 37.3981C29.3907 37.4809 29.2053 37.5223 28.9996 37.5223C28.6422 37.5223 28.3677 37.4239 28.1762 37.2271C27.9857 37.0303 27.8904 36.7805 27.8904 36.4775C27.8904 36.2671 27.9378 36.0815 28.0326 35.9208C28.1274 35.7591 28.2549 35.6373 28.4151 35.5555C28.5754 35.4737 28.7493 35.4327 28.937 35.4327C29.2025 35.4327 29.4091 35.499 29.557 35.6315V35.4649H29.8926V36.1867H29.557C29.522 36.065 29.4523 35.969 29.348 35.8989C29.2437 35.8287 29.1318 35.7937 29.0124 35.7937C28.855 35.7937 28.7209 35.8511 28.61 35.9661C28.499 36.0801 28.4436 36.2384 28.4436 36.441C28.4436 36.6728 28.5 36.8496 28.6128 36.9714C28.7256 37.0922 28.8631 37.1526 29.0252 37.1526C29.1446 37.1526 29.2437 37.1229 29.3224 37.0635C29.4011 37.004 29.4556 36.9212 29.4859 36.8151H29.1375Z" fill="white"/>
<path d="M30.2538 35.8083V35.4649H31.1981V35.8083H31.0033V36.7274C31.0033 36.8501 31.008 36.9388 31.0175 36.9933C31.0279 37.0469 31.0544 37.0912 31.0971 37.1263C31.1398 37.1614 31.1938 37.1789 31.2592 37.1789C31.3265 37.1789 31.3825 37.1623 31.427 37.1292C31.4716 37.0961 31.5 37.0547 31.5123 37.005C31.5256 36.9553 31.5323 36.854 31.5323 36.7011V35.8083H31.3403V35.4649H32.1281V35.8083H31.8863V36.8253C31.8863 36.9636 31.8792 37.0644 31.865 37.1278C31.8508 37.1901 31.8181 37.2524 31.7669 37.3148C31.7157 37.3762 31.6413 37.4263 31.5436 37.4653C31.4469 37.5033 31.3355 37.5223 31.2094 37.5223C31.0635 37.5223 30.9388 37.5013 30.8355 37.4595C30.7331 37.4166 30.6567 37.3601 30.6065 37.29C30.5563 37.2198 30.524 37.1502 30.5098 37.081C30.4956 37.0118 30.4885 36.894 30.4885 36.7274V35.8083H30.2538Z" fill="white"/>
<path d="M34.301 37.1541V37.4974H33.698L33.2515 36.6076H33.0254V37.1541H33.2728V37.4974H32.239V37.1541H32.5106V35.8083H32.239V35.4649H33.4321C33.6568 35.4649 33.8184 35.5233 33.917 35.6402C34.0166 35.7562 34.0663 35.8877 34.0663 36.0348C34.0663 36.2656 33.9521 36.4342 33.7236 36.5403L34.045 37.1541H34.301ZM33.0254 36.2832H33.2017C33.4198 36.2832 33.5288 36.2033 33.5288 36.0435C33.5288 35.9646 33.5037 35.9057 33.4534 35.8667C33.4041 35.8278 33.3359 35.8083 33.2487 35.8083H33.0254V36.2832Z" fill="white"/>
<path d="M34.2896 35.8083V35.4649H35.2338V35.8083H35.039V36.7274C35.039 36.8501 35.0437 36.9388 35.0532 36.9933C35.0637 37.0469 35.0902 37.0912 35.1329 37.1263C35.1755 37.1614 35.2296 37.1789 35.295 37.1789C35.3623 37.1789 35.4182 37.1623 35.4628 37.1292C35.5073 37.0961 35.5358 37.0547 35.5481 37.005C35.5614 36.9553 35.568 36.854 35.568 36.7011V35.8083H35.376V35.4649H36.1638V35.8083H35.9221V36.8253C35.9221 36.9636 35.915 37.0644 35.9008 37.1278C35.8865 37.1901 35.8538 37.2524 35.8026 37.3148C35.7514 37.3762 35.677 37.4263 35.5794 37.4653C35.4827 37.5033 35.3713 37.5223 35.2452 37.5223C35.0992 37.5223 34.9745 37.5013 34.8712 37.4595C34.7688 37.4166 34.6925 37.3601 34.6423 37.29C34.592 37.2198 34.5598 37.1502 34.5456 37.081C34.5313 37.0118 34.5242 36.894 34.5242 36.7274V35.8083H34.2896Z" fill="white"/>
</g>
<g id="MEDALLION">
<path d="M17.8057 40.4825V40.1391H18.0618V38.7933H17.8057V38.4499H18.7975L19.233 39.6423L19.6699 38.4499H20.6817V38.7933H20.4255V40.1391H20.6817V40.4825H19.6855V40.1391H19.9246V38.7933H19.8776L19.2643 40.4825H19.0508L18.4304 38.7933H18.3834V40.1391H18.6424V40.4825H17.8057Z" fill="white"/>
<path d="M20.8596 40.4825V40.1391H21.0972V38.7933H20.8596V38.4499H22.6042V39.0943H22.2257V38.7933H21.6124V39.2624H22.1076V39.6058H21.6124V40.1391H22.2257V39.8352H22.6042V40.4825H20.8596Z" fill="white"/>
<path d="M22.775 40.4825V40.1391H23.0753V38.7933H22.775V38.4499H23.7128C23.9101 38.4499 24.069 38.4626 24.1895 38.4879C24.31 38.5123 24.4253 38.5673 24.5353 38.653C24.6454 38.7378 24.7336 38.8518 24.8 38.995C24.8664 39.1382 24.8996 39.297 24.8996 39.4713C24.8996 39.6126 24.8764 39.7475 24.8299 39.8761C24.7834 40.0037 24.7255 40.107 24.6563 40.1859C24.588 40.2638 24.5059 40.3261 24.4101 40.3729C24.3143 40.4187 24.2261 40.4484 24.1454 40.462C24.0657 40.4757 23.9419 40.4825 23.774 40.4825H22.775ZM23.589 40.1391H23.7128C23.8627 40.1391 23.9813 40.1191 24.0686 40.0792C24.1568 40.0393 24.2275 39.9691 24.2806 39.8688C24.3337 39.7675 24.3603 39.6355 24.3603 39.4728C24.3603 39.3179 24.3333 39.1864 24.2792 39.0783C24.2261 38.9701 24.1535 38.8956 24.0615 38.8547C23.9704 38.8138 23.8542 38.7933 23.7128 38.7933H23.589V40.1391Z" fill="white"/>
<path d="M26.993 40.1391V40.4825H26.0196V40.1391H26.2729L26.179 39.7899H25.6652L25.5599 40.1391H25.8246V40.4825H24.948V40.1391H25.1928L25.5784 38.7933H25.3152V38.4499H26.6073V38.7933H26.3412L26.7567 40.1391H26.993ZM26.0979 39.4918L25.9328 38.8795L25.7549 39.4918H26.0979Z" fill="white"/>
<path d="M27.0712 40.4825V40.1391H27.3544V38.7933H27.0712V38.4499H28.1585V38.7933H27.8696V40.1391H28.4544V39.5108H28.8401V40.4825H27.0712Z" fill="white"/>
<path d="M28.9554 40.4825V40.1391H29.2386V38.7933H28.9554V38.4499H30.0426V38.7933H29.7537V40.1391H30.3386V39.5108H30.7242V40.4825H28.9554Z" fill="white"/>
<path d="M30.8224 40.4825V40.1391H31.1227V38.7933H30.8224V38.4499H31.941V38.7933H31.6378V40.1391H31.941V40.4825H30.8224Z" fill="white"/>
<path d="M33.2459 38.4178C33.5874 38.4178 33.8559 38.5191 34.0514 38.7217C34.2477 38.9243 34.3459 39.1713 34.3459 39.4626C34.3459 39.7548 34.2477 40.0022 34.0514 40.2049C33.855 40.4065 33.5865 40.5073 33.2459 40.5073C32.892 40.5073 32.6202 40.4036 32.4305 40.1961C32.2407 39.9876 32.1459 39.7431 32.1459 39.4626C32.1459 39.1723 32.2431 38.9258 32.4376 38.7232C32.633 38.5196 32.9025 38.4178 33.2459 38.4178ZM33.2459 38.7889C33.0941 38.7889 32.9651 38.8474 32.8588 38.9643C32.7535 39.0812 32.7009 39.2526 32.7009 39.4786C32.7009 39.6783 32.753 39.8381 32.8574 39.9579C32.9618 40.0777 33.0913 40.1376 33.2459 40.1376C33.3977 40.1376 33.5267 40.0792 33.633 39.9623C33.7392 39.8444 33.7924 39.6749 33.7924 39.4538C33.7924 39.256 33.7416 39.0958 33.6401 38.9731C33.5386 38.8503 33.4072 38.7889 33.2459 38.7889Z" fill="white"/>
<path d="M34.5708 40.4825V40.1391H34.8355V38.7933H34.5708V38.4499H35.4004L36.1305 39.7183V38.7933H35.8729V38.4499H36.7609V38.7933H36.4834V40.4971H36.0422L35.1884 38.9906V40.1391H35.4374V40.4825H34.5708Z" fill="white"/>
</g>
</g>
</g>
</g>
<defs>
<filter id="filter0_d_870_3977" x="13.7588" y="12.6567" width="27.5742" height="27.4608" filterUnits="userSpaceOnUse" color-interpolation-filters="sRGB">
<feFlood flood-opacity="0" result="BackgroundImageFix"/>
<feColorMatrix in="SourceAlpha" type="matrix" values="0 0 0 0 0 0 0 0 0 0 0 0 0 0 0 0 0 0 127 0" result="hardAlpha"/>
<feOffset dy="4"/>
<feGaussianBlur stdDeviation="2"/>
<feComposite in2="hardAlpha" operator="out"/>
<feColorMatrix type="matrix" values="0 0 0 0 0 0 0 0 0 0 0 0 0 0 0 0 0 0 0.1 0"/>
<feBlend mode="normal" in2="BackgroundImageFix" result="effect1_dropShadow_870_3977"/>
<feBlend mode="normal" in="SourceGraphic" in2="effect1_dropShadow_870_3977" result="shape"/>
</filter>
<linearGradient id="paint0_linear_870_3977" x1="27.4767" y1="29.8631" x2="27.4767" y2="15.0006" gradientUnits="userSpaceOnUse">
<stop stop-color="#5127AE"/>
<stop offset="1" stop-color="#200C4C"/>
</linearGradient>
<linearGradient id="paint1_linear_870_3977" x1="25.1339" y1="24.9353" x2="29.7308" y2="20.3384" gradientUnits="userSpaceOnUse">
<stop offset="0.19" stop-color="#FFDB3B"/>
<stop offset="0.31" stop-color="#FFD33B"/>
<stop offset="0.72" stop-color="#FFBF3B"/>
<stop offset="1" stop-color="#FFB83B"/>
</linearGradient>
</defs>
</svg>
