<svg width="39" height="38" viewBox="0 0 39 38" fill="none" xmlns="http://www.w3.org/2000/svg">
<g id="Frame 1000005014">
<g id="Group 20">
<g id="Vector" filter="url(#filter0_d_870_3593)">
<path fill-rule="evenodd" clip-rule="evenodd" d="M4.62012 8.89117L19.9678 0L35.3153 8.89117L30.1971 30.0214L19.9678 35L9.73829 30.0214L4.62012 8.89117Z" fill="#F2F6FF"/>
</g>
<path id="Vector_2" fill-rule="evenodd" clip-rule="evenodd" d="M8.55204 22.3511L10.2374 22.6849L10.3243 22.6704C11.7337 22.435 13.1769 22.2966 14.602 22.199C16.3981 22.0762 18.2027 22.0239 20.0029 22.0239C21.8031 22.0239 23.6074 22.0762 25.4038 22.199C26.8288 22.2963 28.2721 22.4347 29.6815 22.6704L29.771 22.6853L31.3848 22.3475L32.9376 15.9324L32.2255 16.0391C30.4358 16.3072 28.6109 16.4636 26.8054 16.5742C24.5304 16.7135 22.247 16.7726 19.968 16.7726C17.6889 16.7726 15.4055 16.7133 13.1305 16.5742C11.3248 16.4636 9.50014 16.3072 7.7102 16.0391L6.99805 15.9324L8.5518 22.3511H8.55204Z" fill="#BCE5EB"/>
<path id="Vector_3" fill-rule="evenodd" clip-rule="evenodd" d="M5.81445 9.40319L10.5712 29.0551L19.9684 33.6317L29.3654 29.0551L34.1221 9.40319L19.9684 1.198L5.81445 9.40319Z" fill="#220D50"/>
<path id="Vector_4" fill-rule="evenodd" clip-rule="evenodd" d="M6.7041 9.78563L7.59429 10.1682L11.9045 27.9748L19.9679 31.9019V32.7669L28.6982 28.5152L33.2316 9.78563L19.9679 2.09631L6.7041 9.78563ZM8.48447 10.5507L7.59429 10.1682L19.9679 2.99495V3.89358L31.4513 10.5507L27.3646 27.4349L19.9679 31.0371L12.5712 27.4349L8.48447 10.5507Z" fill="#E4ECFE"/>
<path id="Vector_5" fill-rule="evenodd" clip-rule="evenodd" d="M19.9679 23.7592L19.6187 24.4033L18.9009 24.5379L19.4031 25.0703L19.3086 25.7977L19.9681 25.4827L20.6276 25.7977L20.5331 25.0703L21.0351 24.5379L20.317 24.4033L19.9679 23.7592ZM16.7419 24.0859L16.5045 24.5235L16.0166 24.6148L16.3578 24.9766L16.2935 25.4706L16.7417 25.2566L17.1899 25.4706L17.1257 24.9766L17.467 24.6148L16.9791 24.5235L16.7417 24.0859H16.7419ZM23.1938 24.0859L22.9565 24.5235L22.4685 24.6148L22.8098 24.9766L22.7456 25.4706L23.1938 25.2566L23.642 25.4706L23.5779 24.9766L23.9192 24.6148L23.4312 24.5235L23.1941 24.0859H23.1938Z" fill="#C1FF72"/>
</g>
<g id="Group 37">
<g id="Group">
<path id="Vector_6" d="M22.8419 12.3693L24.5004 10.5612H28.8715C28.9014 10.6809 29.009 10.7707 29.1385 10.7707C29.2906 10.7707 29.4143 10.647 29.4143 10.4949C29.4143 10.3428 29.2906 10.219 29.1385 10.219C29.009 10.219 28.9014 10.3088 28.8715 10.4285H24.4422L22.7837 12.2367H19.9149C19.885 12.1169 19.7774 12.0271 19.6479 12.0271C19.4958 12.0271 19.3721 12.1509 19.3721 12.303C19.3721 12.4551 19.4958 12.5789 19.6479 12.5789C19.7774 12.5789 19.885 12.4891 19.9149 12.3693H22.8419ZM29.1393 10.3517C29.1943 10.3517 29.2412 10.3832 29.2647 10.4285C29.2752 10.4488 29.2817 10.4706 29.2817 10.4949C29.2817 10.5191 29.2752 10.5418 29.2647 10.5612C29.2404 10.6065 29.1935 10.6373 29.1393 10.6373C29.0851 10.6373 29.0373 10.6057 29.0139 10.5612C29.0034 10.541 28.9969 10.5191 28.9969 10.4949C28.9969 10.4706 29.0034 10.4479 29.0139 10.4285C29.0381 10.3832 29.0851 10.3517 29.1393 10.3517ZM19.7911 12.3022C19.7911 12.3265 19.7847 12.3491 19.7741 12.3685C19.7499 12.4138 19.703 12.4446 19.6488 12.4446C19.5703 12.4446 19.5056 12.3807 19.5056 12.3014C19.5056 12.2221 19.5695 12.1582 19.6488 12.1582C19.7038 12.1582 19.7507 12.1897 19.7741 12.2342C19.7847 12.2545 19.7911 12.2763 19.7911 12.3006V12.3022Z" fill="#BF00FF"/>
<path id="Vector_7" d="M29.1382 11.4357C29.0087 11.4357 28.9011 11.5255 28.8712 11.6453H25.2104L23.5519 13.4534H20.9647C20.9348 13.3337 20.8272 13.2439 20.6977 13.2439C20.5457 13.2439 20.4219 13.3676 20.4219 13.5197C20.4219 13.6718 20.5457 13.7956 20.6977 13.7956C20.8272 13.7956 20.9348 13.7058 20.9647 13.5861H23.6102L25.2687 11.7779H28.8704C28.9003 11.8977 29.0079 11.9875 29.1374 11.9875C29.2895 11.9875 29.4132 11.8637 29.4132 11.7116C29.4132 11.5595 29.2895 11.4357 29.1374 11.4357H29.1382ZM20.8409 13.5197C20.8409 13.544 20.8345 13.5667 20.824 13.5861C20.7997 13.6314 20.7528 13.6621 20.6986 13.6621C20.6201 13.6621 20.5554 13.5982 20.5554 13.5189C20.5554 13.4397 20.6193 13.3757 20.6986 13.3757C20.7536 13.3757 20.8005 13.4073 20.824 13.4518C20.8345 13.472 20.8409 13.4939 20.8409 13.5181V13.5197ZM29.2814 11.7116C29.2814 11.7359 29.2749 11.7585 29.2644 11.7779C29.2401 11.8232 29.1932 11.854 29.139 11.854C29.0848 11.854 29.037 11.8224 29.0136 11.7779C29.0031 11.7577 28.9966 11.7359 28.9966 11.7116C28.9966 11.6873 29.0031 11.6647 29.0136 11.6453C29.0379 11.6 29.0848 11.5684 29.139 11.5684C29.1932 11.5684 29.2409 11.6 29.2644 11.6453C29.2749 11.6655 29.2814 11.6873 29.2814 11.7116Z" fill="#BF00FF"/>
</g>
<path id="Vector_8" d="M25.9865 10.8492C25.8465 10.8492 25.7324 10.9633 25.7324 11.1033C25.7324 11.2432 25.8465 11.3573 25.9865 11.3573C26.111 11.3573 26.2146 11.2667 26.2356 11.1478H29.3479V11.0588H26.2356C26.2146 10.9399 26.111 10.8492 25.9865 10.8492ZM25.9865 11.2683C25.895 11.2683 25.8214 11.1947 25.8214 11.1033C25.8214 11.0119 25.8958 10.9382 25.9865 10.9382C26.0617 10.9382 26.1256 10.9892 26.145 11.0588C26.1491 11.0733 26.1515 11.0879 26.1515 11.1033C26.1515 11.1186 26.1483 11.1332 26.145 11.1478C26.1256 11.2173 26.0625 11.2683 25.9865 11.2683Z" fill="#51F0FF"/>
<path id="Vector_9" d="M24.8552 10.8492C24.7152 10.8492 24.6012 10.9633 24.6012 11.1033C24.6012 11.1607 24.6214 11.2141 24.6538 11.257L23.1765 12.8669H21.5755C21.5544 12.748 21.4509 12.6574 21.3263 12.6574C21.1863 12.6574 21.0723 12.7715 21.0723 12.9114C21.0723 13.0514 21.1863 13.1654 21.3263 13.1654C21.4509 13.1654 21.5544 13.0748 21.5755 12.9559H23.2161L24.7193 11.3177C24.7589 11.3427 24.805 11.3581 24.8552 11.3581C24.9952 11.3581 25.1092 11.244 25.1092 11.1041C25.1092 10.9641 24.9952 10.8501 24.8552 10.8501V10.8492ZM21.4913 12.9114C21.4913 12.9268 21.4881 12.9413 21.4849 12.9559C21.4654 13.0255 21.4023 13.0765 21.3263 13.0765C21.2349 13.0765 21.1613 13.002 21.1613 12.9114C21.1613 12.8208 21.2357 12.7464 21.3263 12.7464C21.4015 12.7464 21.4654 12.7973 21.4849 12.8669C21.4889 12.8815 21.4913 12.896 21.4913 12.9114ZM24.8552 11.2683C24.8285 11.2683 24.8034 11.261 24.7808 11.2497C24.7541 11.2359 24.7314 11.2157 24.7152 11.1898C24.6999 11.1648 24.6902 11.1348 24.6902 11.1033C24.6902 11.0127 24.7646 10.9382 24.8552 10.9382C24.9458 10.9382 25.0202 11.0127 25.0202 11.1033C25.0202 11.1939 24.9458 11.2683 24.8552 11.2683Z" fill="#51F0FF"/>
</g>
<g id="Group 1000002836">
<path id="Vector_10" d="M13.1163 14.8151V14.5677C13.2719 14.5677 13.4298 14.5535 13.583 14.5276L13.6254 14.7704C13.4581 14.801 13.286 14.8151 13.1163 14.8151ZM12.6072 14.7727C12.4398 14.7444 12.2725 14.6997 12.1122 14.6407L12.1971 14.4074C12.3432 14.4616 12.4964 14.5017 12.6496 14.5276L12.6072 14.7704V14.7727ZM14.1204 14.6384L14.0355 14.4074C14.1816 14.3532 14.3254 14.2872 14.4598 14.2094L14.5847 14.4239C14.4362 14.5087 14.2806 14.5818 14.1204 14.6407V14.6384ZM11.6479 14.4239C11.4994 14.339 11.358 14.24 11.2284 14.1293L11.3863 13.9407C11.5065 14.0397 11.6338 14.1316 11.7705 14.2094L11.6479 14.4239ZM15.0019 14.1269L14.844 13.9384C14.9642 13.837 15.0749 13.7262 15.1763 13.606L15.3648 13.7639C15.2564 13.8936 15.1339 14.0161 15.0042 14.1246L15.0019 14.1269ZM10.8654 13.7687C10.7546 13.639 10.6556 13.4976 10.5708 13.3515L10.7853 13.2266C10.863 13.3609 10.955 13.4905 11.054 13.6084L10.8654 13.7687ZM15.6571 13.3444L15.4426 13.2218C15.5204 13.0851 15.5888 12.9437 15.6406 12.7976L15.8739 12.8824C15.815 13.0427 15.742 13.1983 15.6571 13.3468V13.3444ZM10.3539 12.8872C10.295 12.7269 10.2502 12.5619 10.2219 12.3922L10.4647 12.3498C10.493 12.503 10.5331 12.6562 10.5873 12.8023L10.3563 12.8872H10.3539ZM16.0059 12.3875L15.7632 12.345C15.7891 12.1918 15.8032 12.0339 15.8032 11.8784L16.0507 11.8666V11.8784C16.0507 12.0504 16.0366 12.2201 16.0059 12.3875ZM10.1772 11.8831V11.8784C10.1772 11.7087 10.1913 11.5413 10.2196 11.3763L10.4624 11.4188C10.4364 11.5696 10.4223 11.7252 10.4223 11.8807L10.1748 11.8854L10.1772 11.8831ZM15.7608 11.3999C15.7325 11.2467 15.6925 11.0935 15.6382 10.9474L15.8692 10.8625C15.9282 11.0228 15.9729 11.1878 16.0036 11.3551L15.7608 11.3999ZM10.5826 10.9639L10.3492 10.879C10.4081 10.7187 10.4789 10.5632 10.5637 10.4147L10.7782 10.5373C10.7004 10.6716 10.6344 10.8154 10.5802 10.9615L10.5826 10.9639ZM15.4379 10.5255C15.3578 10.3911 15.2682 10.2615 15.1669 10.1436L15.3554 9.98337C15.4662 10.113 15.5652 10.2544 15.65 10.4006L15.4355 10.5255H15.4379ZM11.0492 10.1554L10.8607 9.99751C10.9691 9.86788 11.0917 9.74532 11.2213 9.63454L11.3816 9.8231C11.2614 9.92445 11.1506 10.0352 11.0516 10.1554H11.0492ZM14.8345 9.81131C14.7143 9.71232 14.5847 9.6204 14.4503 9.54262L14.5729 9.32813C14.7214 9.41298 14.8628 9.51198 14.9924 9.6204L14.8345 9.80895V9.81131ZM11.761 9.55204L11.6361 9.33756C11.7823 9.25035 11.9402 9.17964 12.0981 9.12072L12.1829 9.3517C12.0368 9.40591 11.893 9.47191 11.7587 9.55204H11.761ZM14.0237 9.34699C13.8776 9.29513 13.7268 9.25271 13.5712 9.22678L13.6136 8.98402C13.7833 9.0123 13.9483 9.05708 14.1086 9.11365L14.0237 9.34699ZM12.6378 9.22914L12.5954 8.98637C12.7628 8.95809 12.9325 8.94159 13.1045 8.94159V9.18907C12.949 9.18907 12.791 9.20321 12.6378 9.2315V9.22914Z" fill="#BF00FF"/>
<path id="Vector_11" d="M13.948 11.8784C13.948 12.338 13.5756 12.7127 13.1137 12.7127C12.6517 12.7127 12.2793 12.3403 12.2793 11.8784C12.2793 11.4164 12.6517 11.044 13.1137 11.044C13.5756 11.044 13.948 11.4164 13.948 11.8784Z" fill="#AC69FF"/>
<path id="Vector_12" d="M27.4275 22.8051C27.4275 23.2647 27.0551 23.6395 26.5932 23.6395C26.1312 23.6395 25.7588 23.2671 25.7588 22.8051C25.7588 22.3432 26.1312 21.9708 26.5932 21.9708C27.0551 21.9708 27.4275 22.3432 27.4275 22.8051Z" fill="#AC69FF"/>
</g>
<g id="Group 1000002835">
<g id="Group 18">
<g id="Vector_13" filter="url(#filter1_d_870_3593)">
<path d="M36.8653 12.0172H2.56783C2.17651 12.0172 1.90206 12.4946 2.03309 12.9481L3.29025 17.3322L2.03309 21.7163C1.90206 22.1719 2.17651 22.6472 2.56783 22.6472H36.8653C37.2566 22.6472 37.5311 22.1697 37.4001 21.7163L36.1429 17.3322L37.4001 12.9481C37.5311 12.4925 37.2566 12.0172 36.8653 12.0172Z" fill="#200C4C"/>
</g>
<path id="Vector_14" d="M2.17676 20.3439H37.2556L36.1968 17.3585L37.0229 15.0289H2.40947L3.2355 17.3585L2.17676 20.3439Z" fill="#F2F6FF"/>
</g>
<g id="Group 19">
<path id="Vector_15" d="M6.37255 14.3139H7.08299V13.0801H6.37255C6.28751 13.0801 6.22905 13.1794 6.26094 13.2705L6.41507 13.698L6.26094 14.1255C6.22905 14.2167 6.28574 14.3159 6.37255 14.3159V14.3139Z" fill="#C1FF72"/>
<path id="Vector_16" d="M33.0063 13.0821H32.2959V14.3159H33.0063C33.0914 14.3159 33.1498 14.2167 33.1179 14.1255L32.9638 13.698L33.1179 13.2705C33.1498 13.1794 33.0931 13.0801 33.0063 13.0801V13.0821Z" fill="#C1FF72"/>
<g id="COLLABORATION">
<path d="M9.27144 12.7531H9.56259V13.3602H9.27144C9.18884 13.1421 9.04554 13.0331 8.84153 13.0331C8.67304 13.0331 8.54543 13.0905 8.45871 13.2053C8.37281 13.3201 8.32986 13.4576 8.32986 13.6179C8.32986 13.7855 8.37529 13.9214 8.46614 14.0255C8.55782 14.1287 8.67428 14.1803 8.81552 14.1803C8.93115 14.1803 9.03233 14.1411 9.11905 14.0626C9.20578 13.9842 9.26442 13.8751 9.29498 13.7356L9.63444 13.8978C9.5056 14.2976 9.22188 14.4975 8.7833 14.4975C8.47357 14.4975 8.23983 14.4141 8.08207 14.2472C7.92514 14.0804 7.84668 13.8694 7.84668 13.6141C7.84668 13.4324 7.88756 13.2734 7.96933 13.1372C8.0511 13.0009 8.16095 12.8985 8.29889 12.8299C8.43765 12.7605 8.58962 12.7258 8.75481 12.7258C8.96047 12.7258 9.13268 12.7795 9.27144 12.8869V12.7531Z" fill="white"/>
<path d="M10.7866 12.7258C11.084 12.7258 11.3177 12.8117 11.4879 12.9835C11.6588 13.1553 11.7443 13.3647 11.7443 13.6117C11.7443 13.8594 11.6588 14.0692 11.4879 14.241C11.3169 14.412 11.0832 14.4975 10.7866 14.4975C10.4786 14.4975 10.2419 14.4095 10.0767 14.2336C9.91155 14.0568 9.82895 13.8495 9.82895 13.6117C9.82895 13.3655 9.91361 13.1566 10.0829 12.9848C10.2531 12.8121 10.4876 12.7258 10.7866 12.7258ZM10.7866 13.0405C10.6545 13.0405 10.5422 13.0901 10.4497 13.1892C10.358 13.2883 10.3121 13.4337 10.3121 13.6253C10.3121 13.7946 10.3576 13.9301 10.4484 14.0317C10.5393 14.1332 10.652 14.184 10.7866 14.184C10.9188 14.184 11.0311 14.1345 11.1236 14.0354C11.2161 13.9354 11.2624 13.7917 11.2624 13.6042C11.2624 13.4366 11.2182 13.3007 11.1298 13.1966C11.0414 13.0926 10.9271 13.0405 10.7866 13.0405Z" fill="white"/>
<path d="M11.9426 14.4764V14.1853H12.1891V13.0442H11.9426V12.7531H12.8891V13.0442H12.6376V14.1853H13.1468V13.6525H13.4825V14.4764H11.9426Z" fill="white"/>
<path d="M13.5829 14.4764V14.1853H13.8294V13.0442H13.5829V12.7531H14.5294V13.0442H14.2779V14.1853H14.7871V13.6525H15.1229V14.4764H13.5829Z" fill="white"/>
<path d="M16.9267 14.1853V14.4764H16.0793V14.1853H16.2998L16.2181 13.8892H15.7708L15.6791 14.1853H15.9096V14.4764H15.1464V14.1853H15.3595L15.6952 13.0442H15.466V12.7531H16.591V13.0442H16.3593L16.7211 14.1853H16.9267ZM16.1475 13.6364L16.0037 13.1173L15.8489 13.6364H16.1475Z" fill="white"/>
<path d="M17.0085 14.4764V14.1853H17.2204V13.0442H17.0085V12.7531H17.7952C17.9695 12.7531 18.0992 12.7634 18.1842 12.7841C18.2693 12.8039 18.3428 12.853 18.4048 12.9315C18.4667 13.0091 18.4977 13.1004 18.4977 13.2053C18.4977 13.373 18.4167 13.4915 18.2549 13.5609C18.4613 13.6377 18.5646 13.7752 18.5646 13.9734C18.5646 14.0874 18.5324 14.1853 18.468 14.267C18.4044 14.348 18.3218 14.4033 18.2202 14.4331C18.1194 14.462 17.9778 14.4764 17.7952 14.4764H17.0085ZM17.6688 13.4333H17.7952C17.8828 13.4333 17.9472 13.4184 17.9885 13.3887C18.0298 13.3589 18.0504 13.3065 18.0504 13.2313C18.0504 13.1628 18.0302 13.1144 17.9897 13.0864C17.9501 13.0583 17.8803 13.0442 17.7804 13.0442H17.6688V13.4333ZM17.6688 14.1853H17.7952C17.91 14.1853 17.9901 14.1688 18.0356 14.1357C18.081 14.1027 18.1037 14.0445 18.1037 13.961C18.1037 13.8735 18.0789 13.8124 18.0294 13.7777C17.9806 13.7422 17.9026 13.7244 17.7952 13.7244H17.6688V14.1853Z" fill="white"/>
<path d="M19.7787 12.7258C20.0761 12.7258 20.3098 12.8117 20.48 12.9835C20.6509 13.1553 20.7364 13.3647 20.7364 13.6117C20.7364 13.8594 20.6509 14.0692 20.48 14.241C20.309 14.412 20.0752 14.4975 19.7787 14.4975C19.4707 14.4975 19.234 14.4095 19.0688 14.2336C18.9036 14.0568 18.821 13.8495 18.821 13.6117C18.821 13.3655 18.9057 13.1566 19.075 12.9848C19.2452 12.8121 19.4797 12.7258 19.7787 12.7258ZM19.7787 13.0405C19.6466 13.0405 19.5343 13.0901 19.4417 13.1892C19.3501 13.2883 19.3042 13.4337 19.3042 13.6253C19.3042 13.7946 19.3497 13.9301 19.4405 14.0317C19.5314 14.1332 19.6441 14.184 19.7787 14.184C19.9109 14.184 20.0232 14.1345 20.1157 14.0354C20.2082 13.9354 20.2545 13.7917 20.2545 13.6042C20.2545 13.4366 20.2103 13.3007 20.1219 13.1966C20.0335 13.0926 19.9191 13.0405 19.7787 13.0405Z" fill="white"/>
<path d="M22.7187 14.1853V14.4764H22.1934L21.8044 13.7219H21.6074V14.1853H21.823V14.4764H20.9223V14.1853H21.1589V13.0442H20.9223V12.7531H21.9617C22.1575 12.7531 22.2983 12.8026 22.3842 12.9018C22.4709 13 22.5143 13.1115 22.5143 13.2363C22.5143 13.432 22.4147 13.5749 22.2157 13.6649L22.4957 14.1853H22.7187ZM21.6074 13.4469H21.761C21.951 13.4469 22.046 13.3792 22.046 13.2437C22.046 13.1768 22.0241 13.1268 21.9803 13.0938C21.9373 13.0608 21.8779 13.0442 21.8019 13.0442H21.6074V13.4469Z" fill="white"/>
<path d="M24.4891 14.1853V14.4764H23.6417V14.1853H23.8622L23.7805 13.8892H23.3332L23.2415 14.1853H23.472V14.4764H22.7088V14.1853H22.9219L23.2576 13.0442H23.0284V12.7531H24.1534V13.0442H23.9217L24.2835 14.1853H24.4891ZM23.7098 13.6364L23.5661 13.1173L23.4113 13.6364H23.7098Z" fill="white"/>
<path d="M24.784 14.4764V14.1853H25.0429V13.0442H24.784V13.4456H24.4879V12.7531H26.0502V13.4456H25.7578V13.0442H25.4914V14.1853H25.7503V14.4764H24.784Z" fill="white"/>
<path d="M26.1827 14.4764V14.1853H26.4441V13.0442H26.1827V12.7531H27.1565V13.0442H26.8926V14.1853H27.1565V14.4764H26.1827Z" fill="white"/>
<path d="M28.2926 12.7258C28.5899 12.7258 28.8237 12.8117 28.9938 12.9835C29.1648 13.1553 29.2503 13.3647 29.2503 13.6117C29.2503 13.8594 29.1648 14.0692 28.9938 14.241C28.8229 14.412 28.5891 14.4975 28.2926 14.4975C27.9845 14.4975 27.7479 14.4095 27.5827 14.2336C27.4175 14.0568 27.3349 13.8495 27.3349 13.6117C27.3349 13.3655 27.4196 13.1566 27.5889 12.9848C27.759 12.8121 27.9936 12.7258 28.2926 12.7258ZM28.2926 13.0405C28.1605 13.0405 28.0481 13.0901 27.9556 13.1892C27.8639 13.2883 27.8181 13.4337 27.8181 13.6253C27.8181 13.7946 27.8635 13.9301 27.9544 14.0317C28.0452 14.1332 28.158 14.184 28.2926 14.184C28.4248 14.184 28.5371 14.1345 28.6296 14.0354C28.7221 13.9354 28.7684 13.7917 28.7684 13.6042C28.7684 13.4366 28.7242 13.3007 28.6358 13.1966C28.5474 13.0926 28.433 13.0405 28.2926 13.0405Z" fill="white"/>
<path d="M29.446 14.4764V14.1853H29.6765V13.0442H29.446V12.7531H30.1683L30.8039 13.8285V13.0442H30.5797V12.7531H31.3527V13.0442H31.1112V14.4888H30.7271L29.9837 13.2115V14.1853H30.2005V14.4764H29.446Z" fill="white"/>
</g>
</g>
<g id="CHAMPION">
<path d="M7.74864 16.0538H8.31032V17.2531H7.74864C7.5893 16.8224 7.31284 16.607 6.91927 16.607C6.59421 16.607 6.34803 16.7204 6.18072 16.9472C6.01501 17.174 5.93215 17.4457 5.93215 17.7622C5.93215 18.0935 6.01979 18.3619 6.19506 18.5675C6.37193 18.7714 6.5966 18.8734 6.86908 18.8734C7.09215 18.8734 7.28735 18.7959 7.45466 18.6409C7.62196 18.4859 7.7351 18.2705 7.79405 17.9948L8.44895 18.3154C8.20037 19.1051 7.65304 19.5 6.80693 19.5C6.2094 19.5 5.75847 19.3352 5.45412 19.0056C5.15137 18.676 5 18.2591 5 17.7549C5 17.3959 5.07887 17.0818 5.23662 16.8126C5.39437 16.5434 5.60629 16.341 5.87239 16.2056C6.14009 16.0685 6.43328 16 6.75196 16C7.14872 16 7.48095 16.1061 7.74864 16.3182V16.0538Z" fill="#240E54"/>
<path d="M8.73337 19.4584V18.8832H9.14925V16.629H8.73337V16.0538H10.3395V16.629H9.99058V17.3755H10.8964V16.629H10.5594V16.0538H12.156V16.629H11.7378V18.8832H12.156V19.4584H10.5594V18.8832H10.8964V17.9531H9.99058V18.8832H10.3395V19.4584H8.73337Z" fill="#240E54"/>
<path d="M15.7245 18.8832V19.4584H14.0896V18.8832H14.5151L14.3573 18.2983H13.4945L13.3176 18.8832H13.7622V19.4584H12.2899V18.8832H12.701L13.3487 16.629H12.9065V16.0538H15.0768V16.629H14.6298L15.3277 18.8832H15.7245ZM14.2211 17.799L13.9438 16.7734L13.6451 17.799H14.2211Z" fill="#240E54"/>
<path d="M15.8535 19.4584V18.8832H16.2838V16.629H15.8535V16.0538H17.5195L18.2508 18.051L18.9846 16.0538H20.684V16.629H20.2538V18.8832H20.684V19.4584H19.0109V18.8832H19.4124V16.629H19.3336L18.3034 19.4584H17.9449L16.9028 16.629H16.8239V18.8832H17.2589V19.4584H15.8535Z" fill="#240E54"/>
<path d="M22.718 18.8832V19.4584H20.966V18.8832H21.3891V16.629H20.966V16.0538H22.718C23.1259 16.0538 23.4406 16.1517 23.6621 16.3476C23.8852 16.5434 23.9967 16.8069 23.9967 17.1381C23.9967 17.3274 23.9577 17.4995 23.8796 17.6545C23.8015 17.8079 23.7011 17.9262 23.5784 18.0094C23.4573 18.091 23.3179 18.1473 23.1602 18.1783C23.004 18.2077 22.808 18.2224 22.5722 18.2224H22.2543V18.8832H22.718ZM22.2543 17.6545H22.3834C22.6797 17.6545 22.8701 17.6056 22.9546 17.5077C23.0406 17.4082 23.0837 17.285 23.0837 17.1381C23.0837 17.0141 23.0542 16.9089 22.9952 16.8224C22.9363 16.7343 22.8686 16.6804 22.7921 16.6608C22.7156 16.6396 22.5905 16.629 22.4168 16.629H22.2543V17.6545Z" fill="#240E54"/>
<path d="M24.1927 19.4584V18.8832H24.697V16.629H24.1927V16.0538H26.0713V16.629H25.5622V18.8832H26.0713V19.4584H24.1927Z" fill="#240E54"/>
<path d="M28.2631 16C28.8367 16 29.2876 16.1697 29.6159 16.5091C29.9457 16.8485 30.1106 17.2621 30.1106 17.75C30.1106 18.2395 29.9457 18.654 29.6159 18.9934C29.286 19.3311 28.8351 19.5 28.2631 19.5C27.6687 19.5 27.2122 19.3262 26.8935 18.9787C26.5748 18.6295 26.4155 18.2199 26.4155 17.75C26.4155 17.2638 26.5788 16.8509 26.9055 16.5115C27.2337 16.1705 27.6862 16 28.2631 16ZM28.2631 16.6217C28.0081 16.6217 27.7914 16.7196 27.6129 16.9154C27.4361 17.1112 27.3476 17.3984 27.3476 17.7769C27.3476 18.1114 27.4353 18.379 27.6106 18.5797C27.7858 18.7804 28.0033 18.8808 28.2631 18.8808C28.518 18.8808 28.7347 18.7829 28.9132 18.5871C29.0916 18.3896 29.1809 18.1057 29.1809 17.7353C29.1809 17.4041 29.0956 17.1357 28.9251 16.9301C28.7546 16.7245 28.5339 16.6217 28.2631 16.6217Z" fill="#240E54"/>
<path d="M30.4883 19.4584V18.8832H30.9328V16.629H30.4883V16.0538H31.8817L33.1078 18.1783V16.629H32.6752V16.0538H34.1667V16.629H33.7006V19.4829H32.9597L31.5256 16.9594V18.8832H31.9438V19.4584H30.4883Z" fill="#240E54"/>
</g>
<g id="Group_2">
<path id="Vector_17" d="M13.015 22.0978L13.1461 21.9667L12.666 21.4866L13.1461 21.0065L13.015 20.8754L12.5349 21.3555L12.053 20.8754L11.9219 21.0065L12.4038 21.4866L11.9219 21.9667L12.053 22.0978L12.5349 21.6177L13.015 22.0978Z" fill="#C1FF72"/>
<path id="Vector_18" d="M16.5693 22.0145L16.7022 21.8834L16.3036 21.4866L16.7022 21.0897L16.5693 20.9586L16.1725 21.3555L15.7756 20.9586L15.6445 21.0897L16.0414 21.4866L15.6445 21.8834L15.7756 22.0145L16.1725 21.6177L16.5693 22.0145Z" fill="#C1FF72"/>
<path id="Vector_19" d="M20.1675 20.9996L19.8114 21.3557L19.4553 20.9996L19.3242 21.1307L19.6803 21.4868L19.3242 21.8429L19.4553 21.974L19.8114 21.6179L20.1675 21.974L20.2986 21.8429L19.9425 21.4868L20.2986 21.1307L20.1675 20.9996Z" fill="#C1FF72"/>
<path id="Vector_20" d="M23.7639 21.0421L23.4504 21.3557L23.1368 21.0421L23.0039 21.1732L23.3193 21.4868L23.0039 21.8004L23.1368 21.9315L23.4504 21.6179L23.7639 21.9315L23.895 21.8004L23.5815 21.4868L23.895 21.1732L23.7639 21.0421Z" fill="#C1FF72"/>
<path id="Vector_21" d="M27.3201 21.1252L27.0898 21.3556L26.8577 21.1252L26.7266 21.2563L26.9569 21.4867L26.7266 21.717L26.8577 21.8481L27.0898 21.6178L27.3201 21.8481L27.4512 21.717L27.2209 21.4867L27.4512 21.2563L27.3201 21.1252Z" fill="#C1FF72"/>
</g>
</g>
</g>
<defs>
<filter id="filter0_d_870_3593" x="3.59822" y="0" width="32.7391" height="37.0438" filterUnits="userSpaceOnUse" color-interpolation-filters="sRGB">
<feFlood flood-opacity="0" result="BackgroundImageFix"/>
<feColorMatrix in="SourceAlpha" type="matrix" values="0 0 0 0 0 0 0 0 0 0 0 0 0 0 0 0 0 0 127 0" result="hardAlpha"/>
<feOffset dy="1.0219"/>
<feGaussianBlur stdDeviation="0.510949"/>
<feComposite in2="hardAlpha" operator="out"/>
<feColorMatrix type="matrix" values="0 0 0 0 0 0 0 0 0 0 0 0 0 0 0 0 0 0 0.1 0"/>
<feBlend mode="normal" in2="BackgroundImageFix" result="effect1_dropShadow_870_3593"/>
<feBlend mode="normal" in="SourceGraphic" in2="effect1_dropShadow_870_3593" result="shape"/>
</filter>
<filter id="filter1_d_870_3593" x="0.978102" y="12.0172" width="37.4774" height="12.6737" filterUnits="userSpaceOnUse" color-interpolation-filters="sRGB">
<feFlood flood-opacity="0" result="BackgroundImageFix"/>
<feColorMatrix in="SourceAlpha" type="matrix" values="0 0 0 0 0 0 0 0 0 0 0 0 0 0 0 0 0 0 127 0" result="hardAlpha"/>
<feOffset dy="1.0219"/>
<feGaussianBlur stdDeviation="0.510949"/>
<feComposite in2="hardAlpha" operator="out"/>
<feColorMatrix type="matrix" values="0 0 0 0 0 0 0 0 0 0 0 0 0 0 0 0 0 0 0.15 0"/>
<feBlend mode="normal" in2="BackgroundImageFix" result="effect1_dropShadow_870_3593"/>
<feBlend mode="normal" in="SourceGraphic" in2="effect1_dropShadow_870_3593" result="shape"/>
</filter>
</defs>
</svg>
