<svg width="54" height="54" viewBox="0 0 54 54" fill="none" xmlns="http://www.w3.org/2000/svg">
<g id="Gold Award">
<rect x="0.5" y="0.5" width="53" height="53" rx="26.5" stroke="#CFDCE9"/>
<g id="Group 25">
<g id="Vector" filter="url(#filter0_d_870_3752)">
<path d="M11.2148 18.8833V34.1167C11.2148 34.9261 11.6467 35.6751 12.3476 36.0798L25.5407 43.6965C26.2417 44.1012 27.1053 44.1012 27.8084 43.6965L41.0015 36.0798C41.7024 35.6751 42.1343 34.9261 42.1343 34.1167V18.8833C42.1343 18.0739 41.7024 17.3249 41.0015 16.9202L27.8084 9.30354C27.1074 8.89882 26.2437 8.89882 25.5407 9.30354L12.3476 16.9202C11.6467 17.3249 11.2148 18.0739 11.2148 18.8833Z" fill="#F2F6FF"/>
</g>
<path id="Vector_2" d="M12.8359 19.4091V33.591C12.8359 34.148 13.1322 34.6612 13.6141 34.9387L25.8955 42.0296C26.3774 42.3071 26.9699 42.3071 27.4518 42.0296L39.7332 34.9387C40.2151 34.6612 40.5113 34.1459 40.5113 33.591V19.4091C40.5113 18.8521 40.2151 18.3389 39.7332 18.0614L27.4518 10.9704C26.9699 10.693 26.3774 10.693 25.8955 10.9704L13.6141 18.0614C13.1322 18.3389 12.8359 18.8541 12.8359 19.4091Z" fill="#220D50"/>
<g id="Group">
<path id="Vector_3" d="M15.1162 22.8179H16.5286V20.884H15.1162L15.5334 21.8499L15.1162 22.8179Z" fill="white"/>
<path id="Vector_4" d="M38.0559 20.884H36.6436V22.8179H38.0559L37.6387 21.8499L38.0559 20.884Z" fill="white"/>
</g>
<g id="Group_2">
<path id="Vector_5" d="M29.0184 17.6254L28.2611 16.9912L27.4746 17.7172L26.6172 16.3257L25.7577 17.7172L24.9712 16.9912L24.216 17.6254L23.1875 16.9912L23.636 19.2255H29.5984L30.0469 16.9912L29.0184 17.6254Z" fill="#C1FF72"/>
<path id="Vector_6" d="M29.5981 19.7699H23.6357V20.2059H29.5981V19.7699Z" fill="#C1FF72"/>
<g id="Group_3">
<path id="Vector_7" d="M25.0335 16.7659C25.1291 16.7659 25.2067 16.6883 25.2067 16.5927C25.2067 16.4971 25.1291 16.4196 25.0335 16.4196C24.9379 16.4196 24.8604 16.4971 24.8604 16.5927C24.8604 16.6883 24.9379 16.7659 25.0335 16.7659Z" fill="#C1FF72"/>
<path id="Vector_8" d="M23.3169 16.4299C23.3169 16.5343 23.2335 16.6177 23.1292 16.6177C23.0249 16.6177 22.9414 16.5343 22.9414 16.4299C22.9414 16.3256 23.0249 16.2422 23.1292 16.2422C23.2335 16.2422 23.3169 16.3256 23.3169 16.4299Z" fill="#C1FF72"/>
<path id="Vector_9" d="M28.1985 16.7659C28.2942 16.7659 28.3717 16.6883 28.3717 16.5927C28.3717 16.4971 28.2942 16.4196 28.1985 16.4196C28.1029 16.4196 28.0254 16.4971 28.0254 16.5927C28.0254 16.6883 28.1029 16.7659 28.1985 16.7659Z" fill="#C1FF72"/>
<path id="Vector_10" d="M26.8846 15.7352C26.8846 15.8834 26.7657 16.0023 26.6176 16.0023C26.4695 16.0023 26.3506 15.8834 26.3506 15.7352C26.3506 15.5871 26.4695 15.4682 26.6176 15.4682C26.7657 15.4682 26.8846 15.5871 26.8846 15.7352Z" fill="#C1FF72"/>
<path id="Vector_11" d="M29.916 16.4299C29.916 16.5343 29.9995 16.6177 30.1038 16.6177C30.2081 16.6177 30.2915 16.5343 30.2915 16.4299C30.2915 16.3256 30.2081 16.2422 30.1038 16.2422C29.9995 16.2422 29.916 16.3256 29.916 16.4299Z" fill="#C1FF72"/>
</g>
</g>
<g id="Group_4">
<path id="Vector_12" d="M20.9217 34.3983L21.1679 35.1535H21.9607L21.3181 35.6208L21.5643 36.376L20.9217 35.9087L20.2792 36.376L20.5254 35.6208L19.8828 35.1535H20.6777L20.9217 34.3983Z" fill="#C1FF72"/>
<path id="Vector_13" d="M17.9239 33.8726L18.1116 34.4505H18.7208L18.2285 34.8093L18.4162 35.3872L17.9239 35.0305L17.4315 35.3872L17.6193 34.8093L17.127 34.4505H17.7361L17.9239 33.8726Z" fill="#C1FF72"/>
<path id="Vector_14" d="M32.0936 34.3983L31.8495 35.1535H31.0547L31.6972 35.6208L31.4511 36.376L32.0936 35.9087L32.7362 36.376L32.4921 35.6208L33.1346 35.1535H32.3398L32.0936 34.3983Z" fill="#C1FF72"/>
<path id="Vector_15" d="M35.0928 33.8726L34.903 34.4505H34.2959L34.7882 34.8093L34.6005 35.3872L35.0928 35.0305L35.5831 35.3872L35.3953 34.8093L35.8877 34.4505H35.2806L35.0928 33.8726Z" fill="#C1FF72"/>
</g>
<path id="Vector_16" d="M5 27.7767H11.3024V34.1855H5L6.12653 30.9811L5 27.7767Z" fill="#240E54"/>
<path id="Vector_17" d="M48.4365 27.7767H42.1342V34.1855H48.4365L47.31 30.9811L48.4365 27.7767Z" fill="#240E54"/>
<path id="Vector_18" d="M7.86426 30.5931L11.3023 34.1855V30.5931H7.86426Z" fill="#4D25A7"/>
<path id="Vector_19" d="M45.5723 30.5931L42.1342 34.1855V30.5931H45.5723Z" fill="#4D25A7"/>
<path id="Vector_20" d="M26.6477 33.5299L27.2723 35.5461C27.2939 35.6182 27.3587 35.6656 27.4294 35.6656H29.4504C29.6114 35.6656 29.6782 35.8818 29.5486 35.9807L27.9126 37.2267C27.8536 37.272 27.8301 37.3502 27.8517 37.4223L28.4762 39.4385C28.5253 39.5992 28.3505 39.733 28.2209 39.6342L26.5849 38.3882C26.526 38.3429 26.4474 38.3429 26.3905 38.3882L24.7545 39.6342C24.6248 39.733 24.45 39.5992 24.4991 39.4385L25.1237 37.4223C25.1453 37.3502 25.1217 37.272 25.0628 37.2267L23.4268 35.9807C23.2972 35.8818 23.364 35.6656 23.525 35.6656H25.546C25.6186 35.6656 25.6815 35.6161 25.7031 35.5461L26.3276 33.5299C26.3767 33.3693 26.5947 33.3693 26.6438 33.5299H26.6477Z" fill="#C1FF72"/>
<g id="Group 22">
<path id="Vector_21" d="M23.7595 21.9938C23.5634 21.9938 23.4006 22.1294 23.3547 22.3109H21.5085L19.0009 19.578H15.0016C14.9558 19.3965 14.793 19.2609 14.5969 19.2609C14.3674 19.2609 14.1797 19.4487 14.1797 19.6782C14.1797 19.9076 14.3674 20.0954 14.5969 20.0954C14.793 20.0954 14.9558 19.9598 15.0016 19.7783H18.9133L21.4208 22.5112H23.3568C23.4027 22.6927 23.5655 22.8283 23.7616 22.8283C23.991 22.8283 24.1788 22.6406 24.1788 22.4111C24.1788 22.1816 23.991 21.9938 23.7616 21.9938H23.7595ZM14.5969 19.893C14.478 19.893 14.38 19.7971 14.38 19.6761C14.38 19.5551 14.478 19.4591 14.5969 19.4591C14.6783 19.4591 14.7492 19.5071 14.7847 19.5739C14.8014 19.6051 14.8139 19.6364 14.8139 19.674C14.8139 19.7115 14.8014 19.7449 14.7847 19.7741C14.7471 19.8409 14.6783 19.8889 14.5969 19.8889V19.893ZM23.9743 22.4111C23.9743 22.4486 23.9618 22.482 23.9451 22.5112C23.9076 22.578 23.8387 22.6259 23.7574 22.6259C23.676 22.6259 23.6051 22.578 23.5696 22.5112C23.5529 22.4799 23.5404 22.4486 23.5404 22.4111C23.5404 22.3735 23.5529 22.3401 23.5696 22.3109C23.6051 22.2442 23.676 22.1962 23.7574 22.1962C23.8387 22.1962 23.9097 22.2442 23.9451 22.3109C23.9618 22.3422 23.9743 22.3735 23.9743 22.4111Z" fill="#51F0FF"/>
<path id="Vector_22" d="M17.3235 19.2255C17.5196 19.2255 17.6823 19.0899 17.7282 18.9084H19.3325L20.4695 20.1476C20.4257 20.2143 20.4006 20.2936 20.4006 20.3771C20.4006 20.6065 20.5884 20.7943 20.8179 20.7943C21.0473 20.7943 21.2351 20.6065 21.2351 20.3771C21.2351 20.1476 21.0473 19.9598 20.8179 19.9598C20.7448 19.9598 20.6781 19.9807 20.6197 20.012L19.4201 18.706H17.7282C17.6823 18.5245 17.5196 18.3889 17.3235 18.3889C17.094 18.3889 16.9062 18.5767 16.9062 18.8062C16.9062 19.0356 17.094 19.2234 17.3235 19.2234V19.2255ZM21.0327 20.3791C21.0327 20.498 20.9368 20.5961 20.8158 20.5961C20.6948 20.5961 20.5988 20.5001 20.5988 20.3791C20.5988 20.3541 20.6051 20.3312 20.6134 20.3082C20.6364 20.2414 20.6927 20.1914 20.7636 20.1747C20.7803 20.1705 20.797 20.1643 20.8158 20.1643C20.9347 20.1643 21.0327 20.2602 21.0327 20.3812V20.3791ZM17.3235 18.5913C17.4048 18.5913 17.4758 18.6393 17.5112 18.706C17.5279 18.7373 17.5405 18.7686 17.5405 18.8062C17.5405 18.8437 17.5279 18.8771 17.5112 18.9063C17.4737 18.973 17.4048 19.021 17.3235 19.021C17.2046 19.021 17.1065 18.9251 17.1065 18.8041C17.1065 18.6831 17.2025 18.5871 17.3235 18.5871V18.5913Z" fill="#51F0FF"/>
</g>
<g id="Group 24">
<path id="Vector_23" d="M30.2454 21.9938C30.4415 21.9938 30.6042 22.1294 30.6501 22.3109H32.4964L35.004 19.578H39.0032C39.0491 19.3965 39.2119 19.2609 39.408 19.2609C39.6374 19.2609 39.8252 19.4487 39.8252 19.6782C39.8252 19.9076 39.6374 20.0954 39.408 20.0954C39.2119 20.0954 39.0491 19.9598 39.0032 19.7783H35.0916L32.584 22.5112H30.6481C30.6022 22.6927 30.4394 22.8283 30.2433 22.8283C30.0138 22.8283 29.8261 22.6406 29.8261 22.4111C29.8261 22.1816 30.0138 21.9938 30.2433 21.9938H30.2454ZM39.408 19.893C39.5269 19.893 39.6249 19.7971 39.6249 19.6761C39.6249 19.5551 39.5269 19.4591 39.408 19.4591C39.3266 19.4591 39.2557 19.5071 39.2202 19.5739C39.2035 19.6051 39.191 19.6364 39.191 19.674C39.191 19.7115 39.2035 19.7449 39.2202 19.7741C39.2578 19.8409 39.3266 19.8889 39.408 19.8889V19.893ZM30.0305 22.4111C30.0305 22.4486 30.0431 22.482 30.0597 22.5112C30.0973 22.578 30.1661 22.6259 30.2475 22.6259C30.3289 22.6259 30.3998 22.578 30.4353 22.5112C30.452 22.4799 30.4645 22.4486 30.4645 22.4111C30.4645 22.3735 30.452 22.3401 30.4353 22.3109C30.3998 22.2442 30.3289 22.1962 30.2475 22.1962C30.1661 22.1962 30.0952 22.2442 30.0597 22.3109C30.0431 22.3422 30.0305 22.3735 30.0305 22.4111Z" fill="#51F0FF"/>
<path id="Vector_24" d="M36.6814 19.2255C36.4853 19.2255 36.3226 19.0899 36.2767 18.9084H34.6724L33.5354 20.1476C33.5792 20.2143 33.6043 20.2936 33.6043 20.3771C33.6043 20.6065 33.4165 20.7943 33.187 20.7943C32.9575 20.7943 32.7698 20.6065 32.7698 20.3771C32.7698 20.1476 32.9575 19.9598 33.187 19.9598C33.26 19.9598 33.3268 19.9807 33.3852 20.012L34.5848 18.706H36.2767C36.3226 18.5245 36.4853 18.3889 36.6814 18.3889C36.9109 18.3889 37.0986 18.5767 37.0986 18.8062C37.0986 19.0356 36.9109 19.2234 36.6814 19.2234V19.2255ZM32.9721 20.3791C32.9721 20.498 33.0681 20.5961 33.1891 20.5961C33.3101 20.5961 33.4061 20.5001 33.4061 20.3791C33.4061 20.3541 33.3998 20.3312 33.3915 20.3082C33.3685 20.2414 33.3122 20.1914 33.2413 20.1747C33.2246 20.1705 33.2079 20.1643 33.1891 20.1643C33.0702 20.1643 32.9721 20.2602 32.9721 20.3812V20.3791ZM36.6814 18.5913C36.6 18.5913 36.5291 18.6393 36.4936 18.706C36.4769 18.7373 36.4644 18.7686 36.4644 18.8062C36.4644 18.8437 36.4769 18.8771 36.4936 18.9063C36.5312 18.973 36.6 19.021 36.6814 19.021C36.8003 19.021 36.8984 18.9251 36.8984 18.8041C36.8984 18.6831 36.8024 18.5871 36.6814 18.5871V18.5913Z" fill="#51F0FF"/>
</g>
<g id="Group 23">
<g id="Group 13">
<g id="Group 11" filter="url(#filter1_d_870_3752)">
<path id="Vector_25" d="M46.5155 20.8923H6.87793V31.5319H46.5155V20.8923Z" fill="#200C4C"/>
<path id="Vector_26" d="M46.5155 22.7699H6.87793V29.6543H46.5155V22.7699Z" fill="#F2F6FF"/>
<g id="Group_5">
<path id="Vector_27" d="M9.05045 24.2615L9.29852 25.0259H10.1021L9.45282 25.4971L9.70089 26.2615L9.05045 25.7891L8.40119 26.2615L8.64926 25.4971L8 25.0259H8.80238L9.05045 24.2615Z" fill="#220D50"/>
<path id="Vector_28" d="M44.0516 24.2615L44.2997 25.0259H45.1021L44.4528 25.4971L44.7009 26.2615L44.0516 25.7891L43.4012 26.2615L43.6493 25.4971L43 25.0259H43.8036L44.0516 24.2615Z" fill="#220D50"/>
</g>
</g>
</g>
<g id="Group 21">
<g id="Language">
<path d="M19 25.5806V25.2519H19.2783V23.9638H19V23.6351H20.0685V23.9638H19.7846V25.2519H20.3594V24.6505H20.7385V25.5806H19Z" fill="#240E54"/>
<path d="M22.7748 25.2519V25.5806H21.8182V25.2519H22.0671L21.9748 24.9177H21.4699L21.3664 25.2519H21.6266V25.5806H20.765V25.2519H21.0056L21.3846 23.9638H21.1259V23.6351H22.3958V23.9638H22.1343L22.5427 25.2519H22.7748ZM21.8951 24.6323L21.7329 24.0463L21.558 24.6323H21.8951Z" fill="#240E54"/>
<path d="M22.849 25.5806V25.2519H23.1091V23.9638H22.849V23.6351H23.6643L24.3818 24.8491V23.9638H24.1287V23.6351H25.0014V23.9638H24.7287V25.5946H24.2951L23.4559 24.1526V25.2519H23.7007V25.5806H22.849Z" fill="#240E54"/>
<path d="M26.414 24.9274V24.5988H27.3259C27.3259 24.8347 27.283 25.0216 27.1972 25.1596C27.1124 25.2976 26.9883 25.4062 26.8252 25.4855C26.6629 25.5647 26.4807 25.6044 26.2783 25.6044C25.9268 25.6044 25.6569 25.5102 25.4685 25.3219C25.2811 25.1335 25.1874 24.8943 25.1874 24.6044C25.1874 24.403 25.234 24.2253 25.3273 24.0715C25.4205 23.9167 25.5459 23.8002 25.7035 23.7219C25.8611 23.6435 26.0322 23.6044 26.2168 23.6044C26.4779 23.6044 26.6811 23.6678 26.8266 23.7946V23.6351H27.1566V24.326H26.8266C26.7921 24.2095 26.7235 24.1177 26.621 24.0505C26.5184 23.9834 26.4084 23.9498 26.2909 23.9498C26.1361 23.9498 26.0042 24.0048 25.8951 24.1149C25.786 24.224 25.7315 24.3755 25.7315 24.5694C25.7315 24.7913 25.7869 24.9605 25.8979 25.0771C26.0089 25.1927 26.1441 25.2505 26.3035 25.2505C26.421 25.2505 26.5184 25.2221 26.5958 25.1652C26.6732 25.1083 26.7268 25.0291 26.7566 24.9274H26.414Z" fill="#240E54"/>
<path d="M27.5119 23.9638V23.6351H28.4406V23.9638H28.249V24.8435C28.249 24.961 28.2536 25.0459 28.2629 25.0981C28.2732 25.1494 28.2993 25.1918 28.3413 25.2253C28.3832 25.2589 28.4364 25.2757 28.5007 25.2757C28.5669 25.2757 28.6219 25.2598 28.6657 25.2281C28.7096 25.1964 28.7375 25.1568 28.7496 25.1093C28.7627 25.0617 28.7692 24.9647 28.7692 24.8184V23.9638H28.5804V23.6351H29.3552V23.9638H29.1175V24.9372C29.1175 25.0696 29.1105 25.1661 29.0965 25.2267C29.0825 25.2864 29.0503 25.3461 29 25.4058C28.9496 25.4645 28.8765 25.5125 28.7804 25.5498C28.6853 25.5862 28.5758 25.6044 28.4517 25.6044C28.3082 25.6044 28.1855 25.5843 28.0839 25.5442C27.9832 25.5032 27.9082 25.4491 27.8587 25.382C27.8093 25.3149 27.7776 25.2482 27.7636 25.182C27.7496 25.1158 27.7427 25.003 27.7427 24.8435V23.9638H27.5119Z" fill="#240E54"/>
<path d="M31.3287 25.2519V25.5806H30.372V25.2519H30.621L30.5287 24.9177H30.0238L29.9203 25.2519H30.1804V25.5806H29.3189V25.2519H29.5594L29.9385 23.9638H29.6797V23.6351H30.9496V23.9638H30.6881L31.0965 25.2519H31.3287ZM30.4489 24.6323L30.2867 24.0463L30.1119 24.6323H30.4489Z" fill="#240E54"/>
<path d="M32.6406 24.9274V24.5988H33.5524C33.5524 24.8347 33.5096 25.0216 33.4238 25.1596C33.3389 25.2976 33.2149 25.4062 33.0517 25.4855C32.8895 25.5647 32.7072 25.6044 32.5049 25.6044C32.1534 25.6044 31.8834 25.5102 31.6951 25.3219C31.5077 25.1335 31.414 24.8943 31.414 24.6044C31.414 24.403 31.4606 24.2253 31.5538 24.0715C31.6471 23.9167 31.7725 23.8002 31.9301 23.7219C32.0876 23.6435 32.2587 23.6044 32.4434 23.6044C32.7044 23.6044 32.9077 23.6678 33.0531 23.7946V23.6351H33.3832V24.326H33.0531C33.0186 24.2095 32.9501 24.1177 32.8476 24.0505C32.745 23.9834 32.635 23.9498 32.5175 23.9498C32.3627 23.9498 32.2308 24.0048 32.1217 24.1149C32.0126 24.224 31.958 24.3755 31.958 24.5694C31.958 24.7913 32.0135 24.9605 32.1245 25.0771C32.2354 25.1927 32.3706 25.2505 32.5301 25.2505C32.6476 25.2505 32.745 25.2221 32.8224 25.1652C32.8998 25.1083 32.9534 25.0291 32.9832 24.9274H32.6406Z" fill="#240E54"/>
<path d="M33.7818 25.5806V25.2519H34.0154V23.9638H33.7818V23.6351H35.4965V24.2519H35.1245V23.9638H34.5217V24.4128H35.0084V24.7414H34.5217V25.2519H35.1245V24.961H35.4965V25.5806H33.7818Z" fill="#240E54"/>
</g>
<g id="Master Laurel">
<path d="M11 28.9951V28.582H11.3165V26.9628H11V26.5496H12.2254L12.7634 27.9842L13.3031 26.5496H14.5531V26.9628H14.2366V28.582H14.5531V28.9951H13.3224V28.582H13.6178V26.9628H13.5598L12.802 28.9951H12.5383L11.7718 26.9628H11.7138V28.582H12.0338V28.9951H11Z" fill="#220D50"/>
<path d="M17.1709 28.582V28.9951H15.9684V28.582H16.2813L16.1653 28.1618H15.5306L15.4005 28.582H15.7275V28.9951H14.6445V28.582H14.9469L15.4233 26.9628H15.0981V26.5496H16.6944V26.9628H16.3657L16.879 28.582H17.1709ZM16.065 27.8032L15.8611 27.0665L15.6413 27.8032H16.065Z" fill="#220D50"/>
<path d="M17.3379 28.9951V28.1618H17.7528C17.7575 28.3142 17.7974 28.4267 17.8724 28.4994C17.9474 28.5709 18.0329 28.6066 18.129 28.6066C18.2041 28.6066 18.2673 28.5808 18.3189 28.5292C18.3705 28.4765 18.3963 28.415 18.3963 28.3446C18.3963 28.2696 18.3711 28.2069 18.3207 28.1565C18.2703 28.105 18.1783 28.0464 18.0447 27.9807C17.7622 27.8436 17.57 27.7229 17.468 27.6186C17.3672 27.5142 17.3168 27.3736 17.3168 27.1966C17.3168 26.9833 17.3836 26.818 17.5172 26.7008C17.6508 26.5836 17.8026 26.525 17.9726 26.525C18.1671 26.525 18.3177 26.6006 18.4244 26.7518V26.5496H18.8376V27.2933H18.4244C18.4115 27.1784 18.3717 27.09 18.3049 27.0278C18.2392 26.9645 18.1624 26.9329 18.0745 26.9329C18.0066 26.9329 17.9491 26.9511 17.9023 26.9874C17.8554 27.0237 17.8319 27.0712 17.8319 27.1298C17.8319 27.1802 17.8513 27.2283 17.8899 27.274C17.9286 27.3185 18.0417 27.3824 18.2293 27.4656C18.4098 27.5465 18.5481 27.6197 18.6442 27.6854C18.7414 27.7498 18.8182 27.8342 18.8745 27.9385C18.9307 28.0417 18.9589 28.1612 18.9589 28.2972C18.9589 28.5386 18.8885 28.7203 18.7479 28.8422C18.6072 28.9641 18.4408 29.025 18.2486 29.025C18.0341 29.025 17.8688 28.9459 17.7528 28.7877V28.9951H17.3379Z" fill="#220D50"/>
<path d="M19.6111 28.9951V28.582H19.9786V26.9628H19.6111V27.5324H19.1909V26.5496H21.4079V27.5324H20.993V26.9628H20.615V28.582H20.9824V28.9951H19.6111Z" fill="#220D50"/>
<path d="M21.6364 28.9951V28.582H21.93V26.9628H21.6364V26.5496H23.7918V27.325H23.3242V26.9628H22.5665V27.5271H23.1783V27.9403H22.5665V28.582H23.3242V28.2163H23.7918V28.9951H21.6364Z" fill="#220D50"/>
<path d="M26.5503 28.582V28.9951H25.8049L25.2528 27.9245H24.9733V28.582H25.2792V28.9951H24.0011V28.582H24.3368V26.9628H24.0011V26.5496H25.4761C25.7539 26.5496 25.9537 26.62 26.0756 26.7606C26.1987 26.9001 26.2602 27.0583 26.2602 27.2353C26.2602 27.5131 26.119 27.7158 25.8365 27.8436L26.2338 28.582H26.5503ZM24.9733 27.5342H25.1913C25.4609 27.5342 25.5956 27.4381 25.5956 27.2458C25.5956 27.1509 25.5646 27.08 25.5025 27.0331C25.4415 26.9862 25.3571 26.9628 25.2493 26.9628H24.9733V27.5342Z" fill="#220D50"/>
<path d="M27.5454 28.9951V28.582H27.8952V26.9628H27.5454V26.5496H28.8885V26.9628H28.5316V28.582H29.2542V27.826H29.7307V28.9951H27.5454Z" fill="#220D50"/>
<path d="M32.2904 28.582V28.9951H31.0879V28.582H31.4008L31.2848 28.1618H30.6501L30.52 28.582H30.847V28.9951H29.7641V28.582H30.0665L30.5429 26.9628H30.2176V26.5496H31.814V26.9628H31.4852L31.9986 28.582H32.2904ZM31.1846 27.8032L30.9807 27.0665L30.7609 27.8032H31.1846Z" fill="#220D50"/>
<path d="M32.2957 26.9628V26.5496H33.4631V26.9628H33.2222V28.0686C33.2222 28.2163 33.2281 28.323 33.2398 28.3886C33.2527 28.4531 33.2855 28.5064 33.3383 28.5486C33.391 28.5908 33.4578 28.6119 33.5387 28.6119C33.6219 28.6119 33.691 28.5919 33.7461 28.5521C33.8012 28.5122 33.8364 28.4624 33.8516 28.4027C33.868 28.3429 33.8762 28.221 33.8762 28.037V26.9628H33.6389V26.5496H34.6129V26.9628H34.314V28.1864C34.314 28.3528 34.3052 28.4742 34.2876 28.5503C34.27 28.6254 34.2296 28.7004 34.1663 28.7754C34.103 28.8492 34.011 28.9096 33.8903 28.9565C33.7707 29.0022 33.633 29.025 33.4771 29.025C33.2966 29.025 33.1425 28.9998 33.0148 28.9494C32.8882 28.8979 32.7938 28.8299 32.7317 28.7455C32.6696 28.6611 32.6297 28.5773 32.6122 28.4941C32.5946 28.4109 32.5858 28.269 32.5858 28.0686V26.9628H32.2957Z" fill="#220D50"/>
<path d="M37.2992 28.582V28.9951H36.5538L36.0018 27.9245H35.7222V28.582H36.0281V28.9951H34.75V28.582H35.0858V26.9628H34.75V26.5496H36.225C36.5028 26.5496 36.7026 26.62 36.8245 26.7606C36.9476 26.9001 37.0091 27.0583 37.0091 27.2353C37.0091 27.5131 36.8679 27.7158 36.5854 27.8436L36.9828 28.582H37.2992ZM35.7222 27.5342H35.9402C36.2098 27.5342 36.3446 27.4381 36.3446 27.2458C36.3446 27.1509 36.3135 27.08 36.2514 27.0331C36.1905 26.9862 36.1061 26.9628 35.9982 26.9628H35.7222V27.5342Z" fill="#220D50"/>
<path d="M37.4135 28.9951V28.582H37.7071V26.9628H37.4135V26.5496H39.5689V27.325H39.1013V26.9628H38.3435V27.5271H38.9553V27.9403H38.3435V28.582H39.1013V28.2163H39.5689V28.9951H37.4135Z" fill="#220D50"/>
<path d="M39.7957 28.9951V28.582H40.1456V26.9628H39.7957V26.5496H41.1389V26.9628H40.782V28.582H41.5046V27.826H41.981V28.9951H39.7957Z" fill="#220D50"/>
</g>
</g>
</g>
</g>
</g>
<defs>
<filter id="filter0_d_870_3752" x="7.21484" y="9" width="38.9189" height="43" filterUnits="userSpaceOnUse" color-interpolation-filters="sRGB">
<feFlood flood-opacity="0" result="BackgroundImageFix"/>
<feColorMatrix in="SourceAlpha" type="matrix" values="0 0 0 0 0 0 0 0 0 0 0 0 0 0 0 0 0 0 127 0" result="hardAlpha"/>
<feOffset dy="4"/>
<feGaussianBlur stdDeviation="2"/>
<feComposite in2="hardAlpha" operator="out"/>
<feColorMatrix type="matrix" values="0 0 0 0 0 0 0 0 0 0 0 0 0 0 0 0 0 0 0.15 0"/>
<feBlend mode="normal" in2="BackgroundImageFix" result="effect1_dropShadow_870_3752"/>
<feBlend mode="normal" in="SourceGraphic" in2="effect1_dropShadow_870_3752" result="shape"/>
</filter>
<filter id="filter1_d_870_3752" x="2.87793" y="20.8923" width="47.6377" height="18.6396" filterUnits="userSpaceOnUse" color-interpolation-filters="sRGB">
<feFlood flood-opacity="0" result="BackgroundImageFix"/>
<feColorMatrix in="SourceAlpha" type="matrix" values="0 0 0 0 0 0 0 0 0 0 0 0 0 0 0 0 0 0 127 0" result="hardAlpha"/>
<feOffset dy="4"/>
<feGaussianBlur stdDeviation="2"/>
<feComposite in2="hardAlpha" operator="out"/>
<feColorMatrix type="matrix" values="0 0 0 0 0 0 0 0 0 0 0 0 0 0 0 0 0 0 0.25 0"/>
<feBlend mode="normal" in2="BackgroundImageFix" result="effect1_dropShadow_870_3752"/>
<feBlend mode="normal" in="SourceGraphic" in2="effect1_dropShadow_870_3752" result="shape"/>
</filter>
</defs>
</svg>
