<svg width="54" height="54" viewBox="0 0 54 54" fill="none" xmlns="http://www.w3.org/2000/svg">
<g id="Bronze award">
<rect x="0.5" y="0.5" width="53" height="53" rx="26.5" stroke="#CFDCE9"/>
<g id="Group 34">
<g id="Group 33">
<g id="Vector" filter="url(#filter0_d_870_4042)">
<path d="M43.8274 32.0126L27.2801 41.0589C27.0422 41.1811 26.7622 41.1811 26.5243 41.0589L9.9769 32.0126C9.70111 31.8716 9.52637 31.5874 9.52637 31.2758V12.8274C9.52637 12.3705 9.8969 12 10.3537 12H43.4506C43.9074 12 44.2779 12.3705 44.2779 12.8274V31.2758C44.2779 31.5874 44.1032 31.8716 43.8274 32.0126Z" fill="#F2F6FF"/>
</g>
<path id="Vector_2" d="M42.2809 31.3263L27.2472 39.5958C27.0304 39.7073 26.7735 39.7073 26.5567 39.5958L11.523 31.3263C11.2704 31.1958 11.1104 30.9368 11.1104 30.6526V13.7894C11.1104 13.3705 11.4493 13.0316 11.8683 13.0316H41.9356C42.3546 13.0316 42.6935 13.3705 42.6935 13.7894V30.6526C42.6935 30.9368 42.5356 31.1958 42.2809 31.3263Z" fill="#220D50"/>
<path id="Vector_3" d="M26.9014 38.8211C26.7772 38.8211 26.6551 38.7917 26.5414 38.7348L12.5709 31.0485C12.3099 30.9138 12.1436 30.6464 12.1436 30.3474V14.678C12.1436 14.2422 12.4972 13.8885 12.9309 13.8885H40.8699C41.3035 13.8885 41.6572 14.2422 41.6572 14.678V30.3474C41.6572 30.6443 41.493 30.9116 41.2299 31.0485L27.2614 38.7327C27.1478 38.7917 27.0235 38.8211 26.8993 38.8211H26.9014ZM12.933 14.059C12.592 14.059 12.3141 14.3369 12.3141 14.678V30.3474C12.3141 30.5811 12.4425 30.7916 12.6509 30.8969L26.6214 38.5832C26.7962 38.6717 27.0067 38.6738 27.1836 38.5832L41.152 30.899C41.3604 30.7938 41.4888 30.5811 41.4888 30.3495V14.6801C41.4888 14.339 41.2109 14.0611 40.8699 14.0611H12.9309L12.933 14.059Z" fill="white"/>
<g id="Group">
<path id="Vector_4" d="M21.6467 30.7999L21.9477 31.7241C21.9625 31.7683 22.0025 31.7978 22.0488 31.7978H23.0193C23.1225 31.7978 23.1667 31.9304 23.0825 31.9915L22.2972 32.562C22.2593 32.5894 22.2446 32.6378 22.2593 32.682L22.5604 33.6062C22.592 33.7052 22.4804 33.7873 22.3962 33.7262L21.6109 33.1557C21.573 33.1283 21.5225 33.1283 21.4846 33.1557L20.6993 33.7262C20.6151 33.7873 20.5035 33.7052 20.5351 33.6062L20.8362 32.682C20.8509 32.6378 20.8362 32.5894 20.7983 32.562L20.013 31.9915C19.9288 31.9304 19.973 31.7978 20.0762 31.7978H21.0467C21.093 31.7978 21.1351 31.7683 21.1477 31.7241L21.4488 30.7999C21.4804 30.701 21.6193 30.701 21.653 30.7999H21.6467Z" fill="#C1FF72"/>
<g id="Group_2">
<path id="Vector_5" d="M17.7914 30.2296L17.9957 30.8591C18.0062 30.8885 18.0335 30.9096 18.0651 30.9096H18.7262C18.7978 30.9096 18.8251 31.0001 18.7683 31.0422L18.2336 31.4317C18.2083 31.4507 18.1978 31.4822 18.2062 31.5138L18.4104 32.1433C18.4314 32.2107 18.3557 32.2654 18.2988 32.2254L17.7641 31.8359C17.7388 31.817 17.703 31.817 17.6778 31.8359L17.143 32.2254C17.0862 32.2675 17.0083 32.2107 17.0314 32.1433L17.2357 31.5138C17.2462 31.4843 17.2357 31.4507 17.2083 31.4317L16.6735 31.0422C16.6167 31.0001 16.6462 30.9096 16.7157 30.9096H17.3767C17.4083 30.9096 17.4357 30.8885 17.4462 30.8591L17.6504 30.2296C17.6714 30.1622 17.7683 30.1622 17.7893 30.2296H17.7914Z" fill="#C1FF72"/>
<path id="Vector_6" d="M36.1489 30.2295L36.3531 30.859C36.3636 30.8885 36.391 30.9095 36.4225 30.9095H37.0836C37.1552 30.9095 37.1826 31.0001 37.1257 31.0422L36.591 31.4316C36.5657 31.4506 36.5552 31.4822 36.5636 31.5137L36.7678 32.1432C36.7889 32.2106 36.7131 32.2653 36.6562 32.2253L36.1215 31.8359C36.0962 31.8169 36.0604 31.8169 36.0352 31.8359L35.5004 32.2253C35.4436 32.2674 35.3657 32.2106 35.3889 32.1432L35.5931 31.5137C35.6036 31.4843 35.5931 31.4506 35.5657 31.4316L35.031 31.0422C34.9741 31.0001 35.0036 30.9095 35.0731 30.9095H35.7341C35.7657 30.9095 35.7931 30.8885 35.8036 30.859L36.0078 30.2295C36.0289 30.1622 36.1236 30.1622 36.1468 30.2295H36.1489Z" fill="#C1FF72"/>
</g>
<path id="Vector_7" d="M32.3596 30.7999L32.6606 31.7241C32.6754 31.7683 32.7154 31.7978 32.7617 31.7978H33.7322C33.8354 31.7978 33.8796 31.9304 33.7954 31.9915L33.0101 32.562C32.9722 32.5894 32.9575 32.6378 32.9722 32.682L33.2733 33.6062C33.3049 33.7052 33.1933 33.7873 33.1091 33.7262L32.3238 33.1557C32.2859 33.1283 32.2354 33.1283 32.1975 33.1557L31.4122 33.7262C31.328 33.7873 31.2164 33.7052 31.248 33.6062L31.5491 32.682C31.5638 32.6378 31.5491 32.5894 31.5112 32.562L30.7259 31.9915C30.6417 31.9304 30.6859 31.7978 30.7891 31.7978H31.7596C31.8059 31.7978 31.848 31.7683 31.8606 31.7241L32.1617 30.7999C32.1933 30.701 32.3322 30.701 32.3659 30.7999H32.3596Z" fill="#C1FF72"/>
<path id="Vector_8" d="M27.0782 31.1452L27.6003 32.7536C27.6256 32.8294 27.6971 32.8821 27.7771 32.8821H29.4698C29.6508 32.8821 29.7245 33.1136 29.5793 33.2189L28.2108 34.2126C28.1456 34.261 28.1182 34.3431 28.1435 34.421L28.6656 36.0294C28.7203 36.2021 28.5245 36.3431 28.3793 36.2379L27.0108 35.2442C26.9456 35.1957 26.8572 35.1957 26.7919 35.2442L25.4235 36.2379C25.2782 36.3431 25.0803 36.2021 25.1372 36.0294L25.6593 34.421C25.6845 34.3452 25.6571 34.261 25.5919 34.2126L24.2235 33.2189C24.0782 33.1136 24.1519 32.8821 24.3329 32.8821H26.0256C26.1056 32.8821 26.1772 32.8294 26.2024 32.7536L26.7245 31.1452C26.7793 30.9726 27.0235 30.9726 27.0782 31.1452Z" fill="#C1FF72"/>
</g>
<g id="Group_3">
<path id="Vector_9" d="M14.7854 16.3852H14.6169L14.0527 17.2947H14.2191L14.7854 16.3852Z" fill="#AC69FF"/>
<path id="Vector_10" d="M15.2639 16.3852H15.0955L14.5312 17.2947H14.6997L15.2639 16.3852Z" fill="#AC69FF"/>
<path id="Vector_11" d="M15.7424 16.3852H15.574L15.0098 17.2947H15.1761L15.7424 16.3852Z" fill="#AC69FF"/>
<path id="Vector_12" d="M16.2209 16.3852H16.0525L15.4883 17.2947H15.6567L16.2209 16.3852Z" fill="#AC69FF"/>
<path id="Vector_13" d="M16.6985 16.3852H16.5321L15.9658 17.2947H16.1342L16.6985 16.3852Z" fill="#AC69FF"/>
<path id="Vector_14" d="M17.1799 16.3852H17.0115L16.4473 17.2947H16.6157L17.1799 16.3852Z" fill="#AC69FF"/>
<path id="Vector_15" d="M17.6574 16.3852H17.4911L16.9248 17.2947H17.0932L17.6574 16.3852Z" fill="#AC69FF"/>
<path id="Vector_16" d="M18.1369 16.3852H17.9685L17.4043 17.2947H17.5727L18.1369 16.3852Z" fill="#AC69FF"/>
<path id="Vector_17" d="M18.6154 16.3852H18.447L17.8828 17.2947H18.0512L18.6154 16.3852Z" fill="#AC69FF"/>
<path id="Vector_18" d="M19.0949 16.3852H18.9265L18.3623 17.2947H18.5307L19.0949 16.3852Z" fill="#AC69FF"/>
<path id="Vector_19" d="M19.5725 16.3852H19.4041L18.8398 17.2947H19.0083L19.5725 16.3852Z" fill="#AC69FF"/>
<path id="Vector_20" d="M20.0529 16.3852H19.8845L19.3203 17.2947H19.4866L20.0529 16.3852Z" fill="#AC69FF"/>
<path id="Vector_21" d="M20.5315 16.3852H20.363L19.7988 17.2947H19.9672L20.5315 16.3852Z" fill="#AC69FF"/>
<path id="Vector_22" d="M21.0111 16.3852H20.8427L20.2764 17.2947H20.4448L21.0111 16.3852Z" fill="#AC69FF"/>
<path id="Vector_23" d="M21.4885 16.3852H21.3201L20.7559 17.2947H20.9243L21.4885 16.3852Z" fill="#AC69FF"/>
<path id="Vector_24" d="M21.967 16.3852H21.8007L21.2344 17.2947H21.4028L21.967 16.3852Z" fill="#AC69FF"/>
<path id="Vector_25" d="M22.4465 16.3852H22.2781L21.7139 17.2947H21.8823L22.4465 16.3852Z" fill="#AC69FF"/>
<path id="Vector_26" d="M22.924 16.3852H22.7556L22.1914 17.2947H22.3598L22.924 16.3852Z" fill="#AC69FF"/>
<path id="Vector_27" d="M23.4045 16.3852H23.2361L22.6719 17.2947H22.8403L23.4045 16.3852Z" fill="#AC69FF"/>
<path id="Vector_28" d="M23.883 16.3852H23.7146L23.1504 17.2947H23.3188L23.883 16.3852Z" fill="#AC69FF"/>
</g>
<g id="Group 32">
<g id="Group_4">
<path id="Vector_29" d="M27.1254 18.4142L30.1516 15.1149H38.1276C38.1822 15.3334 38.3785 15.4973 38.6147 15.4973C38.8923 15.4973 39.1181 15.2714 39.1181 14.9939C39.1181 14.7163 38.8923 14.4905 38.6147 14.4905C38.3785 14.4905 38.1822 14.6543 38.1276 14.8728H30.0453L27.0191 18.1721H21.7845C21.7299 17.9537 21.5335 17.7898 21.2973 17.7898C21.0198 17.7898 20.7939 18.0157 20.7939 18.2932C20.7939 18.5707 21.0198 18.7966 21.2973 18.7966C21.5335 18.7966 21.7299 18.6327 21.7845 18.4142H27.1254ZM38.6162 14.7326C38.7166 14.7326 38.8022 14.7901 38.845 14.8728C38.8642 14.9097 38.876 14.9496 38.876 14.9939C38.876 15.0382 38.8642 15.0795 38.845 15.1149C38.8007 15.1976 38.7151 15.2537 38.6162 15.2537C38.5173 15.2537 38.4302 15.1961 38.3874 15.1149C38.3682 15.078 38.3564 15.0382 38.3564 14.9939C38.3564 14.9496 38.3682 14.9082 38.3874 14.8728C38.4317 14.7901 38.5173 14.7326 38.6162 14.7326ZM21.5586 18.2917C21.5586 18.336 21.5468 18.3773 21.5276 18.4128C21.4833 18.4954 21.3977 18.5515 21.2988 18.5515C21.1556 18.5515 21.0375 18.4349 21.0375 18.2902C21.0375 18.1456 21.1541 18.0289 21.2988 18.0289C21.3992 18.0289 21.4848 18.0865 21.5276 18.1677C21.5468 18.2046 21.5586 18.2445 21.5586 18.2888V18.2917Z" fill="#BF00FF"/>
<path id="Vector_30" d="M38.6146 16.7106C38.3784 16.7106 38.1821 16.8745 38.1275 17.093H31.4476L28.4214 20.3923H23.7005C23.6459 20.1738 23.4495 20.01 23.2133 20.01C22.9358 20.01 22.71 20.2358 22.71 20.5133C22.71 20.7909 22.9358 21.0167 23.2133 21.0167C23.4495 21.0167 23.6459 20.8529 23.7005 20.6344H28.5277L31.5539 17.3351H38.126C38.1806 17.5535 38.377 17.7174 38.6132 17.7174C38.8907 17.7174 39.1165 17.4915 39.1165 17.214C39.1165 16.9365 38.8907 16.7106 38.6132 16.7106H38.6146ZM23.4746 20.5133C23.4746 20.5576 23.4628 20.599 23.4436 20.6344C23.3994 20.7171 23.3137 20.7732 23.2148 20.7732C23.0716 20.7732 22.9535 20.6565 22.9535 20.5119C22.9535 20.3672 23.0702 20.2506 23.2148 20.2506C23.3152 20.2506 23.4008 20.3081 23.4436 20.3893C23.4628 20.4262 23.4746 20.4661 23.4746 20.5104V20.5133ZM38.8759 17.214C38.8759 17.2583 38.8641 17.2996 38.8449 17.3351C38.8006 17.4177 38.715 17.4738 38.6161 17.4738C38.5172 17.4738 38.4301 17.4163 38.3873 17.3351C38.3681 17.2982 38.3563 17.2583 38.3563 17.214C38.3563 17.1697 38.3681 17.1284 38.3873 17.093C38.4316 17.0103 38.5172 16.9527 38.6161 16.9527C38.715 16.9527 38.8021 17.0103 38.8449 17.093C38.8641 17.1299 38.8759 17.1697 38.8759 17.214Z" fill="#BF00FF"/>
</g>
<path id="Vector_31" d="M32.8629 15.6406C32.6076 15.6406 32.3994 15.8487 32.3994 16.1041C32.3994 16.3595 32.6076 16.5676 32.8629 16.5676C33.0903 16.5676 33.2792 16.4023 33.3176 16.1853H38.9966V16.0229H33.3176C33.2792 15.8059 33.0903 15.6406 32.8629 15.6406ZM32.8629 16.4052C32.6961 16.4052 32.5618 16.2709 32.5618 16.1041C32.5618 15.9373 32.6976 15.8029 32.8629 15.8029C33.0002 15.8029 33.1169 15.8959 33.1523 16.0229C33.1597 16.0495 33.1641 16.076 33.1641 16.1041C33.1641 16.1321 33.1582 16.1587 33.1523 16.1853C33.1169 16.3122 33.0017 16.4052 32.8629 16.4052Z" fill="#51F0FF"/>
<path id="Vector_32" d="M30.7992 15.6406C30.5438 15.6406 30.3357 15.8487 30.3357 16.1041C30.3357 16.2089 30.3726 16.3063 30.4317 16.3846L27.7361 19.3222H24.8147C24.7763 19.1052 24.5873 18.9399 24.36 18.9399C24.1046 18.9399 23.8965 19.148 23.8965 19.4034C23.8965 19.6588 24.1046 19.8669 24.36 19.8669C24.5873 19.8669 24.7763 19.7016 24.8147 19.4846H27.8084L30.5512 16.4953C30.6236 16.541 30.7077 16.5691 30.7992 16.5691C31.0546 16.5691 31.2628 16.361 31.2628 16.1056C31.2628 15.8502 31.0546 15.642 30.7992 15.642V15.6406ZM24.6612 19.4034C24.6612 19.4315 24.6553 19.458 24.6493 19.4846C24.6139 19.6116 24.4988 19.7046 24.36 19.7046C24.1932 19.7046 24.0589 19.5688 24.0589 19.4034C24.0589 19.2381 24.1947 19.1023 24.36 19.1023C24.4973 19.1023 24.6139 19.1953 24.6493 19.3222C24.6567 19.3488 24.6612 19.3754 24.6612 19.4034ZM30.7992 16.4052C30.7505 16.4052 30.7048 16.392 30.6634 16.3713C30.6147 16.3462 30.5734 16.3093 30.5439 16.262C30.5158 16.2163 30.4981 16.1617 30.4981 16.1041C30.4981 15.9388 30.6339 15.8029 30.7992 15.8029C30.9646 15.8029 31.1004 15.9388 31.1004 16.1041C31.1004 16.2694 30.9646 16.4052 30.7992 16.4052Z" fill="#51F0FF"/>
</g>
</g>
<g id="Group 31">
<g id="Group 13">
<g id="Group 11" filter="url(#filter1_d_870_4042)">
<path id="Vector_33" d="M47 18.2799H7V29.0167H47V18.2799Z" fill="url(#paint0_linear_870_4042)"/>
<path id="Vector_34" d="M47 20.1746H7V27.122H47V20.1746Z" fill="#F2F6FF"/>
<g id="Group_5">
<path id="Vector_35" d="M9.70496 21.6799L10.145 23.0357H11.5702L10.4186 23.8714L10.8586 25.2272L9.70496 24.3893L8.55338 25.2272L8.99338 23.8714L7.8418 23.0357H9.26496L9.70496 21.6799Z" fill="#220D50"/>
<path id="Vector_36" d="M44.2334 21.6799L44.6734 23.0357H46.0966L44.945 23.8714L45.385 25.2272L44.2334 24.3893L43.0797 25.2272L43.5197 23.8714L42.3682 23.0357H43.7934L44.2334 21.6799Z" fill="#220D50"/>
</g>
</g>
</g>
<g id="Group 30">
<g id="Mathematical">
<path d="M12.6836 23.3051V22.9245H12.9751V21.433H12.6836V21.0525H13.8123L14.3079 22.3739L14.8051 21.0525H15.9565V21.433H15.665V22.9245H15.9565V23.3051H14.8229V22.9245H15.0949V21.433H15.0415L14.3435 23.3051H14.1006L13.3945 21.433H13.3411V22.9245H13.6358V23.3051H12.6836Z" fill="#220D50"/>
<path d="M18.3678 22.9245V23.3051H17.2601V22.9245H17.5484L17.4415 22.5375H16.8569L16.737 22.9245H17.0382V23.3051H16.0407V22.9245H16.3192L16.7581 21.433H16.4585V21.0525H17.9289V21.433H17.6261L18.099 22.9245H18.3678ZM17.3492 22.2071L17.1613 21.5286L16.9589 22.2071H17.3492Z" fill="#220D50"/>
<path d="M18.7532 23.3051V22.9245H19.0917V21.433H18.7532V21.9577H18.3662V21.0525H20.4083V21.9577H20.0261V21.433H19.6779V22.9245H20.0164V23.3051H18.7532Z" fill="#220D50"/>
<path d="M20.6107 23.3051V22.9245H20.8925V21.433H20.6107V21.0525H21.699V21.433H21.4625V21.927H22.0763V21.433H21.848V21.0525H22.9297V21.433H22.6463V22.9245H22.9297V23.3051H21.848V22.9245H22.0763V22.3092H21.4625V22.9245H21.699V23.3051H20.6107Z" fill="#220D50"/>
<path d="M23.1387 23.3051V22.9245H23.4091V21.433H23.1387V21.0525H25.1241V21.7666H24.6933V21.433H23.9953V21.9529H24.5589V22.3334H23.9953V22.9245H24.6933V22.5877H25.1241V23.3051H23.1387Z" fill="#220D50"/>
<path d="M25.3314 23.3051V22.9245H25.6229V21.433H25.3314V21.0525H26.4601L26.9557 22.3739L27.4528 21.0525H28.6042V21.433H28.3127V22.9245H28.6042V23.3051H27.4706V22.9245H27.7427V21.433H27.6893L26.9913 23.3051H26.7484L26.0423 21.433H25.9889V22.9245H26.2836V23.3051H25.3314Z" fill="#220D50"/>
<path d="M31.0156 22.9245V23.3051H29.9079V22.9245H30.1961L30.0893 22.5375H29.5046L29.3848 22.9245H29.686V23.3051H28.6885V22.9245H28.967L29.4059 21.433H29.1063V21.0525H30.5767V21.433H30.2739L30.7468 22.9245H31.0156ZM29.997 22.2071L29.8091 21.5286L29.6067 22.2071H29.997Z" fill="#220D50"/>
<path d="M31.401 23.3051V22.9245H31.7395V21.433H31.401V21.9577H31.014V21.0525H33.0561V21.9577H32.6739V21.433H32.3257V22.9245H32.6642V23.3051H31.401Z" fill="#220D50"/>
<path d="M33.2293 23.3051V22.9245H33.571V21.433H33.2293V21.0525H34.5022V21.433H34.1573V22.9245H34.5022V23.3051H33.2293Z" fill="#220D50"/>
<path d="M36.5978 21.0525H36.9783V21.846H36.5978C36.4898 21.561 36.3025 21.4185 36.0358 21.4185C35.8156 21.4185 35.6488 21.4935 35.5354 21.6436C35.4231 21.7936 35.367 21.9734 35.367 22.1828C35.367 22.402 35.4264 22.5796 35.5451 22.7156C35.665 22.8506 35.8172 22.9181 36.0018 22.9181C36.153 22.9181 36.2852 22.8668 36.3986 22.7642C36.5119 22.6616 36.5886 22.5191 36.6285 22.3367L37.0723 22.5488C36.9038 23.0714 36.533 23.3326 35.9597 23.3326C35.5549 23.3326 35.2493 23.2236 35.0431 23.0055C34.838 22.7874 34.7354 22.5116 34.7354 22.178C34.7354 21.9405 34.7889 21.7326 34.8957 21.5545C35.0026 21.3764 35.1462 21.2425 35.3265 21.1529C35.5079 21.0622 35.7065 21.0168 35.9225 21.0168C36.1913 21.0168 36.4164 21.087 36.5978 21.2274V21.0525Z" fill="#220D50"/>
<path d="M39.414 22.9245V23.3051H38.3063V22.9245H38.5945L38.4876 22.5375H37.903L37.7832 22.9245H38.0844V23.3051H37.0868V22.9245H37.3654L37.8042 21.433H37.5046V21.0525H38.9751V21.433H38.6723L39.1451 22.9245H39.414ZM38.3953 22.2071L38.2075 21.5286L38.0051 22.2071H38.3953Z" fill="#220D50"/>
<path d="M39.503 23.3051V22.9245H39.8253V21.433H39.503V21.0525H40.7403V21.433H40.4115V22.9245H41.0771V22.2282H41.516V23.3051H39.503Z" fill="#220D50"/>
</g>
<g id="Wizardry">
<path d="M18.2153 26.4905L17.5586 24.5634H17.3154V24.1747H18.3526V24.5634H18.1144L18.4882 25.6684L18.8389 24.5634H18.6305V24.1747H19.4575V24.5634H19.2442L19.6213 25.6684L19.9835 24.5634H19.7536V24.1747H20.675V24.5634H20.4252L19.79 26.4905H19.3599L18.9977 25.4401L18.6553 26.4905H18.2153Z" fill="#240E54"/>
<path d="M20.7478 26.4756V26.0869H21.0968V24.5634H20.7478V24.1747H22.0479V24.5634H21.6956V26.0869H22.0479V26.4756H20.7478Z" fill="#240E54"/>
<path d="M22.2878 26.4756V26.0869L23.3795 24.5634H22.7393V24.9819H22.349V24.1747H24.1255V24.5204L23.0023 26.0869H23.7599V25.6452H24.1487V26.4756H22.2878Z" fill="#240E54"/>
<path d="M26.6778 26.0869V26.4756H25.5464V26.0869H25.8408L25.7317 25.6915H25.1345L25.0121 26.0869H25.3198V26.4756H24.3008V26.0869H24.5854L25.0336 24.5634H24.7276V24.1747H26.2296V24.5634H25.9202L26.4032 26.0869H26.6778ZM25.6374 25.3541L25.4455 24.661L25.2387 25.3541H25.6374Z" fill="#240E54"/>
<path d="M29.1508 26.0869V26.4756H28.4494L27.93 25.4682H27.667V26.0869H27.9548V26.4756H26.7523V26.0869H27.0682V24.5634H26.7523V24.1747H28.1401C28.4014 24.1747 28.5895 24.2408 28.7042 24.3732C28.8199 24.5044 28.8778 24.6533 28.8778 24.8198C28.8778 25.0811 28.745 25.2719 28.4792 25.3921L28.853 26.0869H29.1508ZM27.667 25.101H27.8721C28.1258 25.101 28.2526 25.0106 28.2526 24.8297C28.2526 24.7404 28.2233 24.6737 28.1649 24.6296C28.1076 24.5855 28.0282 24.5634 27.9267 24.5634H27.667V25.101Z" fill="#240E54"/>
<path d="M29.2252 26.4756V26.0869H29.5742V24.5634H29.2252V24.1747H30.3153C30.5447 24.1747 30.7294 24.189 30.8694 24.2177C31.0095 24.2453 31.1434 24.3076 31.2714 24.4046C31.3993 24.5005 31.5018 24.6296 31.579 24.7917C31.6562 24.9538 31.6948 25.1335 31.6948 25.3309C31.6948 25.4908 31.6678 25.6436 31.6138 25.7891C31.5597 25.9336 31.4925 26.0505 31.412 26.1398C31.3326 26.228 31.2372 26.2986 31.1258 26.3515C31.0144 26.4034 30.9119 26.437 30.8181 26.4524C30.7255 26.4679 30.5816 26.4756 30.3864 26.4756H29.2252ZM30.1714 26.0869H30.3153C30.4895 26.0869 30.6274 26.0643 30.7288 26.019C30.8314 25.9738 30.9135 25.8944 30.9753 25.7808C31.037 25.6662 31.0679 25.5167 31.0679 25.3326C31.0679 25.1572 31.0365 25.0084 30.9736 24.886C30.9119 24.7636 30.8275 24.6792 30.7205 24.6329C30.6147 24.5866 30.4796 24.5634 30.3153 24.5634H30.1714V26.0869Z" fill="#240E54"/>
<path d="M34.3381 26.0869V26.4756H33.6368L33.1174 25.4682H32.8544V26.0869H33.1422V26.4756H31.9396V26.0869H32.2556V24.5634H31.9396V24.1747H33.3275C33.5888 24.1747 33.7768 24.2408 33.8915 24.3732C34.0073 24.5044 34.0652 24.6533 34.0652 24.8198C34.0652 25.0811 33.9323 25.2719 33.6666 25.3921L34.0404 26.0869H34.3381ZM32.8544 25.101H33.0595C33.3131 25.101 33.4399 25.0106 33.4399 24.8297C33.4399 24.7404 33.4107 24.6737 33.3523 24.6296C33.2949 24.5855 33.2155 24.5634 33.1141 24.5634H32.8544V25.101Z" fill="#240E54"/>
<path d="M34.7715 26.4756V26.0869H35.0941V25.4649L34.4705 24.5634H34.1893V24.1747H35.3405V24.5634H35.1139L35.4514 25.1258L35.7938 24.5634H35.5572V24.1747H36.5712V24.5634H36.2884L35.6929 25.4649V26.0869H36.0138V26.4756H34.7715Z" fill="#240E54"/>
</g>
</g>
</g>
</g>
</g>
<defs>
<filter id="filter0_d_870_4042" x="5.52637" y="12" width="42.752" height="37.1505" filterUnits="userSpaceOnUse" color-interpolation-filters="sRGB">
<feFlood flood-opacity="0" result="BackgroundImageFix"/>
<feColorMatrix in="SourceAlpha" type="matrix" values="0 0 0 0 0 0 0 0 0 0 0 0 0 0 0 0 0 0 127 0" result="hardAlpha"/>
<feOffset dy="4"/>
<feGaussianBlur stdDeviation="2"/>
<feComposite in2="hardAlpha" operator="out"/>
<feColorMatrix type="matrix" values="0 0 0 0 0 0 0 0 0 0 0 0 0 0 0 0 0 0 0.1 0"/>
<feBlend mode="normal" in2="BackgroundImageFix" result="effect1_dropShadow_870_4042"/>
<feBlend mode="normal" in="SourceGraphic" in2="effect1_dropShadow_870_4042" result="shape"/>
</filter>
<filter id="filter1_d_870_4042" x="3" y="18.2799" width="48" height="18.7368" filterUnits="userSpaceOnUse" color-interpolation-filters="sRGB">
<feFlood flood-opacity="0" result="BackgroundImageFix"/>
<feColorMatrix in="SourceAlpha" type="matrix" values="0 0 0 0 0 0 0 0 0 0 0 0 0 0 0 0 0 0 127 0" result="hardAlpha"/>
<feOffset dy="4"/>
<feGaussianBlur stdDeviation="2"/>
<feComposite in2="hardAlpha" operator="out"/>
<feColorMatrix type="matrix" values="0 0 0 0 0 0 0 0 0 0 0 0 0 0 0 0 0 0 0.25 0"/>
<feBlend mode="normal" in2="BackgroundImageFix" result="effect1_dropShadow_870_4042"/>
<feBlend mode="normal" in="SourceGraphic" in2="effect1_dropShadow_870_4042" result="shape"/>
</filter>
<linearGradient id="paint0_linear_870_4042" x1="27" y1="29.0163" x2="27" y2="18.2803" gradientUnits="userSpaceOnUse">
<stop stop-color="#5127AE"/>
<stop offset="1" stop-color="#200C4C"/>
</linearGradient>
</defs>
</svg>
