<svg width="54" height="54" viewBox="0 0 54 54" fill="none" xmlns="http://www.w3.org/2000/svg">
<g id="Silver award">
<rect x="0.5" y="0.5" width="53" height="53" rx="26.5" stroke="#CFDCE9"/>
<g id="Group 1000002834">
<g id="Vector" filter="url(#filter0_d_870_3684)">
<path d="M24.7959 44.4333L5.14905 29.7908C3.61698 28.648 3.61698 26.352 5.14905 25.2092L24.7959 10.5667C25.8089 9.81111 27.1966 9.81111 28.2096 10.5667L47.8565 25.2092C49.3885 26.352 49.3885 28.648 47.8565 29.7908L28.2096 44.4333C27.1966 45.1889 25.8089 45.1889 24.7959 44.4333Z" fill="#F2F6FF"/>
</g>
<path id="Vector_2" d="M24.9743 42.669L7.37643 29.5522C6.00343 28.5287 6.00343 26.4734 7.37643 25.45L24.9743 12.3332C25.8805 11.6572 27.1259 11.6572 28.0321 12.3332L45.63 25.45C47.003 26.4734 47.003 28.5287 45.63 29.5522L28.0321 42.669C27.1259 43.345 25.8805 43.345 24.9743 42.669Z" fill="#240E54"/>
<path id="Vector_3" d="M26.5018 42.3843C25.9807 42.3843 25.4574 42.2211 25.0221 41.8966L8.37029 29.4852C7.73611 29.0122 7.37402 28.2901 7.37402 27.499C7.37402 26.7099 7.73821 25.9857 8.37029 25.5127L25.0221 13.1013C25.8928 12.4525 27.1109 12.4525 27.9816 13.1013L44.6334 25.5127C45.2655 25.9837 45.6297 26.7078 45.6297 27.499C45.6297 28.2901 45.2655 29.0122 44.6334 29.4852L27.9816 41.8966C27.5462 42.2211 27.023 42.3843 26.5018 42.3843ZM26.5018 12.7246C26.0037 12.7246 25.5035 12.8795 25.087 13.1892L8.43517 25.6006C7.8303 26.0506 7.48286 26.7434 7.48286 27.4969C7.48286 28.2524 7.8303 28.9431 8.43517 29.3952L25.087 41.8066C25.92 42.4283 27.0837 42.4283 27.9146 41.8066L44.5664 29.3952C45.1713 28.9452 45.5187 28.2524 45.5187 27.4969C45.5187 26.7413 45.1713 26.0506 44.5664 25.6006L27.9146 13.1892C27.4981 12.8795 27 12.7246 26.4998 12.7246H26.5018Z" fill="white"/>
<g id="Group">
<g id="Group 38">
<path id="Vector_4" d="M20.3258 21.0044H15.334V21.2974H20.3258V21.0044Z" fill="white"/>
<path id="Vector_5" d="M37.4566 21.0044H32.4648V21.2974H37.4566V21.0044Z" fill="white"/>
</g>
</g>
<g id="Group_2">
<path id="Vector_6" d="M18.5082 35.5884L18.6631 35.4335L18.0959 34.8663L18.6631 34.2991L18.5082 34.1442L17.941 34.7114L17.3717 34.1442L17.2168 34.2991L17.7861 34.8663L17.2168 35.4335L17.3717 35.5884L17.941 35.0212L18.5082 35.5884Z" fill="#BF00FF"/>
<path id="Vector_7" d="M22.7068 35.49L22.8638 35.3352L22.3928 34.8663L22.8638 34.3975L22.7068 34.2426L22.238 34.7114L21.7691 34.2426L21.6143 34.3975L22.0831 34.8663L21.6143 35.3352L21.7691 35.49L22.238 35.0212L22.7068 35.49Z" fill="#BF00FF"/>
<path id="Vector_8" d="M26.9572 34.2908L26.5365 34.7115L26.1158 34.2908L25.9609 34.4457L26.3816 34.8663L25.9609 35.287L26.1158 35.4419L26.5365 35.0212L26.9572 35.4419L27.1121 35.287L26.6914 34.8663L27.1121 34.4457L26.9572 34.2908Z" fill="#BF00FF"/>
<path id="Vector_9" d="M31.2065 34.341L30.836 34.7115L30.4656 34.341L30.3086 34.4959L30.6811 34.8663L30.3086 35.2368L30.4656 35.3917L30.836 35.0212L31.2065 35.3917L31.3614 35.2368L30.9909 34.8663L31.3614 34.4959L31.2065 34.341Z" fill="#BF00FF"/>
<path id="Vector_10" d="M35.4072 34.4394L35.1351 34.7115L34.8609 34.4394L34.7061 34.5943L34.9781 34.8664L34.7061 35.1384L34.8609 35.2933L35.1351 35.0212L35.4072 35.2933L35.5621 35.1384L35.29 34.8664L35.5621 34.5943L35.4072 34.4394Z" fill="#BF00FF"/>
</g>
<path id="Vector_11" d="M14.1696 23.0262C14.3077 23.0262 14.4228 22.9342 14.4584 22.8065H25.1996C25.2352 22.9321 25.3503 23.0262 25.4884 23.0262C25.5408 23.0262 25.591 23.0116 25.6349 22.9865L28.473 25.8246C28.4479 25.8685 28.4333 25.9167 28.4333 25.9711C28.4333 26.1385 28.5672 26.2725 28.7347 26.2725C28.8728 26.2725 28.9879 26.1804 29.0235 26.0527H31.9579C31.9934 26.1783 32.1086 26.2725 32.2467 26.2725C32.4141 26.2725 32.5481 26.1364 32.5481 25.9711C32.5481 25.8057 32.412 25.6697 32.2467 25.6697C32.1086 25.6697 31.9934 25.7618 31.9579 25.8895H29.0235C28.9879 25.7639 28.8728 25.6697 28.7347 25.6697C28.6823 25.6697 28.6321 25.6843 28.5882 25.7095L25.7501 22.8714C25.7752 22.8274 25.7898 22.7793 25.7898 22.7249C25.7898 22.5574 25.6559 22.4235 25.4884 22.4235C25.3503 22.4235 25.2352 22.5156 25.1996 22.6432H14.4584C14.4228 22.5176 14.3077 22.4235 14.1696 22.4235C14.0021 22.4235 13.8682 22.5595 13.8682 22.7249C13.8682 22.8902 14.0021 23.0262 14.1696 23.0262Z" fill="#51F0FF"/>
<path id="Vector_12" d="M21.0768 28.8866C21.2149 28.8866 21.33 28.7945 21.3656 28.6668H32.1068C32.1424 28.7924 32.2575 28.8866 32.3957 28.8866C32.448 28.8866 32.4982 28.8719 32.5422 28.8468L35.3803 31.6849C35.3551 31.7289 35.3405 31.777 35.3405 31.8314C35.3405 31.9989 35.4744 32.1328 35.6419 32.1328C35.78 32.1328 35.8951 32.0407 35.9307 31.9131H38.8651C38.9007 32.0386 39.0158 32.1328 39.1539 32.1328C39.3214 32.1328 39.4553 31.9968 39.4553 31.8314C39.4553 31.6661 39.3193 31.53 39.1539 31.53C39.0158 31.53 38.9007 31.6221 38.8651 31.7498H35.9307C35.8951 31.6242 35.78 31.53 35.6419 31.53C35.5896 31.53 35.5393 31.5447 35.4954 31.5698L32.6573 28.7317C32.6824 28.6878 32.6971 28.6396 32.6971 28.5852C32.6971 28.4178 32.5631 28.2838 32.3957 28.2838C32.2575 28.2838 32.1424 28.3759 32.1068 28.5036H21.3656C21.33 28.378 21.2149 28.2838 21.0768 28.2838C20.9093 28.2838 20.7754 28.4199 20.7754 28.5852C20.7754 28.7506 20.9093 28.8866 21.0768 28.8866Z" fill="#51F0FF"/>
<g id="Group_3">
<path id="Vector_13" d="M21.4033 30.0629L21.5059 29.9583H21.4033V30.0629Z" fill="#BF00FF"/>
<path id="Vector_14" d="M22.8412 29.9583H22.0291L21.4033 30.5841V31.3961L22.8412 29.9583Z" fill="#BF00FF"/>
<path id="Vector_15" d="M23.3624 29.9583L21.4033 31.9173V32.5933H21.5394L24.1744 29.9583H23.3624Z" fill="#BF00FF"/>
<path id="Vector_16" d="M25.5077 29.9583H24.6956L22.0605 32.5933H22.8726L25.5077 29.9583Z" fill="#BF00FF"/>
<path id="Vector_17" d="M26.8407 29.9583H26.0286L23.3936 32.5933H24.2056L26.8407 29.9583Z" fill="#BF00FF"/>
<path id="Vector_18" d="M28.1747 29.9583H27.3626L24.7275 32.5933H25.5396L28.1747 29.9583Z" fill="#BF00FF"/>
<path id="Vector_19" d="M29.5077 29.9583H28.6956L26.0605 32.5933H26.8726L29.5077 29.9583Z" fill="#BF00FF"/>
<path id="Vector_20" d="M30.8407 29.9583H30.0286L27.3936 32.5933H28.2056L30.8407 29.9583Z" fill="#BF00FF"/>
<path id="Vector_21" d="M31.4998 30.6343V29.9583H31.3616L28.7266 32.5933H29.5386L31.4998 30.6343Z" fill="#BF00FF"/>
<path id="Vector_22" d="M31.5004 31.9675V31.1554L30.0625 32.5933H30.8725L31.5004 31.9675Z" fill="#BF00FF"/>
<path id="Vector_23" d="M31.5002 32.4886L31.3955 32.5933H31.5002V32.4886Z" fill="#BF00FF"/>
</g>
<g id="Group 39">
<path id="Vector_24" d="M5.14905 25.2092C3.61698 26.352 3.61698 28.648 5.14905 29.7908L7.57273 31.597H45.4328L47.8565 29.7908C49.3885 28.648 49.3885 26.352 47.8565 25.2092L45.4328 23.403H7.57273L5.14905 25.2092Z" fill="#240E54"/>
<path id="Vector_25" d="M5.14905 25.2092C3.61698 26.352 3.61698 28.648 5.14905 29.7907L5.80834 30.2826H47.1972L47.8565 29.7907C49.3885 28.648 49.3885 26.352 47.8565 25.2092L47.1972 24.7173H5.80834L5.14905 25.2092Z" fill="#C1FF72"/>
<g id="Group_4">
<path id="Vector_26" d="M44.6664 24.0665H9.67578V24.1732H44.6664V24.0665Z" fill="#C1FF72"/>
<path id="Vector_27" d="M44.6664 30.8269H9.67578V30.9336H44.6664V30.8269Z" fill="#C1FF72"/>
</g>
<g id="Science Explorer">
<path d="M8.23885 28.7568V27.9242H8.65335C8.65803 28.0765 8.69784 28.1889 8.77278 28.2615C8.84772 28.3329 8.93319 28.3686 9.02921 28.3686C9.10415 28.3686 9.16738 28.3428 9.2189 28.2913C9.27041 28.2386 9.29617 28.1772 9.29617 28.1069C9.29617 28.032 9.271 27.9693 9.22065 27.919C9.1703 27.8675 9.07839 27.8089 8.9449 27.7433C8.66272 27.6063 8.47069 27.4857 8.36882 27.3815C8.26812 27.2773 8.21777 27.1368 8.21777 26.96C8.21777 26.7469 8.28451 26.5818 8.418 26.4647C8.55148 26.3476 8.70311 26.2891 8.87289 26.2891C9.06726 26.2891 9.21772 26.3646 9.32428 26.5156V26.3137H9.73702V27.0566H9.32428C9.3114 26.9419 9.27159 26.8535 9.20484 26.7914C9.13927 26.7282 9.06258 26.6965 8.97476 26.6965C8.90685 26.6965 8.84948 26.7147 8.80264 26.751C8.7558 26.7873 8.73239 26.8347 8.73239 26.8933C8.73239 26.9436 8.75171 26.9916 8.79034 27.0373C8.82898 27.0818 8.94198 27.1456 9.12932 27.2287C9.30964 27.3095 9.44781 27.3827 9.54382 27.4483C9.64101 27.5127 9.7177 27.597 9.7739 27.7012C9.83011 27.8042 9.85821 27.9237 9.85821 28.0595C9.85821 28.3007 9.78795 28.4822 9.64745 28.604C9.50694 28.7257 9.34067 28.7866 9.14864 28.7866C8.93437 28.7866 8.76927 28.7076 8.65335 28.5495V28.7568H8.23885Z" fill="black"/>
<path d="M12.1766 26.3137H12.5893V27.1743H12.1766C12.0595 26.8652 11.8564 26.7106 11.5671 26.7106C11.3283 26.7106 11.1474 26.792 11.0244 26.9547C10.9027 27.1175 10.8418 27.3124 10.8418 27.5396C10.8418 27.7773 10.9062 27.9699 11.035 28.1174C11.1649 28.2638 11.33 28.337 11.5303 28.337C11.6942 28.337 11.8376 28.2814 11.9606 28.1701C12.0835 28.0589 12.1666 27.9043 12.21 27.7065L12.6912 27.9365C12.5085 28.5033 12.1063 28.7866 11.4846 28.7866C11.0455 28.7866 10.7141 28.6683 10.4905 28.4318C10.268 28.1953 10.1568 27.8961 10.1568 27.5343C10.1568 27.2767 10.2147 27.0513 10.3307 26.8581C10.4466 26.6649 10.6023 26.5197 10.7979 26.4226C10.9946 26.3242 11.21 26.275 11.4442 26.275C11.7358 26.275 11.9799 26.3511 12.1766 26.5034V26.3137Z" fill="black"/>
<path d="M12.8686 28.7568V28.344H13.2392V26.7264H12.8686V26.3137H14.2491V26.7264H13.875V28.344H14.2491V28.7568H12.8686Z" fill="black"/>
<path d="M14.444 28.7568V28.344H14.7374V26.7264H14.444V26.3137H16.5973V27.0882H16.1301V26.7264H15.3732V27.2902H15.9844V27.7029H15.3732V28.344H16.1301V27.9787H16.5973V28.7568H14.444Z" fill="black"/>
<path d="M16.8204 28.7568V28.344H17.1471V26.7264H16.8204V26.3137H17.8443L18.7454 27.8382V26.7264H18.4275V26.3137H19.5234V26.7264H19.1809V28.7743H18.6365L17.5827 26.9635V28.344H17.89V28.7568H16.8204Z" fill="black"/>
<path d="M21.7698 26.3137H22.1825V27.1743H21.7698C21.6527 26.8652 21.4496 26.7106 21.1603 26.7106C20.9215 26.7106 20.7406 26.792 20.6176 26.9547C20.4959 27.1175 20.435 27.3124 20.435 27.5396C20.435 27.7773 20.4994 27.9699 20.6282 28.1174C20.7581 28.2638 20.9232 28.337 21.1235 28.337C21.2874 28.337 21.4308 28.2814 21.5538 28.1701C21.6767 28.0589 21.7598 27.9043 21.8032 27.7065L22.2844 27.9365C22.1018 28.5033 21.6995 28.7866 21.0778 28.7866C20.6387 28.7866 20.3073 28.6683 20.0837 28.4318C19.8612 28.1953 19.75 27.8961 19.75 27.5343C19.75 27.2767 19.808 27.0513 19.9239 26.8581C20.0398 26.6649 20.1955 26.5197 20.3911 26.4226C20.5878 26.3242 20.8032 26.275 21.0374 26.275C21.329 26.275 21.5731 26.3511 21.7698 26.5034V26.3137Z" fill="black"/>
<path d="M22.5022 28.7568V28.344H22.7955V26.7264H22.5022V26.3137H24.6555V27.0882H24.1883V26.7264H23.4313V27.2902H24.0425V27.7029H23.4313V28.344H24.1883V27.9787H24.6555V28.7568H22.5022Z" fill="black"/>
<path d="M25.8006 28.7568V28.344H26.0939V26.7264H25.8006V26.3137H27.9539V27.0882H27.4867V26.7264H26.7297V27.2902H27.341V27.7029H26.7297V28.344H27.4867V27.9787H27.9539V28.7568H25.8006Z" fill="black"/>
<path d="M28.0751 28.7568V28.344H28.4352L29.0306 27.5027L28.4352 26.7264H28.0997V26.3137H29.3555V26.7036H29.1219L29.4855 27.1585L29.8157 26.7036H29.5944V26.3137H30.678V26.7264H30.3391L29.7595 27.5291L30.3988 28.344H30.75V28.7568H29.4538V28.3598H29.698L29.3151 27.8593L28.9515 28.3598H29.2027V28.7568H28.0751Z" fill="black"/>
<path d="M32.1376 28.344V28.7568H30.8502V28.344H31.161V26.7264H30.8502V26.3137H32.1376C32.4373 26.3137 32.6686 26.3839 32.8313 26.5244C32.9952 26.6649 33.0772 26.854 33.0772 27.0917C33.0772 27.2276 33.0485 27.3511 32.9911 27.4623C32.9338 27.5724 32.86 27.6573 32.7698 27.717C32.6809 27.7755 32.5784 27.8159 32.4625 27.8382C32.3477 27.8593 32.2037 27.8698 32.0304 27.8698H31.7968V28.344H32.1376ZM31.7968 27.4623H31.8917C32.1095 27.4623 32.2494 27.4272 32.3114 27.3569C32.3747 27.2855 32.4063 27.1971 32.4063 27.0917C32.4063 27.0027 32.3846 26.9272 32.3413 26.8652C32.298 26.8019 32.2482 26.7633 32.192 26.7492C32.1358 26.734 32.0439 26.7264 31.9163 26.7264H31.7968V27.4623Z" fill="black"/>
<path d="M33.2423 28.7568V28.344H33.5918V26.7264H33.2423V26.3137H34.5842V26.7264H34.2276V28.344H34.9495V27.5888H35.4255V28.7568H33.2423Z" fill="black"/>
<path d="M37.0027 26.275C37.4242 26.275 37.7556 26.3968 37.9968 26.6403C38.2391 26.8839 38.3603 27.1807 38.3603 27.5308C38.3603 27.8821 38.2391 28.1795 37.9968 28.423C37.7544 28.6654 37.423 28.7866 37.0027 28.7866C36.5659 28.7866 36.2305 28.6619 35.9963 28.4125C35.7621 28.1619 35.645 27.868 35.645 27.5308C35.645 27.1819 35.765 26.8857 36.0051 26.6421C36.2463 26.3974 36.5788 26.275 37.0027 26.275ZM37.0027 26.7211C36.8153 26.7211 36.6561 26.7914 36.5249 26.9319C36.395 27.0724 36.33 27.2785 36.33 27.5501C36.33 27.7902 36.3944 27.9822 36.5232 28.1262C36.652 28.2702 36.8118 28.3423 37.0027 28.3423C37.19 28.3423 37.3492 28.272 37.4804 28.1315C37.6115 27.9898 37.6771 27.7861 37.6771 27.5203C37.6771 27.2826 37.6145 27.09 37.4892 26.9424C37.3639 26.7949 37.2017 26.7211 37.0027 26.7211Z" fill="black"/>
<path d="M41.1705 28.344V28.7568H40.4258L39.8743 27.6871H39.595V28.344H39.9006V28.7568H38.6238V28.344H38.9592V26.7264H38.6238V26.3137H40.0974C40.3749 26.3137 40.5745 26.3839 40.6963 26.5244C40.8192 26.6638 40.8807 26.8218 40.8807 26.9986C40.8807 27.2761 40.7396 27.4787 40.4574 27.6063L40.8543 28.344H41.1705ZM39.595 27.2972H39.8128C40.0821 27.2972 40.2168 27.2012 40.2168 27.0092C40.2168 26.9143 40.1858 26.8435 40.1237 26.7967C40.0628 26.7498 39.9785 26.7264 39.8708 26.7264H39.595V27.2972Z" fill="black"/>
<path d="M41.2846 28.7568V28.344H41.578V26.7264H41.2846V26.3137H43.4379V27.0882H42.9708V26.7264H42.2138V27.2902H42.825V27.7029H42.2138V28.344H42.9708V27.9787H43.4379V28.7568H41.2846Z" fill="black"/>
<path d="M46.1937 28.344V28.7568H45.449L44.8975 27.6871H44.6182V28.344H44.9238V28.7568H43.6469V28.344H43.9824V26.7264H43.6469V26.3137H45.1205C45.398 26.3137 45.5977 26.3839 45.7194 26.5244C45.8424 26.6638 45.9039 26.8218 45.9039 26.9986C45.9039 27.2761 45.7628 27.4787 45.4806 27.6063L45.8775 28.344H46.1937ZM44.6182 27.2972H44.836C45.1053 27.2972 45.24 27.2012 45.24 27.0092C45.24 26.9143 45.2089 26.8435 45.1469 26.7967C45.086 26.7498 45.0017 26.7264 44.894 26.7264H44.6182V27.2972Z" fill="black"/>
</g>
</g>
<g id="Group_5">
<g id="Group_6">
<path id="Vector_28" d="M26.1381 21.8484C25.3539 21.8484 24.5696 21.55 23.9729 20.9526C23.395 20.3747 23.0771 19.6058 23.0771 18.7867C23.0771 17.9676 23.395 17.1987 23.9729 16.6215C25.1671 15.4274 27.1099 15.4274 28.304 16.6215C29.4982 17.8156 29.4982 19.7585 28.304 20.9526C27.7073 21.5493 26.9224 21.8484 26.1381 21.8484ZM26.1381 15.8603C25.388 15.8603 24.638 16.1454 24.067 16.7163C23.5149 17.2684 23.2103 18.0038 23.2103 18.7874C23.2103 19.5709 23.5142 20.3064 24.067 20.8585C25.2089 22.0003 27.0667 22.0003 28.2092 20.8585C29.3511 19.7166 29.3511 17.8588 28.2092 16.7163C27.6383 16.1454 26.8882 15.8603 26.1381 15.8603ZM26.1381 21.138C25.5093 21.138 24.9189 20.894 24.4755 20.45C24.0322 20.0066 23.7875 19.4162 23.7875 18.7874C23.7875 18.1586 24.0315 17.5682 24.4755 17.1248C24.9189 16.6814 25.5093 16.4368 26.1381 16.4368C26.7669 16.4368 27.3574 16.6807 27.8007 17.1241C28.7174 18.0415 28.7174 19.5333 27.8007 20.45C27.3574 20.8933 26.7669 21.138 26.1381 21.138ZM26.1381 16.5706C25.5449 16.5706 24.9879 16.8006 24.5696 17.2189C24.1514 17.6372 23.9213 18.1942 23.9213 18.7874C23.9213 19.3806 24.1514 19.9376 24.5696 20.3559C24.9879 20.7741 25.5449 21.0042 26.1381 21.0042C26.7314 21.0042 27.2883 20.7741 27.7066 20.3559C28.571 19.4915 28.571 18.084 27.7066 17.2196C27.2883 16.8013 26.7314 16.5713 26.1388 16.5713L26.1381 16.5706Z" fill="#C1FF72" stroke="#C1FF72" stroke-width="0.25"/>
<path id="Vector_29" d="M28.9756 22.4235C28.7623 22.4235 28.5615 22.3405 28.411 22.1892C28.3733 22.1516 28.3385 22.1091 28.3078 22.0617L27.7236 21.3381L27.8275 21.2537L28.4159 21.9822L28.4179 21.985C28.4437 22.0247 28.4737 22.0617 28.5058 22.0937C28.6313 22.2192 28.7986 22.2889 28.9756 22.2889C29.1534 22.2889 29.32 22.2199 29.4455 22.0944C29.7048 21.8351 29.7048 21.4134 29.4455 21.154C29.4134 21.1213 29.3765 21.092 29.3367 21.0662L29.3311 21.062L28.6048 20.4758L28.6891 20.3719L29.4127 20.9561C29.4594 20.9867 29.5019 21.0216 29.5403 21.0592C29.8519 21.3701 29.8519 21.8769 29.5403 22.1885C29.3897 22.3391 29.1889 22.4221 28.9756 22.4221V22.4235Z" fill="#C1FF72" stroke="#C1FF72" stroke-width="0.25"/>
</g>
<g id="Group_7">
<g id="Group_8">
<path id="Vector_30" d="M25.7514 20.5301H25.4C25.3819 20.5301 25.3645 20.5224 25.3519 20.5092L24.8312 19.9648C24.8193 19.9522 24.8124 19.9355 24.8124 19.9188V19.6559L24.6179 19.4022C24.6088 19.391 24.6039 19.3771 24.6039 19.3625L24.5977 18.8912C24.5977 18.8543 24.6269 18.8236 24.6639 18.8236H24.6646C24.7008 18.8236 24.7308 18.8529 24.7315 18.8898L24.7378 19.3388L24.9323 19.5925C24.9413 19.6044 24.9462 19.6183 24.9462 19.6329V19.8916L25.4286 20.3963H25.7388L26.0776 20.2645C26.1118 20.2513 26.1508 20.268 26.164 20.3029C26.1773 20.337 26.1606 20.3761 26.1257 20.3893L25.7758 20.5259C25.7681 20.5287 25.7597 20.5308 25.7514 20.5308V20.5301Z" fill="#C1FF72" stroke="#C1FF72" stroke-width="0.25"/>
<path id="Vector_31" d="M25.132 19.0837C25.1264 19.0837 25.1201 19.083 25.1145 19.0816L24.6475 18.9554C24.6301 18.9505 24.6154 18.9394 24.6071 18.924L24.4739 18.6905C24.4683 18.6808 24.4648 18.6689 24.4648 18.6578V18.206C24.4648 18.1851 24.4746 18.1656 24.4913 18.1531L24.904 17.8359C24.9333 17.8136 24.9751 17.8191 24.9981 17.8484C25.0204 17.8777 25.0149 17.9195 24.9856 17.9425L24.5987 18.2395V18.641L24.7088 18.8355L25.1494 18.9547C25.185 18.9645 25.2059 19.0014 25.1968 19.037C25.1884 19.0669 25.1619 19.0865 25.132 19.0865V19.0837Z" fill="#C1FF72" stroke="#C1FF72" stroke-width="0.25"/>
<path id="Vector_32" d="M25.5172 18.5546C25.4859 18.5546 25.458 18.5323 25.4517 18.5002L25.3736 18.0959L24.924 17.9502C24.8954 17.9411 24.8766 17.9139 24.878 17.8847L24.8912 17.4782C24.8919 17.4545 24.9052 17.4329 24.9261 17.4218L25.5124 17.1011C25.5172 17.0983 25.5221 17.0969 25.527 17.0955L26.0854 16.945C26.1209 16.9352 26.1579 16.9561 26.1676 16.9924C26.1774 17.0279 26.1565 17.0649 26.1202 17.0746L25.5695 17.2231L25.0237 17.5215L25.0132 17.8393L25.4531 17.9816C25.4761 17.9892 25.4935 18.0087 25.4984 18.0324L25.5842 18.4751C25.5911 18.5113 25.5674 18.5462 25.5312 18.5532C25.527 18.5539 25.5228 18.5546 25.5186 18.5546H25.5172Z" fill="#C1FF72" stroke="#C1FF72" stroke-width="0.25"/>
<path id="Vector_33" d="M25.7889 20.084C25.7714 20.084 25.7533 20.0771 25.7401 20.0631L25.1824 19.4776C25.1691 19.4636 25.1629 19.4448 25.1643 19.426C25.1656 19.4072 25.1754 19.3897 25.1907 19.3779L25.7477 18.9638C25.7777 18.9415 25.8195 18.9478 25.8411 18.9777C25.8634 19.0077 25.8572 19.0495 25.8272 19.0712L25.3302 19.4406L25.8356 19.9718C25.8614 19.9983 25.86 20.0408 25.8335 20.0666C25.8202 20.0792 25.8042 20.0847 25.7875 20.0847L25.7889 20.084Z" fill="#C1FF72" stroke="#C1FF72" stroke-width="0.25"/>
</g>
<path id="Vector_34" d="M26.2051 16.9687H26.0713V20.3664H26.2051V16.9687Z" fill="#C1FF72" stroke="#C1FF72" stroke-width="0.25"/>
<path id="Vector_35" d="M25.6777 17.6476C25.6491 17.6476 25.6233 17.6295 25.6142 17.6009L25.4797 17.1806C25.4685 17.145 25.4881 17.1074 25.5229 17.0962C25.5578 17.0851 25.5961 17.1046 25.6073 17.1394L25.7418 17.5598C25.753 17.5953 25.7334 17.633 25.6986 17.6441C25.6916 17.6462 25.6847 17.6476 25.6784 17.6476H25.6777Z" fill="#C1FF72" stroke="#C1FF72" stroke-width="0.25"/>
<g id="Group_9">
<path id="Vector_36" d="M26.8749 20.5301H26.5236C26.5152 20.5301 26.5068 20.5287 26.4992 20.5253L26.1492 20.3886C26.1151 20.3754 26.0976 20.3363 26.1109 20.3022C26.1241 20.268 26.1632 20.2506 26.1973 20.2638L26.5361 20.3956H26.8463L27.3287 19.8909V19.6323C27.3287 19.6176 27.3336 19.603 27.3427 19.5918L27.5372 19.3381L27.5434 18.8892C27.5434 18.8522 27.5741 18.8229 27.6104 18.8229H27.6111C27.648 18.8229 27.6773 18.8536 27.6773 18.8906L27.671 19.3618C27.671 19.3764 27.6661 19.3904 27.6571 19.4015L27.4626 19.6553V19.9181C27.4626 19.9355 27.4556 19.9522 27.4437 19.9641L26.923 20.5085C26.9105 20.5218 26.893 20.5294 26.8749 20.5294V20.5301Z" fill="#C1FF72" stroke="#C1FF72" stroke-width="0.25"/>
<path id="Vector_37" d="M27.1434 19.0837C27.1141 19.0837 27.0869 19.0641 27.0786 19.0342C27.0688 18.9986 27.0897 18.9617 27.126 18.9519L27.5665 18.8327L27.6767 18.6382V18.2367L27.2898 17.9397C27.2605 17.9174 27.2549 17.8749 27.2772 17.8456C27.2995 17.8163 27.3421 17.8108 27.3714 17.8331L27.784 18.1502C27.8008 18.1628 27.8105 18.1823 27.8105 18.2032V18.6549C27.8105 18.6668 27.8077 18.6779 27.8015 18.6877L27.6683 18.9212C27.6593 18.9366 27.6446 18.9484 27.6279 18.9526L27.1608 19.0788C27.1552 19.0802 27.149 19.0809 27.1434 19.0809V19.0837Z" fill="#C1FF72" stroke="#C1FF72" stroke-width="0.25"/>
<path id="Vector_38" d="M26.7578 18.5546C26.7536 18.5546 26.7494 18.5546 26.7452 18.5532C26.709 18.5462 26.6853 18.5114 26.6923 18.4751L26.778 18.0325C26.7829 18.0088 26.7996 17.9892 26.8233 17.9816L27.2632 17.8394L27.2527 17.5215L26.7069 17.2231L26.1562 17.0746C26.1206 17.0649 26.099 17.0286 26.1088 16.9924C26.1186 16.9568 26.1555 16.9359 26.1911 16.945L26.7494 17.0956C26.7543 17.097 26.7592 17.099 26.7641 17.1011L27.3503 17.4218C27.3712 17.433 27.3845 17.4546 27.3852 17.4783L27.3984 17.8847C27.3991 17.9147 27.3803 17.9411 27.3524 17.9502L26.9028 18.0959L26.8247 18.5002C26.8184 18.5323 26.7906 18.5546 26.7592 18.5546H26.7578Z" fill="#C1FF72" stroke="#C1FF72" stroke-width="0.25"/>
<path id="Vector_39" d="M26.4856 20.084C26.4689 20.084 26.4522 20.0777 26.4396 20.0659C26.4131 20.0401 26.4117 19.9983 26.4375 19.9711L26.9429 19.4399L26.4466 19.0704C26.4166 19.0481 26.411 19.0063 26.4326 18.977C26.455 18.947 26.4968 18.9415 26.5261 18.9631L27.083 19.3772C27.0984 19.3883 27.1081 19.4057 27.1095 19.4253C27.1109 19.4441 27.1047 19.4629 27.0914 19.4768L26.5344 20.0624C26.5212 20.0763 26.5038 20.0833 26.4856 20.0833V20.084Z" fill="#C1FF72" stroke="#C1FF72" stroke-width="0.25"/>
</g>
<path id="Vector_40" d="M26.5979 17.6476C26.5909 17.6476 26.5846 17.6469 26.5777 17.6441C26.5421 17.633 26.5233 17.5953 26.5345 17.5598L26.669 17.1394C26.6801 17.1039 26.7178 17.0851 26.7533 17.0962C26.7889 17.1074 26.8077 17.145 26.7966 17.1806L26.662 17.6009C26.653 17.6295 26.6265 17.6476 26.5986 17.6476H26.5979Z" fill="#C1FF72" stroke="#C1FF72" stroke-width="0.25"/>
</g>
</g>
</g>
</g>
<defs>
<filter id="filter0_d_870_3684" x="0" y="10" width="53.0059" height="43" filterUnits="userSpaceOnUse" color-interpolation-filters="sRGB">
<feFlood flood-opacity="0" result="BackgroundImageFix"/>
<feColorMatrix in="SourceAlpha" type="matrix" values="0 0 0 0 0 0 0 0 0 0 0 0 0 0 0 0 0 0 127 0" result="hardAlpha"/>
<feOffset dy="4"/>
<feGaussianBlur stdDeviation="2"/>
<feComposite in2="hardAlpha" operator="out"/>
<feColorMatrix type="matrix" values="0 0 0 0 0 0 0 0 0 0 0 0 0 0 0 0 0 0 0.15 0"/>
<feBlend mode="normal" in2="BackgroundImageFix" result="effect1_dropShadow_870_3684"/>
<feBlend mode="normal" in="SourceGraphic" in2="effect1_dropShadow_870_3684" result="shape"/>
</filter>
</defs>
</svg>
