<svg width="54" height="54" viewBox="0 0 54 54" fill="none" xmlns="http://www.w3.org/2000/svg">
<g id="Gold Award">
<rect x="0.5" y="0.5" width="53" height="53" rx="26.5" stroke="#CFDCE9"/>
<g id="Group 1000002834">
<path id="Vector" d="M42.4343 33.8126L27.6309 44.674C27.0384 45.1087 26.234 45.1087 25.6415 44.674L10.8381 33.8126C10.6067 33.6439 10.4727 33.3758 10.4727 33.0903V13.8974C10.4727 13.4022 10.8749 13 11.37 13H41.9045C42.3997 13 42.8019 13.4022 42.8019 13.8974V33.0903C42.8019 33.3758 42.6656 33.6439 42.4364 33.8126H42.4343Z" fill="#3C92FF"/>
<g id="Vector_2" filter="url(#filter0_d_870_3908)">
<path d="M42.4343 33.8126L27.6309 44.674C27.0384 45.1087 26.234 45.1087 25.6415 44.674L10.8381 33.8126C10.6067 33.6439 10.4727 33.3758 10.4727 33.0903V13.8974C10.4727 13.4022 10.8749 13 11.37 13H41.9045C42.3997 13 42.8019 13.4022 42.8019 13.8974V33.0903C42.8019 33.3758 42.6656 33.6439 42.4364 33.8126H42.4343Z" fill="#F2F6FF"/>
</g>
<path id="Vector_3" d="M40.574 33.259L27.6324 42.756C27.0399 43.1906 26.2355 43.1906 25.643 42.756L12.7014 33.259C12.47 33.0903 12.3359 32.8222 12.3359 32.5368V15.3504C12.3359 14.8553 12.7381 14.4531 13.2333 14.4531H40.0464C40.5416 14.4531 40.9438 14.8553 40.9438 15.3504V32.5368C40.9438 32.8222 40.8075 33.0903 40.5783 33.259H40.574Z" fill="#240E54"/>
<path id="Vector_4" d="M26.6356 42.6652C26.2896 42.6652 25.9415 42.5571 25.6452 42.3387L13.1231 33.1509C12.8896 32.9801 12.749 32.7033 12.749 32.4136V15.7873C12.749 15.2835 13.1599 14.8726 13.6637 14.8726H39.6032C40.107 14.8726 40.5179 15.2835 40.5179 15.7873V32.4136C40.5179 32.7033 40.3773 32.9801 40.1438 33.1509L27.6216 42.3387C27.3254 42.5571 26.9794 42.6652 26.6313 42.6652H26.6356ZM13.6659 14.9656C13.2139 14.9656 12.8442 15.3332 12.8442 15.7873V32.4136C12.8442 32.673 12.9696 32.9217 13.1793 33.0752L25.7015 42.263C26.2615 42.6739 27.0118 42.6739 27.5719 42.263L40.094 33.0752C40.3038 32.9217 40.4292 32.673 40.4292 32.4136V15.7873C40.4292 15.3354 40.0616 14.9656 39.6075 14.9656H13.668H13.6659Z" fill="#C1FF72"/>
<g id="Vector_5" filter="url(#filter1_d_870_3908)">
<path d="M47.5781 18.5811H5.69344C5.21556 18.5811 4.8804 19.0546 5.04041 19.5044L6.57568 23.8529L5.04041 28.2013C4.8804 28.6533 5.21556 29.1246 5.69344 29.1246H47.5781C48.0559 29.1246 48.3911 28.6511 48.2311 28.2013L46.6958 23.8529L48.2311 19.5044C48.3911 19.0524 48.0559 18.5811 47.5781 18.5811Z" fill="#200C4C"/>
</g>
<path id="Vector_6" d="M5.28711 27.505H47.9869L46.6982 23.8528L47.7037 21.0029H5.57038L6.57587 23.8528L5.28711 27.505Z" fill="#F2F6FF"/>
<path id="Vector_7" d="M30.2961 35.3291C30.7697 33.307 29.5143 31.284 27.4923 30.8104C25.4702 30.3369 23.4471 31.5922 22.9736 33.6143C22.5001 35.6364 23.7554 37.6594 25.7775 38.133C27.7995 38.6065 29.8226 37.3512 30.2961 35.3291Z" fill="#FF953B"/>
<path id="Vector_8" d="M26.6356 37.9124C24.7392 37.9124 23.1953 36.3685 23.1953 34.4721C23.1953 32.5757 24.7392 31.0318 26.6356 31.0318C28.532 31.0318 30.0759 32.5757 30.0759 34.4721C30.0759 36.3685 28.532 37.9124 26.6356 37.9124ZM26.6356 31.1507C24.8041 31.1507 23.3121 32.6406 23.3121 34.4743C23.3121 36.3079 24.8019 37.7978 26.6356 37.7978C28.4693 37.7978 29.9591 36.3079 29.9591 34.4743C29.9591 32.6406 28.4693 31.1507 26.6356 31.1507Z" fill="white"/>
<path id="Vector_9" d="M26.7523 31.661L27.321 33.4104C27.3383 33.4666 27.3923 33.5033 27.4507 33.5033H29.2887C29.4206 33.5033 29.4747 33.672 29.3687 33.7498L27.881 34.831C27.8335 34.8656 27.814 34.9262 27.8313 34.9824L28.4 36.7317C28.4411 36.8571 28.2962 36.9609 28.1903 36.8831L26.7026 35.8019C26.655 35.7673 26.5901 35.7673 26.5425 35.8019L25.0549 36.8831C24.9489 36.9609 24.804 36.8571 24.8451 36.7317L25.4138 34.9824C25.4311 34.9262 25.4138 34.8656 25.3641 34.831L23.8764 33.7498C23.7704 33.672 23.8245 33.5033 23.9564 33.5033H25.7944C25.8528 33.5033 25.9047 33.4644 25.9241 33.4104L26.4928 31.661C26.5339 31.5356 26.7112 31.5356 26.7523 31.661Z" fill="url(#paint0_linear_870_3908)"/>
<g id="Group">
<g id="Group_2">
<path id="Vector_10" d="M21.6009 36.7117C21.5576 36.6771 17.2654 33.2325 14.0283 30.0106L14.1105 29.9285C17.3432 33.146 21.6311 36.5863 21.6744 36.6209L21.6009 36.7117Z" fill="white"/>
<g id="Group_3">
<path id="Vector_11" d="M21.4603 36.1516C21.4603 36.1516 20.9651 34.8067 21.4603 34.279C21.9555 33.7514 21.7479 35.7365 21.4603 36.1516Z" fill="white"/>
<path id="Vector_12" d="M20.0157 34.9753C20.0157 34.9753 19.6222 33.9093 20.0157 33.4898C20.4093 33.0703 20.2449 34.6445 20.0157 34.9753Z" fill="white"/>
<path id="Vector_13" d="M18.8364 33.8509C18.8364 33.8509 18.4969 32.9297 18.8364 32.5686C19.1759 32.2075 19.0332 33.5655 18.8364 33.8509Z" fill="white"/>
<path id="Vector_14" d="M17.6521 32.8822C17.6521 32.8822 17.3516 32.067 17.6521 31.7491C17.9527 31.4291 17.8273 32.6313 17.6521 32.8822Z" fill="white"/>
<path id="Vector_15" d="M16.5489 31.9178C16.5489 31.9178 16.2807 31.1934 16.5489 30.9101C16.817 30.6247 16.7045 31.695 16.5489 31.9178Z" fill="white"/>
<path id="Vector_16" d="M15.4857 30.8604C15.4857 30.8604 15.2608 30.2484 15.4857 30.0084C15.7106 29.7684 15.6176 30.6701 15.4857 30.8604Z" fill="white"/>
<path id="Vector_17" d="M14.657 30.1663C14.657 30.1663 14.4905 29.7144 14.657 29.5371C14.8235 29.3597 14.7543 30.0257 14.657 30.1663Z" fill="white"/>
</g>
<g id="Group_4">
<path id="Vector_18" d="M21.0338 36.4674C21.0338 36.4674 19.6283 36.1863 19.185 36.7593C18.7417 37.3323 20.6684 36.8155 21.0338 36.4674Z" fill="white"/>
<path id="Vector_19" d="M19.6457 35.224C19.6457 35.224 18.5299 35.0013 18.1774 35.4554C17.825 35.9095 19.3538 35.5008 19.6457 35.224Z" fill="white"/>
<path id="Vector_20" d="M18.3526 34.2358C18.3526 34.2358 17.3903 34.0434 17.0854 34.4369C16.7806 34.8283 18.1017 34.4759 18.3526 34.2358Z" fill="white"/>
<path id="Vector_21" d="M17.2087 33.2174C17.2087 33.2174 16.3567 33.0487 16.0886 33.3947C15.8205 33.7407 16.9881 33.4293 17.2087 33.2174Z" fill="white"/>
<path id="Vector_22" d="M16.0844 32.2789C16.0844 32.2789 15.3276 32.1276 15.0876 32.4368C14.8475 32.746 15.8855 32.467 16.0844 32.2789Z" fill="white"/>
<path id="Vector_23" d="M14.8754 31.3945C14.8754 31.3945 14.2375 31.2669 14.0343 31.5264C13.831 31.7859 14.7089 31.5524 14.8754 31.3945Z" fill="white"/>
<path id="Vector_24" d="M14.2743 30.5123C14.2743 30.5123 13.7943 30.3609 13.6537 30.6096C13.5132 30.8583 14.1576 30.6615 14.2743 30.5123Z" fill="white"/>
</g>
</g>
<g id="Group_5">
<path id="Vector_25" d="M31.4182 36.7117C31.4615 36.6771 35.7537 33.2325 38.9908 30.0106L38.9086 29.9284C35.6759 33.146 31.388 36.5863 31.3447 36.6209L31.4182 36.7117Z" fill="white"/>
<g id="Group_6">
<path id="Vector_26" d="M31.5583 36.1516C31.5583 36.1516 32.0535 34.8067 31.5583 34.279C31.0631 33.7514 31.2707 35.7365 31.5583 36.1516Z" fill="white"/>
<path id="Vector_27" d="M33.005 34.9753C33.005 34.9753 33.3986 33.9093 33.005 33.4898C32.6115 33.0703 32.7758 34.6445 33.005 34.9753Z" fill="white"/>
<path id="Vector_28" d="M34.184 33.8509C34.184 33.8509 34.5235 32.9297 34.184 32.5686C33.8445 32.2075 33.9873 33.5655 34.184 33.8509Z" fill="white"/>
<path id="Vector_29" d="M35.3689 32.8822C35.3689 32.8822 35.6695 32.067 35.3689 31.7491C35.0683 31.4291 35.1937 32.6313 35.3689 32.8822Z" fill="white"/>
<path id="Vector_30" d="M36.4712 31.9178C36.4712 31.9178 36.7393 31.1934 36.4712 30.9101C36.2031 30.6247 36.3155 31.695 36.4712 31.9178Z" fill="white"/>
<path id="Vector_31" d="M37.5325 30.8604C37.5325 30.8604 37.7574 30.2484 37.5325 30.0084C37.3076 29.7684 37.4006 30.6701 37.5325 30.8604Z" fill="white"/>
<path id="Vector_32" d="M38.3633 30.1662C38.3633 30.1662 38.5298 29.7143 38.3633 29.537C38.1968 29.3597 38.266 30.0257 38.3633 30.1662Z" fill="white"/>
</g>
<g id="Group_7">
<path id="Vector_33" d="M31.9844 36.4673C31.9844 36.4673 33.3899 36.1862 33.8332 36.7592C34.2765 37.3323 32.3498 36.8155 31.9844 36.4673Z" fill="white"/>
<path id="Vector_34" d="M33.373 35.224C33.373 35.224 34.4888 35.0013 34.8413 35.4554C35.1937 35.9095 33.665 35.5008 33.373 35.224Z" fill="white"/>
<path id="Vector_35" d="M34.668 34.2358C34.668 34.2358 35.6302 34.0433 35.9351 34.4369C36.24 34.8283 34.9188 34.4758 34.668 34.2358Z" fill="white"/>
<path id="Vector_36" d="M35.8096 33.2173C35.8096 33.2173 36.6615 33.0487 36.9297 33.3946C37.1978 33.7406 36.0301 33.4292 35.8096 33.2173Z" fill="white"/>
<path id="Vector_37" d="M36.9365 32.2789C36.9365 32.2789 37.6933 32.1276 37.9334 32.4368C38.1734 32.746 37.1355 32.467 36.9365 32.2789Z" fill="white"/>
<path id="Vector_38" d="M38.1445 31.3945C38.1445 31.3945 38.7824 31.2669 38.9857 31.5264C39.1868 31.7858 38.311 31.5523 38.1445 31.3945Z" fill="white"/>
<path id="Vector_39" d="M38.7461 30.5122C38.7461 30.5122 39.2261 30.3609 39.3667 30.6095C39.5072 30.8582 38.8629 30.6614 38.7461 30.5122Z" fill="white"/>
</g>
</g>
</g>
<g id="Group 41">
<path id="Vector_40" d="M17.2566 20.5877H18.1237V19.2709H17.2566C17.1528 19.2709 17.0814 19.3768 17.1203 19.4741L17.3085 19.9304L17.1203 20.3866C17.0814 20.4839 17.1506 20.5899 17.2566 20.5899V20.5877Z" fill="white"/>
<path id="Vector_41" d="M35.9394 19.0568H35.0723V20.3737H35.9394C36.0432 20.3737 36.1145 20.2677 36.0756 20.1704L35.8875 19.7141L36.0756 19.2579C36.1145 19.1606 36.0453 19.0546 35.9394 19.0546V19.0568Z" fill="white"/>
<g id="Cultural">
<path d="M20.6363 18.8683H20.9562V19.5352H20.6363C20.5456 19.2956 20.3882 19.1759 20.1641 19.1759C19.979 19.1759 19.8388 19.2389 19.7436 19.3651C19.6492 19.4912 19.602 19.6422 19.602 19.8182C19.602 20.0024 19.6519 20.1517 19.7517 20.266C19.8525 20.3794 19.9804 20.4361 20.1355 20.4361C20.2625 20.4361 20.3737 20.393 20.4689 20.3068C20.5642 20.2206 20.6286 20.1009 20.6622 19.9475L21.0351 20.1258C20.8936 20.5649 20.5819 20.7845 20.1001 20.7845C19.7599 20.7845 19.5032 20.6929 19.3299 20.5096C19.1575 20.3263 19.0713 20.0945 19.0713 19.8142C19.0713 19.6146 19.1162 19.4399 19.206 19.2902C19.2958 19.1405 19.4165 19.028 19.568 18.9527C19.7204 18.8765 19.8874 18.8384 20.0688 18.8384C20.2948 18.8384 20.4839 18.8974 20.6363 19.0153V18.8683Z" fill="white"/>
<path d="M21.1617 19.1881V18.8683H22.0653V19.1881H21.8789V20.0442C21.8789 20.1585 21.8834 20.241 21.8925 20.2918C21.9024 20.3417 21.9279 20.383 21.9687 20.4157C22.0095 20.4483 22.0612 20.4647 22.1238 20.4647C22.1882 20.4647 22.2418 20.4493 22.2844 20.4184C22.3271 20.3876 22.3543 20.349 22.3661 20.3027C22.3788 20.2565 22.3851 20.1621 22.3851 20.0197V19.1881H22.2014V18.8683H22.9553V19.1881H22.724V20.1353C22.724 20.2642 22.7172 20.3581 22.7036 20.417C22.69 20.4751 22.6587 20.5332 22.6097 20.5912C22.5607 20.6484 22.4895 20.6951 22.396 20.7314C22.3035 20.7668 22.1969 20.7845 22.0762 20.7845C21.9365 20.7845 21.8172 20.765 21.7183 20.726C21.6203 20.686 21.5472 20.6334 21.4992 20.5681C21.4511 20.5028 21.4202 20.4379 21.4066 20.3735C21.393 20.3091 21.3862 20.1993 21.3862 20.0442V19.1881H21.1617Z" fill="white"/>
<path d="M23.0751 20.7614V20.4415H23.3459V19.1881H23.0751V18.8683H24.1148V19.1881H23.8386V20.4415H24.3979V19.8563H24.7667V20.7614H23.0751Z" fill="white"/>
<path d="M25.1396 20.7614V20.4415H25.424V19.1881H25.1396V19.6291H24.8144V18.8683H26.5305V19.6291H26.2093V19.1881H25.9167V20.4415H26.2011V20.7614H25.1396Z" fill="white"/>
<path d="M26.6652 19.1881V18.8683H27.5689V19.1881H27.3824V20.0442C27.3824 20.1585 27.3869 20.241 27.396 20.2918C27.406 20.3417 27.4314 20.383 27.4722 20.4157C27.5131 20.4483 27.5648 20.4647 27.6274 20.4647C27.6918 20.4647 27.7453 20.4493 27.788 20.4184C27.8306 20.3876 27.8578 20.349 27.8696 20.3027C27.8823 20.2565 27.8887 20.1621 27.8887 20.0197V19.1881H27.7049V18.8683H28.4589V19.1881H28.2275V20.1353C28.2275 20.2642 28.2207 20.3581 28.2071 20.417C28.1935 20.4751 28.1622 20.5332 28.1132 20.5912C28.0642 20.6484 27.993 20.6951 27.8996 20.7314C27.807 20.7668 27.7004 20.7845 27.5797 20.7845C27.44 20.7845 27.3207 20.765 27.2218 20.726C27.1238 20.686 27.0508 20.6334 27.0027 20.5681C26.9546 20.5028 26.9238 20.4379 26.9102 20.3735C26.8966 20.3091 26.8898 20.1993 26.8898 20.0442V19.1881H26.6652Z" fill="white"/>
<path d="M30.5384 20.4415V20.7614H29.9613L29.534 19.9326H29.3176V20.4415H29.5544V20.7614H28.565V20.4415H28.825V19.1881H28.565V18.8683H29.7068C29.9219 18.8683 30.0766 18.9228 30.1709 19.0316C30.2662 19.1396 30.3138 19.2621 30.3138 19.3991C30.3138 19.6141 30.2045 19.7711 29.9858 19.87L30.2934 20.4415H30.5384ZM29.3176 19.6304H29.4864C29.6951 19.6304 29.7994 19.556 29.7994 19.4072C29.7994 19.3338 29.7753 19.2789 29.7273 19.2426C29.6801 19.2063 29.6148 19.1881 29.5313 19.1881H29.3176V19.6304Z" fill="white"/>
<path d="M32.4831 20.4415V20.7614H31.5523V20.4415H31.7945L31.7047 20.1163H31.2134L31.1127 20.4415H31.3658V20.7614H30.5275V20.4415H30.7616L31.1304 19.1881H30.8786V18.8683H32.1143V19.1881H31.8598L32.2572 20.4415H32.4831ZM31.6271 19.8387L31.4692 19.2684L31.2991 19.8387H31.6271Z" fill="white"/>
<path d="M32.558 20.7614V20.4415H32.8288V19.1881H32.558V18.8683H33.5977V19.1881H33.3214V20.4415H33.8808V19.8563H34.2496V20.7614H32.558Z" fill="white"/>
</g>
</g>
<g id="Ambassador Crest">
<path d="M10.4176 25.1224V25.5133H9.27984V25.1224H9.57592L9.46613 24.7249H8.86567L8.74258 25.1224H9.05196V25.5133H8.02734V25.1224H8.31344L8.7642 23.5905H8.45649V23.1996H9.9668V23.5905H9.65576L10.1415 25.1224H10.4176ZM9.37132 24.3856L9.17838 23.6886L8.97046 24.3856H9.37132Z" fill="#240E54"/>
<path d="M10.5074 25.5133V25.1224H10.8068V23.5905H10.5074V23.1996H11.6667L12.1757 24.5569L12.6864 23.1996H13.869V23.5905H13.5696V25.1224H13.869V25.5133H12.7047V25.1224H12.9841V23.5905H12.9292L12.2123 25.5133H11.9628L11.2376 23.5905H11.1827V25.1224H11.4854V25.5133H10.5074Z" fill="#240E54"/>
<path d="M14.0769 25.5133V25.1224H14.3614V23.5905H14.0769V23.1996H15.1331C15.3671 23.1996 15.5412 23.2135 15.6554 23.2412C15.7696 23.2678 15.8683 23.3338 15.9515 23.4391C16.0347 23.5434 16.0763 23.6659 16.0763 23.8067C16.0763 24.0318 15.9676 24.191 15.7502 24.2841C16.0275 24.3872 16.1661 24.5719 16.1661 24.838C16.1661 24.991 16.1228 25.1224 16.0363 25.2322C15.951 25.3409 15.8401 25.4152 15.7037 25.4551C15.5684 25.4939 15.3782 25.5133 15.1331 25.5133H14.0769ZM14.9635 24.1128H15.1331C15.2507 24.1128 15.3372 24.0928 15.3926 24.0529C15.4481 24.013 15.4758 23.9426 15.4758 23.8417C15.4758 23.7496 15.4486 23.6848 15.3943 23.6471C15.3411 23.6094 15.2474 23.5905 15.1132 23.5905H14.9635V24.1128ZM14.9635 25.1224H15.1331C15.2873 25.1224 15.3948 25.1003 15.4558 25.0559C15.5168 25.0116 15.5473 24.9334 15.5473 24.8214C15.5473 24.7038 15.514 24.6218 15.4475 24.5752C15.3821 24.5275 15.2773 24.5037 15.1331 24.5037H14.9635V25.1224Z" fill="#240E54"/>
<path d="M18.7243 25.1224V25.5133H17.5866V25.1224H17.8826L17.7729 24.7249H17.1724L17.0493 25.1224H17.3587V25.5133H16.3341V25.1224H16.6202L17.0709 23.5905H16.7632V23.1996H18.2735V23.5905H17.9625L18.4482 25.1224H18.7243ZM17.6781 24.3856L17.4851 23.6886L17.2772 24.3856H17.6781Z" fill="#240E54"/>
<path d="M18.8823 25.5133V24.7249H19.2749C19.2793 24.8691 19.317 24.9755 19.388 25.0443C19.4589 25.1119 19.5399 25.1457 19.6308 25.1457C19.7018 25.1457 19.7617 25.1213 19.8105 25.0725C19.8593 25.0226 19.8836 24.9644 19.8836 24.8979C19.8836 24.8269 19.8598 24.7676 19.8121 24.7199C19.7644 24.6711 19.6774 24.6157 19.551 24.5536C19.2837 24.4238 19.1019 24.3096 19.0054 24.2109C18.91 24.1122 18.8624 23.9792 18.8624 23.8117C18.8624 23.6099 18.9256 23.4536 19.052 23.3427C19.1784 23.2318 19.322 23.1763 19.4828 23.1763C19.6669 23.1763 19.8094 23.2479 19.9103 23.3909V23.1996H20.3011V23.9032H19.9103C19.8981 23.7945 19.8604 23.7108 19.7972 23.652C19.7351 23.5922 19.6624 23.5622 19.5793 23.5622C19.5149 23.5622 19.4606 23.5794 19.4162 23.6138C19.3719 23.6482 19.3497 23.6931 19.3497 23.7485C19.3497 23.7962 19.368 23.8417 19.4046 23.8849C19.4412 23.9271 19.5482 23.9875 19.7256 24.0662C19.8964 24.1427 20.0272 24.212 20.1182 24.2741C20.2102 24.3351 20.2828 24.415 20.3361 24.5137C20.3893 24.6112 20.4159 24.7243 20.4159 24.853C20.4159 25.0814 20.3494 25.2533 20.2163 25.3686C20.0832 25.4839 19.9258 25.5416 19.7439 25.5416C19.541 25.5416 19.3846 25.4668 19.2749 25.3171V25.5133H18.8823Z" fill="#240E54"/>
<path d="M20.692 25.5133V24.7249H21.0846C21.089 24.8691 21.1267 24.9755 21.1977 25.0443C21.2687 25.1119 21.3496 25.1457 21.4405 25.1457C21.5115 25.1457 21.5714 25.1213 21.6202 25.0725C21.669 25.0226 21.6934 24.9644 21.6934 24.8979C21.6934 24.8269 21.6695 24.7676 21.6218 24.7199C21.5742 24.6711 21.4871 24.6157 21.3607 24.5536C21.0935 24.4238 20.9116 24.3096 20.8151 24.2109C20.7198 24.1122 20.6721 23.9792 20.6721 23.8117C20.6721 23.6099 20.7353 23.4536 20.8617 23.3427C20.9881 23.2318 21.1317 23.1763 21.2925 23.1763C21.4766 23.1763 21.6191 23.2479 21.72 23.3909V23.1996H22.1109V23.9032H21.72C21.7078 23.7945 21.6701 23.7108 21.6069 23.652C21.5448 23.5922 21.4721 23.5622 21.389 23.5622C21.3247 23.5622 21.2703 23.5794 21.226 23.6138C21.1816 23.6482 21.1594 23.6931 21.1594 23.7485C21.1594 23.7962 21.1777 23.8417 21.2143 23.8849C21.2509 23.9271 21.3579 23.9875 21.5353 24.0662C21.7061 24.1427 21.837 24.212 21.9279 24.2741C22.0199 24.3351 22.0926 24.415 22.1458 24.5137C22.199 24.6112 22.2256 24.7243 22.2256 24.853C22.2256 25.0814 22.1591 25.2533 22.026 25.3686C21.893 25.4839 21.7355 25.5416 21.5536 25.5416C21.3507 25.5416 21.1944 25.4668 21.0846 25.3171V25.5133H20.692Z" fill="#240E54"/>
<path d="M24.7223 25.1224V25.5133H23.5846V25.1224H23.8807L23.7709 24.7249H23.1704L23.0473 25.1224H23.3567V25.5133H22.3321V25.1224H22.6182L23.0689 23.5905H22.7612V23.1996H24.2715V23.5905H23.9605L24.4462 25.1224H24.7223ZM23.6761 24.3856L23.4831 23.6886L23.2752 24.3856H23.6761Z" fill="#240E54"/>
<path d="M24.7988 25.5133V25.1224H25.1498V23.5905H24.7988V23.1996H25.895C26.1256 23.1996 26.3114 23.214 26.4522 23.2429C26.593 23.2706 26.7277 23.3332 26.8564 23.4308C26.985 23.5273 27.0881 23.657 27.1658 23.82C27.2434 23.9831 27.2822 24.1638 27.2822 24.3623C27.2822 24.5231 27.255 24.6767 27.2007 24.823C27.1464 24.9683 27.0787 25.0858 26.9978 25.1757C26.9179 25.2644 26.822 25.3354 26.71 25.3886C26.598 25.4407 26.4949 25.4745 26.4006 25.49C26.3075 25.5056 26.1628 25.5133 25.9665 25.5133H24.7988ZM25.7503 25.1224H25.895C26.0702 25.1224 26.2088 25.0997 26.3108 25.0542C26.4139 25.0088 26.4965 24.9289 26.5586 24.8147C26.6207 24.6994 26.6518 24.5491 26.6518 24.364C26.6518 24.1876 26.6202 24.0379 26.557 23.9149C26.4949 23.7918 26.41 23.7069 26.3025 23.6604C26.196 23.6138 26.0602 23.5905 25.895 23.5905H25.7503V25.1224Z" fill="#240E54"/>
<path d="M28.904 23.163C29.3032 23.163 29.617 23.2783 29.8454 23.509C30.0749 23.7397 30.1897 24.0208 30.1897 24.3523C30.1897 24.685 30.0749 24.9666 29.8454 25.1973C29.6159 25.4268 29.302 25.5416 28.904 25.5416C28.4903 25.5416 28.1726 25.4235 27.9509 25.1873C27.7291 24.95 27.6182 24.6717 27.6182 24.3523C27.6182 24.0219 27.7318 23.7413 27.9592 23.5107C28.1876 23.2789 28.5025 23.163 28.904 23.163ZM28.904 23.5855C28.7265 23.5855 28.5757 23.652 28.4515 23.7851C28.3284 23.9182 28.2669 24.1133 28.2669 24.3706C28.2669 24.5979 28.3279 24.7798 28.4499 24.9162C28.5718 25.0526 28.7232 25.1208 28.904 25.1208C29.0814 25.1208 29.2322 25.0542 29.3564 24.9212C29.4806 24.787 29.5427 24.5941 29.5427 24.3423C29.5427 24.1172 29.4833 23.9348 29.3647 23.7951C29.246 23.6554 29.0925 23.5855 28.904 23.5855Z" fill="#240E54"/>
<path d="M32.8511 25.1224V25.5133H32.1458L31.6235 24.5004H31.359V25.1224H31.6485V25.5133H30.4392V25.1224H30.7569V23.5905H30.4392V23.1996H31.8348C32.0976 23.1996 32.2866 23.2662 32.402 23.3992C32.5184 23.5312 32.5766 23.6809 32.5766 23.8483C32.5766 24.1111 32.443 24.303 32.1757 24.4238L32.5517 25.1224H32.8511ZM31.359 24.1311H31.5653C31.8203 24.1311 31.9479 24.0402 31.9479 23.8583C31.9479 23.7685 31.9185 23.7014 31.8597 23.657C31.802 23.6127 31.7222 23.5905 31.6202 23.5905H31.359V24.1311Z" fill="#240E54"/>
<path d="M35.7785 23.1996H36.1694V24.0147H35.7785C35.6677 23.7219 35.4753 23.5755 35.2014 23.5755C34.9752 23.5755 34.8038 23.6526 34.6874 23.8067C34.5721 23.9609 34.5144 24.1455 34.5144 24.3606C34.5144 24.5857 34.5754 24.7682 34.6974 24.9079C34.8205 25.0465 34.9768 25.1158 35.1664 25.1158C35.3217 25.1158 35.4575 25.0631 35.574 24.9578C35.6904 24.8524 35.7691 24.7061 35.8101 24.5186L36.2659 24.7365C36.0929 25.2733 35.712 25.5416 35.1232 25.5416C34.7074 25.5416 34.3935 25.4296 34.1817 25.2056C33.971 24.9816 33.8657 24.6983 33.8657 24.3556C33.8657 24.1117 33.9206 23.8982 34.0304 23.7153C34.1402 23.5323 34.2876 23.3948 34.4728 23.3027C34.6591 23.2096 34.8632 23.163 35.0849 23.163C35.361 23.163 35.5923 23.2351 35.7785 23.3793V23.1996Z" fill="#240E54"/>
<path d="M38.8491 25.1224V25.5133H38.1438L37.6215 24.5004H37.3571V25.1224H37.6465V25.5133H36.4372V25.1224H36.7549V23.5905H36.4372V23.1996H37.8328C38.0956 23.1996 38.2846 23.2662 38.4 23.3992C38.5164 23.5312 38.5746 23.6809 38.5746 23.8483C38.5746 24.1111 38.441 24.303 38.1738 24.4238L38.5497 25.1224H38.8491ZM37.3571 24.1311H37.5633C37.8184 24.1311 37.9459 24.0402 37.9459 23.8583C37.9459 23.7685 37.9165 23.7014 37.8577 23.657C37.8001 23.6127 37.7202 23.5905 37.6182 23.5905H37.3571V24.1311Z" fill="#240E54"/>
<path d="M38.9572 25.5133V25.1224H39.235V23.5905H38.9572V23.1996H40.9964V23.9332H40.554V23.5905H39.8371V24.1244H40.4159V24.5153H39.8371V25.1224H40.554V24.7765H40.9964V25.5133H38.9572Z" fill="#240E54"/>
<path d="M41.2776 25.5133V24.7249H41.6701C41.6745 24.8691 41.7122 24.9755 41.7832 25.0443C41.8542 25.1119 41.9351 25.1457 42.0261 25.1457C42.097 25.1457 42.1569 25.1213 42.2057 25.0725C42.2545 25.0226 42.2789 24.9644 42.2789 24.8979C42.2789 24.8269 42.255 24.7676 42.2074 24.7199C42.1597 24.6711 42.0726 24.6157 41.9462 24.5536C41.679 24.4238 41.4971 24.3096 41.4006 24.2109C41.3053 24.1122 41.2576 23.9792 41.2576 23.8117C41.2576 23.6099 41.3208 23.4536 41.4472 23.3427C41.5736 23.2318 41.7172 23.1763 41.878 23.1763C42.0621 23.1763 42.2046 23.2479 42.3055 23.3909V23.1996H42.6964V23.9032H42.3055C42.2933 23.7945 42.2556 23.7108 42.1924 23.652C42.1303 23.5922 42.0577 23.5622 41.9745 23.5622C41.9102 23.5622 41.8558 23.5794 41.8115 23.6138C41.7671 23.6482 41.745 23.6931 41.745 23.7485C41.745 23.7962 41.7633 23.8417 41.7998 23.8849C41.8364 23.9271 41.9434 23.9875 42.1209 24.0662C42.2916 24.1427 42.4225 24.212 42.5134 24.2741C42.6055 24.3351 42.6781 24.415 42.7313 24.5137C42.7845 24.6112 42.8112 24.7243 42.8112 24.853C42.8112 25.0814 42.7446 25.2533 42.6116 25.3686C42.4785 25.4839 42.321 25.5416 42.1392 25.5416C41.9362 25.5416 41.7799 25.4668 41.6701 25.3171V25.5133H41.2776Z" fill="#240E54"/>
<path d="M43.4283 25.5133V25.1224H43.7759V23.5905H43.4283V24.1294H43.0307V23.1996H45.1282V24.1294H44.7356V23.5905H44.378V25.1224H44.7257V25.5133H43.4283Z" fill="#240E54"/>
</g>
</g>
</g>
<defs>
<filter id="filter0_d_870_3908" x="6.47266" y="13" width="40.3291" height="40" filterUnits="userSpaceOnUse" color-interpolation-filters="sRGB">
<feFlood flood-opacity="0" result="BackgroundImageFix"/>
<feColorMatrix in="SourceAlpha" type="matrix" values="0 0 0 0 0 0 0 0 0 0 0 0 0 0 0 0 0 0 127 0" result="hardAlpha"/>
<feOffset dy="4"/>
<feGaussianBlur stdDeviation="2"/>
<feComposite in2="hardAlpha" operator="out"/>
<feColorMatrix type="matrix" values="0 0 0 0 0 0 0 0 0 0 0 0 0 0 0 0 0 0 0.15 0"/>
<feBlend mode="normal" in2="BackgroundImageFix" result="effect1_dropShadow_870_3908"/>
<feBlend mode="normal" in="SourceGraphic" in2="effect1_dropShadow_870_3908" result="shape"/>
</filter>
<filter id="filter1_d_870_3908" x="1" y="18.5811" width="51.2715" height="18.5436" filterUnits="userSpaceOnUse" color-interpolation-filters="sRGB">
<feFlood flood-opacity="0" result="BackgroundImageFix"/>
<feColorMatrix in="SourceAlpha" type="matrix" values="0 0 0 0 0 0 0 0 0 0 0 0 0 0 0 0 0 0 127 0" result="hardAlpha"/>
<feOffset dy="4"/>
<feGaussianBlur stdDeviation="2"/>
<feComposite in2="hardAlpha" operator="out"/>
<feColorMatrix type="matrix" values="0 0 0 0 0 0 0 0 0 0 0 0 0 0 0 0 0 0 0.25 0"/>
<feBlend mode="normal" in2="BackgroundImageFix" result="effect1_dropShadow_870_3908"/>
<feBlend mode="normal" in="SourceGraphic" in2="effect1_dropShadow_870_3908" result="shape"/>
</filter>
<linearGradient id="paint0_linear_870_3908" x1="24.6656" y1="36.656" x2="28.5816" y2="32.74" gradientUnits="userSpaceOnUse">
<stop offset="0.19" stop-color="#FFDB3B"/>
<stop offset="0.31" stop-color="#FFD33B"/>
<stop offset="0.72" stop-color="#FFBF3B"/>
<stop offset="1" stop-color="#FFB83B"/>
</linearGradient>
</defs>
</svg>
