<svg width="54" height="54" viewBox="0 0 54 54" fill="none" xmlns="http://www.w3.org/2000/svg">
<g id="Bronze award">
<rect x="0.5" y="0.5" width="53" height="53" rx="26.5" stroke="#CFDCE9"/>
<g id="Group 1000002808">
<g id="Group 1000002807">
<path id="Vector" d="M36.5143 42.4133L32.7809 41.1246L30.7167 44.4855C30.4206 44.9673 29.6975 44.8926 29.5064 44.3608L27.2055 37.9524L25.6046 33.4935L24.5195 30.4717L27.2055 29.5121L32.3831 27.6616L33.7635 31.5068L37.3695 41.5504C37.5603 42.0825 37.049 42.5982 36.5139 42.4133H36.5143Z" fill="url(#paint0_linear_870_3961)"/>
<path id="Vector_2" d="M29.8912 30.4717L28.8062 33.4939L27.2053 37.9524L24.9044 44.3608C24.7136 44.8926 23.9901 44.9673 23.6941 44.4855L21.6299 41.1246L17.8965 42.4133C17.3614 42.5978 16.8498 42.0825 17.0409 41.5504L20.647 31.5068L22.0274 27.6616L27.205 29.5121L29.8909 30.4717H29.8912Z" fill="url(#paint1_linear_870_3961)"/>
</g>
<g id="Group 1000002806">
<circle id="Ellipse 1" cx="27" cy="21" r="12" fill="url(#paint2_linear_870_3961)"/>
<circle id="Ellipse 2" cx="27" cy="21" r="9.91304" fill="url(#paint3_linear_870_3961)"/>
<g id="Mask Group">
<mask id="mask0_870_3961" style="mask-type:alpha" maskUnits="userSpaceOnUse" x="19" y="13" width="17" height="17">
<circle id="Ellipse 4" cx="27.3279" cy="21.8037" r="8.17068" fill="#7D7D7D"/>
</mask>
<g mask="url(#mask0_870_3961)">
<circle id="Ellipse 3" cx="26.8924" cy="20.9335" r="8.17068" fill="#9CA1A3"/>
</g>
</g>
<path id="Ellipse 3_2" d="M27.0004 30.3261C32.6404 30.3261 37.37 26.0015 37.37 20.4783C37.37 14.9551 32.6404 10.6305 27.0004 10.6305C21.3604 10.6305 16.6309 14.9551 16.6309 20.4783C16.6309 26.0015 21.3604 30.3261 27.0004 30.3261Z" fill="#644314" stroke="#FBBF4C" stroke-width="3"/>
<g id="Mask Group_2">
<mask id="mask1_870_3961" style="mask-type:alpha" maskUnits="userSpaceOnUse" x="18" y="13" width="18" height="18">
<circle id="Ellipse 4_2" cx="27.3645" cy="21.7526" r="8.47587" fill="#C28B37"/>
</mask>
<g mask="url(#mask1_870_3961)">
<circle id="Ellipse 3_3" cx="26.9134" cy="20.8499" r="8.47587" fill="url(#paint4_linear_870_3961)"/>
</g>
</g>
<g id="Vector_3">
<path d="M26.9999 14.2174L28.9129 18.0435L32.739 18.5218L30.1118 21.4678L30.826 25.6957L26.9999 23.7826L23.1738 25.6957L23.8944 21.4678L21.2607 18.5218L25.0868 18.0435L26.9999 14.2174Z" fill="url(#paint5_linear_870_3961)"/>
<path d="M27.2235 14.1056L26.9999 13.6584L26.7763 14.1056L24.9231 17.812L21.2297 18.2737L20.7565 18.3328L21.0744 18.6884L23.6277 21.5446L22.9273 25.6537L22.8445 26.1398L23.2856 25.9193L26.9999 24.0621L30.7142 25.9193L31.1545 26.1394L31.0725 25.654L30.3783 21.5446L32.9256 18.6881L33.2425 18.3327L32.77 18.2737L29.0767 17.812L27.2235 14.1056Z" stroke="#353535" stroke-opacity="0.2" stroke-width="0.5"/>
</g>
</g>
</g>
</g>
<defs>
<linearGradient id="paint0_linear_870_3961" x1="32.9434" y1="41.7101" x2="30.0621" y2="33.4546" gradientUnits="userSpaceOnUse">
<stop stop-color="#C1FF72"/>
<stop offset="1" stop-color="#64AF05"/>
</linearGradient>
<linearGradient id="paint1_linear_870_3961" x1="21.9135" y1="40.2489" x2="25.0567" y2="31.6283" gradientUnits="userSpaceOnUse">
<stop stop-color="#C1FF72"/>
<stop offset="1" stop-color="#6FC403"/>
</linearGradient>
<linearGradient id="paint2_linear_870_3961" x1="27" y1="9" x2="27" y2="33" gradientUnits="userSpaceOnUse">
<stop stop-color="#E0C04F"/>
<stop offset="1" stop-color="#B16F07"/>
</linearGradient>
<linearGradient id="paint3_linear_870_3961" x1="27" y1="11.0869" x2="27" y2="30.913" gradientUnits="userSpaceOnUse">
<stop stop-color="#898989"/>
<stop offset="1" stop-color="#5F5F5F"/>
</linearGradient>
<linearGradient id="paint4_linear_870_3961" x1="26.9134" y1="12.374" x2="26.9134" y2="29.3258" gradientUnits="userSpaceOnUse">
<stop stop-color="#A36D1D"/>
<stop offset="1" stop-color="#744A0C"/>
</linearGradient>
<linearGradient id="paint5_linear_870_3961" x1="26.9999" y1="17.9057" x2="26.9999" y2="25.2072" gradientUnits="userSpaceOnUse">
<stop stop-color="white"/>
<stop offset="1" stop-color="#FFEE92"/>
</linearGradient>
</defs>
</svg>
