<svg width="54" height="54" viewBox="0 0 54 54" fill="none" xmlns="http://www.w3.org/2000/svg">
<g id="Gold Award">
<rect x="0.5" y="0.5" width="53" height="53" rx="26.5" stroke="#CFDCE9"/>
<g id="Group 1000002814">
<g id="Group 1000002813">
<path id="Vector" d="M36.5143 42.4133L32.7809 41.1246L30.7167 44.4855C30.4206 44.9673 29.6975 44.8926 29.5064 44.3608L27.2055 37.9524L25.6046 33.4935L24.5195 30.4717L27.2055 29.5121L32.3831 27.6616L33.7635 31.5068L37.3695 41.5504C37.5603 42.0825 37.049 42.5982 36.5139 42.4133H36.5143Z" fill="url(#paint0_linear_870_3738)"/>
<path id="Vector_2" d="M29.8912 30.4717L28.8062 33.4939L27.2053 37.9524L24.9044 44.3608C24.7136 44.8926 23.9901 44.9673 23.6941 44.4855L21.6299 41.1246L17.8965 42.4133C17.3614 42.5978 16.8498 42.0825 17.0409 41.5504L20.647 31.5068L22.0274 27.6616L27.205 29.5121L29.8909 30.4717H29.8912Z" fill="url(#paint1_linear_870_3738)"/>
</g>
<g id="Group 1000002812">
<path id="Star 1" d="M25.4633 11.3198C26.3471 10.5607 27.6529 10.5607 28.5367 11.3198C29.1053 11.8081 29.8722 11.9971 30.6026 11.829C31.738 11.5676 32.8942 12.1744 33.3241 13.2573C33.6006 13.9539 34.1918 14.4777 34.9167 14.6682C36.0435 14.9644 36.7852 16.039 36.6626 17.1977C36.5837 17.943 36.8638 18.6815 37.4171 19.1871C38.2772 19.973 38.4346 21.2692 37.7876 22.2382C37.3713 22.8615 37.2761 23.6456 37.5311 24.3504C37.9275 25.446 37.4644 26.6669 36.4412 27.2241C35.783 27.5826 35.3343 28.2326 35.2326 28.9752C35.0743 30.1295 34.097 30.9954 32.932 31.0133C32.1826 31.0248 31.4832 31.3919 31.048 32.0021C30.3715 32.9507 29.1037 33.2631 28.0639 32.7376C27.3949 32.3996 26.6051 32.3996 25.9361 32.7376C24.8963 33.2631 23.6285 32.9507 22.952 32.0021C22.5167 31.3919 21.8174 31.0248 21.068 31.0133C19.903 30.9954 18.9257 30.1295 18.7674 28.9752C18.6657 28.2326 18.217 27.5826 17.5588 27.2241C16.5356 26.6669 16.0725 25.446 16.4689 24.3504C16.7239 23.6456 16.6287 22.8615 16.2124 22.2382C15.5654 21.2692 15.7228 19.973 16.5829 19.1871C17.1362 18.6815 17.4163 17.943 17.3374 17.1977C17.2148 16.039 17.9565 14.9644 19.0833 14.6682C19.8082 14.4777 20.3994 13.9539 20.6759 13.2573C21.1058 12.1744 22.262 11.5676 23.3974 11.829C24.1278 11.9971 24.8947 11.8081 25.4633 11.3198Z" fill="url(#paint2_linear_870_3738)"/>
<circle id="Ellipse 2" cx="26.8987" cy="21.8983" r="8.44068" fill="#705100"/>
<g id="Mask Group">
<mask id="mask0_870_3738" style="mask-type:alpha" maskUnits="userSpaceOnUse" x="18" y="14" width="18" height="18">
<circle id="Ellipse 4" cx="27.4281" cy="22.8286" r="8.47792" fill="#C28B37"/>
</mask>
<g mask="url(#mask0_870_3738)">
<circle id="Ellipse 3" cx="26.9769" cy="21.9257" r="8.47792" fill="url(#paint3_linear_870_3738)"/>
</g>
</g>
<ellipse id="Ellipse 7" cx="27.1014" cy="22" rx="6.61017" ry="6.71186" fill="#A36D1D"/>
<ellipse id="Ellipse 8" opacity="0.8" cx="27.1018" cy="22" rx="6.20339" ry="6.1017" fill="url(#paint4_linear_870_3738)"/>
<path id="Vector_3" d="M27.3234 17.6124L27.1021 17.1914L26.8808 17.6124L25.5522 20.1401L22.9031 20.4551L22.4112 20.5136L22.7504 20.8745L24.5777 22.8189L24.0764 25.6169L23.9906 26.0956L24.4298 25.8867L27.1021 24.6158L29.7744 25.8867L30.2128 26.0952L30.1279 25.6172L29.6309 22.8189L31.454 20.8743L31.7923 20.5135L31.3011 20.4551L28.652 20.1401L27.3234 17.6124Z" fill="url(#paint5_linear_870_3738)" stroke="#C18832" stroke-width="0.5"/>
</g>
</g>
</g>
<defs>
<linearGradient id="paint0_linear_870_3738" x1="32.9434" y1="41.7101" x2="30.0621" y2="33.4546" gradientUnits="userSpaceOnUse">
<stop stop-color="#C1FF72"/>
<stop offset="1" stop-color="#64AF05"/>
</linearGradient>
<linearGradient id="paint1_linear_870_3738" x1="21.9135" y1="40.2489" x2="25.0567" y2="31.6283" gradientUnits="userSpaceOnUse">
<stop stop-color="#C1FF72"/>
<stop offset="1" stop-color="#6FC403"/>
</linearGradient>
<linearGradient id="paint2_linear_870_3738" x1="27" y1="10" x2="27" y2="34" gradientUnits="userSpaceOnUse">
<stop stop-color="#FFE178"/>
<stop offset="1" stop-color="#DD9F00"/>
</linearGradient>
<linearGradient id="paint3_linear_870_3738" x1="24.4584" y1="13.4576" x2="30.5601" y2="29.6271" gradientUnits="userSpaceOnUse">
<stop stop-color="#E4A400"/>
<stop offset="1" stop-color="#966301"/>
</linearGradient>
<linearGradient id="paint4_linear_870_3738" x1="27.1018" y1="15.8983" x2="27.1018" y2="28.1017" gradientUnits="userSpaceOnUse">
<stop stop-color="#FFEC86"/>
<stop offset="1" stop-color="#FFB802"/>
</linearGradient>
<linearGradient id="paint5_linear_870_3738" x1="27.1021" y1="20.2776" x2="27.1021" y2="25.3234" gradientUnits="userSpaceOnUse">
<stop stop-color="#FEFFC5"/>
<stop offset="0.161458" stop-color="#FFFAC5"/>
<stop offset="1" stop-color="#FFD585"/>
</linearGradient>
</defs>
</svg>
