<svg width="54" height="54" viewBox="0 0 54 54" fill="none" xmlns="http://www.w3.org/2000/svg">
<g id="Silver award">
<rect x="0.5" y="0.5" width="53" height="53" rx="26.5" stroke="#CFDCE9"/>
<g id="Group 1000002816">
<g id="Group 1000002815">
<path id="Vector" d="M36.5143 42.4133L32.7809 41.1246L30.7167 44.4855C30.4206 44.9673 29.6975 44.8926 29.5064 44.3608L27.2055 37.9524L25.6046 33.4935L24.5195 30.4717L27.2055 29.5121L32.3831 27.6616L33.7635 31.5068L37.3695 41.5504C37.5603 42.0825 37.049 42.5982 36.5139 42.4133H36.5143Z" fill="url(#paint0_linear_870_3575)"/>
<path id="Vector_2" d="M29.8912 30.4717L28.8062 33.4939L27.2053 37.9524L24.9044 44.3608C24.7136 44.8926 23.9901 44.9673 23.6941 44.4855L21.6299 41.1246L17.8965 42.4133C17.3614 42.5978 16.8498 42.0825 17.0409 41.5504L20.647 31.5068L22.0274 27.6616L27.205 29.5121L29.8909 30.4717H29.8912Z" fill="url(#paint1_linear_870_3575)"/>
</g>
<g id="Group 1000002810">
<circle id="Ellipse 1" cx="27" cy="22" r="12" fill="url(#paint2_linear_870_3575)"/>
<circle id="Ellipse 2" cx="26.9564" cy="22.0285" r="9.55899" fill="url(#paint3_linear_870_3575)"/>
<g id="Mask Group">
<mask id="mask0_870_3575" style="mask-type:alpha" maskUnits="userSpaceOnUse" x="19" y="14" width="17" height="18">
<circle id="Ellipse 4" cx="27.3848" cy="22.8624" r="8.20805" fill="#7D7D7D"/>
</mask>
<g mask="url(#mask0_870_3575)">
<circle id="Ellipse 3" cx="26.9473" cy="21.9882" r="8.20805" fill="#9CA1A3"/>
</g>
</g>
<path id="Ellipse 3_2" d="M26.9567 31.4089C32.2025 31.4089 36.4682 27.187 36.4682 21.9629C36.4682 16.7388 32.2025 12.517 26.9567 12.517C21.711 12.517 17.4453 16.7388 17.4453 21.9629C17.4453 27.187 21.711 31.4089 26.9567 31.4089Z" fill="#616161" stroke="#9F9F9F" stroke-width="2"/>
<g id="Mask Group_2">
<mask id="mask1_870_3575" style="mask-type:alpha" maskUnits="userSpaceOnUse" x="18" y="14" width="18" height="18">
<circle id="Ellipse 4_2" cx="27.4209" cy="22.8109" r="8.51463" fill="#C28B37"/>
</mask>
<g mask="url(#mask1_870_3575)">
<circle id="Ellipse 3_3" cx="26.9678" cy="21.904" r="8.51463" fill="url(#paint4_linear_870_3575)"/>
</g>
</g>
<g id="Vector_3">
<path d="M27.1141 15.7164L29.0346 19.5575L32.8757 20.0376L30.2382 22.9952L30.9552 27.2396L27.1141 25.3191L23.2731 27.2396L23.9965 22.9952L21.3525 20.0376L25.1936 19.5575L27.1141 15.7164Z" fill="url(#paint5_linear_870_3575)"/>
<path d="M27.3377 15.6046L27.1141 15.1574L26.8905 15.6046L25.0298 19.326L21.3215 19.7895L20.8483 19.8487L21.1662 20.2042L23.7298 23.072L23.0266 27.1976L22.9438 27.6838L23.3849 27.4632L27.1141 25.5986L30.8434 27.4632L31.2837 27.6834L31.2017 27.1979L30.5047 23.072L33.0623 20.204L33.3792 19.8486L32.9067 19.7895L29.1984 19.326L27.3377 15.6046Z" stroke="#353535" stroke-opacity="0.2" stroke-width="0.5"/>
</g>
</g>
</g>
</g>
<defs>
<linearGradient id="paint0_linear_870_3575" x1="32.9434" y1="41.7101" x2="30.0621" y2="33.4546" gradientUnits="userSpaceOnUse">
<stop stop-color="#C1FF72"/>
<stop offset="1" stop-color="#64AF05"/>
</linearGradient>
<linearGradient id="paint1_linear_870_3575" x1="21.9135" y1="40.2489" x2="25.0567" y2="31.6283" gradientUnits="userSpaceOnUse">
<stop stop-color="#C1FF72"/>
<stop offset="1" stop-color="#6FC403"/>
</linearGradient>
<linearGradient id="paint2_linear_870_3575" x1="27" y1="10" x2="27" y2="34" gradientUnits="userSpaceOnUse">
<stop stop-color="white"/>
<stop offset="1" stop-color="#B1B1B1"/>
</linearGradient>
<linearGradient id="paint3_linear_870_3575" x1="26.9564" y1="12.4695" x2="26.9564" y2="31.5875" gradientUnits="userSpaceOnUse">
<stop stop-color="#898989"/>
<stop offset="1" stop-color="#5F5F5F"/>
</linearGradient>
<linearGradient id="paint4_linear_870_3575" x1="26.9678" y1="13.3894" x2="26.9678" y2="30.4187" gradientUnits="userSpaceOnUse">
<stop stop-color="#7D7D7D"/>
<stop offset="1" stop-color="#474747"/>
</linearGradient>
<linearGradient id="paint5_linear_870_3575" x1="27.1141" y1="19.4192" x2="27.1141" y2="26.7492" gradientUnits="userSpaceOnUse">
<stop stop-color="white"/>
<stop offset="1" stop-color="#DDE1E1"/>
</linearGradient>
</defs>
</svg>
