<svg width="31" height="31" viewBox="0 0 31 31" fill="none" xmlns="http://www.w3.org/2000/svg">
<g id="Icons" clip-path="url(#clip0_381_11674)">
<path id="Vector" d="M5.1709 8.45996H25.1709V10.96H5.1709V8.45996ZM7.6709 3.45996H22.6709V5.95996H7.6709V3.45996ZM25.1709 13.46H5.1709C3.7959 13.46 2.6709 14.585 2.6709 15.96V25.96C2.6709 27.335 3.7959 28.46 5.1709 28.46H25.1709C26.5459 28.46 27.6709 27.335 27.6709 25.96V15.96C27.6709 14.585 26.5459 13.46 25.1709 13.46ZM25.1709 25.96H5.1709V15.96H25.1709V25.96ZM12.6709 16.8725V25.035L20.1709 20.96L12.6709 16.8725Z" fill="#12062E"/>
</g>
<defs>
<clipPath id="clip0_381_11674">
<rect width="30" height="30" fill="white" transform="translate(0.170898 0.959961)"/>
</clipPath>
</defs>
</svg>
