<svg width="68" height="68" viewBox="0 0 68 68" fill="none" xmlns="http://www.w3.org/2000/svg">
<g id="Group 21">
<rect id="Rectangle 6" x="31.1665" width="5.66667" height="17" rx="2.83333" fill="black"/>
<rect id="Rectangle 7" y="36.8333" width="5.66667" height="17" rx="2.83333" transform="rotate(-90 0 36.8333)" fill="#6D6D6D"/>
<rect id="Rectangle 8" x="36.8335" y="68" width="5.66667" height="17" rx="2.83333" transform="rotate(180 36.8335 68)" fill="#989898"/>
<rect id="Rectangle 9" x="68" y="31.1667" width="5.66667" height="17" rx="2.83333" transform="rotate(90 68 31.1667)" fill="#C4C4C4"/>
<rect id="Rectangle 1" x="7.95508" y="11.9617" width="5.66667" height="17" rx="2.83333" transform="rotate(-45 7.95508 11.9617)" fill="#414141"/>
<rect id="Rectangle 3" x="11.9609" y="60.0452" width="5.66667" height="17" rx="2.83333" transform="rotate(-135 11.9609 60.0452)" fill="#828282"/>
<rect id="Rectangle 4" x="60.0449" y="56.0383" width="5.66667" height="17" rx="2.83333" transform="rotate(135 60.0449 56.0383)" fill="#AEAEAE"/>
<rect id="Rectangle 5" x="56.0391" y="7.95483" width="5.66667" height="17" rx="2.83333" transform="rotate(45 56.0391 7.95483)" fill="#D9D9D9"/>
</g>
</svg>
