<svg width="24" height="24" viewBox="0 0 24 24" fill="none" xmlns="http://www.w3.org/2000/svg">
<g id="noun-books-1360731 1">
<path id="Vector" d="M3.14836 21.5837H19.7453C19.878 21.5837 19.9853 21.4764 19.9853 21.3437C19.9853 21.2109 19.878 21.1037 19.7453 21.1037H19.531C19.008 18.57 19.4038 16.5828 19.5183 16.1011H19.7456C19.8783 16.1011 19.9856 15.9938 19.9856 15.8611C19.9856 15.7284 19.8783 15.6211 19.7456 15.6211H3.14836C3.0562 15.6211 2.9722 15.6739 2.93212 15.7569C2.88364 15.8577 1.75732 18.2606 2.92324 21.4265C2.9578 21.5208 3.0478 21.5837 3.14836 21.5837ZM3.30772 16.1011H19.0246C18.8777 16.7549 18.5554 18.6581 19.0421 21.1037H3.31756C2.45932 18.6199 3.103 16.6272 3.30772 16.1011Z" fill="#444654" stroke="#444654"/>
<path id="Vector_2" d="M19.518 2.86281H19.7453C19.878 2.86281 19.9853 2.75553 19.9853 2.62281C19.9853 2.49009 19.878 2.38281 19.7453 2.38281H3.14836C3.0562 2.38281 2.9722 2.43561 2.93212 2.51865C2.88364 2.61945 1.75732 5.02233 2.92324 8.18817C2.95804 8.28249 3.04804 8.34513 3.14836 8.34513H6.43996V9.00129H4.76308C4.67092 9.00129 4.58692 9.05409 4.54684 9.13713C4.49836 9.23793 3.37204 11.6408 4.53796 14.8067C4.57276 14.901 4.66276 14.9636 4.76308 14.9636H21.3603C21.493 14.9636 21.6003 14.8563 21.6003 14.7236C21.6003 14.5909 21.493 14.4836 21.3603 14.4836H21.1455C20.6228 11.9499 21.0183 9.96273 21.1328 9.48105H21.36C21.4928 9.48105 21.6 9.37377 21.6 9.24105C21.6 9.10833 21.4928 9.00105 21.36 9.00105H10.16V8.34489H19.7453C19.878 8.34489 19.9853 8.23761 19.9853 8.10489C19.9853 7.97217 19.878 7.86489 19.7453 7.86489H19.5305C19.0078 5.33169 19.4036 3.34425 19.518 2.86281ZM6.91996 2.86281H9.67996V11.4015L8.42236 10.6563C8.347 10.6117 8.25316 10.6117 8.17756 10.6563L6.91996 11.4015V2.86281ZM3.31756 7.86513C2.45932 5.38137 3.10276 3.38889 3.30772 2.86257H6.43996V7.86513H3.31756ZM20.6393 9.48153C20.4924 10.1353 20.1704 12.0385 20.6568 14.4841H4.93228C4.07404 12.0003 4.71748 10.0076 4.92244 9.48153H6.43996V11.8227C6.43996 11.9089 6.48604 11.9886 6.56116 12.0313C6.63604 12.0738 6.72796 12.0728 6.80236 12.0291L8.29996 11.1416L9.79756 12.0291C9.83524 12.0515 9.87748 12.0627 9.91996 12.0627C9.961 12.0627 10.002 12.0522 10.0388 12.0313C10.1136 11.9886 10.16 11.9089 10.16 11.8227V9.48153H20.6393ZM10.16 7.86513V2.86281H19.0246C18.8777 3.51657 18.5556 5.41977 19.0421 7.86537L10.16 7.86513Z" fill="#444654" stroke="#444654"/>
</g>
</svg>
