<svg width="24" height="24" viewBox="0 0 24 24" fill="none" xmlns="http://www.w3.org/2000/svg">
<g id="noun-publish-41537 1">
<g id="Group">
<path id="Vector" d="M12.6482 14.6584C12.5567 14.6584 12.4653 14.6239 12.3952 14.555L11.0488 13.2343C10.9062 13.0946 10.9041 12.8656 11.0438 12.7233C11.1834 12.5807 11.4124 12.5786 11.5547 12.7183L12.6482 13.7908L16.241 10.2664C16.3833 10.1267 16.6122 10.1289 16.7519 10.2715C16.8916 10.4138 16.8894 10.6427 16.7469 10.7824L12.9011 14.5552C12.831 14.6239 12.7396 14.6584 12.6482 14.6584Z" fill="#444654" stroke="#444654" stroke-width="0.5"/>
</g>
<g id="Group_2">
<path id="Vector_2" d="M12.5937 16.8398C10.7673 16.8398 9.28125 15.3789 9.28125 13.5835C9.28125 11.788 10.7671 10.3271 12.5937 10.3271C13.0399 10.3271 13.4731 10.4131 13.8811 10.5823C14.0654 10.6588 14.1528 10.8703 14.0764 11.0546C14.0001 11.2389 13.7884 11.3265 13.6041 11.2499C13.2844 11.1172 12.9446 11.05 12.594 11.05C11.166 11.05 10.0044 12.1867 10.0044 13.5837C10.0044 14.9807 11.166 16.1174 12.594 16.1174C14.022 16.1174 15.1836 14.9807 15.1836 13.5837C15.1836 13.384 15.3453 13.2223 15.545 13.2223C15.7447 13.2223 15.9064 13.384 15.9064 13.5837C15.9062 15.3789 14.4204 16.8398 12.5937 16.8398Z" fill="#444654" stroke="#444654" stroke-width="0.5"/>
</g>
<g id="Group_3">
<path id="Vector_3" d="M19.8466 5.44987H6.27839C5.30615 5.44987 4.51487 4.65835 4.51487 3.68635C4.51487 2.71411 5.30639 1.92283 6.27839 1.92283H19.8466C20.0453 1.92283 20.208 1.76011 20.208 1.56139C20.208 1.36075 20.0453 1.19995 19.8466 1.19995H6.27839C6.26567 1.19995 6.25487 1.19995 6.24215 1.20187C4.89959 1.21987 3.81191 2.30779 3.79367 3.65035C3.79199 3.66283 3.79199 3.67363 3.79199 3.68635V20.3119C3.79199 20.3246 3.79199 20.3371 3.79391 20.3481C3.81191 21.6907 4.89983 22.7803 6.24239 22.7983C6.25295 22.8 6.26567 22.8 6.27839 22.8H19.8466C20.0453 22.8 20.208 22.6372 20.208 22.4385V5.81131C20.208 5.61235 20.0453 5.44987 19.8466 5.44987ZM7.03367 22.0771H6.27839C5.30615 22.0771 4.51487 21.2856 4.51487 20.3116V5.43883C4.95767 5.88331 5.56823 6.16339 6.24239 6.17059C6.25511 6.17251 6.26591 6.17251 6.27863 6.17251H7.03391V22.0771H7.03367ZM7.75631 6.17251H19.4851V22.0771H7.75631V6.17251Z" fill="#444654" stroke="#444654" stroke-width="0.5"/>
</g>
<g id="Group_4">
<path id="Vector_4" d="M19.8461 4.04808H6.27794C6.07826 4.04808 5.9165 3.88632 5.9165 3.68664C5.9165 3.48696 6.07826 3.3252 6.27794 3.3252H19.8459C20.0455 3.3252 20.2073 3.48696 20.2073 3.68664C20.2073 3.88632 20.0455 4.04808 19.8461 4.04808Z" fill="#444654" stroke="#444654" stroke-width="0.5"/>
</g>
</g>
</svg>
