<svg width="78" height="66" viewBox="0 0 78 66" fill="none" xmlns="http://www.w3.org/2000/svg">
<g clip-path="url(#clip0_316_58)">
<path d="M5.05744 25.1237V0.388195H0V55.0011H5.05744V29.6459H9.80261V55.0011H14.8601V0.388195H9.80261V25.1237H5.05744ZM34.1394 55.0011L29.6251 0.31328H23.0131L18.424 55.0011H23.0877L23.6308 46.7333H28.6068L29.2313 55.0011H34.1326H34.1394ZM26.129 11.7821L28.3081 42.3678H23.9499L26.129 11.7821ZM50.7781 0.388195H45.9582L43.4668 41.1896L41.1384 0.388195H36.1624L40.1269 55.0011H46.0397L48.1373 22.8558L50.3911 55.0011H56.3039L60.2684 0.388195H55.6794L53.2695 41.891L50.7781 0.388195ZM74.7279 27.2281L70.4512 23.639C69.0527 22.3927 68.7405 21.5346 68.7405 19.2736V6.24518C68.7405 4.99886 69.2089 4.44722 70.5326 4.44722H71.1572C72.4809 4.44722 72.9493 4.99205 72.9493 6.24518V22.1612H77.9253V6.08854C77.9253 2.02951 75.9024 0 71.8564 0H69.7587C65.7128 0 63.6898 2.02951 63.6898 6.08854V19.8184C63.6898 23.5641 64.389 25.1986 66.7243 27.1532L71.2319 30.9739C72.7118 32.2202 73.024 33.0783 73.024 35.3462V49.076C73.024 50.3224 72.3995 50.8672 71.1572 50.8672H70.5326C69.2089 50.8672 68.6658 50.3224 68.6658 49.076V32.6901H63.6898V49.3076C63.6898 53.3666 65.6313 55.3961 69.6773 55.3961H71.9311C75.977 55.3961 77.9932 53.3666 77.9932 49.3076V34.8763C77.9932 31.1305 77.294 29.4143 74.7279 27.2281Z" fill="white"/>
<path d="M0.251221 62.4722V65.966H2.5661V65.6459H0.6178V62.4722H0.251221Z" fill="white"/>
<path d="M4.43958 62.4722H4.073V65.966H4.43958V62.4722Z" fill="white"/>
<path d="M6.46948 62.4722V65.966H6.83606V64.4881H8.63502V64.168H6.83606V62.7923H8.85904V62.4722H6.46948Z" fill="white"/>
<path d="M10.5154 62.4722V65.966H12.9728V65.6459H10.882V64.3519H12.6809V64.0386H10.882V62.7923H12.8981V62.4722H10.5154Z" fill="white"/>
<path d="M15.695 66C15.4371 66 15.1859 65.9591 14.9483 65.8706C14.7107 65.7889 14.5274 65.6799 14.3984 65.5437L14.541 65.2577C14.6632 65.3802 14.8261 65.4756 15.0366 65.5573C15.247 65.639 15.4642 65.6799 15.6883 65.6799C15.9123 65.6799 16.082 65.6527 16.2245 65.5982C16.3603 65.5437 16.4621 65.4688 16.53 65.3734C16.5911 65.2781 16.6251 65.1759 16.6251 65.067C16.6251 64.9308 16.5843 64.8218 16.5097 64.7401C16.4282 64.6583 16.3264 64.5902 16.2042 64.5426C16.0752 64.4949 15.9394 64.454 15.7901 64.4132C15.6339 64.3791 15.4846 64.3383 15.3353 64.2974C15.1859 64.2565 15.0433 64.202 14.9144 64.1271C14.7854 64.059 14.6836 63.9637 14.6089 63.8479C14.5342 63.7321 14.4935 63.5823 14.4935 63.3984C14.4935 63.2281 14.541 63.0647 14.6292 62.9217C14.7175 62.7787 14.8601 62.6629 15.0501 62.5743C15.2402 62.4858 15.4846 62.4449 15.7765 62.4449C15.9734 62.4449 16.1635 62.4722 16.3603 62.5267C16.5504 62.5812 16.7201 62.6561 16.8559 62.7514L16.7337 63.0443C16.5843 62.9421 16.4282 62.874 16.2585 62.8263C16.0888 62.7787 15.9259 62.7582 15.7765 62.7582C15.5661 62.7582 15.3963 62.7855 15.2606 62.8399C15.1248 62.8944 15.023 62.9693 14.9619 63.0647C14.894 63.16 14.8668 63.269 14.8668 63.3848C14.8668 63.521 14.9076 63.63 14.9822 63.7117C15.0569 63.7934 15.1655 63.8615 15.2877 63.9092C15.4167 63.9569 15.5525 63.9977 15.7086 64.0318C15.858 64.0658 16.0141 64.1067 16.1635 64.1544C16.3128 64.1952 16.4554 64.2497 16.5843 64.3178C16.7133 64.3859 16.8151 64.4745 16.8898 64.5902C16.9645 64.706 17.0052 64.849 17.0052 65.0329C17.0052 65.2032 16.9577 65.3598 16.8695 65.5028C16.7744 65.6459 16.6319 65.7616 16.4418 65.8502C16.2517 65.9387 16.0073 65.9796 15.7086 65.9796" fill="white"/>
<path d="M18.0913 62.4722V62.7923H19.3132V65.966H19.6798V62.7923H20.9018V62.4722H18.0913Z" fill="white"/>
<path d="M24.5811 62.4722L23.3864 64.4336L22.1916 62.4722H21.7979L23.1895 64.7605V65.966H23.5561V64.7605L24.9477 62.4722H24.5811Z" fill="white"/>
<path d="M26.3394 62.4722V65.966H28.6542V65.6459H26.7059V62.4722H26.3394Z" fill="white"/>
<path d="M30.1614 62.4722V65.966H32.6256V65.6459H30.528V64.3519H32.3269V64.0386H30.528V62.7923H32.5509V62.4722H30.1614Z" fill="white"/>
<path d="M39.1289 62.4722V64.0318H36.9498V62.4722H36.5833V65.966H36.9498V64.3587H39.1289V65.966H39.4887V62.4722H39.1289Z" fill="white"/>
<path d="M43.0392 65.6663C43.2497 65.6663 43.4398 65.6322 43.6163 65.5573C43.7928 65.4824 43.9489 65.3871 44.0779 65.2509C44.2069 65.1215 44.3087 64.9648 44.3834 64.7946C44.458 64.6175 44.492 64.4268 44.492 64.2157C44.492 64.0045 44.458 63.8139 44.3834 63.6368C44.3087 63.4597 44.2069 63.3099 44.0779 63.1805C43.9489 63.0511 43.7928 62.9489 43.6163 62.874C43.4398 62.7991 43.2497 62.765 43.0392 62.765C42.8288 62.765 42.6387 62.7991 42.4554 62.874C42.2721 62.9489 42.1228 63.0443 41.987 63.1805C41.858 63.3099 41.7562 63.4665 41.6815 63.6368C41.6069 63.8139 41.5661 64.0045 41.5661 64.2157C41.5661 64.4268 41.6069 64.6107 41.6815 64.7877C41.7562 64.9648 41.858 65.1146 41.987 65.2509C42.116 65.3802 42.2721 65.4824 42.4554 65.5573C42.6319 65.6254 42.8288 65.6663 43.0392 65.6663ZM43.0392 65.9932C42.7745 65.9932 42.5369 65.9523 42.3129 65.8638C42.0889 65.7753 41.892 65.6527 41.7291 65.4892C41.5661 65.3258 41.4372 65.1419 41.3489 64.924C41.2607 64.706 41.2131 64.4745 41.2131 64.2157C41.2131 63.9569 41.2607 63.7253 41.3489 63.5074C41.4372 63.2894 41.5661 63.1056 41.7291 62.9421C41.892 62.7787 42.0889 62.6561 42.3061 62.5675C42.5301 62.479 42.7745 62.4381 43.0392 62.4381C43.304 62.4381 43.5416 62.4858 43.7656 62.5675C43.9896 62.6561 44.1797 62.7787 44.3426 62.9421C44.5056 63.0988 44.6345 63.2894 44.7228 63.5074C44.811 63.7253 44.8586 63.9569 44.8586 64.2157C44.8586 64.4745 44.811 64.706 44.7228 64.924C44.6278 65.1419 44.5056 65.3258 44.3426 65.4892C44.1797 65.6527 43.9828 65.7753 43.7656 65.8638C43.5416 65.9523 43.304 65.9932 43.0392 65.9932Z" fill="white"/>
<path d="M47.5469 66C47.2889 66 47.0377 65.9591 46.8001 65.8706C46.5625 65.7889 46.3792 65.6799 46.2502 65.5437L46.3928 65.2577C46.515 65.3802 46.6779 65.4756 46.8884 65.5573C47.0988 65.639 47.316 65.6799 47.5401 65.6799C47.7641 65.6799 47.9338 65.6527 48.0764 65.5982C48.2121 65.5437 48.314 65.4688 48.3818 65.3734C48.4497 65.2781 48.4769 65.1759 48.4769 65.067C48.4769 64.9308 48.4361 64.8218 48.3615 64.7401C48.2868 64.6583 48.185 64.5902 48.056 64.5426C47.927 64.4949 47.7912 64.454 47.6351 64.4132C47.4858 64.3791 47.3296 64.3383 47.1803 64.2974C47.0309 64.2565 46.8884 64.202 46.7594 64.1271C46.6304 64.059 46.5286 63.9637 46.4539 63.8479C46.3792 63.7321 46.3385 63.5823 46.3385 63.3984C46.3385 63.2281 46.386 63.0647 46.4743 62.9217C46.5625 62.7787 46.7051 62.6629 46.8952 62.5743C47.0852 62.4858 47.3228 62.4449 47.6215 62.4449C47.8184 62.4449 48.0085 62.4722 48.2053 62.5267C48.3954 62.5812 48.5651 62.6561 48.7009 62.7514L48.5787 63.0443C48.4294 62.9421 48.2732 62.874 48.1035 62.8263C47.9338 62.7787 47.7709 62.7582 47.6215 62.7582C47.4111 62.7582 47.2414 62.7855 47.1056 62.8399C46.9698 62.8944 46.868 62.9693 46.8069 63.0647C46.739 63.16 46.7119 63.269 46.7119 63.3848C46.7119 63.521 46.7526 63.63 46.8273 63.7117C46.9087 63.7934 47.0106 63.8615 47.1328 63.9092C47.2617 63.9569 47.3975 63.9977 47.5536 64.0318C47.703 64.0658 47.8591 64.1067 48.0085 64.1544C48.1578 64.1952 48.3004 64.2497 48.4226 64.3178C48.5516 64.3859 48.6534 64.4745 48.7348 64.5902C48.8095 64.706 48.8502 64.849 48.8502 65.0329C48.8502 65.2032 48.8027 65.3598 48.7077 65.5028C48.6126 65.6459 48.4701 65.7616 48.28 65.8502C48.0899 65.9387 47.8455 65.9796 47.5469 65.9796" fill="white"/>
<path d="M50.9071 64.7196L50.7442 64.5426H51.8303C52.1766 64.5426 52.4413 64.4677 52.6246 64.3178C52.8079 64.168 52.8961 63.9501 52.8961 63.6776C52.8961 63.4052 52.8079 63.1805 52.6246 63.0307C52.4413 62.8808 52.1766 62.7991 51.8303 62.7991H50.7442L50.9071 62.622V64.7196ZM50.5405 65.966V62.4722H51.8439C52.1358 62.4722 52.3938 62.5199 52.6042 62.6152C52.8147 62.7106 52.9776 62.8468 53.093 63.0238C53.2084 63.2009 53.2627 63.4188 53.2627 63.6708C53.2627 63.9228 53.2084 64.1271 53.093 64.3042C52.9776 64.4813 52.8147 64.6175 52.6042 64.7128C52.3938 64.8082 52.1358 64.8559 51.8439 64.8559H50.7442L50.9071 64.6788V65.9523H50.5405V65.966Z" fill="white"/>
<path d="M55.3197 62.4722H54.9531V65.966H55.3197V62.4722Z" fill="white"/>
<path d="M56.7996 62.4722V62.7923H58.0283V65.966H58.3949V62.7923H59.6168V62.4722H56.7996Z" fill="white"/>
<path d="M62.1351 62.8536L62.9701 64.7333H61.2934L62.1351 62.8536ZM61.9586 62.4722L60.3701 65.966H60.7503L61.1644 65.0329H63.1059L63.52 65.966H63.9069L62.3184 62.4722H61.9586Z" fill="white"/>
<path d="M65.387 62.4722V65.966H67.7018V65.6459H65.7535V62.4722H65.387Z" fill="white"/>
<path d="M69.5756 62.4722H69.209V65.966H69.5756V62.4722Z" fill="white"/>
<path d="M71.0554 62.4722V62.7923H72.2841V65.966H72.6507V62.7923H73.8727V62.4722H71.0554Z" fill="white"/>
<path d="M77.5451 62.4722L76.3503 64.4336L75.1623 62.4722H74.7686L76.1602 64.7605V65.966H76.52V64.7605L77.9116 62.4722H77.5451Z" fill="white"/>
</g>
<defs>
<clipPath id="clip0_316_58">
<rect width="78" height="66" fill="white"/>
</clipPath>
</defs>
</svg>
