<svg width="402" height="311" viewBox="0 0 402 311" fill="none" xmlns="http://www.w3.org/2000/svg">
<path d="M381.637 0H20.2141C9.0483 0 0 10.4695 0 23.3928V287.565C0 300.488 9.0483 311 20.2141 311H381.637C392.803 311 401.851 300.484 401.851 287.565V23.3928C401.851 10.4695 392.803 0 381.637 0ZM396.269 285.682C396.269 297.072 387.464 306.27 376.585 306.27H25.2274C14.3877 306.27 5.5829 297.072 5.5829 285.682V53.315C5.5829 41.9247 14.3877 32.6798 25.2274 32.6798H376.585C387.468 32.6798 396.269 41.9247 396.269 53.315V285.682Z" fill="#12062E"/>
<path d="M396.269 53.3149V285.682C396.269 297.072 387.464 306.27 376.585 306.27H25.2275C14.3878 306.27 5.58301 297.072 5.58301 285.682V53.3149C5.58301 41.9246 14.3878 32.6797 25.2275 32.6797H376.585C387.468 32.6797 396.269 41.9246 396.269 53.3149Z" fill="white"/>
<path d="M75.0898 16.8999C75.0898 14.6915 73.3 12.8999 71.0924 12.8999C68.8848 12.8999 67.0898 14.6915 67.0898 16.8999C67.0898 19.1083 68.8797 20.8999 71.0924 20.8999C73.3052 20.8999 75.0898 19.1083 75.0898 16.8999Z" fill="white"/>
<path d="M58.002 16.8999C58.002 14.6915 56.2121 12.8999 54.0045 12.8999C51.7969 12.8999 50.002 14.6915 50.002 16.8999C50.002 19.1083 51.7918 20.8999 54.0045 20.8999C56.2173 20.8999 58.002 19.1083 58.002 16.8999Z" fill="white"/>
<path d="M40.9199 16.8999C40.9199 14.6915 39.1301 12.8999 36.9173 12.8999C34.7046 12.8999 32.9199 14.6915 32.9199 16.8999C32.9199 19.1083 34.7097 20.8999 36.9173 20.8999C39.125 20.8999 40.9199 19.1083 40.9199 16.8999Z" fill="white"/>
<path d="M290.682 20.9053H367.486C369.472 20.9053 371.084 19.1137 371.084 16.9053C371.084 14.6969 369.472 12.9053 367.486 12.9053H290.682C288.696 12.9053 287.084 14.6969 287.084 16.9053C287.084 19.1137 288.696 20.9053 290.682 20.9053Z" fill="white"/>
<g opacity="0.4" filter="url(#filter0_d_340_1109)">
<path d="M200.421 64.9868H45.7648C35.2686 64.9868 26.7598 71.6617 26.7598 79.8956C26.7598 88.1294 35.2686 94.8043 45.7648 94.8043H200.421C210.918 94.8043 219.426 88.1294 219.426 79.8956C219.426 71.6617 210.918 64.9868 200.421 64.9868Z" fill="white"/>
</g>
<path d="M78.0986 71.8682H41.0271C39.1099 71.8682 37.5557 73.0924 37.5557 74.6026V75.2502C37.5557 76.7603 39.1099 77.9846 41.0271 77.9846H78.0986C80.0158 77.9846 81.57 76.7603 81.57 75.2502V74.6026C81.57 73.0924 80.0158 71.8682 78.0986 71.8682Z" fill="#0078FF"/>
<path d="M202.375 81.0425H183.328C182.625 81.0425 182.056 81.5003 182.056 82.0651V82.3135C182.056 82.8783 182.625 83.3361 183.328 83.3361H202.375C203.078 83.3361 203.648 82.8783 203.648 82.3135V82.0651C203.648 81.5003 203.078 81.0425 202.375 81.0425Z" fill="#0078FF"/>
<path d="M59.5365 85.6299H40.4891C39.7864 85.6299 39.2168 86.0877 39.2168 86.6525V86.9009C39.2168 87.4657 39.7864 87.9235 40.4891 87.9235H59.5365C60.2391 87.9235 60.8088 87.4657 60.8088 86.9009V86.6525C60.8088 86.0877 60.2391 85.6299 59.5365 85.6299Z" fill="#0078FF"/>
<path d="M202.369 85.6299H147.624C146.918 85.6299 146.346 86.0877 146.346 86.6525V86.9009C146.346 87.4657 146.918 87.9235 147.624 87.9235H202.369C203.075 87.9235 203.647 87.4657 203.647 86.9009V86.6525C203.647 86.0877 203.075 85.6299 202.369 85.6299Z" fill="#0078FF"/>
<path d="M140.918 85.6299H66.2366C65.5321 85.6299 64.9609 86.0877 64.9609 86.6525V86.9009C64.9609 87.4657 65.5321 87.9235 66.2366 87.9235H140.918C141.623 87.9235 142.194 87.4657 142.194 86.9009V86.6525C142.194 86.0877 141.623 85.6299 140.918 85.6299Z" fill="#0078FF"/>
<g opacity="0.4" filter="url(#filter1_d_340_1109)">
<path d="M200.421 149H45.7648C35.2686 149 26.7598 155.675 26.7598 163.909C26.7598 172.143 35.2686 178.817 45.7648 178.817H200.421C210.918 178.817 219.426 172.143 219.426 163.909C219.426 155.675 210.918 149 200.421 149Z" fill="white"/>
</g>
<path d="M78.0986 155.881H41.0271C39.1099 155.881 37.5557 157.106 37.5557 158.616V159.263C37.5557 160.774 39.1099 161.998 41.0271 161.998H78.0986C80.0158 161.998 81.57 160.774 81.57 159.263V158.616C81.57 157.106 80.0158 155.881 78.0986 155.881Z" fill="#0078FF"/>
<path d="M202.375 165.056H183.328C182.625 165.056 182.056 165.514 182.056 166.078V166.327C182.056 166.891 182.625 167.349 183.328 167.349H202.375C203.078 167.349 203.648 166.891 203.648 166.327V166.078C203.648 165.514 203.078 165.056 202.375 165.056Z" fill="#0078FF"/>
<path d="M59.5365 169.643H40.4891C39.7864 169.643 39.2168 170.101 39.2168 170.666V170.914C39.2168 171.479 39.7864 171.937 40.4891 171.937H59.5365C60.2391 171.937 60.8088 171.479 60.8088 170.914V170.666C60.8088 170.101 60.2391 169.643 59.5365 169.643Z" fill="#0078FF"/>
<path d="M202.369 169.643H147.624C146.918 169.643 146.346 170.101 146.346 170.666V170.914C146.346 171.479 146.918 171.937 147.624 171.937H202.369C203.075 171.937 203.647 171.479 203.647 170.914V170.666C203.647 170.101 203.075 169.643 202.369 169.643Z" fill="#0078FF"/>
<path d="M140.918 169.643H66.2366C65.5321 169.643 64.9609 170.101 64.9609 170.666V170.914C64.9609 171.479 65.5321 171.937 66.2366 171.937H140.918C141.623 171.937 142.194 171.479 142.194 170.914V170.666C142.194 170.101 141.623 169.643 140.918 169.643Z" fill="#0078FF"/>
<g opacity="0.4" filter="url(#filter2_d_340_1109)">
<path d="M364.014 106.802H221.631C211.968 106.802 204.135 113.477 204.135 121.71C204.135 129.944 211.968 136.619 221.631 136.619H364.014C373.677 136.619 381.51 129.944 381.51 121.71C381.51 113.477 373.677 106.802 364.014 106.802Z" fill="white"/>
</g>
<path d="M251.399 113.683H217.27C215.505 113.683 214.074 114.907 214.074 116.417V117.065C214.074 118.575 215.505 119.799 217.27 119.799H251.399C253.165 119.799 254.595 118.575 254.595 117.065V116.417C254.595 114.907 253.165 113.683 251.399 113.683Z" fill="#FF001F"/>
<path d="M365.812 122.857H348.277C347.63 122.857 347.105 123.315 347.105 123.88V124.128C347.105 124.693 347.63 125.151 348.277 125.151H365.812C366.459 125.151 366.984 124.693 366.984 124.128V123.88C366.984 123.315 366.459 122.857 365.812 122.857Z" fill="#FF001F"/>
<path d="M234.31 127.444H216.774C216.127 127.444 215.603 127.902 215.603 128.467V128.715C215.603 129.28 216.127 129.738 216.774 129.738H234.31C234.956 129.738 235.481 129.28 235.481 128.715V128.467C235.481 127.902 234.956 127.444 234.31 127.444Z" fill="#FF001F"/>
<path d="M365.807 127.444H315.408C314.758 127.444 314.23 127.902 314.23 128.467V128.715C314.23 129.28 314.758 129.738 315.408 129.738H365.807C366.457 129.738 366.984 129.28 366.984 128.715V128.467C366.984 127.902 366.457 127.444 365.807 127.444Z" fill="#FF001F"/>
<path d="M309.233 127.444H240.479C239.831 127.444 239.305 127.902 239.305 128.467V128.715C239.305 129.28 239.831 129.738 240.479 129.738H309.233C309.882 129.738 310.408 129.28 310.408 128.715V128.467C310.408 127.902 309.882 127.444 309.233 127.444Z" fill="#FF001F"/>
<g filter="url(#filter3_d_340_1109)">
<rect x="22" y="245" width="357" height="42.8572" rx="6" fill="white"/>
</g>
<path fill-rule="evenodd" clip-rule="evenodd" d="M47.125 262.833C47.125 261.783 46.7083 260.777 45.9658 260.034C45.2233 259.292 44.2167 258.875 43.1667 258.875H34.8333C33.7833 258.875 32.7767 259.292 32.0342 260.034C31.2917 260.777 30.875 261.783 30.875 262.833V271.167C30.875 272.217 31.2917 273.223 32.0342 273.966C32.7767 274.708 33.7833 275.125 34.8333 275.125H43.1667C44.2167 275.125 45.2233 274.708 45.9658 273.966C46.7083 273.223 47.125 272.217 47.125 271.167V262.833ZM45.875 262.833V271.167C45.875 271.885 45.59 272.574 45.0817 273.082C44.5742 273.59 43.885 273.875 43.1667 273.875H34.8333C34.115 273.875 33.4258 273.59 32.9183 273.082C32.41 272.574 32.125 271.885 32.125 271.167V262.833C32.125 262.115 32.41 261.426 32.9183 260.918C33.4258 260.41 34.115 260.125 34.8333 260.125H43.1667C43.885 260.125 44.5742 260.41 45.0817 260.918C45.59 261.426 45.875 262.115 45.875 262.833Z" fill="#12062E"/>
<path fill-rule="evenodd" clip-rule="evenodd" d="M38.3747 266.375V264.083C38.3747 263.738 38.6547 263.458 38.9997 263.458C39.3447 263.458 39.6247 263.738 39.6247 264.083V266.375H41.9163C42.2613 266.375 42.5413 266.655 42.5413 267C42.5413 267.345 42.2613 267.625 41.9163 267.625H39.6247V269.917C39.6247 270.262 39.3447 270.542 38.9997 270.542C38.6547 270.542 38.3747 270.262 38.3747 269.917V267.625H36.083C35.738 267.625 35.458 267.345 35.458 267C35.458 266.655 35.738 266.375 36.083 266.375H38.3747Z" fill="#12062E"/>
<path d="M60.4375 262.469V271H59.3242V262.469H60.4375ZM63.1797 262.469V263.395H56.5879V262.469H63.1797ZM65.6406 270.344L67.4043 264.66H68.5645L66.0215 271.979C65.9629 272.135 65.8848 272.303 65.7871 272.482C65.6934 272.666 65.5723 272.84 65.4238 273.004C65.2754 273.168 65.0957 273.301 64.8848 273.402C64.6777 273.508 64.4297 273.561 64.1406 273.561C64.0547 273.561 63.9453 273.549 63.8125 273.525C63.6797 273.502 63.5859 273.482 63.5312 273.467L63.5254 272.588C63.5566 272.592 63.6055 272.596 63.6719 272.6C63.7422 272.607 63.791 272.611 63.8184 272.611C64.0645 272.611 64.2734 272.578 64.4453 272.512C64.6172 272.449 64.7617 272.342 64.8789 272.189C65 272.041 65.1035 271.836 65.1895 271.574L65.6406 270.344ZM64.3457 264.66L65.9922 269.582L66.2734 270.725L65.4941 271.123L63.1621 264.66H64.3457ZM70.627 265.879V273.438H69.5371V264.66H70.5332L70.627 265.879ZM74.8984 267.777V267.9C74.8984 268.361 74.8438 268.789 74.7344 269.184C74.625 269.574 74.4648 269.914 74.2539 270.203C74.0469 270.492 73.791 270.717 73.4863 270.877C73.1816 271.037 72.832 271.117 72.4375 271.117C72.0352 271.117 71.6797 271.051 71.3711 270.918C71.0625 270.785 70.8008 270.592 70.5859 270.338C70.3711 270.084 70.1992 269.779 70.0703 269.424C69.9453 269.068 69.8594 268.668 69.8125 268.223V267.566C69.8594 267.098 69.9473 266.678 70.0762 266.307C70.2051 265.936 70.375 265.619 70.5859 265.357C70.8008 265.092 71.0605 264.891 71.3652 264.754C71.6699 264.613 72.0215 264.543 72.4199 264.543C72.8184 264.543 73.1719 264.621 73.4805 264.777C73.7891 264.93 74.0488 265.148 74.2598 265.434C74.4707 265.719 74.6289 266.061 74.7344 266.459C74.8438 266.854 74.8984 267.293 74.8984 267.777ZM73.8086 267.9V267.777C73.8086 267.461 73.7754 267.164 73.709 266.887C73.6426 266.605 73.5391 266.359 73.3984 266.148C73.2617 265.934 73.0859 265.766 72.8711 265.645C72.6562 265.52 72.4004 265.457 72.1035 265.457C71.8301 265.457 71.5918 265.504 71.3887 265.598C71.1895 265.691 71.0195 265.818 70.8789 265.979C70.7383 266.135 70.623 266.314 70.5332 266.518C70.4473 266.717 70.3828 266.924 70.3398 267.139V268.656C70.418 268.93 70.5273 269.188 70.668 269.43C70.8086 269.668 70.9961 269.861 71.2305 270.01C71.4648 270.154 71.7598 270.227 72.1152 270.227C72.4082 270.227 72.6602 270.166 72.8711 270.045C73.0859 269.92 73.2617 269.75 73.3984 269.535C73.5391 269.32 73.6426 269.074 73.709 268.797C73.7754 268.516 73.8086 268.217 73.8086 267.9ZM78.9121 271.117C78.4707 271.117 78.0703 271.043 77.7109 270.895C77.3555 270.742 77.0488 270.529 76.791 270.256C76.5371 269.982 76.3418 269.658 76.2051 269.283C76.0684 268.908 76 268.498 76 268.053V267.807C76 267.291 76.0762 266.832 76.2285 266.43C76.3809 266.023 76.5879 265.68 76.8496 265.398C77.1113 265.117 77.4082 264.904 77.7402 264.76C78.0723 264.615 78.416 264.543 78.7715 264.543C79.2246 264.543 79.6152 264.621 79.9434 264.777C80.2754 264.934 80.5469 265.152 80.7578 265.434C80.9688 265.711 81.125 266.039 81.2266 266.418C81.3281 266.793 81.3789 267.203 81.3789 267.648V268.135H76.6445V267.25H80.2949V267.168C80.2793 266.887 80.2207 266.613 80.1191 266.348C80.0215 266.082 79.8652 265.863 79.6504 265.691C79.4355 265.52 79.1426 265.434 78.7715 265.434C78.5254 265.434 78.2988 265.486 78.0918 265.592C77.8848 265.693 77.707 265.846 77.5586 266.049C77.4102 266.252 77.2949 266.5 77.2129 266.793C77.1309 267.086 77.0898 267.424 77.0898 267.807V268.053C77.0898 268.354 77.1309 268.637 77.2129 268.902C77.2988 269.164 77.4219 269.395 77.582 269.594C77.7461 269.793 77.9434 269.949 78.1738 270.062C78.4082 270.176 78.6738 270.232 78.9707 270.232C79.3535 270.232 79.6777 270.154 79.9434 269.998C80.209 269.842 80.4414 269.633 80.6406 269.371L81.2969 269.893C81.1602 270.1 80.9863 270.297 80.7754 270.484C80.5645 270.672 80.3047 270.824 79.9961 270.941C79.6914 271.059 79.3301 271.117 78.9121 271.117ZM89.3594 269.916V266.652C89.3594 266.402 89.3086 266.186 89.207 266.002C89.1094 265.814 88.9609 265.67 88.7617 265.568C88.5625 265.467 88.3164 265.416 88.0234 265.416C87.75 265.416 87.5098 265.463 87.3027 265.557C87.0996 265.65 86.9395 265.773 86.8223 265.926C86.709 266.078 86.6523 266.242 86.6523 266.418H85.5684C85.5684 266.191 85.627 265.967 85.7441 265.744C85.8613 265.521 86.0293 265.32 86.248 265.141C86.4707 264.957 86.7363 264.812 87.0449 264.707C87.3574 264.598 87.7051 264.543 88.0879 264.543C88.5488 264.543 88.9551 264.621 89.3066 264.777C89.6621 264.934 89.9395 265.17 90.1387 265.486C90.3418 265.799 90.4434 266.191 90.4434 266.664V269.617C90.4434 269.828 90.4609 270.053 90.4961 270.291C90.5352 270.529 90.5918 270.734 90.666 270.906V271H89.5352C89.4805 270.875 89.4375 270.709 89.4062 270.502C89.375 270.291 89.3594 270.096 89.3594 269.916ZM89.5469 267.156L89.5586 267.918H88.4629C88.1543 267.918 87.8789 267.943 87.6367 267.994C87.3945 268.041 87.1914 268.113 87.0273 268.211C86.8633 268.309 86.7383 268.432 86.6523 268.58C86.5664 268.725 86.5234 268.895 86.5234 269.09C86.5234 269.289 86.5684 269.471 86.6582 269.635C86.748 269.799 86.8828 269.93 87.0625 270.027C87.2461 270.121 87.4707 270.168 87.7363 270.168C88.0684 270.168 88.3613 270.098 88.6152 269.957C88.8691 269.816 89.0703 269.645 89.2188 269.441C89.3711 269.238 89.4531 269.041 89.4648 268.85L89.9277 269.371C89.9004 269.535 89.8262 269.717 89.7051 269.916C89.584 270.115 89.4219 270.307 89.2188 270.49C89.0195 270.67 88.7812 270.82 88.5039 270.941C88.2305 271.059 87.9219 271.117 87.5781 271.117C87.1484 271.117 86.7715 271.033 86.4473 270.865C86.127 270.697 85.877 270.473 85.6973 270.191C85.5215 269.906 85.4336 269.588 85.4336 269.236C85.4336 268.896 85.5 268.598 85.6328 268.34C85.7656 268.078 85.957 267.861 86.207 267.689C86.457 267.514 86.7578 267.381 87.1094 267.291C87.4609 267.201 87.8535 267.156 88.2871 267.156H89.5469ZM96.2031 265.92V271H95.1133V264.66H96.1445L96.2031 265.92ZM95.9805 267.59L95.4766 267.572C95.4805 267.139 95.5371 266.738 95.6465 266.371C95.7559 266 95.918 265.678 96.1328 265.404C96.3477 265.131 96.6152 264.92 96.9355 264.771C97.2559 264.619 97.627 264.543 98.0488 264.543C98.3457 264.543 98.6191 264.586 98.8691 264.672C99.1191 264.754 99.3359 264.885 99.5195 265.064C99.7031 265.244 99.8457 265.475 99.9473 265.756C100.049 266.037 100.1 266.377 100.1 266.775V271H99.0156V266.828C99.0156 266.496 98.959 266.23 98.8457 266.031C98.7363 265.832 98.5801 265.688 98.377 265.598C98.1738 265.504 97.9355 265.457 97.6621 265.457C97.3418 265.457 97.0742 265.514 96.8594 265.627C96.6445 265.74 96.4727 265.896 96.3438 266.096C96.2148 266.295 96.1211 266.523 96.0625 266.781C96.0078 267.035 95.9805 267.305 95.9805 267.59ZM100.088 266.992L99.3613 267.215C99.3652 266.867 99.4219 266.533 99.5312 266.213C99.6445 265.893 99.8066 265.607 100.018 265.357C100.232 265.107 100.496 264.91 100.809 264.766C101.121 264.617 101.479 264.543 101.881 264.543C102.221 264.543 102.521 264.588 102.783 264.678C103.049 264.768 103.271 264.906 103.451 265.094C103.635 265.277 103.773 265.514 103.867 265.803C103.961 266.092 104.008 266.436 104.008 266.834V271H102.918V266.822C102.918 266.467 102.861 266.191 102.748 265.996C102.639 265.797 102.482 265.658 102.279 265.58C102.08 265.498 101.842 265.457 101.564 265.457C101.326 265.457 101.115 265.498 100.932 265.58C100.748 265.662 100.594 265.775 100.469 265.92C100.344 266.061 100.248 266.223 100.182 266.406C100.119 266.59 100.088 266.785 100.088 266.992ZM108.279 271.117C107.838 271.117 107.438 271.043 107.078 270.895C106.723 270.742 106.416 270.529 106.158 270.256C105.904 269.982 105.709 269.658 105.572 269.283C105.436 268.908 105.367 268.498 105.367 268.053V267.807C105.367 267.291 105.443 266.832 105.596 266.43C105.748 266.023 105.955 265.68 106.217 265.398C106.479 265.117 106.775 264.904 107.107 264.76C107.439 264.615 107.783 264.543 108.139 264.543C108.592 264.543 108.982 264.621 109.311 264.777C109.643 264.934 109.914 265.152 110.125 265.434C110.336 265.711 110.492 266.039 110.594 266.418C110.695 266.793 110.746 267.203 110.746 267.648V268.135H106.012V267.25H109.662V267.168C109.646 266.887 109.588 266.613 109.486 266.348C109.389 266.082 109.232 265.863 109.018 265.691C108.803 265.52 108.51 265.434 108.139 265.434C107.893 265.434 107.666 265.486 107.459 265.592C107.252 265.693 107.074 265.846 106.926 266.049C106.777 266.252 106.662 266.5 106.58 266.793C106.498 267.086 106.457 267.424 106.457 267.807V268.053C106.457 268.354 106.498 268.637 106.58 268.902C106.666 269.164 106.789 269.395 106.949 269.594C107.113 269.793 107.311 269.949 107.541 270.062C107.775 270.176 108.041 270.232 108.338 270.232C108.721 270.232 109.045 270.154 109.311 269.998C109.576 269.842 109.809 269.633 110.008 269.371L110.664 269.893C110.527 270.1 110.354 270.297 110.143 270.484C109.932 270.672 109.672 270.824 109.363 270.941C109.059 271.059 108.697 271.117 108.279 271.117ZM115.703 269.318C115.703 269.162 115.668 269.018 115.598 268.885C115.531 268.748 115.393 268.625 115.182 268.516C114.975 268.402 114.662 268.305 114.244 268.223C113.893 268.148 113.574 268.061 113.289 267.959C113.008 267.857 112.768 267.734 112.568 267.59C112.373 267.445 112.223 267.275 112.117 267.08C112.012 266.885 111.959 266.656 111.959 266.395C111.959 266.145 112.014 265.908 112.123 265.686C112.236 265.463 112.395 265.266 112.598 265.094C112.805 264.922 113.053 264.787 113.342 264.689C113.631 264.592 113.953 264.543 114.309 264.543C114.816 264.543 115.25 264.633 115.609 264.812C115.969 264.992 116.244 265.232 116.436 265.533C116.627 265.83 116.723 266.16 116.723 266.523H115.639C115.639 266.348 115.586 266.178 115.48 266.014C115.379 265.846 115.229 265.707 115.029 265.598C114.834 265.488 114.594 265.434 114.309 265.434C114.008 265.434 113.764 265.48 113.576 265.574C113.393 265.664 113.258 265.779 113.172 265.92C113.09 266.061 113.049 266.209 113.049 266.365C113.049 266.482 113.068 266.588 113.107 266.682C113.15 266.771 113.225 266.855 113.33 266.934C113.436 267.008 113.584 267.078 113.775 267.145C113.967 267.211 114.211 267.277 114.508 267.344C115.027 267.461 115.455 267.602 115.791 267.766C116.127 267.93 116.377 268.131 116.541 268.369C116.705 268.607 116.787 268.896 116.787 269.236C116.787 269.514 116.729 269.768 116.611 269.998C116.498 270.229 116.332 270.428 116.113 270.596C115.898 270.76 115.641 270.889 115.34 270.982C115.043 271.072 114.709 271.117 114.338 271.117C113.779 271.117 113.307 271.018 112.92 270.818C112.533 270.619 112.24 270.361 112.041 270.045C111.842 269.729 111.742 269.395 111.742 269.043H112.832C112.848 269.34 112.934 269.576 113.09 269.752C113.246 269.924 113.438 270.047 113.664 270.121C113.891 270.191 114.115 270.227 114.338 270.227C114.635 270.227 114.883 270.188 115.082 270.109C115.285 270.031 115.439 269.924 115.545 269.787C115.65 269.65 115.703 269.494 115.703 269.318ZM121.902 269.318C121.902 269.162 121.867 269.018 121.797 268.885C121.73 268.748 121.592 268.625 121.381 268.516C121.174 268.402 120.861 268.305 120.443 268.223C120.092 268.148 119.773 268.061 119.488 267.959C119.207 267.857 118.967 267.734 118.768 267.59C118.572 267.445 118.422 267.275 118.316 267.08C118.211 266.885 118.158 266.656 118.158 266.395C118.158 266.145 118.213 265.908 118.322 265.686C118.436 265.463 118.594 265.266 118.797 265.094C119.004 264.922 119.252 264.787 119.541 264.689C119.83 264.592 120.152 264.543 120.508 264.543C121.016 264.543 121.449 264.633 121.809 264.812C122.168 264.992 122.443 265.232 122.635 265.533C122.826 265.83 122.922 266.16 122.922 266.523H121.838C121.838 266.348 121.785 266.178 121.68 266.014C121.578 265.846 121.428 265.707 121.229 265.598C121.033 265.488 120.793 265.434 120.508 265.434C120.207 265.434 119.963 265.48 119.775 265.574C119.592 265.664 119.457 265.779 119.371 265.92C119.289 266.061 119.248 266.209 119.248 266.365C119.248 266.482 119.268 266.588 119.307 266.682C119.35 266.771 119.424 266.855 119.529 266.934C119.635 267.008 119.783 267.078 119.975 267.145C120.166 267.211 120.41 267.277 120.707 267.344C121.227 267.461 121.654 267.602 121.99 267.766C122.326 267.93 122.576 268.131 122.74 268.369C122.904 268.607 122.986 268.896 122.986 269.236C122.986 269.514 122.928 269.768 122.811 269.998C122.697 270.229 122.531 270.428 122.312 270.596C122.098 270.76 121.84 270.889 121.539 270.982C121.242 271.072 120.908 271.117 120.537 271.117C119.979 271.117 119.506 271.018 119.119 270.818C118.732 270.619 118.439 270.361 118.24 270.045C118.041 269.729 117.941 269.395 117.941 269.043H119.031C119.047 269.34 119.133 269.576 119.289 269.752C119.445 269.924 119.637 270.047 119.863 270.121C120.09 270.191 120.314 270.227 120.537 270.227C120.834 270.227 121.082 270.188 121.281 270.109C121.484 270.031 121.639 269.924 121.744 269.787C121.85 269.65 121.902 269.494 121.902 269.318ZM128.148 269.916V266.652C128.148 266.402 128.098 266.186 127.996 266.002C127.898 265.814 127.75 265.67 127.551 265.568C127.352 265.467 127.105 265.416 126.812 265.416C126.539 265.416 126.299 265.463 126.092 265.557C125.889 265.65 125.729 265.773 125.611 265.926C125.498 266.078 125.441 266.242 125.441 266.418H124.357C124.357 266.191 124.416 265.967 124.533 265.744C124.65 265.521 124.818 265.32 125.037 265.141C125.26 264.957 125.525 264.812 125.834 264.707C126.146 264.598 126.494 264.543 126.877 264.543C127.338 264.543 127.744 264.621 128.096 264.777C128.451 264.934 128.729 265.17 128.928 265.486C129.131 265.799 129.232 266.191 129.232 266.664V269.617C129.232 269.828 129.25 270.053 129.285 270.291C129.324 270.529 129.381 270.734 129.455 270.906V271H128.324C128.27 270.875 128.227 270.709 128.195 270.502C128.164 270.291 128.148 270.096 128.148 269.916ZM128.336 267.156L128.348 267.918H127.252C126.943 267.918 126.668 267.943 126.426 267.994C126.184 268.041 125.98 268.113 125.816 268.211C125.652 268.309 125.527 268.432 125.441 268.58C125.355 268.725 125.312 268.895 125.312 269.09C125.312 269.289 125.357 269.471 125.447 269.635C125.537 269.799 125.672 269.93 125.852 270.027C126.035 270.121 126.26 270.168 126.525 270.168C126.857 270.168 127.15 270.098 127.404 269.957C127.658 269.816 127.859 269.645 128.008 269.441C128.16 269.238 128.242 269.041 128.254 268.85L128.717 269.371C128.689 269.535 128.615 269.717 128.494 269.916C128.373 270.115 128.211 270.307 128.008 270.49C127.809 270.67 127.57 270.82 127.293 270.941C127.02 271.059 126.711 271.117 126.367 271.117C125.938 271.117 125.561 271.033 125.236 270.865C124.916 270.697 124.666 270.473 124.486 270.191C124.311 269.906 124.223 269.588 124.223 269.236C124.223 268.896 124.289 268.598 124.422 268.34C124.555 268.078 124.746 267.861 124.996 267.689C125.246 267.514 125.547 267.381 125.898 267.291C126.25 267.201 126.643 267.156 127.076 267.156H128.336ZM135.045 264.66H136.029V270.865C136.029 271.424 135.916 271.9 135.689 272.295C135.463 272.689 135.146 272.988 134.74 273.191C134.338 273.398 133.873 273.502 133.346 273.502C133.127 273.502 132.869 273.467 132.572 273.396C132.279 273.33 131.99 273.215 131.705 273.051C131.424 272.891 131.188 272.674 130.996 272.4L131.564 271.756C131.83 272.076 132.107 272.299 132.396 272.424C132.689 272.549 132.979 272.611 133.264 272.611C133.607 272.611 133.904 272.547 134.154 272.418C134.404 272.289 134.598 272.098 134.734 271.844C134.875 271.594 134.945 271.285 134.945 270.918V266.055L135.045 264.66ZM130.68 267.9V267.777C130.68 267.293 130.736 266.854 130.85 266.459C130.967 266.061 131.133 265.719 131.348 265.434C131.566 265.148 131.83 264.93 132.139 264.777C132.447 264.621 132.795 264.543 133.182 264.543C133.58 264.543 133.928 264.613 134.225 264.754C134.525 264.891 134.779 265.092 134.986 265.357C135.197 265.619 135.363 265.936 135.484 266.307C135.605 266.678 135.689 267.098 135.736 267.566V268.105C135.693 268.57 135.609 268.988 135.484 269.359C135.363 269.73 135.197 270.047 134.986 270.309C134.779 270.57 134.525 270.771 134.225 270.912C133.924 271.049 133.572 271.117 133.17 271.117C132.791 271.117 132.447 271.037 132.139 270.877C131.834 270.717 131.572 270.492 131.354 270.203C131.135 269.914 130.967 269.574 130.85 269.184C130.736 268.789 130.68 268.361 130.68 267.9ZM131.764 267.777V267.9C131.764 268.217 131.795 268.514 131.857 268.791C131.924 269.068 132.023 269.312 132.156 269.523C132.293 269.734 132.467 269.9 132.678 270.021C132.889 270.139 133.141 270.197 133.434 270.197C133.793 270.197 134.09 270.121 134.324 269.969C134.559 269.816 134.744 269.615 134.881 269.365C135.021 269.115 135.131 268.844 135.209 268.551V267.139C135.166 266.924 135.1 266.717 135.01 266.518C134.924 266.314 134.811 266.135 134.67 265.979C134.533 265.818 134.363 265.691 134.16 265.598C133.957 265.504 133.719 265.457 133.445 265.457C133.148 265.457 132.893 265.52 132.678 265.645C132.467 265.766 132.293 265.934 132.156 266.148C132.023 266.359 131.924 266.605 131.857 266.887C131.795 267.164 131.764 267.461 131.764 267.777ZM140.307 271.117C139.865 271.117 139.465 271.043 139.105 270.895C138.75 270.742 138.443 270.529 138.186 270.256C137.932 269.982 137.736 269.658 137.6 269.283C137.463 268.908 137.395 268.498 137.395 268.053V267.807C137.395 267.291 137.471 266.832 137.623 266.43C137.775 266.023 137.982 265.68 138.244 265.398C138.506 265.117 138.803 264.904 139.135 264.76C139.467 264.615 139.811 264.543 140.166 264.543C140.619 264.543 141.01 264.621 141.338 264.777C141.67 264.934 141.941 265.152 142.152 265.434C142.363 265.711 142.52 266.039 142.621 266.418C142.723 266.793 142.773 267.203 142.773 267.648V268.135H138.039V267.25H141.689V267.168C141.674 266.887 141.615 266.613 141.514 266.348C141.416 266.082 141.26 265.863 141.045 265.691C140.83 265.52 140.537 265.434 140.166 265.434C139.92 265.434 139.693 265.486 139.486 265.592C139.279 265.693 139.102 265.846 138.953 266.049C138.805 266.252 138.689 266.5 138.607 266.793C138.525 267.086 138.484 267.424 138.484 267.807V268.053C138.484 268.354 138.525 268.637 138.607 268.902C138.693 269.164 138.816 269.395 138.977 269.594C139.141 269.793 139.338 269.949 139.568 270.062C139.803 270.176 140.068 270.232 140.365 270.232C140.748 270.232 141.072 270.154 141.338 269.998C141.604 269.842 141.836 269.633 142.035 269.371L142.691 269.893C142.555 270.1 142.381 270.297 142.17 270.484C141.959 270.672 141.699 270.824 141.391 270.941C141.086 271.059 140.725 271.117 140.307 271.117ZM144.057 270.426C144.057 270.242 144.113 270.088 144.227 269.963C144.344 269.834 144.512 269.77 144.73 269.77C144.949 269.77 145.115 269.834 145.229 269.963C145.346 270.088 145.404 270.242 145.404 270.426C145.404 270.605 145.346 270.758 145.229 270.883C145.115 271.008 144.949 271.07 144.73 271.07C144.512 271.07 144.344 271.008 144.227 270.883C144.113 270.758 144.057 270.605 144.057 270.426ZM147.221 270.426C147.221 270.242 147.277 270.088 147.391 269.963C147.508 269.834 147.676 269.77 147.895 269.77C148.113 269.77 148.279 269.834 148.393 269.963C148.51 270.088 148.568 270.242 148.568 270.426C148.568 270.605 148.51 270.758 148.393 270.883C148.279 271.008 148.113 271.07 147.895 271.07C147.676 271.07 147.508 271.008 147.391 270.883C147.277 270.758 147.221 270.605 147.221 270.426ZM150.385 270.426C150.385 270.242 150.441 270.088 150.555 269.963C150.672 269.834 150.84 269.77 151.059 269.77C151.277 269.77 151.443 269.834 151.557 269.963C151.674 270.088 151.732 270.242 151.732 270.426C151.732 270.605 151.674 270.758 151.557 270.883C151.443 271.008 151.277 271.07 151.059 271.07C150.84 271.07 150.672 271.008 150.555 270.883C150.441 270.758 150.385 270.605 150.385 270.426Z" fill="#616F76"/>
<path d="M369.843 259.791C369.696 259.644 369.477 259.595 369.281 259.667L356.352 264.378C356.141 264.455 356 264.656 356 264.881C356 265.106 356.141 265.307 356.353 265.384L361.599 267.288L363.82 265.067C363.999 264.888 364.29 264.888 364.469 265.067C364.648 265.247 364.648 265.537 364.469 265.717L362.294 267.892L364.25 273.281C364.327 273.493 364.528 273.634 364.753 273.634H364.754C364.979 273.634 365.18 273.493 365.257 273.282L369.968 260.353C370.039 260.158 369.99 259.938 369.843 259.791Z" fill="#12062E"/>
<path d="M368.771 271.634C368.771 273.153 367.54 274.384 366.021 274.384C364.503 274.384 363.271 273.153 363.271 271.634C363.271 270.115 364.503 268.884 366.021 268.884C367.54 268.884 368.771 270.115 368.771 271.634Z" fill="#12062E" stroke="white" stroke-width="0.5"/>
<path d="M366.303 270.223H365.739V271.352H364.609V271.917H365.739V273.046H366.303V271.917H367.433V271.352H366.303V270.223Z" fill="white"/>
<defs>
<filter id="filter0_d_340_1109" x="8.75977" y="50.9868" width="228.667" height="65.8174" filterUnits="userSpaceOnUse" color-interpolation-filters="sRGB">
<feFlood flood-opacity="0" result="BackgroundImageFix"/>
<feColorMatrix in="SourceAlpha" type="matrix" values="0 0 0 0 0 0 0 0 0 0 0 0 0 0 0 0 0 0 127 0" result="hardAlpha"/>
<feOffset dy="4"/>
<feGaussianBlur stdDeviation="9"/>
<feComposite in2="hardAlpha" operator="out"/>
<feColorMatrix type="matrix" values="0 0 0 0 0 0 0 0 0 0 0 0 0 0 0 0 0 0 0.25 0"/>
<feBlend mode="normal" in2="BackgroundImageFix" result="effect1_dropShadow_340_1109"/>
<feBlend mode="normal" in="SourceGraphic" in2="effect1_dropShadow_340_1109" result="shape"/>
</filter>
<filter id="filter1_d_340_1109" x="8.75977" y="135" width="228.667" height="65.8174" filterUnits="userSpaceOnUse" color-interpolation-filters="sRGB">
<feFlood flood-opacity="0" result="BackgroundImageFix"/>
<feColorMatrix in="SourceAlpha" type="matrix" values="0 0 0 0 0 0 0 0 0 0 0 0 0 0 0 0 0 0 127 0" result="hardAlpha"/>
<feOffset dy="4"/>
<feGaussianBlur stdDeviation="9"/>
<feComposite in2="hardAlpha" operator="out"/>
<feColorMatrix type="matrix" values="0 0 0 0 0 0 0 0 0 0 0 0 0 0 0 0 0 0 0.25 0"/>
<feBlend mode="normal" in2="BackgroundImageFix" result="effect1_dropShadow_340_1109"/>
<feBlend mode="normal" in="SourceGraphic" in2="effect1_dropShadow_340_1109" result="shape"/>
</filter>
<filter id="filter2_d_340_1109" x="186.135" y="92.8018" width="213.376" height="65.8174" filterUnits="userSpaceOnUse" color-interpolation-filters="sRGB">
<feFlood flood-opacity="0" result="BackgroundImageFix"/>
<feColorMatrix in="SourceAlpha" type="matrix" values="0 0 0 0 0 0 0 0 0 0 0 0 0 0 0 0 0 0 127 0" result="hardAlpha"/>
<feOffset dy="4"/>
<feGaussianBlur stdDeviation="9"/>
<feComposite in2="hardAlpha" operator="out"/>
<feColorMatrix type="matrix" values="0 0 0 0 0 0 0 0 0 0 0 0 0 0 0 0 0 0 0.25 0"/>
<feBlend mode="normal" in2="BackgroundImageFix" result="effect1_dropShadow_340_1109"/>
<feBlend mode="normal" in="SourceGraphic" in2="effect1_dropShadow_340_1109" result="shape"/>
</filter>
<filter id="filter3_d_340_1109" x="12" y="239" width="377" height="62.8574" filterUnits="userSpaceOnUse" color-interpolation-filters="sRGB">
<feFlood flood-opacity="0" result="BackgroundImageFix"/>
<feColorMatrix in="SourceAlpha" type="matrix" values="0 0 0 0 0 0 0 0 0 0 0 0 0 0 0 0 0 0 127 0" result="hardAlpha"/>
<feOffset dy="4"/>
<feGaussianBlur stdDeviation="5"/>
<feComposite in2="hardAlpha" operator="out"/>
<feColorMatrix type="matrix" values="0 0 0 0 0 0 0 0 0 0 0 0 0 0 0 0 0 0 0.1 0"/>
<feBlend mode="normal" in2="BackgroundImageFix" result="effect1_dropShadow_340_1109"/>
<feBlend mode="normal" in="SourceGraphic" in2="effect1_dropShadow_340_1109" result="shape"/>
</filter>
</defs>
</svg>
