<svg width="313" height="120" viewBox="0 0 313 120" fill="none" xmlns="http://www.w3.org/2000/svg">
<path d="M126.595 0.157759C137.092 -0.358102 147.887 0.467275 158.668 1.53124C160.551 1.71824 162.395 2.36306 164.24 2.86603C164.594 2.96275 165.168 3.45927 165.123 3.62692C164.994 4.08475 164.672 4.58126 164.278 4.86499C163.44 5.47112 162.415 5.24543 161.46 5.25188C154.155 5.30347 146.855 5.27768 139.549 5.38085C136.235 5.42599 132.92 5.90316 129.612 5.85157C118.051 5.68392 106.47 5.84512 94.9918 4.0783C94.0826 3.93644 92.5995 4.25885 92.5737 3.08527C92.5415 1.75693 94.1987 1.76338 95.1208 1.66665C100.757 1.06696 106.405 0.48662 112.06 0.202897C116.774 -0.0292405 121.507 0.157759 126.582 0.157759H126.595Z" fill="#C1FF72"/>
<path d="M36.9672 90.1738C28.3652 92.6693 20.1437 93.1142 12.3864 90.4124C3.94564 87.472 0.79889 79.9276 0.295926 71.5964C-0.374693 60.5634 0.0444436 49.5176 2.0692 38.5942C2.21751 37.7817 2.02406 36.4727 3.06868 36.505C4.39702 36.5437 4.04236 37.9365 4.04881 38.8199C4.1004 45.3713 3.88116 51.9357 4.17133 58.4742C4.41636 64.0197 4.98381 69.5459 5.68022 75.0785C6.70549 83.242 14.063 87.7235 21.2721 88.1878C25.2249 88.4392 29.1841 88.652 33.1434 88.8648C34.3234 88.9293 35.4389 89.1421 36.9736 90.1738H36.9672Z" fill="#C1FF72"/>
<path d="M108.389 86.9497C112.781 86.7304 117.159 86.9239 121.512 87.5558C122.46 87.6912 123.698 87.5687 123.769 88.8132C123.84 90.1029 122.705 90.5607 121.576 90.6639C118.487 90.9476 115.399 91.1991 112.31 91.4183C108.686 91.6762 105.056 91.8568 101.432 92.1212C96.6085 92.4694 94.1324 96.0997 91.4177 99.3755C90.9405 99.9493 90.5472 100.594 90.07 101.162C89.7347 101.561 89.3349 102.084 88.761 101.89C88.0517 101.645 88.0388 100.923 88.0066 100.265C87.7551 94.8875 94.7901 87.2334 100.342 86.9755C103.018 86.8529 105.701 86.9561 108.383 86.9561L108.389 86.9497Z" fill="#C1FF72"/>
<path d="M71.0362 5.90946C63.5369 6.05777 57.6625 5.87722 51.93 4.23291C51.1691 4.01367 49.944 4.07816 50.002 2.95616C50.0471 2.0534 50.9757 1.63427 51.8978 1.5053C61.6346 0.151167 71.3264 0.383304 80.9536 2.38871C81.8757 2.58216 83.4878 2.58861 83.2943 4.03302C83.1331 5.25174 81.6887 5.12277 80.657 5.36781C76.9493 6.27056 73.177 5.79984 71.0298 5.90301L71.0362 5.90946Z" fill="#C1FF72"/>
<g filter="url(#filter0_d_340_1058)">
<path fill-rule="evenodd" clip-rule="evenodd" d="M19 10C13.4772 10 9 14.4772 9 20V72C9 77.5229 13.4772 82 19 82H58.4276C62.0907 83.4887 64.9935 85.746 66.4543 88.4907C69.4381 94.1041 68.83 99.7689 66.6099 105.424C66.5801 105.501 66.5478 105.58 66.5151 105.659C66.2293 106.356 65.9072 107.14 66.8715 107.605C67.8543 108.082 68.7034 107.61 69.4849 107.175C69.6367 107.09 69.7859 107.007 69.933 106.933C74.338 104.719 77.1168 101.637 79.839 98.5687C81.8952 96.2532 83.5768 93.8139 85.2602 91.372C86.697 89.2878 88.1351 87.2018 89.8085 85.1889C90.9103 83.8646 92.1499 82.8064 93.5926 82H295C300.523 82 305 77.5229 305 72V20C305 14.4772 300.523 10 295 10H19Z" fill="#C1FF72"/>
</g>
<path d="M31.1299 31.7744V30.8037C31.1299 30.512 31.1823 30.2113 31.2871 29.9014C31.3965 29.5869 31.5446 29.2907 31.7314 29.0127C31.9183 28.7301 32.1257 28.4909 32.3535 28.2949L33.2217 28.8145C33.0485 29.097 32.9027 29.3955 32.7842 29.71C32.6657 30.0244 32.6064 30.3867 32.6064 30.7969V31.7744H31.1299ZM33.4131 31.7744V30.8037C33.4131 30.512 33.4655 30.2113 33.5703 29.9014C33.6797 29.5869 33.8278 29.2907 34.0146 29.0127C34.2015 28.7301 34.4089 28.4909 34.6367 28.2949L35.5049 28.8145C35.3317 29.097 35.1859 29.3955 35.0674 29.71C34.9489 30.0244 34.8896 30.3867 34.8896 30.7969V31.7744H33.4131ZM38.7041 29.0469V39H36.8242V29.0469H38.7041ZM42.7168 33.3467V34.8301H38.2119V33.3467H42.7168ZM43.2432 29.0469V30.5303H38.2119V29.0469H43.2432ZM46.2988 31.6035V39H44.4873V31.6035H46.2988ZM44.3643 29.6689C44.3643 29.4001 44.4554 29.1768 44.6377 28.999C44.8245 28.8213 45.0752 28.7324 45.3896 28.7324C45.7041 28.7324 45.9525 28.8213 46.1348 28.999C46.3216 29.1768 46.415 29.4001 46.415 29.6689C46.415 29.9333 46.3216 30.1543 46.1348 30.332C45.9525 30.5098 45.7041 30.5986 45.3896 30.5986C45.0752 30.5986 44.8245 30.5098 44.6377 30.332C44.4554 30.1543 44.3643 29.9333 44.3643 29.6689ZM49.8262 33.1143V39H48.0215V31.6035H49.7305L49.8262 33.1143ZM52.0752 31.5557L52.0479 33.2373C51.9476 33.2191 51.8337 33.2054 51.7061 33.1963C51.583 33.1872 51.4668 33.1826 51.3574 33.1826C51.0794 33.1826 50.8356 33.2214 50.626 33.2988C50.4163 33.3717 50.2409 33.4788 50.0996 33.6201C49.9629 33.7614 49.8581 33.9346 49.7852 34.1396C49.7122 34.3402 49.6712 34.568 49.6621 34.8232L49.2725 34.7754C49.2725 34.306 49.3203 33.8708 49.416 33.4697C49.5117 33.0687 49.6507 32.7178 49.833 32.417C50.0153 32.1162 50.2432 31.8838 50.5166 31.7197C50.7946 31.5511 51.1136 31.4668 51.4736 31.4668C51.5739 31.4668 51.681 31.4759 51.7949 31.4941C51.9134 31.5078 52.0068 31.5283 52.0752 31.5557ZM57.1338 36.9766C57.1338 36.8216 57.0928 36.6826 57.0107 36.5596C56.9287 36.4365 56.7738 36.3249 56.5459 36.2246C56.3226 36.1198 55.9945 36.0218 55.5615 35.9307C55.1787 35.8486 54.8255 35.7461 54.502 35.623C54.1784 35.5 53.9004 35.3519 53.668 35.1787C53.4355 35.001 53.2533 34.7936 53.1211 34.5566C52.9935 34.3151 52.9297 34.0371 52.9297 33.7227C52.9297 33.4173 52.9958 33.1302 53.1279 32.8613C53.2601 32.5879 53.4515 32.3486 53.7021 32.1436C53.9528 31.9339 54.2581 31.7699 54.6182 31.6514C54.9782 31.5283 55.3838 31.4668 55.835 31.4668C56.4639 31.4668 57.0039 31.5693 57.4551 31.7744C57.9108 31.9795 58.2594 32.262 58.501 32.6221C58.7425 32.9775 58.8633 33.3786 58.8633 33.8252H57.0586C57.0586 33.6292 57.013 33.4515 56.9219 33.292C56.8353 33.1325 56.7008 33.0049 56.5186 32.9092C56.3363 32.8089 56.1061 32.7588 55.8281 32.7588C55.5775 32.7588 55.3656 32.7998 55.1924 32.8818C55.0238 32.9639 54.8962 33.071 54.8096 33.2031C54.723 33.3353 54.6797 33.4811 54.6797 33.6406C54.6797 33.7591 54.7025 33.8662 54.748 33.9619C54.7982 34.0531 54.8779 34.1374 54.9873 34.2148C55.0967 34.2923 55.2448 34.363 55.4316 34.4268C55.623 34.4906 55.8577 34.5521 56.1357 34.6113C56.6872 34.7207 57.168 34.8665 57.5781 35.0488C57.9928 35.2266 58.3164 35.4635 58.5488 35.7598C58.7812 36.056 58.8975 36.4342 58.8975 36.8945C58.8975 37.2227 58.8268 37.5234 58.6855 37.7969C58.5443 38.0658 58.3392 38.3005 58.0703 38.501C57.8014 38.7015 57.4801 38.8587 57.1064 38.9727C56.7327 39.082 56.3112 39.1367 55.8418 39.1367C55.1628 39.1367 54.5885 39.016 54.1191 38.7744C53.6497 38.5283 53.2943 38.2184 53.0527 37.8447C52.8112 37.4665 52.6904 37.0745 52.6904 36.6689H54.4199C54.4336 36.9561 54.5111 37.1862 54.6523 37.3594C54.7936 37.5326 54.9714 37.6579 55.1855 37.7354C55.4043 37.8083 55.6344 37.8447 55.876 37.8447C56.1494 37.8447 56.3796 37.8083 56.5664 37.7354C56.7533 37.6579 56.8945 37.5553 56.9902 37.4277C57.0859 37.2956 57.1338 37.1452 57.1338 36.9766ZM63.7715 31.6035V32.9023H59.5332V31.6035H63.7715ZM60.668 29.7852H62.4795V36.8672C62.4795 37.0859 62.5091 37.2546 62.5684 37.373C62.6276 37.4915 62.7165 37.5713 62.835 37.6123C62.9535 37.6533 63.0947 37.6738 63.2588 37.6738C63.3773 37.6738 63.4867 37.667 63.5869 37.6533C63.6872 37.6396 63.7715 37.626 63.8398 37.6123L63.8467 38.9658C63.6963 39.016 63.5254 39.057 63.334 39.0889C63.1471 39.1208 62.9352 39.1367 62.6982 39.1367C62.2926 39.1367 61.9372 39.0684 61.6318 38.9316C61.3265 38.7904 61.0895 38.5648 60.9209 38.2549C60.7523 37.9404 60.668 37.5257 60.668 37.0107V29.7852ZM66.6768 37.373L66.6631 38.624C66.6631 39.1117 66.5423 39.6061 66.3008 40.1074C66.0592 40.6087 65.7471 41.0234 65.3643 41.3516L64.4072 40.8252C64.5303 40.6201 64.6442 40.4128 64.749 40.2031C64.8584 39.9935 64.945 39.7656 65.0088 39.5195C65.0771 39.278 65.1113 39.0068 65.1113 38.7061V37.373H66.6768ZM75.2559 31.6035V32.9023H71.0176V31.6035H75.2559ZM72.1523 29.7852H73.9639V36.8672C73.9639 37.0859 73.9935 37.2546 74.0527 37.373C74.112 37.4915 74.2008 37.5713 74.3193 37.6123C74.4378 37.6533 74.5791 37.6738 74.7432 37.6738C74.8617 37.6738 74.971 37.667 75.0713 37.6533C75.1715 37.6396 75.2559 37.626 75.3242 37.6123L75.3311 38.9658C75.1807 39.016 75.0098 39.057 74.8184 39.0889C74.6315 39.1208 74.4196 39.1367 74.1826 39.1367C73.777 39.1367 73.4215 39.0684 73.1162 38.9316C72.8109 38.7904 72.5739 38.5648 72.4053 38.2549C72.2367 37.9404 72.1523 37.5257 72.1523 37.0107V29.7852ZM79.7812 39.1367C79.2207 39.1367 78.7171 39.0456 78.2705 38.8633C77.8239 38.681 77.4434 38.4281 77.1289 38.1045C76.819 37.7764 76.5798 37.3958 76.4111 36.9629C76.2471 36.5254 76.165 36.056 76.165 35.5547V35.2812C76.165 34.7116 76.2471 34.1943 76.4111 33.7295C76.5752 33.2601 76.8076 32.8568 77.1084 32.5195C77.4092 32.1823 77.7692 31.9225 78.1885 31.7402C78.6077 31.5579 79.0703 31.4668 79.5762 31.4668C80.1003 31.4668 80.5628 31.5557 80.9639 31.7334C81.3649 31.9066 81.6999 32.1527 81.9688 32.4717C82.2376 32.7907 82.4404 33.1735 82.5771 33.6201C82.7139 34.0622 82.7822 34.5521 82.7822 35.0898V35.8486H76.9854V34.6045H81.0049V34.4678C80.9958 34.1807 80.9411 33.9186 80.8408 33.6816C80.7406 33.4401 80.5856 33.2487 80.376 33.1074C80.1663 32.9616 79.8952 32.8887 79.5625 32.8887C79.2936 32.8887 79.0589 32.9479 78.8584 33.0664C78.6624 33.1803 78.4984 33.3444 78.3662 33.5586C78.2386 33.7682 78.1429 34.0189 78.0791 34.3105C78.0153 34.6022 77.9834 34.9258 77.9834 35.2812V35.5547C77.9834 35.8646 78.0244 36.1517 78.1064 36.416C78.193 36.6803 78.3184 36.9105 78.4824 37.1064C78.651 37.2979 78.8516 37.4482 79.084 37.5576C79.321 37.6624 79.5898 37.7148 79.8906 37.7148C80.2689 37.7148 80.6107 37.6419 80.916 37.4961C81.2259 37.3457 81.4948 37.1247 81.7227 36.833L82.6318 37.7764C82.4769 38.0042 82.2673 38.223 82.0029 38.4326C81.7432 38.6423 81.4287 38.8132 81.0596 38.9453C80.6904 39.0729 80.2643 39.1367 79.7812 39.1367ZM85.9062 28.5V39H84.0947V28.5H85.9062ZM89.543 28.5V39H87.7314V28.5H89.543ZM98.252 31.6035V32.9023H94.0137V31.6035H98.252ZM95.1484 29.7852H96.96V36.8672C96.96 37.0859 96.9896 37.2546 97.0488 37.373C97.1081 37.4915 97.1969 37.5713 97.3154 37.6123C97.4339 37.6533 97.5752 37.6738 97.7393 37.6738C97.8577 37.6738 97.9671 37.667 98.0674 37.6533C98.1676 37.6396 98.252 37.626 98.3203 37.6123L98.3271 38.9658C98.1768 39.016 98.0059 39.057 97.8145 39.0889C97.6276 39.1208 97.4157 39.1367 97.1787 39.1367C96.7731 39.1367 96.4176 39.0684 96.1123 38.9316C95.807 38.7904 95.57 38.5648 95.4014 38.2549C95.2327 37.9404 95.1484 37.5257 95.1484 37.0107V29.7852ZM101.226 28.5V39H99.4141V28.5H101.226ZM100.938 35.0352H100.405C100.405 34.5202 100.474 34.0462 100.61 33.6133C100.747 33.1803 100.941 32.8044 101.191 32.4854C101.442 32.1618 101.741 31.9111 102.087 31.7334C102.438 31.5557 102.825 31.4668 103.249 31.4668C103.614 31.4668 103.944 31.5192 104.24 31.624C104.541 31.7243 104.799 31.8861 105.013 32.1094C105.227 32.3327 105.391 32.6243 105.505 32.9844C105.623 33.3398 105.683 33.7728 105.683 34.2832V39H103.864V34.2695C103.864 33.9277 103.814 33.6589 103.714 33.4629C103.614 33.2624 103.47 33.1188 103.283 33.0322C103.101 32.9456 102.875 32.9023 102.606 32.9023C102.315 32.9023 102.064 32.9593 101.854 33.0732C101.645 33.1826 101.472 33.3353 101.335 33.5312C101.203 33.7272 101.103 33.9528 101.034 34.208C100.97 34.4632 100.938 34.7389 100.938 35.0352ZM110.598 39.1367C110.037 39.1367 109.534 39.0456 109.087 38.8633C108.64 38.681 108.26 38.4281 107.945 38.1045C107.635 37.7764 107.396 37.3958 107.228 36.9629C107.063 36.5254 106.981 36.056 106.981 35.5547V35.2812C106.981 34.7116 107.063 34.1943 107.228 33.7295C107.392 33.2601 107.624 32.8568 107.925 32.5195C108.226 32.1823 108.586 31.9225 109.005 31.7402C109.424 31.5579 109.887 31.4668 110.393 31.4668C110.917 31.4668 111.379 31.5557 111.78 31.7334C112.181 31.9066 112.516 32.1527 112.785 32.4717C113.054 32.7907 113.257 33.1735 113.394 33.6201C113.53 34.0622 113.599 34.5521 113.599 35.0898V35.8486H107.802V34.6045H111.821V34.4678C111.812 34.1807 111.757 33.9186 111.657 33.6816C111.557 33.4401 111.402 33.2487 111.192 33.1074C110.983 32.9616 110.712 32.8887 110.379 32.8887C110.11 32.8887 109.875 32.9479 109.675 33.0664C109.479 33.1803 109.315 33.3444 109.183 33.5586C109.055 33.7682 108.959 34.0189 108.896 34.3105C108.832 34.6022 108.8 34.9258 108.8 35.2812V35.5547C108.8 35.8646 108.841 36.1517 108.923 36.416C109.009 36.6803 109.135 36.9105 109.299 37.1064C109.467 37.2979 109.668 37.4482 109.9 37.5576C110.137 37.6624 110.406 37.7148 110.707 37.7148C111.085 37.7148 111.427 37.6419 111.732 37.4961C112.042 37.3457 112.311 37.1247 112.539 36.833L113.448 37.7764C113.293 38.0042 113.084 38.223 112.819 38.4326C112.56 38.6423 112.245 38.8132 111.876 38.9453C111.507 39.0729 111.081 39.1367 110.598 39.1367ZM122.39 30.5576L119.553 39H117.563L121.282 29.0469H122.554L122.39 30.5576ZM124.762 39L121.911 30.5576L121.74 29.0469H123.019L126.758 39H124.762ZM124.632 35.3018V36.7852H119.293V35.3018H124.632ZM129.786 29.0469V39H127.906V29.0469H129.786ZM139.117 34.5635H136.574L136.561 33.2373H138.741C139.115 33.2373 139.427 33.1849 139.678 33.0801C139.928 32.9753 140.118 32.8226 140.245 32.6221C140.377 32.4215 140.443 32.1777 140.443 31.8906C140.443 31.5716 140.382 31.3118 140.259 31.1113C140.14 30.9108 139.953 30.765 139.698 30.6738C139.443 30.5781 139.119 30.5303 138.728 30.5303H137.183V39H135.303V29.0469H138.728C139.293 29.0469 139.796 29.1016 140.238 29.2109C140.685 29.3158 141.063 29.4798 141.373 29.7031C141.683 29.9264 141.918 30.2067 142.077 30.5439C142.241 30.8812 142.323 31.2822 142.323 31.7471C142.323 32.1572 142.228 32.5355 142.036 32.8818C141.849 33.2236 141.56 33.5016 141.168 33.7158C140.781 33.93 140.288 34.0531 139.691 34.085L139.117 34.5635ZM139.035 39H136.021L136.807 37.5234H139.035C139.409 37.5234 139.716 37.4619 139.958 37.3389C140.204 37.2158 140.386 37.0472 140.505 36.833C140.628 36.6143 140.689 36.3636 140.689 36.0811C140.689 35.7712 140.635 35.5023 140.525 35.2744C140.421 35.0465 140.252 34.8711 140.02 34.748C139.792 34.625 139.491 34.5635 139.117 34.5635H137.162L137.176 33.2373H139.664L140.095 33.75C140.669 33.7546 141.136 33.8685 141.496 34.0918C141.861 34.3151 142.13 34.6022 142.303 34.9531C142.476 35.304 142.562 35.6823 142.562 36.0879C142.562 36.7259 142.424 37.2614 142.146 37.6943C141.872 38.1273 141.471 38.4531 140.942 38.6719C140.418 38.8906 139.783 39 139.035 39ZM143.731 35.377V35.2334C143.731 34.6911 143.809 34.1921 143.964 33.7363C144.119 33.276 144.344 32.8773 144.641 32.54C144.937 32.2028 145.299 31.9408 145.728 31.7539C146.156 31.5625 146.644 31.4668 147.19 31.4668C147.746 31.4668 148.239 31.5625 148.667 31.7539C149.1 31.9408 149.465 32.2028 149.761 32.54C150.057 32.8773 150.283 33.276 150.438 33.7363C150.592 34.1921 150.67 34.6911 150.67 35.2334V35.377C150.67 35.9147 150.592 36.4137 150.438 36.874C150.283 37.3298 150.057 37.7285 149.761 38.0703C149.465 38.4076 149.102 38.6696 148.674 38.8564C148.245 39.0433 147.756 39.1367 147.204 39.1367C146.657 39.1367 146.167 39.0433 145.734 38.8564C145.301 38.6696 144.937 38.4076 144.641 38.0703C144.344 37.7285 144.119 37.3298 143.964 36.874C143.809 36.4137 143.731 35.9147 143.731 35.377ZM145.536 35.2334V35.377C145.536 35.7005 145.568 36.0036 145.632 36.2861C145.696 36.5687 145.794 36.8171 145.926 37.0312C146.058 37.2454 146.229 37.4141 146.438 37.5371C146.653 37.6556 146.908 37.7148 147.204 37.7148C147.496 37.7148 147.746 37.6556 147.956 37.5371C148.166 37.4141 148.337 37.2454 148.469 37.0312C148.605 36.8171 148.706 36.5687 148.77 36.2861C148.833 36.0036 148.865 35.7005 148.865 35.377V35.2334C148.865 34.9144 148.833 34.6159 148.77 34.3379C148.706 34.0553 148.605 33.807 148.469 33.5928C148.337 33.374 148.163 33.2031 147.949 33.0801C147.74 32.9525 147.487 32.8887 147.19 32.8887C146.899 32.8887 146.648 32.9525 146.438 33.0801C146.229 33.2031 146.058 33.374 145.926 33.5928C145.794 33.807 145.696 34.0553 145.632 34.3379C145.568 34.6159 145.536 34.9144 145.536 35.2334ZM155.482 31.6035V32.9023H151.244V31.6035H155.482ZM152.379 29.7852H154.19V36.8672C154.19 37.0859 154.22 37.2546 154.279 37.373C154.339 37.4915 154.427 37.5713 154.546 37.6123C154.664 37.6533 154.806 37.6738 154.97 37.6738C155.088 37.6738 155.198 37.667 155.298 37.6533C155.398 37.6396 155.482 37.626 155.551 37.6123L155.558 38.9658C155.407 39.016 155.236 39.057 155.045 39.0889C154.858 39.1208 154.646 39.1367 154.409 39.1367C154.004 39.1367 153.648 39.0684 153.343 38.9316C153.037 38.7904 152.8 38.5648 152.632 38.2549C152.463 37.9404 152.379 37.5257 152.379 37.0107V29.7852ZM162.229 37.2227L163.85 31.6035H164.998L164.656 33.5449L163.022 39H162.031L162.229 37.2227ZM161.334 31.6035L162.551 37.2363L162.66 39H161.519L159.577 31.6035H161.334ZM166.502 37.1543L167.691 31.6035H169.441L167.514 39H166.372L166.502 37.1543ZM165.176 31.6035L166.782 37.168L166.994 39H166.003L164.355 33.5449L164.021 31.6035H165.176ZM172.278 28.5V39H170.467V28.5H172.278ZM171.991 35.0352H171.458C171.458 34.5202 171.526 34.0462 171.663 33.6133C171.8 33.1803 171.993 32.8044 172.244 32.4854C172.495 32.1618 172.793 31.9111 173.14 31.7334C173.491 31.5557 173.878 31.4668 174.302 31.4668C174.666 31.4668 174.997 31.5192 175.293 31.624C175.594 31.7243 175.851 31.8861 176.065 32.1094C176.28 32.3327 176.444 32.6243 176.558 32.9844C176.676 33.3398 176.735 33.7728 176.735 34.2832V39H174.917V34.2695C174.917 33.9277 174.867 33.6589 174.767 33.4629C174.666 33.2624 174.523 33.1188 174.336 33.0322C174.154 32.9456 173.928 32.9023 173.659 32.9023C173.368 32.9023 173.117 32.9593 172.907 33.0732C172.698 33.1826 172.524 33.3353 172.388 33.5312C172.256 33.7272 172.155 33.9528 172.087 34.208C172.023 34.4632 171.991 34.7389 171.991 35.0352ZM182.402 37.4277V34.0166C182.402 33.766 182.359 33.5495 182.272 33.3672C182.186 33.1849 182.054 33.0436 181.876 32.9434C181.698 32.8431 181.473 32.793 181.199 32.793C180.958 32.793 180.746 32.834 180.563 32.916C180.386 32.998 180.249 33.1143 180.153 33.2646C180.058 33.4105 180.01 33.5791 180.01 33.7705H178.198C178.198 33.4652 178.271 33.1758 178.417 32.9023C178.563 32.6243 178.77 32.3783 179.039 32.1641C179.312 31.9453 179.638 31.7744 180.017 31.6514C180.399 31.5283 180.828 31.4668 181.302 31.4668C181.862 31.4668 182.361 31.5625 182.799 31.7539C183.241 31.9408 183.587 32.2233 183.838 32.6016C184.093 32.9798 184.221 33.4561 184.221 34.0303V37.2568C184.221 37.626 184.243 37.9427 184.289 38.207C184.339 38.4668 184.412 38.6924 184.508 38.8838V39H182.669C182.582 38.8132 182.516 38.5762 182.471 38.2891C182.425 37.9974 182.402 37.7103 182.402 37.4277ZM182.655 34.4951L182.669 35.5684H181.527C181.245 35.5684 180.996 35.598 180.782 35.6572C180.568 35.7119 180.393 35.7939 180.256 35.9033C180.119 36.0081 180.017 36.1357 179.948 36.2861C179.88 36.432 179.846 36.5983 179.846 36.7852C179.846 36.9674 179.887 37.1315 179.969 37.2773C180.055 37.4232 180.178 37.5394 180.338 37.626C180.502 37.708 180.693 37.749 180.912 37.749C181.231 37.749 181.509 37.6852 181.746 37.5576C181.983 37.4255 182.168 37.266 182.3 37.0791C182.432 36.8923 182.503 36.7145 182.512 36.5459L183.031 37.3252C182.967 37.512 182.872 37.7103 182.744 37.9199C182.617 38.1296 182.452 38.3255 182.252 38.5078C182.051 38.6901 181.81 38.8405 181.527 38.959C181.245 39.0775 180.917 39.1367 180.543 39.1367C180.064 39.1367 179.636 39.041 179.258 38.8496C178.88 38.6582 178.581 38.3962 178.362 38.0635C178.144 37.7308 178.034 37.3525 178.034 36.9287C178.034 36.5368 178.107 36.1904 178.253 35.8896C178.399 35.5889 178.615 35.3359 178.902 35.1309C179.189 34.9212 179.545 34.764 179.969 34.6592C180.397 34.5498 180.887 34.4951 181.438 34.4951H182.655ZM189.348 31.6035V32.9023H185.109V31.6035H189.348ZM186.244 29.7852H188.056V36.8672C188.056 37.0859 188.085 37.2546 188.145 37.373C188.204 37.4915 188.293 37.5713 188.411 37.6123C188.53 37.6533 188.671 37.6738 188.835 37.6738C188.953 37.6738 189.063 37.667 189.163 37.6533C189.263 37.6396 189.348 37.626 189.416 37.6123L189.423 38.9658C189.272 39.016 189.102 39.057 188.91 39.0889C188.723 39.1208 188.511 39.1367 188.274 39.1367C187.869 39.1367 187.513 39.0684 187.208 38.9316C186.903 38.7904 186.666 38.5648 186.497 38.2549C186.328 37.9404 186.244 37.5257 186.244 37.0107V29.7852ZM195.951 31.6035V39H194.14V31.6035H195.951ZM194.017 29.6689C194.017 29.4001 194.108 29.1768 194.29 28.999C194.477 28.8213 194.728 28.7324 195.042 28.7324C195.356 28.7324 195.605 28.8213 195.787 28.999C195.974 29.1768 196.067 29.4001 196.067 29.6689C196.067 29.9333 195.974 30.1543 195.787 30.332C195.605 30.5098 195.356 30.5986 195.042 30.5986C194.728 30.5986 194.477 30.5098 194.29 30.332C194.108 30.1543 194.017 29.9333 194.017 29.6689ZM201.174 31.6035V32.9023H196.936V31.6035H201.174ZM198.07 29.7852H199.882V36.8672C199.882 37.0859 199.911 37.2546 199.971 37.373C200.03 37.4915 200.119 37.5713 200.237 37.6123C200.356 37.6533 200.497 37.6738 200.661 37.6738C200.78 37.6738 200.889 37.667 200.989 37.6533C201.09 37.6396 201.174 37.626 201.242 37.6123L201.249 38.9658C201.099 39.016 200.928 39.057 200.736 39.0889C200.549 39.1208 200.338 39.1367 200.101 39.1367C199.695 39.1367 199.34 39.0684 199.034 38.9316C198.729 38.7904 198.492 38.5648 198.323 38.2549C198.155 37.9404 198.07 37.5257 198.07 37.0107V29.7852ZM204.134 28.5V29.5049C204.134 29.792 204.079 30.0928 203.97 30.4072C203.865 30.7171 203.719 31.0133 203.532 31.2959C203.35 31.5739 203.143 31.8132 202.91 32.0137L202.035 31.4873C202.217 31.2093 202.366 30.9131 202.479 30.5986C202.598 30.2796 202.657 29.9173 202.657 29.5117V28.5H204.134ZM208.454 36.9766C208.454 36.8216 208.413 36.6826 208.331 36.5596C208.249 36.4365 208.094 36.3249 207.866 36.2246C207.643 36.1198 207.315 36.0218 206.882 35.9307C206.499 35.8486 206.146 35.7461 205.822 35.623C205.499 35.5 205.221 35.3519 204.988 35.1787C204.756 35.001 204.574 34.7936 204.441 34.5566C204.314 34.3151 204.25 34.0371 204.25 33.7227C204.25 33.4173 204.316 33.1302 204.448 32.8613C204.58 32.5879 204.772 32.3486 205.022 32.1436C205.273 31.9339 205.578 31.7699 205.938 31.6514C206.299 31.5283 206.704 31.4668 207.155 31.4668C207.784 31.4668 208.324 31.5693 208.775 31.7744C209.231 31.9795 209.58 32.262 209.821 32.6221C210.063 32.9775 210.184 33.3786 210.184 33.8252H208.379C208.379 33.6292 208.333 33.4515 208.242 33.292C208.156 33.1325 208.021 33.0049 207.839 32.9092C207.657 32.8089 207.426 32.7588 207.148 32.7588C206.898 32.7588 206.686 32.7998 206.513 32.8818C206.344 32.9639 206.216 33.071 206.13 33.2031C206.043 33.3353 206 33.4811 206 33.6406C206 33.7591 206.023 33.8662 206.068 33.9619C206.118 34.0531 206.198 34.1374 206.308 34.2148C206.417 34.2923 206.565 34.363 206.752 34.4268C206.943 34.4906 207.178 34.5521 207.456 34.6113C208.007 34.7207 208.488 34.8665 208.898 35.0488C209.313 35.2266 209.637 35.4635 209.869 35.7598C210.102 36.056 210.218 36.4342 210.218 36.8945C210.218 37.2227 210.147 37.5234 210.006 37.7969C209.865 38.0658 209.66 38.3005 209.391 38.501C209.122 38.7015 208.8 38.8587 208.427 38.9727C208.053 39.082 207.632 39.1367 207.162 39.1367C206.483 39.1367 205.909 39.016 205.439 38.7744C204.97 38.5283 204.615 38.2184 204.373 37.8447C204.132 37.4665 204.011 37.0745 204.011 36.6689H205.74C205.754 36.9561 205.831 37.1862 205.973 37.3594C206.114 37.5326 206.292 37.6579 206.506 37.7354C206.725 37.8083 206.955 37.8447 207.196 37.8447C207.47 37.8447 207.7 37.8083 207.887 37.7354C208.074 37.6579 208.215 37.5553 208.311 37.4277C208.406 37.2956 208.454 37.1452 208.454 36.9766ZM215.167 31.6035H216.985V39.5469C216.985 40.071 216.89 40.5153 216.698 40.8799C216.511 41.2445 216.24 41.5202 215.885 41.707C215.529 41.8939 215.094 41.9873 214.579 41.9873C214.42 41.9873 214.26 41.9782 214.101 41.96C213.941 41.9417 213.784 41.9121 213.629 41.8711L213.636 40.4766C213.736 40.4948 213.839 40.5085 213.943 40.5176C214.048 40.5312 214.153 40.5381 214.258 40.5381C214.454 40.5381 214.618 40.5039 214.75 40.4355C214.887 40.3672 214.989 40.2601 215.058 40.1143C215.131 39.9684 215.167 39.7793 215.167 39.5469V31.6035ZM215.017 29.6689C215.017 29.4001 215.108 29.1768 215.29 28.999C215.477 28.8213 215.728 28.7324 216.042 28.7324C216.356 28.7324 216.605 28.8213 216.787 28.999C216.974 29.1768 217.067 29.4001 217.067 29.6689C217.067 29.9333 216.974 30.1543 216.787 30.332C216.605 30.5098 216.356 30.5986 216.042 30.5986C215.728 30.5986 215.477 30.5098 215.29 30.332C215.108 30.1543 215.017 29.9333 215.017 29.6689ZM218.339 35.377V35.2334C218.339 34.6911 218.416 34.1921 218.571 33.7363C218.726 33.276 218.952 32.8773 219.248 32.54C219.544 32.2028 219.907 31.9408 220.335 31.7539C220.763 31.5625 221.251 31.4668 221.798 31.4668C222.354 31.4668 222.846 31.5625 223.274 31.7539C223.707 31.9408 224.072 32.2028 224.368 32.54C224.664 32.8773 224.89 33.276 225.045 33.7363C225.2 34.1921 225.277 34.6911 225.277 35.2334V35.377C225.277 35.9147 225.2 36.4137 225.045 36.874C224.89 37.3298 224.664 37.7285 224.368 38.0703C224.072 38.4076 223.71 38.6696 223.281 38.8564C222.853 39.0433 222.363 39.1367 221.812 39.1367C221.265 39.1367 220.775 39.0433 220.342 38.8564C219.909 38.6696 219.544 38.4076 219.248 38.0703C218.952 37.7285 218.726 37.3298 218.571 36.874C218.416 36.4137 218.339 35.9147 218.339 35.377ZM220.144 35.2334V35.377C220.144 35.7005 220.175 36.0036 220.239 36.2861C220.303 36.5687 220.401 36.8171 220.533 37.0312C220.665 37.2454 220.836 37.4141 221.046 37.5371C221.26 37.6556 221.515 37.7148 221.812 37.7148C222.103 37.7148 222.354 37.6556 222.563 37.5371C222.773 37.4141 222.944 37.2454 223.076 37.0312C223.213 36.8171 223.313 36.5687 223.377 36.2861C223.441 36.0036 223.473 35.7005 223.473 35.377V35.2334C223.473 34.9144 223.441 34.6159 223.377 34.3379C223.313 34.0553 223.213 33.807 223.076 33.5928C222.944 33.374 222.771 33.2031 222.557 33.0801C222.347 32.9525 222.094 32.8887 221.798 32.8887C221.506 32.8887 221.256 32.9525 221.046 33.0801C220.836 33.2031 220.665 33.374 220.533 33.5928C220.401 33.807 220.303 34.0553 220.239 34.3379C220.175 34.6159 220.144 34.9144 220.144 35.2334ZM226.583 28.5H228.395V37.3662L228.217 39H226.583V28.5ZM233.152 35.2266V35.3701C233.152 35.9215 233.091 36.4274 232.968 36.8877C232.849 37.348 232.669 37.7467 232.428 38.084C232.186 38.4167 231.885 38.6764 231.525 38.8633C231.17 39.0456 230.753 39.1367 230.274 39.1367C229.819 39.1367 229.422 39.0479 229.085 38.8701C228.752 38.6924 228.472 38.4417 228.244 38.1182C228.016 37.79 227.834 37.4049 227.697 36.9629C227.561 36.5163 227.458 36.0286 227.39 35.5V35.1104C227.458 34.5771 227.561 34.0895 227.697 33.6475C227.834 33.2054 228.016 32.8203 228.244 32.4922C228.472 32.1641 228.752 31.9111 229.085 31.7334C229.418 31.5557 229.81 31.4668 230.261 31.4668C230.744 31.4668 231.165 31.5602 231.525 31.7471C231.89 31.9294 232.191 32.1891 232.428 32.5264C232.669 32.859 232.849 33.2555 232.968 33.7158C233.091 34.1715 233.152 34.6751 233.152 35.2266ZM231.341 35.3701V35.2266C231.341 34.9121 231.316 34.6159 231.266 34.3379C231.215 34.0553 231.133 33.807 231.02 33.5928C230.906 33.3786 230.751 33.21 230.555 33.0869C230.359 32.9639 230.113 32.9023 229.816 32.9023C229.534 32.9023 229.292 32.9502 229.092 33.0459C228.896 33.1416 228.732 33.2738 228.6 33.4424C228.472 33.611 228.372 33.8092 228.299 34.0371C228.23 34.265 228.185 34.5111 228.162 34.7754V35.8418C228.194 36.1927 228.269 36.5094 228.388 36.792C228.506 37.07 228.682 37.291 228.914 37.4551C229.151 37.6191 229.456 37.7012 229.83 37.7012C230.122 37.7012 230.366 37.6442 230.562 37.5303C230.757 37.4118 230.912 37.2477 231.026 37.0381C231.14 36.8239 231.22 36.5755 231.266 36.293C231.316 36.0104 231.341 35.7028 231.341 35.3701ZM239.865 31.6035V39H238.054V31.6035H239.865ZM237.931 29.6689C237.931 29.4001 238.022 29.1768 238.204 28.999C238.391 28.8213 238.642 28.7324 238.956 28.7324C239.271 28.7324 239.519 28.8213 239.701 28.999C239.888 29.1768 239.981 29.4001 239.981 29.6689C239.981 29.9333 239.888 30.1543 239.701 30.332C239.519 30.5098 239.271 30.5986 238.956 30.5986C238.642 30.5986 238.391 30.5098 238.204 30.332C238.022 30.1543 237.931 29.9333 237.931 29.6689ZM245.655 36.9766C245.655 36.8216 245.614 36.6826 245.532 36.5596C245.45 36.4365 245.295 36.3249 245.067 36.2246C244.844 36.1198 244.516 36.0218 244.083 35.9307C243.7 35.8486 243.347 35.7461 243.023 35.623C242.7 35.5 242.422 35.3519 242.189 35.1787C241.957 35.001 241.775 34.7936 241.643 34.5566C241.515 34.3151 241.451 34.0371 241.451 33.7227C241.451 33.4173 241.517 33.1302 241.649 32.8613C241.782 32.5879 241.973 32.3486 242.224 32.1436C242.474 31.9339 242.78 31.7699 243.14 31.6514C243.5 31.5283 243.905 31.4668 244.356 31.4668C244.985 31.4668 245.525 31.5693 245.977 31.7744C246.432 31.9795 246.781 32.262 247.022 32.6221C247.264 32.9775 247.385 33.3786 247.385 33.8252H245.58C245.58 33.6292 245.535 33.4515 245.443 33.292C245.357 33.1325 245.222 33.0049 245.04 32.9092C244.858 32.8089 244.628 32.7588 244.35 32.7588C244.099 32.7588 243.887 32.7998 243.714 32.8818C243.545 32.9639 243.418 33.071 243.331 33.2031C243.244 33.3353 243.201 33.4811 243.201 33.6406C243.201 33.7591 243.224 33.8662 243.27 33.9619C243.32 34.0531 243.399 34.1374 243.509 34.2148C243.618 34.2923 243.766 34.363 243.953 34.4268C244.145 34.4906 244.379 34.5521 244.657 34.6113C245.209 34.7207 245.689 34.8665 246.1 35.0488C246.514 35.2266 246.838 35.4635 247.07 35.7598C247.303 36.056 247.419 36.4342 247.419 36.8945C247.419 37.2227 247.348 37.5234 247.207 37.7969C247.066 38.0658 246.861 38.3005 246.592 38.501C246.323 38.7015 246.002 38.8587 245.628 38.9727C245.254 39.082 244.833 39.1367 244.363 39.1367C243.684 39.1367 243.11 39.016 242.641 38.7744C242.171 38.5283 241.816 38.2184 241.574 37.8447C241.333 37.4665 241.212 37.0745 241.212 36.6689H242.941C242.955 36.9561 243.033 37.1862 243.174 37.3594C243.315 37.5326 243.493 37.6579 243.707 37.7354C243.926 37.8083 244.156 37.8447 244.397 37.8447C244.671 37.8447 244.901 37.8083 245.088 37.7354C245.275 37.6579 245.416 37.5553 245.512 37.4277C245.607 37.2956 245.655 37.1452 245.655 36.9766ZM248.868 38.1182C248.868 37.8447 248.962 37.6146 249.148 37.4277C249.335 37.2409 249.588 37.1475 249.907 37.1475C250.226 37.1475 250.479 37.2409 250.666 37.4277C250.853 37.6146 250.946 37.8447 250.946 38.1182C250.946 38.387 250.853 38.6149 250.666 38.8018C250.479 38.984 250.226 39.0752 249.907 39.0752C249.588 39.0752 249.335 38.984 249.148 38.8018C248.962 38.6149 248.868 38.387 248.868 38.1182ZM262.998 33.1553V34.6318H257.762V33.1553H262.998ZM258.274 29.0469V39H256.395V29.0469H258.274ZM264.393 29.0469V39H262.513V29.0469H264.393ZM265.849 35.377V35.2334C265.849 34.6911 265.926 34.1921 266.081 33.7363C266.236 33.276 266.462 32.8773 266.758 32.54C267.054 32.2028 267.416 31.9408 267.845 31.7539C268.273 31.5625 268.761 31.4668 269.308 31.4668C269.864 31.4668 270.356 31.5625 270.784 31.7539C271.217 31.9408 271.582 32.2028 271.878 32.54C272.174 32.8773 272.4 33.276 272.555 33.7363C272.71 34.1921 272.787 34.6911 272.787 35.2334V35.377C272.787 35.9147 272.71 36.4137 272.555 36.874C272.4 37.3298 272.174 37.7285 271.878 38.0703C271.582 38.4076 271.219 38.6696 270.791 38.8564C270.363 39.0433 269.873 39.1367 269.321 39.1367C268.774 39.1367 268.285 39.0433 267.852 38.8564C267.419 38.6696 267.054 38.4076 266.758 38.0703C266.462 37.7285 266.236 37.3298 266.081 36.874C265.926 36.4137 265.849 35.9147 265.849 35.377ZM267.653 35.2334V35.377C267.653 35.7005 267.685 36.0036 267.749 36.2861C267.813 36.5687 267.911 36.8171 268.043 37.0312C268.175 37.2454 268.346 37.4141 268.556 37.5371C268.77 37.6556 269.025 37.7148 269.321 37.7148C269.613 37.7148 269.864 37.6556 270.073 37.5371C270.283 37.4141 270.454 37.2454 270.586 37.0312C270.723 36.8171 270.823 36.5687 270.887 36.2861C270.951 36.0036 270.982 35.7005 270.982 35.377V35.2334C270.982 34.9144 270.951 34.6159 270.887 34.3379C270.823 34.0553 270.723 33.807 270.586 33.5928C270.454 33.374 270.281 33.2031 270.066 33.0801C269.857 32.9525 269.604 32.8887 269.308 32.8887C269.016 32.8887 268.765 32.9525 268.556 33.0801C268.346 33.2031 268.175 33.374 268.043 33.5928C267.911 33.807 267.813 34.0553 267.749 34.3379C267.685 34.6159 267.653 34.9144 267.653 35.2334ZM276.157 37.2227L277.777 31.6035H278.926L278.584 33.5449L276.95 39H275.959L276.157 37.2227ZM275.262 31.6035L276.479 37.2363L276.588 39H275.446L273.505 31.6035H275.262ZM280.43 37.1543L281.619 31.6035H283.369L281.441 39H280.3L280.43 37.1543ZM279.104 31.6035L280.71 37.168L280.922 39H279.931L278.283 33.5449L277.948 31.6035H279.104ZM41.1514 61.4277V58.0166C41.1514 57.766 41.1081 57.5495 41.0215 57.3672C40.9349 57.1849 40.8027 57.0436 40.625 56.9434C40.4473 56.8431 40.2217 56.793 39.9482 56.793C39.7067 56.793 39.4948 56.834 39.3125 56.916C39.1348 56.998 38.998 57.1143 38.9023 57.2646C38.8066 57.4105 38.7588 57.5791 38.7588 57.7705H36.9473C36.9473 57.4652 37.0202 57.1758 37.166 56.9023C37.3118 56.6243 37.5192 56.3783 37.7881 56.1641C38.0615 55.9453 38.3874 55.7744 38.7656 55.6514C39.1484 55.5283 39.5768 55.4668 40.0508 55.4668C40.6113 55.4668 41.1104 55.5625 41.5479 55.7539C41.9899 55.9408 42.3363 56.2233 42.5869 56.6016C42.8421 56.9798 42.9697 57.4561 42.9697 58.0303V61.2568C42.9697 61.626 42.9925 61.9427 43.0381 62.207C43.0882 62.4668 43.1611 62.6924 43.2568 62.8838V63H41.418C41.3314 62.8132 41.2653 62.5762 41.2197 62.2891C41.1742 61.9974 41.1514 61.7103 41.1514 61.4277ZM41.4043 58.4951L41.418 59.5684H40.2764C39.9938 59.5684 39.7454 59.598 39.5312 59.6572C39.3171 59.7119 39.1416 59.7939 39.0049 59.9033C38.8682 60.0081 38.7656 60.1357 38.6973 60.2861C38.6289 60.432 38.5947 60.5983 38.5947 60.7852C38.5947 60.9674 38.6357 61.1315 38.7178 61.2773C38.8044 61.4232 38.9274 61.5394 39.0869 61.626C39.251 61.708 39.4424 61.749 39.6611 61.749C39.9801 61.749 40.2581 61.6852 40.4951 61.5576C40.7321 61.4255 40.9167 61.266 41.0488 61.0791C41.181 60.8923 41.2516 60.7145 41.2607 60.5459L41.7803 61.3252C41.7165 61.512 41.6208 61.7103 41.4932 61.9199C41.3656 62.1296 41.2015 62.3255 41.001 62.5078C40.8005 62.6901 40.5589 62.8405 40.2764 62.959C39.9938 63.0775 39.6657 63.1367 39.292 63.1367C38.8135 63.1367 38.3851 63.041 38.0068 62.8496C37.6286 62.6582 37.3301 62.3962 37.1113 62.0635C36.8926 61.7308 36.7832 61.3525 36.7832 60.9287C36.7832 60.5368 36.8561 60.1904 37.002 59.8896C37.1478 59.5889 37.3643 59.3359 37.6514 59.1309C37.9385 58.9212 38.2939 58.764 38.7178 58.6592C39.1462 58.5498 39.6361 58.4951 40.1875 58.4951H41.4043ZM44.5898 52.5H46.4014V61.3662L46.2236 63H44.5898V52.5ZM51.1592 59.2266V59.3701C51.1592 59.9215 51.0977 60.4274 50.9746 60.8877C50.8561 61.348 50.6761 61.7467 50.4346 62.084C50.193 62.4167 49.8923 62.6764 49.5322 62.8633C49.1768 63.0456 48.7598 63.1367 48.2812 63.1367C47.8255 63.1367 47.429 63.0479 47.0918 62.8701C46.7591 62.6924 46.4788 62.4417 46.251 62.1182C46.0231 61.79 45.8408 61.4049 45.7041 60.9629C45.5674 60.5163 45.4648 60.0286 45.3965 59.5V59.1104C45.4648 58.5771 45.5674 58.0895 45.7041 57.6475C45.8408 57.2054 46.0231 56.8203 46.251 56.4922C46.4788 56.1641 46.7591 55.9111 47.0918 55.7334C47.4245 55.5557 47.8164 55.4668 48.2676 55.4668C48.7507 55.4668 49.1722 55.5602 49.5322 55.7471C49.8968 55.9294 50.1976 56.1891 50.4346 56.5264C50.6761 56.859 50.8561 57.2555 50.9746 57.7158C51.0977 58.1715 51.1592 58.6751 51.1592 59.2266ZM49.3477 59.3701V59.2266C49.3477 58.9121 49.3226 58.6159 49.2725 58.3379C49.2223 58.0553 49.1403 57.807 49.0264 57.5928C48.9124 57.3786 48.7575 57.21 48.5615 57.0869C48.3656 56.9639 48.1195 56.9023 47.8232 56.9023C47.5407 56.9023 47.2992 56.9502 47.0986 57.0459C46.9027 57.1416 46.7386 57.2738 46.6064 57.4424C46.4788 57.611 46.3786 57.8092 46.3057 58.0371C46.2373 58.265 46.1917 58.5111 46.1689 58.7754V59.8418C46.2008 60.1927 46.276 60.5094 46.3945 60.792C46.513 61.07 46.6885 61.291 46.9209 61.4551C47.1579 61.6191 47.4632 61.7012 47.8369 61.7012C48.1286 61.7012 48.3724 61.6442 48.5684 61.5303C48.7643 61.4118 48.9193 61.2477 49.0332 61.0381C49.1471 60.8239 49.2269 60.5755 49.2725 60.293C49.3226 60.0104 49.3477 59.7028 49.3477 59.3701ZM52.1504 59.377V59.2334C52.1504 58.6911 52.2279 58.1921 52.3828 57.7363C52.5378 57.276 52.7633 56.8773 53.0596 56.54C53.3558 56.2028 53.7181 55.9408 54.1465 55.7539C54.5749 55.5625 55.0625 55.4668 55.6094 55.4668C56.1654 55.4668 56.6576 55.5625 57.0859 55.7539C57.5189 55.9408 57.8835 56.2028 58.1797 56.54C58.4759 56.8773 58.7015 57.276 58.8564 57.7363C59.0114 58.1921 59.0889 58.6911 59.0889 59.2334V59.377C59.0889 59.9147 59.0114 60.4137 58.8564 60.874C58.7015 61.3298 58.4759 61.7285 58.1797 62.0703C57.8835 62.4076 57.5212 62.6696 57.0928 62.8564C56.6644 63.0433 56.1745 63.1367 55.623 63.1367C55.0762 63.1367 54.5863 63.0433 54.1533 62.8564C53.7204 62.6696 53.3558 62.4076 53.0596 62.0703C52.7633 61.7285 52.5378 61.3298 52.3828 60.874C52.2279 60.4137 52.1504 59.9147 52.1504 59.377ZM53.9551 59.2334V59.377C53.9551 59.7005 53.987 60.0036 54.0508 60.2861C54.1146 60.5687 54.2126 60.8171 54.3447 61.0312C54.4769 61.2454 54.6478 61.4141 54.8574 61.5371C55.0716 61.6556 55.3268 61.7148 55.623 61.7148C55.9147 61.7148 56.1654 61.6556 56.375 61.5371C56.5846 61.4141 56.7555 61.2454 56.8877 61.0312C57.0244 60.8171 57.1247 60.5687 57.1885 60.2861C57.2523 60.0036 57.2842 59.7005 57.2842 59.377V59.2334C57.2842 58.9144 57.2523 58.6159 57.1885 58.3379C57.1247 58.0553 57.0244 57.807 56.8877 57.5928C56.7555 57.374 56.5824 57.2031 56.3682 57.0801C56.1585 56.9525 55.9056 56.8887 55.6094 56.8887C55.3177 56.8887 55.0671 56.9525 54.8574 57.0801C54.6478 57.2031 54.4769 57.374 54.3447 57.5928C54.2126 57.807 54.1146 58.0553 54.0508 58.3379C53.987 58.6159 53.9551 58.9144 53.9551 59.2334ZM64.8037 61.2432V55.6035H66.6221V63H64.9131L64.8037 61.2432ZM65.0361 59.7119L65.5967 59.6982C65.5967 60.195 65.542 60.653 65.4326 61.0723C65.3232 61.4915 65.1523 61.8561 64.9199 62.166C64.6921 62.4714 64.4027 62.7106 64.0518 62.8838C63.7008 63.0524 63.2861 63.1367 62.8076 63.1367C62.443 63.1367 62.1104 63.0866 61.8096 62.9863C61.5088 62.8815 61.249 62.7197 61.0303 62.501C60.8161 62.2777 60.6497 61.9928 60.5312 61.6465C60.4128 61.2956 60.3535 60.874 60.3535 60.3818V55.6035H62.1582V60.3955C62.1582 60.6416 62.1855 60.8467 62.2402 61.0107C62.2995 61.1748 62.3792 61.3092 62.4795 61.4141C62.5843 61.5143 62.7051 61.5872 62.8418 61.6328C62.9831 61.6738 63.1335 61.6943 63.293 61.6943C63.7305 61.6943 64.0745 61.6077 64.3252 61.4346C64.5804 61.2568 64.7627 61.0199 64.8721 60.7236C64.9814 60.4229 65.0361 60.0856 65.0361 59.7119ZM71.7217 55.6035V56.9023H67.4834V55.6035H71.7217ZM68.6182 53.7852H70.4297V60.8672C70.4297 61.0859 70.4593 61.2546 70.5186 61.373C70.5778 61.4915 70.6667 61.5713 70.7852 61.6123C70.9036 61.6533 71.0449 61.6738 71.209 61.6738C71.3275 61.6738 71.4368 61.667 71.5371 61.6533C71.6374 61.6396 71.7217 61.626 71.79 61.6123L71.7969 62.9658C71.6465 63.016 71.4756 63.057 71.2842 63.0889C71.0973 63.1208 70.8854 63.1367 70.6484 63.1367C70.2428 63.1367 69.8874 63.0684 69.582 62.9316C69.2767 62.7904 69.0397 62.5648 68.8711 62.2549C68.7025 61.9404 68.6182 61.5257 68.6182 61.0107V53.7852ZM80.4854 61.4277V58.0166C80.4854 57.766 80.4421 57.5495 80.3555 57.3672C80.2689 57.1849 80.1367 57.0436 79.959 56.9434C79.7812 56.8431 79.5557 56.793 79.2822 56.793C79.0407 56.793 78.8288 56.834 78.6465 56.916C78.4688 56.998 78.332 57.1143 78.2363 57.2646C78.1406 57.4105 78.0928 57.5791 78.0928 57.7705H76.2812C76.2812 57.4652 76.3542 57.1758 76.5 56.9023C76.6458 56.6243 76.8532 56.3783 77.1221 56.1641C77.3955 55.9453 77.7214 55.7744 78.0996 55.6514C78.4824 55.5283 78.9108 55.4668 79.3848 55.4668C79.9453 55.4668 80.4443 55.5625 80.8818 55.7539C81.3239 55.9408 81.6702 56.2233 81.9209 56.6016C82.1761 56.9798 82.3037 57.4561 82.3037 58.0303V61.2568C82.3037 61.626 82.3265 61.9427 82.3721 62.207C82.4222 62.4668 82.4951 62.6924 82.5908 62.8838V63H80.752C80.6654 62.8132 80.5993 62.5762 80.5537 62.2891C80.5081 61.9974 80.4854 61.7103 80.4854 61.4277ZM80.7383 58.4951L80.752 59.5684H79.6104C79.3278 59.5684 79.0794 59.598 78.8652 59.6572C78.651 59.7119 78.4756 59.7939 78.3389 59.9033C78.2021 60.0081 78.0996 60.1357 78.0312 60.2861C77.9629 60.432 77.9287 60.5983 77.9287 60.7852C77.9287 60.9674 77.9697 61.1315 78.0518 61.2773C78.1383 61.4232 78.2614 61.5394 78.4209 61.626C78.585 61.708 78.7764 61.749 78.9951 61.749C79.3141 61.749 79.5921 61.6852 79.8291 61.5576C80.0661 61.4255 80.2507 61.266 80.3828 61.0791C80.515 60.8923 80.5856 60.7145 80.5947 60.5459L81.1143 61.3252C81.0505 61.512 80.9548 61.7103 80.8271 61.9199C80.6995 62.1296 80.5355 62.3255 80.335 62.5078C80.1344 62.6901 79.8929 62.8405 79.6104 62.959C79.3278 63.0775 78.9997 63.1367 78.626 63.1367C78.1475 63.1367 77.7191 63.041 77.3408 62.8496C76.9626 62.6582 76.6641 62.3962 76.4453 62.0635C76.2266 61.7308 76.1172 61.3525 76.1172 60.9287C76.1172 60.5368 76.1901 60.1904 76.3359 59.8896C76.4818 59.5889 76.6982 59.3359 76.9854 59.1309C77.2725 58.9212 77.6279 58.764 78.0518 58.6592C78.4801 58.5498 78.9701 58.4951 79.5215 58.4951H80.7383ZM91.8467 65.8438V57.0938L92.0654 55.6035H93.665V65.8438H91.8467ZM87.1025 59.377V59.2334C87.1025 58.6683 87.1663 58.1556 87.2939 57.6953C87.4215 57.2305 87.6084 56.834 87.8545 56.5059C88.1051 56.1732 88.4105 55.918 88.7705 55.7402C89.1305 55.5579 89.543 55.4668 90.0078 55.4668C90.4635 55.4668 90.8577 55.5557 91.1904 55.7334C91.5231 55.9111 91.8057 56.1641 92.0381 56.4922C92.2705 56.8158 92.4551 57.2008 92.5918 57.6475C92.7331 58.0941 92.8379 58.5885 92.9062 59.1309V59.5205C92.8379 60.04 92.7331 60.5208 92.5918 60.9629C92.4551 61.4004 92.2705 61.7832 92.0381 62.1113C91.8102 62.4349 91.5277 62.6878 91.1904 62.8701C90.8532 63.0479 90.4544 63.1367 89.9941 63.1367C89.5339 63.1367 89.1237 63.0433 88.7637 62.8564C88.4082 62.665 88.1051 62.4007 87.8545 62.0635C87.6084 61.7262 87.4215 61.3298 87.2939 60.874C87.1663 60.4137 87.1025 59.9147 87.1025 59.377ZM88.9141 59.2334V59.377C88.9141 59.7005 88.9414 60.0036 88.9961 60.2861C89.0553 60.5641 89.1465 60.8102 89.2695 61.0244C89.3926 61.2386 89.5498 61.4072 89.7412 61.5303C89.9372 61.6533 90.1742 61.7148 90.4521 61.7148C90.8258 61.7148 91.1289 61.6328 91.3613 61.4688C91.5983 61.3047 91.776 61.0837 91.8945 60.8057C92.0176 60.5231 92.0973 60.2087 92.1338 59.8623V58.7959C92.111 58.5179 92.0632 58.2627 91.9902 58.0303C91.9173 57.7979 91.8148 57.5973 91.6826 57.4287C91.555 57.2601 91.391 57.1279 91.1904 57.0322C90.9899 56.9365 90.7484 56.8887 90.4658 56.8887C90.1878 56.8887 89.9508 56.9502 89.7549 57.0732C89.5589 57.1917 89.3994 57.3581 89.2764 57.5723C89.1533 57.7865 89.0622 58.0348 89.0029 58.3174C88.9437 58.5999 88.9141 58.9053 88.9141 59.2334ZM99.7354 61.2432V55.6035H101.554V63H99.8447L99.7354 61.2432ZM99.9678 59.7119L100.528 59.6982C100.528 60.195 100.474 60.653 100.364 61.0723C100.255 61.4915 100.084 61.8561 99.8516 62.166C99.6237 62.4714 99.3343 62.7106 98.9834 62.8838C98.6325 63.0524 98.2178 63.1367 97.7393 63.1367C97.3747 63.1367 97.042 63.0866 96.7412 62.9863C96.4404 62.8815 96.1807 62.7197 95.9619 62.501C95.7477 62.2777 95.5814 61.9928 95.4629 61.6465C95.3444 61.2956 95.2852 60.874 95.2852 60.3818V55.6035H97.0898V60.3955C97.0898 60.6416 97.1172 60.8467 97.1719 61.0107C97.2311 61.1748 97.3109 61.3092 97.4111 61.4141C97.516 61.5143 97.6367 61.5872 97.7734 61.6328C97.9147 61.6738 98.0651 61.6943 98.2246 61.6943C98.6621 61.6943 99.0062 61.6077 99.2568 61.4346C99.512 61.2568 99.6943 61.0199 99.8037 60.7236C99.9131 60.4229 99.9678 60.0856 99.9678 59.7119ZM105.067 55.6035V63H103.256V55.6035H105.067ZM103.133 53.6689C103.133 53.4001 103.224 53.1768 103.406 52.999C103.593 52.8213 103.844 52.7324 104.158 52.7324C104.473 52.7324 104.721 52.8213 104.903 52.999C105.09 53.1768 105.184 53.4001 105.184 53.6689C105.184 53.9333 105.09 54.1543 104.903 54.332C104.721 54.5098 104.473 54.5986 104.158 54.5986C103.844 54.5986 103.593 54.5098 103.406 54.332C103.224 54.1543 103.133 53.9333 103.133 53.6689ZM112.587 61.5781V63H107.022V61.5781H112.587ZM112.457 56.6836L107.699 63H106.51V61.8857L111.24 55.6035H112.457V56.6836ZM111.794 55.6035V57.0322H106.605V55.6035H111.794ZM117.037 59.377V59.2334C117.037 58.6911 117.115 58.1921 117.27 57.7363C117.424 57.276 117.65 56.8773 117.946 56.54C118.243 56.2028 118.605 55.9408 119.033 55.7539C119.462 55.5625 119.949 55.4668 120.496 55.4668C121.052 55.4668 121.544 55.5625 121.973 55.7539C122.406 55.9408 122.77 56.2028 123.066 56.54C123.363 56.8773 123.588 57.276 123.743 57.7363C123.898 58.1921 123.976 58.6911 123.976 59.2334V59.377C123.976 59.9147 123.898 60.4137 123.743 60.874C123.588 61.3298 123.363 61.7285 123.066 62.0703C122.77 62.4076 122.408 62.6696 121.979 62.8564C121.551 63.0433 121.061 63.1367 120.51 63.1367C119.963 63.1367 119.473 63.0433 119.04 62.8564C118.607 62.6696 118.243 62.4076 117.946 62.0703C117.65 61.7285 117.424 61.3298 117.27 60.874C117.115 60.4137 117.037 59.9147 117.037 59.377ZM118.842 59.2334V59.377C118.842 59.7005 118.874 60.0036 118.938 60.2861C119.001 60.5687 119.099 60.8171 119.231 61.0312C119.364 61.2454 119.535 61.4141 119.744 61.5371C119.958 61.6556 120.214 61.7148 120.51 61.7148C120.801 61.7148 121.052 61.6556 121.262 61.5371C121.471 61.4141 121.642 61.2454 121.774 61.0312C121.911 60.8171 122.011 60.5687 122.075 60.2861C122.139 60.0036 122.171 59.7005 122.171 59.377V59.2334C122.171 58.9144 122.139 58.6159 122.075 58.3379C122.011 58.0553 121.911 57.807 121.774 57.5928C121.642 57.374 121.469 57.2031 121.255 57.0801C121.045 56.9525 120.792 56.8887 120.496 56.8887C120.204 56.8887 119.954 56.9525 119.744 57.0801C119.535 57.2031 119.364 57.374 119.231 57.5928C119.099 57.807 119.001 58.0553 118.938 58.3379C118.874 58.6159 118.842 58.9144 118.842 59.2334ZM127.093 57.1143V63H125.288V55.6035H126.997L127.093 57.1143ZM129.342 55.5557L129.314 57.2373C129.214 57.2191 129.1 57.2054 128.973 57.1963C128.85 57.1872 128.733 57.1826 128.624 57.1826C128.346 57.1826 128.102 57.2214 127.893 57.2988C127.683 57.3717 127.507 57.4788 127.366 57.6201C127.229 57.7614 127.125 57.9346 127.052 58.1396C126.979 58.3402 126.938 58.568 126.929 58.8232L126.539 58.7754C126.539 58.306 126.587 57.8708 126.683 57.4697C126.778 57.0687 126.917 56.7178 127.1 56.417C127.282 56.1162 127.51 55.8838 127.783 55.7197C128.061 55.5511 128.38 55.4668 128.74 55.4668C128.84 55.4668 128.948 55.4759 129.062 55.4941C129.18 55.5078 129.273 55.5283 129.342 55.5557ZM137.894 61.4277V58.0166C137.894 57.766 137.85 57.5495 137.764 57.3672C137.677 57.1849 137.545 57.0436 137.367 56.9434C137.189 56.8431 136.964 56.793 136.69 56.793C136.449 56.793 136.237 56.834 136.055 56.916C135.877 56.998 135.74 57.1143 135.645 57.2646C135.549 57.4105 135.501 57.5791 135.501 57.7705H133.689C133.689 57.4652 133.762 57.1758 133.908 56.9023C134.054 56.6243 134.261 56.3783 134.53 56.1641C134.804 55.9453 135.13 55.7744 135.508 55.6514C135.891 55.5283 136.319 55.4668 136.793 55.4668C137.354 55.4668 137.853 55.5625 138.29 55.7539C138.732 55.9408 139.078 56.2233 139.329 56.6016C139.584 56.9798 139.712 57.4561 139.712 58.0303V61.2568C139.712 61.626 139.735 61.9427 139.78 62.207C139.83 62.4668 139.903 62.6924 139.999 62.8838V63H138.16C138.074 62.8132 138.007 62.5762 137.962 62.2891C137.916 61.9974 137.894 61.7103 137.894 61.4277ZM138.146 58.4951L138.16 59.5684H137.019C136.736 59.5684 136.488 59.598 136.273 59.6572C136.059 59.7119 135.884 59.7939 135.747 59.9033C135.61 60.0081 135.508 60.1357 135.439 60.2861C135.371 60.432 135.337 60.5983 135.337 60.7852C135.337 60.9674 135.378 61.1315 135.46 61.2773C135.547 61.4232 135.67 61.5394 135.829 61.626C135.993 61.708 136.185 61.749 136.403 61.749C136.722 61.749 137 61.6852 137.237 61.5576C137.474 61.4255 137.659 61.266 137.791 61.0791C137.923 60.8923 137.994 60.7145 138.003 60.5459L138.522 61.3252C138.459 61.512 138.363 61.7103 138.235 61.9199C138.108 62.1296 137.944 62.3255 137.743 62.5078C137.543 62.6901 137.301 62.8405 137.019 62.959C136.736 63.0775 136.408 63.1367 136.034 63.1367C135.556 63.1367 135.127 63.041 134.749 62.8496C134.371 62.6582 134.072 62.3962 133.854 62.0635C133.635 61.7308 133.525 61.3525 133.525 60.9287C133.525 60.5368 133.598 60.1904 133.744 59.8896C133.89 59.5889 134.106 59.3359 134.394 59.1309C134.681 58.9212 135.036 58.764 135.46 58.6592C135.888 58.5498 136.378 58.4951 136.93 58.4951H138.146ZM146.596 52.5V63H144.784V52.5H146.596ZM146.309 59.0352H145.775C145.775 58.5202 145.844 58.0462 145.98 57.6133C146.117 57.1803 146.311 56.8044 146.562 56.4854C146.812 56.1618 147.111 55.9111 147.457 55.7334C147.808 55.5557 148.195 55.4668 148.619 55.4668C148.984 55.4668 149.314 55.5192 149.61 55.624C149.911 55.7243 150.169 55.8861 150.383 56.1094C150.597 56.3327 150.761 56.6243 150.875 56.9844C150.993 57.3398 151.053 57.7728 151.053 58.2832V63H149.234V58.2695C149.234 57.9277 149.184 57.6589 149.084 57.4629C148.984 57.2624 148.84 57.1188 148.653 57.0322C148.471 56.9456 148.245 56.9023 147.977 56.9023C147.685 56.9023 147.434 56.9593 147.225 57.0732C147.015 57.1826 146.842 57.3353 146.705 57.5312C146.573 57.7272 146.473 57.9528 146.404 58.208C146.34 58.4632 146.309 58.7389 146.309 59.0352ZM154.56 55.6035V63H152.748V55.6035H154.56ZM152.625 53.6689C152.625 53.4001 152.716 53.1768 152.898 52.999C153.085 52.8213 153.336 52.7324 153.65 52.7324C153.965 52.7324 154.213 52.8213 154.396 52.999C154.582 53.1768 154.676 53.4001 154.676 53.6689C154.676 53.9333 154.582 54.1543 154.396 54.332C154.213 54.5098 153.965 54.5986 153.65 54.5986C153.336 54.5986 153.085 54.5098 152.898 54.332C152.716 54.1543 152.625 53.9333 152.625 53.6689ZM160.35 60.9766C160.35 60.8216 160.309 60.6826 160.227 60.5596C160.145 60.4365 159.99 60.3249 159.762 60.2246C159.538 60.1198 159.21 60.0218 158.777 59.9307C158.395 59.8486 158.041 59.7461 157.718 59.623C157.394 59.5 157.116 59.3519 156.884 59.1787C156.651 59.001 156.469 58.7936 156.337 58.5566C156.209 58.3151 156.146 58.0371 156.146 57.7227C156.146 57.4173 156.212 57.1302 156.344 56.8613C156.476 56.5879 156.667 56.3486 156.918 56.1436C157.169 55.9339 157.474 55.7699 157.834 55.6514C158.194 55.5283 158.6 55.4668 159.051 55.4668C159.68 55.4668 160.22 55.5693 160.671 55.7744C161.127 55.9795 161.475 56.262 161.717 56.6221C161.958 56.9775 162.079 57.3786 162.079 57.8252H160.274C160.274 57.6292 160.229 57.4515 160.138 57.292C160.051 57.1325 159.917 57.0049 159.734 56.9092C159.552 56.8089 159.322 56.7588 159.044 56.7588C158.793 56.7588 158.581 56.7998 158.408 56.8818C158.24 56.9639 158.112 57.071 158.025 57.2031C157.939 57.3353 157.896 57.4811 157.896 57.6406C157.896 57.7591 157.918 57.8662 157.964 57.9619C158.014 58.0531 158.094 58.1374 158.203 58.2148C158.312 58.2923 158.461 58.363 158.647 58.4268C158.839 58.4906 159.074 58.5521 159.352 58.6113C159.903 58.7207 160.384 58.8665 160.794 59.0488C161.209 59.2266 161.532 59.4635 161.765 59.7598C161.997 60.056 162.113 60.4342 162.113 60.8945C162.113 61.2227 162.043 61.5234 161.901 61.7969C161.76 62.0658 161.555 62.3005 161.286 62.501C161.017 62.7015 160.696 62.8587 160.322 62.9727C159.949 63.082 159.527 63.1367 159.058 63.1367C158.379 63.1367 157.804 63.016 157.335 62.7744C156.866 62.5283 156.51 62.2184 156.269 61.8447C156.027 61.4665 155.906 61.0745 155.906 60.6689H157.636C157.649 60.9561 157.727 61.1862 157.868 61.3594C158.009 61.5326 158.187 61.6579 158.401 61.7354C158.62 61.8083 158.85 61.8447 159.092 61.8447C159.365 61.8447 159.595 61.8083 159.782 61.7354C159.969 61.6579 160.11 61.5553 160.206 61.4277C160.302 61.2956 160.35 61.1452 160.35 60.9766ZM166.987 55.6035V56.9023H162.749V55.6035H166.987ZM163.884 53.7852H165.695V60.8672C165.695 61.0859 165.725 61.2546 165.784 61.373C165.843 61.4915 165.932 61.5713 166.051 61.6123C166.169 61.6533 166.311 61.6738 166.475 61.6738C166.593 61.6738 166.702 61.667 166.803 61.6533C166.903 61.6396 166.987 61.626 167.056 61.6123L167.062 62.9658C166.912 63.016 166.741 63.057 166.55 63.0889C166.363 63.1208 166.151 63.1367 165.914 63.1367C165.508 63.1367 165.153 63.0684 164.848 62.9316C164.542 62.7904 164.305 62.5648 164.137 62.2549C163.968 61.9404 163.884 61.5257 163.884 61.0107V53.7852ZM167.691 59.377V59.2334C167.691 58.6911 167.769 58.1921 167.924 57.7363C168.079 57.276 168.304 56.8773 168.601 56.54C168.897 56.2028 169.259 55.9408 169.688 55.7539C170.116 55.5625 170.604 55.4668 171.15 55.4668C171.706 55.4668 172.199 55.5625 172.627 55.7539C173.06 55.9408 173.424 56.2028 173.721 56.54C174.017 56.8773 174.243 57.276 174.397 57.7363C174.552 58.1921 174.63 58.6911 174.63 59.2334V59.377C174.63 59.9147 174.552 60.4137 174.397 60.874C174.243 61.3298 174.017 61.7285 173.721 62.0703C173.424 62.4076 173.062 62.6696 172.634 62.8564C172.205 63.0433 171.715 63.1367 171.164 63.1367C170.617 63.1367 170.127 63.0433 169.694 62.8564C169.261 62.6696 168.897 62.4076 168.601 62.0703C168.304 61.7285 168.079 61.3298 167.924 60.874C167.769 60.4137 167.691 59.9147 167.691 59.377ZM169.496 59.2334V59.377C169.496 59.7005 169.528 60.0036 169.592 60.2861C169.656 60.5687 169.754 60.8171 169.886 61.0312C170.018 61.2454 170.189 61.4141 170.398 61.5371C170.613 61.6556 170.868 61.7148 171.164 61.7148C171.456 61.7148 171.706 61.6556 171.916 61.5371C172.126 61.4141 172.297 61.2454 172.429 61.0312C172.565 60.8171 172.666 60.5687 172.729 60.2861C172.793 60.0036 172.825 59.7005 172.825 59.377V59.2334C172.825 58.9144 172.793 58.6159 172.729 58.3379C172.666 58.0553 172.565 57.807 172.429 57.5928C172.297 57.374 172.123 57.2031 171.909 57.0801C171.7 56.9525 171.447 56.8887 171.15 56.8887C170.859 56.8887 170.608 56.9525 170.398 57.0801C170.189 57.2031 170.018 57.374 169.886 57.5928C169.754 57.807 169.656 58.0553 169.592 58.3379C169.528 58.6159 169.496 58.9144 169.496 59.2334ZM177.747 57.1143V63H175.942V55.6035H177.651L177.747 57.1143ZM179.996 55.5557L179.969 57.2373C179.868 57.2191 179.755 57.2054 179.627 57.1963C179.504 57.1872 179.388 57.1826 179.278 57.1826C179 57.1826 178.757 57.2214 178.547 57.2988C178.337 57.3717 178.162 57.4788 178.021 57.6201C177.884 57.7614 177.779 57.9346 177.706 58.1396C177.633 58.3402 177.592 58.568 177.583 58.8232L177.193 58.7754C177.193 58.306 177.241 57.8708 177.337 57.4697C177.433 57.0687 177.572 56.7178 177.754 56.417C177.936 56.1162 178.164 55.8838 178.438 55.7197C178.715 55.5511 179.035 55.4668 179.395 55.4668C179.495 55.4668 179.602 55.4759 179.716 55.4941C179.834 55.5078 179.928 55.5283 179.996 55.5557ZM182.901 55.6035V63H181.09V55.6035H182.901ZM180.967 53.6689C180.967 53.4001 181.058 53.1768 181.24 52.999C181.427 52.8213 181.678 52.7324 181.992 52.7324C182.307 52.7324 182.555 52.8213 182.737 52.999C182.924 53.1768 183.018 53.4001 183.018 53.6689C183.018 53.9333 182.924 54.1543 182.737 54.332C182.555 54.5098 182.307 54.5986 181.992 54.5986C181.678 54.5986 181.427 54.5098 181.24 54.332C181.058 54.1543 180.967 53.9333 180.967 53.6689ZM187.659 61.7148C187.914 61.7148 188.142 61.6647 188.343 61.5645C188.543 61.4642 188.703 61.3229 188.821 61.1406C188.944 60.9583 189.01 60.7464 189.02 60.5049H190.722C190.713 61.0062 190.571 61.4551 190.298 61.8516C190.024 62.248 189.66 62.5625 189.204 62.7949C188.753 63.0228 188.247 63.1367 187.687 63.1367C187.117 63.1367 186.62 63.041 186.196 62.8496C185.772 62.6582 185.419 62.3916 185.137 62.0498C184.859 61.708 184.649 61.3115 184.508 60.8604C184.371 60.4092 184.303 59.9261 184.303 59.4111V59.1924C184.303 58.6774 184.371 58.1943 184.508 57.7432C184.649 57.292 184.859 56.8955 185.137 56.5537C185.419 56.2119 185.772 55.9453 186.196 55.7539C186.62 55.5625 187.115 55.4668 187.68 55.4668C188.277 55.4668 188.801 55.583 189.252 55.8154C189.708 56.0479 190.063 56.376 190.318 56.7998C190.578 57.2236 190.713 57.7227 190.722 58.2969H189.02C189.01 58.0326 188.951 57.7956 188.842 57.5859C188.732 57.3763 188.577 57.2077 188.377 57.0801C188.176 56.9525 187.933 56.8887 187.646 56.8887C187.34 56.8887 187.085 56.9525 186.88 57.0801C186.679 57.2077 186.522 57.3831 186.408 57.6064C186.299 57.8252 186.221 58.0713 186.176 58.3447C186.135 58.6136 186.114 58.8962 186.114 59.1924V59.4111C186.114 59.7119 186.135 59.999 186.176 60.2725C186.221 60.5459 186.299 60.792 186.408 61.0107C186.522 61.2249 186.679 61.3958 186.88 61.5234C187.085 61.651 187.345 61.7148 187.659 61.7148ZM195.999 61.4277V58.0166C195.999 57.766 195.956 57.5495 195.869 57.3672C195.783 57.1849 195.65 57.0436 195.473 56.9434C195.295 56.8431 195.069 56.793 194.796 56.793C194.554 56.793 194.342 56.834 194.16 56.916C193.982 56.998 193.846 57.1143 193.75 57.2646C193.654 57.4105 193.606 57.5791 193.606 57.7705H191.795C191.795 57.4652 191.868 57.1758 192.014 56.9023C192.16 56.6243 192.367 56.3783 192.636 56.1641C192.909 55.9453 193.235 55.7744 193.613 55.6514C193.996 55.5283 194.424 55.4668 194.898 55.4668C195.459 55.4668 195.958 55.5625 196.396 55.7539C196.838 55.9408 197.184 56.2233 197.435 56.6016C197.69 56.9798 197.817 57.4561 197.817 58.0303V61.2568C197.817 61.626 197.84 61.9427 197.886 62.207C197.936 62.4668 198.009 62.6924 198.104 62.8838V63H196.266C196.179 62.8132 196.113 62.5762 196.067 62.2891C196.022 61.9974 195.999 61.7103 195.999 61.4277ZM196.252 58.4951L196.266 59.5684H195.124C194.841 59.5684 194.593 59.598 194.379 59.6572C194.165 59.7119 193.989 59.7939 193.853 59.9033C193.716 60.0081 193.613 60.1357 193.545 60.2861C193.477 60.432 193.442 60.5983 193.442 60.7852C193.442 60.9674 193.483 61.1315 193.565 61.2773C193.652 61.4232 193.775 61.5394 193.935 61.626C194.099 61.708 194.29 61.749 194.509 61.749C194.828 61.749 195.106 61.6852 195.343 61.5576C195.58 61.4255 195.764 61.266 195.896 61.0791C196.029 60.8923 196.099 60.7145 196.108 60.5459L196.628 61.3252C196.564 61.512 196.468 61.7103 196.341 61.9199C196.213 62.1296 196.049 62.3255 195.849 62.5078C195.648 62.6901 195.407 62.8405 195.124 62.959C194.841 63.0775 194.513 63.1367 194.14 63.1367C193.661 63.1367 193.233 63.041 192.854 62.8496C192.476 62.6582 192.178 62.3962 191.959 62.0635C191.74 61.7308 191.631 61.3525 191.631 60.9287C191.631 60.5368 191.704 60.1904 191.85 59.8896C191.995 59.5889 192.212 59.3359 192.499 59.1309C192.786 58.9212 193.142 58.764 193.565 58.6592C193.994 58.5498 194.484 58.4951 195.035 58.4951H196.252ZM201.358 52.5V63H199.547V52.5H201.358ZM209.603 61.7148C209.858 61.7148 210.086 61.6647 210.286 61.5645C210.487 61.4642 210.646 61.3229 210.765 61.1406C210.888 60.9583 210.954 60.7464 210.963 60.5049H212.665C212.656 61.0062 212.515 61.4551 212.241 61.8516C211.968 62.248 211.603 62.5625 211.147 62.7949C210.696 63.0228 210.19 63.1367 209.63 63.1367C209.06 63.1367 208.563 63.041 208.14 62.8496C207.716 62.6582 207.363 62.3916 207.08 62.0498C206.802 61.708 206.592 61.3115 206.451 60.8604C206.314 60.4092 206.246 59.9261 206.246 59.4111V59.1924C206.246 58.6774 206.314 58.1943 206.451 57.7432C206.592 57.292 206.802 56.8955 207.08 56.5537C207.363 56.2119 207.716 55.9453 208.14 55.7539C208.563 55.5625 209.058 55.4668 209.623 55.4668C210.22 55.4668 210.744 55.583 211.195 55.8154C211.651 56.0479 212.007 56.376 212.262 56.7998C212.521 57.2236 212.656 57.7227 212.665 58.2969H210.963C210.954 58.0326 210.895 57.7956 210.785 57.5859C210.676 57.3763 210.521 57.2077 210.32 57.0801C210.12 56.9525 209.876 56.8887 209.589 56.8887C209.284 56.8887 209.028 56.9525 208.823 57.0801C208.623 57.2077 208.465 57.3831 208.352 57.6064C208.242 57.8252 208.165 58.0713 208.119 58.3447C208.078 58.6136 208.058 58.8962 208.058 59.1924V59.4111C208.058 59.7119 208.078 59.999 208.119 60.2725C208.165 60.5459 208.242 60.792 208.352 61.0107C208.465 61.2249 208.623 61.3958 208.823 61.5234C209.028 61.651 209.288 61.7148 209.603 61.7148ZM215.639 52.5V63H213.827V52.5H215.639ZM215.352 59.0352H214.818C214.818 58.5202 214.887 58.0462 215.023 57.6133C215.16 57.1803 215.354 56.8044 215.604 56.4854C215.855 56.1618 216.154 55.9111 216.5 55.7334C216.851 55.5557 217.238 55.4668 217.662 55.4668C218.027 55.4668 218.357 55.5192 218.653 55.624C218.954 55.7243 219.212 55.8861 219.426 56.1094C219.64 56.3327 219.804 56.6243 219.918 56.9844C220.036 57.3398 220.096 57.7728 220.096 58.2832V63H218.277V58.2695C218.277 57.9277 218.227 57.6589 218.127 57.4629C218.027 57.2624 217.883 57.1188 217.696 57.0322C217.514 56.9456 217.288 56.9023 217.02 56.9023C216.728 56.9023 216.477 56.9593 216.268 57.0732C216.058 57.1826 215.885 57.3353 215.748 57.5312C215.616 57.7272 215.516 57.9528 215.447 58.208C215.383 58.4632 215.352 58.7389 215.352 59.0352ZM225.763 61.4277V58.0166C225.763 57.766 225.719 57.5495 225.633 57.3672C225.546 57.1849 225.414 57.0436 225.236 56.9434C225.059 56.8431 224.833 56.793 224.56 56.793C224.318 56.793 224.106 56.834 223.924 56.916C223.746 56.998 223.609 57.1143 223.514 57.2646C223.418 57.4105 223.37 57.5791 223.37 57.7705H221.559C221.559 57.4652 221.632 57.1758 221.777 56.9023C221.923 56.6243 222.131 56.3783 222.399 56.1641C222.673 55.9453 222.999 55.7744 223.377 55.6514C223.76 55.5283 224.188 55.4668 224.662 55.4668C225.223 55.4668 225.722 55.5625 226.159 55.7539C226.601 55.9408 226.948 56.2233 227.198 56.6016C227.453 56.9798 227.581 57.4561 227.581 58.0303V61.2568C227.581 61.626 227.604 61.9427 227.649 62.207C227.7 62.4668 227.772 62.6924 227.868 62.8838V63H226.029C225.943 62.8132 225.877 62.5762 225.831 62.2891C225.785 61.9974 225.763 61.7103 225.763 61.4277ZM226.016 58.4951L226.029 59.5684H224.888C224.605 59.5684 224.357 59.598 224.143 59.6572C223.928 59.7119 223.753 59.7939 223.616 59.9033C223.479 60.0081 223.377 60.1357 223.309 60.2861C223.24 60.432 223.206 60.5983 223.206 60.7852C223.206 60.9674 223.247 61.1315 223.329 61.2773C223.416 61.4232 223.539 61.5394 223.698 61.626C223.862 61.708 224.054 61.749 224.272 61.749C224.591 61.749 224.869 61.6852 225.106 61.5576C225.343 61.4255 225.528 61.266 225.66 61.0791C225.792 60.8923 225.863 60.7145 225.872 60.5459L226.392 61.3252C226.328 61.512 226.232 61.7103 226.104 61.9199C225.977 62.1296 225.813 62.3255 225.612 62.5078C225.412 62.6901 225.17 62.8405 224.888 62.959C224.605 63.0775 224.277 63.1367 223.903 63.1367C223.425 63.1367 222.996 63.041 222.618 62.8496C222.24 62.6582 221.941 62.3962 221.723 62.0635C221.504 61.7308 221.395 61.3525 221.395 60.9287C221.395 60.5368 221.467 60.1904 221.613 59.8896C221.759 59.5889 221.976 59.3359 222.263 59.1309C222.55 58.9212 222.905 58.764 223.329 58.6592C223.757 58.5498 224.247 58.4951 224.799 58.4951H226.016ZM231.013 57.1143V63H229.208V55.6035H230.917L231.013 57.1143ZM233.262 55.5557L233.234 57.2373C233.134 57.2191 233.02 57.2054 232.893 57.1963C232.77 57.1872 232.653 57.1826 232.544 57.1826C232.266 57.1826 232.022 57.2214 231.812 57.2988C231.603 57.3717 231.427 57.4788 231.286 57.6201C231.149 57.7614 231.045 57.9346 230.972 58.1396C230.899 58.3402 230.858 58.568 230.849 58.8232L230.459 58.7754C230.459 58.306 230.507 57.8708 230.603 57.4697C230.698 57.0687 230.837 56.7178 231.02 56.417C231.202 56.1162 231.43 55.8838 231.703 55.7197C231.981 55.5511 232.3 55.4668 232.66 55.4668C232.76 55.4668 232.868 55.4759 232.981 55.4941C233.1 55.5078 233.193 55.5283 233.262 55.5557ZM238.095 61.4277V58.0166C238.095 57.766 238.051 57.5495 237.965 57.3672C237.878 57.1849 237.746 57.0436 237.568 56.9434C237.391 56.8431 237.165 56.793 236.892 56.793C236.65 56.793 236.438 56.834 236.256 56.916C236.078 56.998 235.941 57.1143 235.846 57.2646C235.75 57.4105 235.702 57.5791 235.702 57.7705H233.891C233.891 57.4652 233.964 57.1758 234.109 56.9023C234.255 56.6243 234.463 56.3783 234.731 56.1641C235.005 55.9453 235.331 55.7744 235.709 55.6514C236.092 55.5283 236.52 55.4668 236.994 55.4668C237.555 55.4668 238.054 55.5625 238.491 55.7539C238.933 55.9408 239.28 56.2233 239.53 56.6016C239.785 56.9798 239.913 57.4561 239.913 58.0303V61.2568C239.913 61.626 239.936 61.9427 239.981 62.207C240.032 62.4668 240.104 62.6924 240.2 62.8838V63H238.361C238.275 62.8132 238.209 62.5762 238.163 62.2891C238.118 61.9974 238.095 61.7103 238.095 61.4277ZM238.348 58.4951L238.361 59.5684H237.22C236.937 59.5684 236.689 59.598 236.475 59.6572C236.26 59.7119 236.085 59.7939 235.948 59.9033C235.812 60.0081 235.709 60.1357 235.641 60.2861C235.572 60.432 235.538 60.5983 235.538 60.7852C235.538 60.9674 235.579 61.1315 235.661 61.2773C235.748 61.4232 235.871 61.5394 236.03 61.626C236.194 61.708 236.386 61.749 236.604 61.749C236.924 61.749 237.201 61.6852 237.438 61.5576C237.675 61.4255 237.86 61.266 237.992 61.0791C238.124 60.8923 238.195 60.7145 238.204 60.5459L238.724 61.3252C238.66 61.512 238.564 61.7103 238.437 61.9199C238.309 62.1296 238.145 62.3255 237.944 62.5078C237.744 62.6901 237.502 62.8405 237.22 62.959C236.937 63.0775 236.609 63.1367 236.235 63.1367C235.757 63.1367 235.328 63.041 234.95 62.8496C234.572 62.6582 234.273 62.3962 234.055 62.0635C233.836 61.7308 233.727 61.3525 233.727 60.9287C233.727 60.5368 233.799 60.1904 233.945 59.8896C234.091 59.5889 234.308 59.3359 234.595 59.1309C234.882 58.9212 235.237 58.764 235.661 58.6592C236.09 58.5498 236.579 58.4951 237.131 58.4951H238.348ZM244.575 61.7148C244.83 61.7148 245.058 61.6647 245.259 61.5645C245.459 61.4642 245.619 61.3229 245.737 61.1406C245.86 60.9583 245.926 60.7464 245.936 60.5049H247.638C247.629 61.0062 247.487 61.4551 247.214 61.8516C246.94 62.248 246.576 62.5625 246.12 62.7949C245.669 63.0228 245.163 63.1367 244.603 63.1367C244.033 63.1367 243.536 63.041 243.112 62.8496C242.688 62.6582 242.335 62.3916 242.053 62.0498C241.775 61.708 241.565 61.3115 241.424 60.8604C241.287 60.4092 241.219 59.9261 241.219 59.4111V59.1924C241.219 58.6774 241.287 58.1943 241.424 57.7432C241.565 57.292 241.775 56.8955 242.053 56.5537C242.335 56.2119 242.688 55.9453 243.112 55.7539C243.536 55.5625 244.031 55.4668 244.596 55.4668C245.193 55.4668 245.717 55.583 246.168 55.8154C246.624 56.0479 246.979 56.376 247.234 56.7998C247.494 57.2236 247.629 57.7227 247.638 58.2969H245.936C245.926 58.0326 245.867 57.7956 245.758 57.5859C245.648 57.3763 245.493 57.2077 245.293 57.0801C245.092 56.9525 244.849 56.8887 244.562 56.8887C244.256 56.8887 244.001 56.9525 243.796 57.0801C243.595 57.2077 243.438 57.3831 243.324 57.6064C243.215 57.8252 243.137 58.0713 243.092 58.3447C243.051 58.6136 243.03 58.8962 243.03 59.1924V59.4111C243.03 59.7119 243.051 59.999 243.092 60.2725C243.137 60.5459 243.215 60.792 243.324 61.0107C243.438 61.2249 243.595 61.3958 243.796 61.5234C244.001 61.651 244.261 61.7148 244.575 61.7148ZM252.341 55.6035V56.9023H248.103V55.6035H252.341ZM249.237 53.7852H251.049V60.8672C251.049 61.0859 251.078 61.2546 251.138 61.373C251.197 61.4915 251.286 61.5713 251.404 61.6123C251.523 61.6533 251.664 61.6738 251.828 61.6738C251.947 61.6738 252.056 61.667 252.156 61.6533C252.257 61.6396 252.341 61.626 252.409 61.6123L252.416 62.9658C252.266 63.016 252.095 63.057 251.903 63.0889C251.716 63.1208 251.505 63.1367 251.268 63.1367C250.862 63.1367 250.507 63.0684 250.201 62.9316C249.896 62.7904 249.659 62.5648 249.49 62.2549C249.322 61.9404 249.237 61.5257 249.237 61.0107V53.7852ZM256.866 63.1367C256.306 63.1367 255.802 63.0456 255.355 62.8633C254.909 62.681 254.528 62.4281 254.214 62.1045C253.904 61.7764 253.665 61.3958 253.496 60.9629C253.332 60.5254 253.25 60.056 253.25 59.5547V59.2812C253.25 58.7116 253.332 58.1943 253.496 57.7295C253.66 57.2601 253.893 56.8568 254.193 56.5195C254.494 56.1823 254.854 55.9225 255.273 55.7402C255.693 55.5579 256.155 55.4668 256.661 55.4668C257.185 55.4668 257.648 55.5557 258.049 55.7334C258.45 55.9066 258.785 56.1527 259.054 56.4717C259.323 56.7907 259.525 57.1735 259.662 57.6201C259.799 58.0622 259.867 58.5521 259.867 59.0898V59.8486H254.07V58.6045H258.09V58.4678C258.081 58.1807 258.026 57.9186 257.926 57.6816C257.826 57.4401 257.671 57.2487 257.461 57.1074C257.251 56.9616 256.98 56.8887 256.647 56.8887C256.379 56.8887 256.144 56.9479 255.943 57.0664C255.747 57.1803 255.583 57.3444 255.451 57.5586C255.324 57.7682 255.228 58.0189 255.164 58.3105C255.1 58.6022 255.068 58.9258 255.068 59.2812V59.5547C255.068 59.8646 255.109 60.1517 255.191 60.416C255.278 60.6803 255.403 60.9105 255.567 61.1064C255.736 61.2979 255.937 61.4482 256.169 61.5576C256.406 61.6624 256.675 61.7148 256.976 61.7148C257.354 61.7148 257.696 61.6419 258.001 61.4961C258.311 61.3457 258.58 61.1247 258.808 60.833L259.717 61.7764C259.562 62.0042 259.352 62.223 259.088 62.4326C258.828 62.6423 258.514 62.8132 258.145 62.9453C257.775 63.0729 257.349 63.1367 256.866 63.1367ZM262.882 57.1143V63H261.077V55.6035H262.786L262.882 57.1143ZM265.131 55.5557L265.104 57.2373C265.003 57.2191 264.889 57.2054 264.762 57.1963C264.639 57.1872 264.522 57.1826 264.413 57.1826C264.135 57.1826 263.891 57.2214 263.682 57.2988C263.472 57.3717 263.297 57.4788 263.155 57.6201C263.019 57.7614 262.914 57.9346 262.841 58.1396C262.768 58.3402 262.727 58.568 262.718 58.8232L262.328 58.7754C262.328 58.306 262.376 57.8708 262.472 57.4697C262.567 57.0687 262.706 56.7178 262.889 56.417C263.071 56.1162 263.299 55.8838 263.572 55.7197C263.85 55.5511 264.169 55.4668 264.529 55.4668C264.63 55.4668 264.737 55.4759 264.851 55.4941C264.969 55.5078 265.062 55.5283 265.131 55.5557ZM269.335 60.0127H267.701C267.706 59.598 267.74 59.2425 267.804 58.9463C267.872 58.6501 267.984 58.3835 268.139 58.1465C268.294 57.9049 268.503 57.6589 268.768 57.4082C268.977 57.2122 269.164 57.0277 269.328 56.8545C269.497 56.6768 269.629 56.4922 269.725 56.3008C269.82 56.1048 269.868 55.8838 269.868 55.6377C269.868 55.3597 269.823 55.1273 269.731 54.9404C269.645 54.7536 269.515 54.6123 269.342 54.5166C269.173 54.4163 268.961 54.3662 268.706 54.3662C268.496 54.3662 268.298 54.4095 268.111 54.4961C267.924 54.5827 267.774 54.7171 267.66 54.8994C267.546 55.0771 267.485 55.3096 267.476 55.5967H265.664C265.678 54.9997 265.819 54.5029 266.088 54.1064C266.357 53.7054 266.719 53.4069 267.175 53.2109C267.631 53.0104 268.141 52.9102 268.706 52.9102C269.33 52.9102 269.864 53.015 270.306 53.2246C270.752 53.4297 271.092 53.7305 271.324 54.127C271.561 54.5234 271.68 55.002 271.68 55.5625C271.68 55.9635 271.602 56.3236 271.447 56.6426C271.292 56.957 271.087 57.251 270.832 57.5244C270.577 57.7979 270.301 58.0736 270.005 58.3516C269.745 58.584 269.57 58.8324 269.479 59.0967C269.387 59.361 269.34 59.6663 269.335 60.0127ZM267.53 62.1387C267.53 61.8652 267.621 61.6374 267.804 61.4551C267.991 61.2728 268.241 61.1816 268.556 61.1816C268.87 61.1816 269.118 61.2728 269.301 61.4551C269.488 61.6374 269.581 61.8652 269.581 62.1387C269.581 62.403 269.488 62.6263 269.301 62.8086C269.118 62.9909 268.87 63.082 268.556 63.082C268.241 63.082 267.991 62.9909 267.804 62.8086C267.621 62.6263 267.53 62.403 267.53 62.1387ZM274.776 52.5V53.5049C274.776 53.792 274.722 54.0928 274.612 54.4072C274.507 54.7171 274.362 55.0133 274.175 55.2959C273.993 55.5739 273.785 55.8132 273.553 56.0137L272.678 55.4873C272.86 55.2093 273.008 54.9131 273.122 54.5986C273.241 54.2796 273.3 53.9173 273.3 53.5117V52.5H274.776ZM277.073 52.5V53.5049C277.073 53.792 277.019 54.0928 276.909 54.4072C276.804 54.7171 276.659 55.0133 276.472 55.2959C276.289 55.5739 276.082 55.8132 275.85 56.0137L274.975 55.4873C275.157 55.2093 275.305 54.9131 275.419 54.5986C275.537 54.2796 275.597 53.9173 275.597 53.5117V52.5H277.073Z" fill="#12062E"/>
<defs>
<filter id="filter0_d_340_1058" x="1" y="6" width="312" height="113.805" filterUnits="userSpaceOnUse" color-interpolation-filters="sRGB">
<feFlood flood-opacity="0" result="BackgroundImageFix"/>
<feColorMatrix in="SourceAlpha" type="matrix" values="0 0 0 0 0 0 0 0 0 0 0 0 0 0 0 0 0 0 127 0" result="hardAlpha"/>
<feOffset dy="4"/>
<feGaussianBlur stdDeviation="4"/>
<feComposite in2="hardAlpha" operator="out"/>
<feColorMatrix type="matrix" values="0 0 0 0 0 0 0 0 0 0 0 0 0 0 0 0 0 0 0.1 0"/>
<feBlend mode="normal" in2="BackgroundImageFix" result="effect1_dropShadow_340_1058"/>
<feBlend mode="normal" in="SourceGraphic" in2="effect1_dropShadow_340_1058" result="shape"/>
</filter>
</defs>
</svg>
