<svg width="196" height="344" viewBox="0 0 196 344" fill="none" xmlns="http://www.w3.org/2000/svg">
<g clip-path="url(#clip0_278_11688)">
<path d="M172.024 88.9755C172.428 71.5146 184.616 44.8993 162.533 22.2384C150.338 9.72649 132.354 5.14472 125.522 6.30776C124.369 5.60075 123.758 4.77744 120.591 3.58074C94.9186 -6.10005 76.8856 6.80664 75.1431 7.81971C72.1748 7.88093 69.1148 8.03702 65.9386 8.32166C19.5981 12.4964 1.65672 52.453 5.96704 96.1037C10.3354 140.342 -1.96271 184.054 0.271927 201.059C4.13899 230.481 33.8771 238.2 63.6398 237.588C67.3937 237.695 71.3983 237.566 75.6873 237.168C209.445 224.733 171.624 106.436 172.024 88.9755Z" fill="#1C0504"/>
<path d="M13.8177 86.3525C13.8177 86.3525 18.4826 133.342 11.3384 151.951C2.58024 174.768 7.62118 191.283 7.62118 191.283C7.62118 191.283 8.22034 168.687 15.6579 155.327C23.0925 141.97 25.2079 120.182 13.8207 86.3525H13.8177Z" fill="#3E1107"/>
<path d="M37.5726 92.5841C37.5726 92.5841 -10.2231 225.119 75.8794 233.425C161.982 241.732 170.93 123.695 161.361 101.439C151.79 79.1816 37.5756 92.5841 37.5756 92.5841H37.5726Z" fill="#060001"/>
<path d="M144.897 238.457C143.717 237.591 141.305 234.059 137.621 228.954C151.185 222.422 152.233 211.839 150.589 207.832C146.578 198.047 132.65 188.076 119.793 178.269C123.376 176.605 129.973 166.416 137.358 168.399C151.289 172.139 168.833 197.555 167.858 208.931C166.827 220.965 160.292 232.048 144.894 238.457H144.897Z" fill="#ECF3F9"/>
<path d="M109.94 261.602C109.93 261.621 109.94 261.634 109.972 261.643C109.962 261.592 109.949 261.583 109.94 261.602Z" fill="#616F76"/>
<path d="M98.058 222.126V245.616C98.4279 244.34 98.6419 243.612 98.6419 243.612C98.6419 243.612 105 263.396 106.349 273.777C107.746 284.526 104.832 282.142 106.061 291.309C106.917 297.678 109.13 313.777 109.13 313.777C109.13 313.777 107.461 318.365 107.253 320.253C107.042 322.141 109.873 323.91 110.711 324.731C111.555 325.551 112.875 332.997 122.022 336.468C122.022 336.468 126.482 338.188 129.117 335.391C129.505 334.004 124.865 327.92 121.3 322.677C118.338 318.322 117.485 313.419 117.485 313.419C118.365 298.091 121.3 281.303 122.722 270.616C126.179 244.609 119.704 248.34 119.017 232.03L98.0611 222.132L98.058 222.126Z" fill="#F8CBA2"/>
<path d="M74.8194 343.976C78.8149 343.459 84.137 338.534 85.2926 335.593C86.8669 331.547 88.0377 326.757 88.698 322.83C88.698 322.83 92.2777 313.575 94.8334 302.844C96.9457 293.944 95.6771 292.854 96.1723 287.125C96.7134 280.844 102.751 252.19 104.441 244.254L102.739 220.828L76.8401 235.244C77.2344 259.493 83.868 280.171 83.3147 282.696C80.9914 293.335 79.9459 321.86 79.9459 321.86C79.9459 321.86 74.1713 329.45 72.3922 332.309C69.4697 337.01 70.827 344.499 74.8194 343.976Z" fill="#F8CBA2"/>
<path d="M74.3056 335.642C72.4317 335.143 72.3644 333.392 72.9575 331.427C72.7343 331.77 72.5418 332.07 72.392 332.305C69.4726 337.007 70.8237 344.496 74.8192 343.976C78.8147 343.458 84.1368 338.537 85.2924 335.59C86.7872 331.748 87.8877 327.58 88.5908 323.454C84.4364 331.384 85.0111 339.501 74.3087 335.642H74.3056Z" fill="#060102"/>
<path d="M126.131 329.594C124.254 330.399 122.713 331.828 120.166 330.99C113.163 328.104 111.451 324.397 110.302 316.733C110.402 315.821 109.892 314.851 108.963 314.236C108.538 315.445 107.416 318.726 107.251 320.253C107.04 322.138 109.871 323.911 110.708 324.728C111.549 325.548 112.873 332.994 122.022 336.468C122.022 336.468 126.482 338.188 129.117 335.391C129.328 334.629 128.029 332.318 126.131 329.597V329.594Z" fill="#060102"/>
<path d="M108.058 321.447C108.058 321.447 108.929 324.844 108.403 327.066C108.403 327.066 109.284 328.45 109.87 328.153C110.454 327.856 110.662 327.238 110.662 327.238C110.662 327.238 110.335 325.043 110.94 323.92L108.058 321.447Z" fill="#060102"/>
<path d="M106.801 159.575V155.952C106.801 153.108 104.496 150.794 101.653 150.794C98.8098 150.794 96.5048 153.105 96.5048 155.952V159.826C94.1723 160.285 92.1181 160.965 90.3114 161.819C94.4505 165.865 101.191 184.951 106.895 183.161C110.408 181.995 112.462 165.801 115.834 164.09C113.609 161.966 110.674 160.282 106.804 159.572L106.801 159.575Z" fill="#F2AA7A"/>
<path d="M70.6613 180.709C69.8818 176.782 69.0687 164.772 69.0687 164.772C77.2919 161.699 88.7188 162.183 90.5561 161.396C90.5927 161.944 90.6355 162.48 90.6875 163.006C91.9378 162.685 93.0475 162.465 93.9065 162.336C97.3731 171.255 102.698 174.181 107.623 182.472C108.809 173.856 108.335 171.144 108.904 162.566C109.271 162.614 109.628 162.667 109.977 162.725C109.32 160.956 108.818 159.995 108.818 159.995C110.805 158.443 122.07 162.315 125.589 163.468C129.276 164.677 137.135 164.87 138.911 169.88C138.911 169.88 133.785 188.722 133.558 191.972C132.953 200.64 125.063 203.884 123.984 208.959C122.862 214.244 120.869 215.049 124.225 223.882C126.283 229.293 128.062 232.74 128.062 232.74C128.062 232.74 112.63 233.465 101.283 233.456C92.3474 233.45 87.4257 233.07 86.2855 232.541C83.9347 231.448 74.8677 235.693 81.0795 221.538C87.4716 206.972 80.6362 207.557 78.3954 194.962C77.7504 191.345 71.3705 184.268 70.6613 180.7V180.709Z" fill="#9DC0E0"/>
<path d="M110.442 226.413C110.959 222.046 111.753 216.304 111.188 210.703C110.442 203.324 110.882 200.943 112.243 197.154C114.092 191.987 110.907 189.475 109.861 185.306C108.681 180.605 109.082 181.278 109.082 181.278L107.409 181.245C107.409 181.245 106.379 182.451 108.764 186.781C112.435 193.454 111.151 196.633 109.886 199.455C108.617 202.277 109.864 211.052 109.424 218.881C109.127 224.164 108.797 224.048 108.421 226.291C109.103 226.337 109.782 226.377 110.445 226.41L110.442 226.413Z" fill="#EFF0F0"/>
<path d="M116.626 160.723C115.192 159.946 109.65 160.353 107.739 160.022C107.51 170.756 108.605 171.882 107.608 182.699C100.999 172.632 100.892 171.806 96.0649 160.873C92.9254 162.465 88.6395 160.993 86.7167 162.437C87.7683 168.415 89.1745 174.888 91.6843 181.67C94.0198 178.533 97.5445 176.326 98.2934 174.64L107.96 184.018L111.393 174.619L121.315 178.695L116.623 160.723H116.626Z" fill="#C1C1C1"/>
<path d="M115.813 160.273C114.379 159.496 109.448 158.899 107.541 158.568C107.311 169.302 108.406 170.428 107.409 181.245C100.8 171.178 100.693 170.352 95.866 159.419C92.7265 161.011 89.3394 160.392 87.4166 161.837C88.4682 167.815 89.6665 173.382 92.1763 180.164C94.5118 177.027 97.3456 174.872 98.0946 173.186L108.069 183.708L111.502 174.309L120.475 177.624L115.813 160.276V160.273Z" fill="#EFF0F0"/>
<path d="M128.417 277.56C131.248 268.485 130.905 247.419 129.844 238.056C129.56 235.574 127.601 230.634 125.25 225.982C111.426 228.207 92.3079 227.09 80.7159 222.68C78.8236 224.902 76.9436 232.134 75.4212 235.201C72.7189 240.652 74.3452 261.831 75.4762 275.58C93.5979 279.05 110.081 281.012 128.417 277.56Z" fill="#12062E"/>
<path d="M124.153 223.693C124.153 223.693 121.463 226.138 108.064 226.138C94.6655 226.138 80.5667 222.557 80.5667 222.557C80.5667 222.557 78.9832 223.69 79.4143 225.254C79.4143 225.254 92.8771 229.621 108.361 229.621C123.844 229.621 125.522 226.521 125.522 226.521L124.153 223.693Z" fill="#734339"/>
<path d="M104.64 229.621H112.084C112.332 229.621 112.53 229.487 112.53 229.318V225.835C112.53 225.667 112.332 225.532 112.084 225.532H104.64C104.393 225.532 104.194 225.667 104.194 225.835V229.318C104.194 229.487 104.393 229.621 104.64 229.621ZM111.638 229.015H105.087V226.138H111.638V229.015Z" fill="#C58963"/>
<path d="M107.217 189.631C107.352 190.194 107.917 190.537 108.48 190.402C109.042 190.267 109.385 189.701 109.25 189.138C109.116 188.575 108.55 188.232 107.988 188.367C107.425 188.501 107.083 189.068 107.217 189.631Z" fill="#C1C1C1"/>
<path d="M107.455 198.748C107.59 199.312 108.156 199.654 108.718 199.52C109.28 199.385 109.623 198.819 109.488 198.256C109.354 197.692 108.788 197.35 108.226 197.484C107.663 197.619 107.321 198.185 107.455 198.748Z" fill="#C1C1C1"/>
<path d="M106.788 207.119C106.923 207.683 107.489 208.025 108.051 207.891C108.613 207.756 108.956 207.19 108.821 206.627C108.687 206.064 108.121 205.721 107.559 205.855C106.996 205.99 106.654 206.556 106.788 207.119Z" fill="#C1C1C1"/>
<path d="M106.788 216.133C106.923 216.696 107.489 217.039 108.051 216.904C108.613 216.769 108.956 216.203 108.821 215.64C108.687 215.077 108.121 214.734 107.559 214.869C106.996 215.003 106.654 215.569 106.788 216.133Z" fill="#C1C1C1"/>
<path d="M83.9906 188.155H97.5635V189.386H83.9906V188.155Z" fill="#EFF0F0"/>
<path d="M91.4274 143.522C50.0972 128.788 40.9478 98.384 40.9478 98.384L35.916 99.5684C32.4708 75.0619 35.1701 40.3727 78.1724 27.9741C137.007 11.0151 167.757 42.8029 165.602 57.0409C165.602 57.0409 168.628 82.2116 173.657 93.1013C180.358 107.618 183.491 124.84 170.095 138.751C165.525 143.495 158.28 146.592 150.546 148.829C150.546 148.829 126.965 156.196 91.4305 143.525L91.4274 143.522Z" fill="#F8CBA2"/>
<path d="M116.079 157.773C107.131 158.963 100.779 157.173 97.9692 156.646C91.736 155.48 68.6315 150.351 52.5426 136.119C45.8173 129.844 44.4998 127.096 40.5074 120.883C39.2754 116.246 37.1814 108.591 35.9158 99.5686L37.8264 89.6338C37.8264 89.6338 50.0268 129.483 91.4303 143.525C127.16 155.642 150.546 148.826 150.546 148.826C135.61 153.151 120.523 157.182 116.082 157.776L116.079 157.773Z" fill="#F6B98C"/>
<path d="M164.471 71.3463C164.471 71.3463 159.054 65.8494 154.214 64.6925C149.375 63.5356 146.679 64.8853 144.848 63.6305C143.017 62.3756 143.692 59.1956 146.581 58.9049C149.47 58.6141 154.288 59.0028 158.91 62.5684C163.532 66.1371 164.474 71.3433 164.474 71.3433L164.471 71.3463Z" fill="#280F09"/>
<path d="M68.708 71.3463C68.708 71.3463 74.1249 65.8494 78.9641 64.6925C83.8033 63.5356 86.4995 64.8853 88.3306 63.6305C90.1618 62.3756 89.4862 59.1956 86.5973 58.9049C83.7085 58.6141 78.8907 59.0028 74.2686 62.5684C69.6465 66.1371 68.7049 71.3433 68.7049 71.3433L68.708 71.3463Z" fill="#280F09"/>
<path d="M147.478 80.9958C147.478 80.9958 144.835 88.5562 154.148 88.451C163.046 88.3499 160.987 81.5569 160.987 81.5569C160.987 81.5569 156.645 78.1985 147.478 80.9937V80.9958Z" fill="#170B08"/>
<path d="M164.706 85.471C164.706 85.471 161.408 78.5295 154.135 77.8776C146.863 77.2257 144.191 84.5314 144.191 84.5314C144.191 84.5314 148.116 79.9037 154.135 80.4822C160.154 81.0607 164.706 85.471 164.706 85.471Z" fill="#170B08"/>
<path d="M148.165 83.846C148.165 83.0043 148.847 82.3218 149.688 82.3218C150.528 82.3218 151.21 83.0043 151.21 83.846C151.21 84.6877 150.528 85.3702 149.688 85.3702C148.847 85.3702 148.165 84.6877 148.165 83.846Z" fill="white"/>
<path d="M37.8237 89.6336C37.8237 89.6336 33.0855 80.7945 22.2974 87.3534C11.5094 93.9093 13.6279 118.018 27.7877 121.394C41.9445 124.77 42.6201 115.609 42.6201 115.609L37.8237 89.6366V89.6336Z" fill="#F6B98C"/>
<path d="M20.2734 106.351C20.2734 106.351 19.02 96.128 26.3414 94.4906C33.6629 92.8501 40.6908 105.772 32.3117 115.609C34.8154 109.726 35.5307 101.619 29.808 97.6736C23.9326 93.6244 19.983 101.435 20.2734 106.354V106.351Z" fill="#F2AA7A"/>
<path d="M28.1576 110.073C28.1576 110.073 25.7487 107.893 27.7602 103.973C29.7717 100.052 34.1768 102.666 34.1768 102.666L33.8497 100.214C33.8497 100.214 29.7717 98.9625 27.323 102.228C24.8744 105.494 25.8343 108.328 28.1545 110.069L28.1576 110.073Z" fill="#F2AA7A"/>
<path d="M123.923 87.4971C133.819 87.4971 134.47 96.3209 134.47 96.3209C134.47 96.3209 133.097 93.2113 130.135 91.6932C127.173 90.1751 123.923 90.3435 123.923 90.3435C123.923 90.3435 120.674 90.1751 117.711 91.6932C114.749 93.2113 113.377 96.3209 113.377 96.3209C113.377 96.3209 114.028 87.4971 123.923 87.4971Z" fill="#F2AA7A"/>
<path d="M89.3146 80.9958C89.3146 80.9958 91.9577 88.5562 82.6449 88.451C73.7468 88.3499 75.805 81.5569 75.805 81.5569C75.805 81.5569 80.1472 78.1985 89.3146 80.9937V80.9958Z" fill="#170B08"/>
<path d="M72.1292 85.471C72.1292 85.471 75.4277 78.5295 82.7002 77.8776C89.9727 77.2257 92.6445 84.5314 92.6445 84.5314C92.6445 84.5314 88.7194 79.9037 82.7002 80.4822C76.6811 81.0607 72.1292 85.471 72.1292 85.471Z" fill="#170B08"/>
<path d="M78.3741 85.3702C77.5333 85.3702 76.8517 84.6878 76.8517 83.846C76.8517 83.0042 77.5333 82.3218 78.3741 82.3218C79.2149 82.3218 79.8965 83.0042 79.8965 83.846C79.8965 84.6878 79.2149 85.3702 78.3741 85.3702Z" fill="white"/>
<path d="M156.511 103.03C156.511 105.711 161.237 107.884 167.066 107.884C172.896 107.884 177.622 105.711 177.622 103.03C177.622 100.349 172.896 98.1758 167.066 98.1758C161.237 98.1758 156.511 100.349 156.511 103.03Z" fill="#F3AEA1"/>
<path d="M59.9931 103.03C59.9931 105.711 64.7192 107.884 70.5488 107.884C76.3784 107.884 81.1045 105.711 81.1045 103.03C81.1045 100.349 76.3784 98.1758 70.5488 98.1758C64.7192 98.1758 59.9931 100.349 59.9931 103.03Z" fill="#F3AEA1"/>
<path d="M118.876 219.968C121.3 220.956 126.751 220.265 129.249 221.627C129.249 221.627 129.389 221.749 129.463 221.85C124.006 221.581 119.258 223.368 114.853 224.029C112.872 229.823 121.132 226.906 129.453 226.603C124.443 227.534 121.19 228.755 117.733 229.232C114.896 231.424 115.853 233.352 119.326 233.229C122.01 233.138 126.766 232.152 131.618 231.864C132.027 232.027 121.352 235.197 120.136 237.386C120.325 238.616 122.334 239.629 125.605 238.665C127.372 238.142 129.255 237.19 133.256 236.538C136.555 237.279 139.22 239.51 140.492 240.18C145.362 242.041 148.651 235.467 148.85 234.022C149.366 230.267 143.522 222.285 139.557 220.415C132.914 217.28 129.658 215.524 118.228 216.87C116.131 217.871 117.693 219.487 118.876 219.968Z" fill="#F8CBA2"/>
<path d="M120.056 126.566C120.056 126.566 117.72 130.64 118.31 132.541C118.9 134.441 121.468 134.368 123.382 129.538C125.296 124.705 121.117 124.366 120.056 126.566Z" fill="#9A2124"/>
<path d="M126.675 183.825C125.828 182.435 119.974 179.543 114.673 174.982C106.181 189.401 103.659 194.323 95.0383 194.344C85.0603 194.369 87.4203 164.344 69.4698 164.769C65.0831 164.873 59.8312 176.84 61.2344 185.233C64.1171 202.455 85.363 215.322 96.5545 215.897C109.938 216.586 120.408 201.028 126.675 183.825Z" fill="#ECF3F9"/>
<path d="M141.709 179.472C141.431 178.322 140.248 177.523 138.615 177.165C140.865 175.815 142.18 174.003 141.749 172.427C141.37 171.034 139.734 170.165 137.552 169.969C139.545 168.696 140.679 167.086 140.297 165.693C139.918 164.301 138.12 163.493 135.751 163.407C142.776 160.046 153.038 154.158 150.376 149.056C149.404 147.198 132.761 156.567 126.064 159.704C123.56 160.509 121.573 160.095 121.585 156.224C121.237 151.195 119.876 148.502 117.651 147.106C116.119 146.148 113.793 159.759 112.39 167.472C111.925 168.785 111.653 170.217 111.574 171.879C111.253 178.631 114.123 184.382 119.204 186.616C121.857 187.782 126.709 187.92 135.415 185.11L135.51 185.092C139.45 184.137 142.223 181.621 141.703 179.472H141.709Z" fill="#F8CBA2"/>
<path d="M74.1318 82.5086C74.1318 82.5086 74.2663 82.4198 74.5078 82.1536C73.0466 82.2699 70.5429 81.9393 69.2254 78.7042C71.2277 80.9354 74.1715 80.7518 76.7608 80.1274C76.8678 80.0509 76.9717 79.9744 77.0818 79.9009C76.0913 79.5184 74.6882 78.4533 74.893 75.46C75.4677 77.6575 77.1521 78.6247 78.8885 78.8787C80.0195 78.3584 81.3004 77.9789 82.7402 77.8503C89.9791 77.2015 92.6387 84.4735 92.6387 84.4735C92.6387 84.4735 88.7319 79.8673 82.7402 80.4427C76.7486 81.0181 72.2182 85.4101 72.2182 85.4101H72.154C72.154 85.4101 67.1039 85.5692 65.9819 82.5117C67.541 85.0061 74.1288 82.5117 74.1288 82.5117L74.1318 82.5086Z" fill="#170B08"/>
<path d="M162.643 82.5086C162.643 82.5086 162.509 82.4198 162.267 82.1536C163.728 82.2699 166.232 81.9393 167.55 78.7042C165.547 80.9354 162.603 80.7518 160.014 80.1274C159.907 80.0509 159.803 79.9744 159.693 79.9009C160.681 79.5184 162.084 78.4533 161.882 75.46C161.307 77.6575 159.623 78.6247 157.886 78.8787C156.755 78.3584 155.475 77.9789 154.035 77.8503C146.796 77.2015 144.136 84.4735 144.136 84.4735C144.136 84.4735 148.043 79.8673 154.035 80.4427C160.026 81.0181 164.557 85.4101 164.557 85.4101H164.621C164.621 85.4101 169.671 85.5692 170.793 82.5117C169.234 85.0061 162.646 82.5117 162.646 82.5117L162.643 82.5086Z" fill="#170B08"/>
<path d="M113.297 27.3099C113.297 27.3099 119.53 47.9233 71.245 67.3797C71.245 67.3797 98.0515 51.7062 106.058 31.1081C106.058 31.1081 68.6037 87.2432 30.196 83.2216C-4.54639 79.5825 35.2431 8.75326 97.113 13.586C123.547 15.6519 113.3 27.3099 113.3 27.3099H113.297Z" fill="#1C0504"/>
<path d="M19.8359 82.7565C19.8359 82.7565 9.78456 66.7524 33.6931 42.1479C33.6931 42.1479 16.1522 66.8595 27.4232 75.013C27.4232 75.013 27.4446 62.1369 35.7535 55.1097C35.7535 55.1097 27.4446 76.9015 35.7535 78.1992C44.0623 79.4969 66.6319 72.6961 86.0283 55.226C86.0283 55.226 56.6601 86.1782 30.1959 86.4629L19.8328 82.7595L19.8359 82.7565Z" fill="#060001"/>
<path d="M120.144 62.6695C120.144 62.6695 129.777 43.2314 113.297 27.31C96.8167 11.3885 159.992 31.8213 166.268 46.5399C172.541 61.2585 168.362 76.7943 168.362 76.7943C168.362 76.7943 163.562 45.2239 131.324 34.4565C131.324 34.4565 137.282 47.2102 120.144 62.6695Z" fill="#1D1005"/>
<path d="M94.7651 49.1597C94.7651 49.1597 111.74 34.6768 106.999 26.1101C102.255 17.5434 112.908 27.4629 94.7651 49.1597Z" fill="#060001"/>
<path d="M120.144 62.6696C120.144 62.6696 129.484 41.0339 113.297 27.3101C113.297 27.3101 134.879 36.1277 120.144 62.6696Z" fill="#060001"/>
<path d="M168.096 72.8583C168.096 72.8583 167.304 40.6084 131.323 34.4565C131.323 34.4565 159.619 44.5811 168.096 72.8583Z" fill="#060001"/>
<path d="M101.298 16.1139C101.298 16.1139 59.8393 3.70307 35.243 34.4563C35.243 34.4563 56.1618 17.5555 84.9064 18.0911C84.9064 18.0911 49.9683 22.6515 47.376 61.8918C47.376 61.8918 60.5913 24.0226 101.298 16.1139Z" fill="#3E1107"/>
<path d="M104.049 14.4889C104.049 14.4889 88.4251 6.88934 77.3344 7.10664C77.3344 7.10664 89.0029 1.94335 94.7622 2.93194C100.525 3.92052 105.746 12.7076 105.746 12.7076C105.746 12.7076 108.803 6.44554 107.831 4.35819C107.831 4.35819 112.621 4.02764 116.653 7.54431C120.685 11.061 104.046 14.4858 104.046 14.4858L104.049 14.4889Z" fill="#3E1107"/>
<path d="M107.834 17.1027C107.834 17.1027 132.168 25.853 127.435 48.3915C127.435 48.3915 134.524 30.2236 122.452 21.5253C122.452 21.5253 143.915 22.4312 158.659 38.6587C158.659 38.6587 145.964 12.928 107.831 17.1027H107.834Z" fill="#3E1107"/>
<path d="M52.2314 73.8531C52.2314 73.8531 59.6903 72.941 63.8448 72.4268C67.9992 71.9126 72.3431 71.3984 76.1185 71.1689C79.8969 70.9393 84.3325 70.82 88.866 71.1567C93.3995 71.4903 98.688 71.781 103.503 72.3656C108.321 72.9502 112.57 73.5684 114.269 73.7919C115.786 73.9908 120.839 74.1897 123.248 74.1867V74.1806C123.312 74.1806 123.385 74.1836 123.459 74.1836C123.66 74.1836 123.841 74.1806 123.994 74.1744V74.1867C126.406 74.1836 131.456 73.9755 132.972 73.7735C134.672 73.5439 138.921 72.9196 143.735 72.3258C148.55 71.7321 153.839 71.4321 158.372 71.0893C162.906 70.7435 167.344 70.8536 171.12 71.0771C174.898 71.3005 179.242 71.8055 183.397 72.3105C187.551 72.8155 195.019 73.7092 195.019 73.7092C195.019 73.7092 195.258 76.9351 195.022 77.7278C194.787 78.5205 194.833 78.6889 194.411 79.1143C193.986 79.5397 192.1 80.816 191.109 81.4098C190.119 82.0066 190.073 82.4871 189.458 83.7328C188.847 84.9785 187.575 87.8096 186.585 89.4531C185.594 91.0967 184.228 94.0686 182.106 95.8529C179.985 97.6373 177.292 98.5187 174.036 99.3696C170.78 100.22 166.342 100.707 162.988 100.854C159.638 100.998 156.85 100.86 153.781 100.664C150.711 100.468 148.917 100.104 146.838 99.5685C144.76 99.0329 142.256 98.0443 139.657 96.5477C137.059 95.051 134.082 92.1955 132.947 90.9498C131.813 89.7072 130.694 88.1126 129.557 85.6059C128.42 83.0962 127.46 82.4106 126.895 81.9852C126.506 81.6944 124.953 81.6791 124.006 81.7005V81.722C124.006 81.722 123.884 81.7158 123.685 81.7097C123.425 81.7189 123.26 81.7281 123.26 81.7281V81.7005C122.312 81.6822 120.759 81.7005 120.371 81.9913C119.806 82.4167 118.846 83.1054 117.715 85.6151C116.584 88.1248 115.468 89.7194 114.337 90.9681C113.206 92.2138 110.234 95.0755 107.639 96.5783C105.043 98.0811 102.543 99.0727 100.464 99.6144C98.3885 100.153 96.594 100.523 93.5248 100.725C90.4556 100.927 87.6707 101.071 84.3172 100.934C80.9638 100.796 76.525 100.318 73.2663 99.4736C70.0076 98.6289 67.3144 97.7536 65.1898 95.9723C63.0622 94.191 61.6927 91.2222 60.6991 89.5817C59.7056 87.9412 58.4278 85.1131 57.8134 83.8675C57.1989 82.6218 57.15 82.1413 56.1595 81.5475C55.166 80.9537 53.2768 79.6836 52.8519 79.2581C52.427 78.8327 52.4728 78.6644 52.2375 77.8717C52.0021 77.079 52.2344 73.8531 52.2344 73.8531H52.2314ZM133.082 82.8483C133.4 84.5469 134.724 86.316 135.983 88.0514C138.395 91.3752 141.813 94.5675 147.208 96.3763C152.491 98.1453 158.849 98.6258 164.804 98.1974C170.661 97.775 176.5 96.11 179.588 92.9698C183.231 89.2603 184.21 84.8499 183.999 80.614C183.806 76.7423 179.141 74.9702 173.195 74.3213C168.347 73.7919 163.422 73.5072 158.494 73.4736C152.75 73.4338 146.906 73.7429 141.559 75.0069C138.884 75.6405 136.246 76.6107 134.488 78.0002C132.461 79.604 132.73 80.9752 133.079 82.8452L133.082 82.8483ZM63.2853 81.8628C63.6246 87.2372 65.3824 94.0594 74.1559 96.8415C76.8858 97.7077 79.955 98.13 83.0272 98.3228C89.9971 98.7575 97.4347 97.9311 102.879 95.2836C108.504 92.5505 113.386 87.2005 114.187 82.8666C115.434 76.121 103.842 74.0673 94.6712 73.6511C87.5882 73.3297 79.6401 73.4858 72.6977 74.4989C67.4275 75.2671 63.16 77.1463 63.2364 80.666C63.2456 81.0486 63.2609 81.4496 63.2853 81.8628Z" fill="#C1FF72"/>
</g>
<defs>
<clipPath id="clip0_278_11688">
<rect width="195.126" height="344" fill="white" transform="matrix(-1 0 0 1 195.126 0)"/>
</clipPath>
</defs>
</svg>
